<svg id="Layer_1" data-name="Layer 1" xmlns="http://www.w3.org/2000/svg" viewBox="0 0 2560 555.71"><defs><style>.cls-1{fill:#fff;}</style></defs><path class="cls-1" d="M166.07,187C106.18,187,66,226,66,284c0,58.23,38.7,95.86,98.59,95.86,25.78,0,43.32-10.11,55.38-19.7l.5,16.39h45.77V284C266.19,226,226,187,166.07,187ZM217.6,296.45c-4.06,22.05-25.45,38.67-49.77,38.67-30.54,0-50.27-20.05-50.27-51.08S137.29,233,167.83,233c24.3,0,50.27,13.42,50.27,51.08C218.1,285.05,217.94,294.57,217.6,296.45Z"/><path class="cls-1" d="M290.64,284V432.87h45.78l.5-72.67c12.05,9.59,29.59,19.7,55.37,19.7,59.9,0,98.6-37.63,98.6-95.86,0-58-40.24-97-100.12-97S290.64,226,290.64,284Zm48.1,0c0-37.66,26-51.08,50.27-51.08,30.54,0,50.27,20,50.27,51.08S419.55,335.12,389,335.12c-24.32,0-45.72-16.62-49.77-38.67C338.89,294.57,338.74,285.05,338.74,284Z"/><path class="cls-1" d="M615.46,187c-59.88,0-100.12,39-100.12,97,0,58.23,38.7,95.86,98.6,95.86,25.78,0,43.32-10.11,55.37-19.7l.5,16.39h45.78V284C715.59,226,675.35,187,615.46,187ZM667,296.45c-4,22.05-25.45,38.67-49.77,38.67C586.68,335.12,567,315.07,567,284S586.68,233,617.22,233c24.31,0,50.27,13.42,50.27,51.08C667.49,285.05,667.34,294.57,667,296.45Z"/><path class="cls-1" d="M940.28,282.88V134.05H894.51l-.5,72.67c-12-9.59-29.59-19.7-55.38-19.7C778.74,187,740,224.64,740,282.88c0,58,40.24,97,100.12,97S940.28,340.91,940.28,282.88Zm-48.09,0c0,37.66-26,51.08-50.27,51.08-30.54,0-50.27-20-50.27-51.08s19.73-51.08,50.27-51.08c24.32,0,45.71,16.62,49.77,38.67C892,272.35,892.19,281.87,892.19,282.88Z"/><path class="cls-1" d="M1010.43,214.92l-.5-19.5H964.74V379.9h50.14V286.19c0-1,.5-10.5.5-12.41,0-31.95,23.28-38.67,47.6-38.67,6.31,0,13.57,1,16.51,2.22V192.06C1055.55,189.36,1025.82,190.93,1010.43,214.92Z"/><path class="cls-1" d="M1156.58,195.71h-50.65V379.9h50.65Zm-24.87-61.87c-16.61,0-27.77,10.81-27.77,26.91s11.16,26.92,27.77,26.92,27.77-10.82,27.77-26.92S1148.32,133.84,1131.71,133.84Z"/><path class="cls-1" d="M1384.18,379.9V275.82c0-56.23-37-85.5-92.4-85.5-25.78,0-47.47,10.11-59.52,19.71l-.5-14.61h-47.82V379.9h50.14V286.19c0-1,.16-10.53.5-12.41,4.06-22,29.85-38.67,54.17-38.67,27.33,0,43.82,15.33,43.82,46.35V379.9Z"/><path class="cls-1" d="M1608.88,379.9V275.82c0-56.23-37.05-85.5-92.4-85.5-25.78,0-47.47,10.11-59.52,19.71l-.5-72.67h-47.83V379.9h50.15V286.19c0-1,.15-10.53.5-12.41,4.06-22,29.84-38.67,54.16-38.67,27.34,0,43.83,15.33,43.83,46.35V379.9Z"/><path class="cls-1" d="M1832.14,282.88c0-58-38.8-97-98.69-97s-100.12,39-100.12,97,40.24,97,100.12,97c46.47,0,81.09-23.48,94.28-61.1h-57.22c-7.73,9.87-18.76,15.16-37.06,15.16-23.1,0-41.35-12.36-47.49-32.64l144.72,0A115.48,115.48,0,0,0,1832.14,282.88Zm-98.69-51.08c18.67,0,39.43,8.55,46.69,31h-93.68C1693,243.49,1711,231.8,1733.45,231.8Z"/><rect class="cls-1" x="1856.6" y="262.81" width="120.41" height="38.6"/><path class="cls-1" d="M2221.62,190.32c-23.26,0-45.29,7.86-60.28,28.23-13.28-19.8-35.87-28.23-61.88-28.23-19.25,0-37.68,5.37-52,18.77l-.47-13.67h-45.57V379.9h50.15V267.16c.49-21.16,14.26-32.05,38.13-32.05,14.89,0,32.54,6.68,32.54,31.87V379.9h51.61V267c0-.7,0-1.37,0-2.06,1.39-19.7,15-29.81,38-29.81,14.89,0,32.54,6.68,32.54,31.87V379.9h51.61V267C2296.05,211.84,2263.19,190.32,2221.62,190.32Z"/><path class="cls-1" d="M2519.32,282.88c0-58-38.81-97-98.69-97s-100.13,39-100.13,97,40.24,97,100.13,97c46.46,0,81.08-23.48,94.27-61.1h-57.22c-7.73,9.87-18.75,15.16-37,15.16-23.11,0-41.36-12.36-47.49-32.64l144.72,0A116.66,116.66,0,0,0,2519.32,282.88Zm-98.69-51.08c18.66,0,39.42,8.55,46.68,31h-93.67C2380.16,243.49,2398.14,231.8,2420.63,231.8Z"/></svg>