<?xml version="1.0" encoding="utf-8"?>
<!-- Generator: Adobe Illustrator 26.0.0, SVG Export Plug-In . SVG Version: 6.00 Build 0)  -->
<svg version="1.1" id="Layer_1" xmlns="http://www.w3.org/2000/svg" xmlns:xlink="http://www.w3.org/1999/xlink" x="0px" y="0px"
	 viewBox="0 0 2560 2560" style="enable-background:new 0 0 2560 2560;" xml:space="preserve">
<style type="text/css">
	.st0{fill:url(#SVGID_1_);}
	.st1{fill:#FFFFFF;}
	.st2{display:none;fill:#FFFFFF;}
</style>
<g>
	
		<linearGradient id="SVGID_1_" gradientUnits="userSpaceOnUse" x1="28.3467" y1="246.7717" x2="2533.4648" y2="246.7717" gradientTransform="matrix(1 0 0 -1 0 1526.7717)">
		<stop  offset="0" style="stop-color:#D92588"/>
		<stop  offset="1" style="stop-color:#7630D9"/>
	</linearGradient>
	<path class="st0" d="M2503.7,1442.5c-17.1,34.2-51.3,68.4-96.9,102.6c-11.4,57-22.8,102.6-39.9,148.2
		c-22.8,57-51.3,102.6-79.8,136.8c108.3,91.2,131.1,176.7,131.1,239.5c0,325-575.9,490.3-1140.3,490.3S137.6,2389,137.6,2069.7
		c0-62.7,22.8-153.9,131.1-239.5c-22.8-34.2-57-79.8-79.8-136.8c-17.1-45.6-28.5-96.9-39.9-148.2c-45.6-28.5-74.1-62.7-96.9-102.6
		s-39.9-102.6-17.1-290.8c11.4-108.3,28.5-222.4,34.2-268c17.1-85.5,79.8-159.6,176.7-205.3c108.3-268,296.5-467.5,558.8-575.9
		C1015.6,5.7,1215.2,0,1272.2,0c5.7,0,11.4,0,11.4,0s5.7,0,11.4,0c57,0,250.9,5.7,467.5,102.6c262.3,114,450.4,313.6,558.8,581.6
		c96.9,45.6,159.6,119.7,176.7,205.3c11.4,45.6,28.5,159.6,34.2,268C2543.6,1345.6,2526.5,1408.3,2503.7,1442.5z"/>
	<path class="st1" d="M605.1,1528c-102.6-125.4-119.7-342.1-51.3-672.8c5.7-39.9,17.1-79.8,34.2-119.7
		c-62.7,85.5-108.3,193.9-136.8,313.6c-57,268-39.9,439,45.6,541.6c119.7,142.5,387.7,171,792.5,171c176.7,0,330.7-5.7,456.1-22.8
		c-51.3,0-102.6,0-153.9,0C1084,1739,747.6,1704.8,605.1,1528z"/>
	<path class="st1" d="M1494.5,735.5c39.9,11.4,74.1,39.9,79.8,79.8c5.7,28.5,17.1,45.6,22.8,45.6c5.7,0,17.1-17.1,22.8-45.6
		c11.4-39.9,39.9-74.1,79.8-79.8c28.5-5.7,45.6-17.1,45.6-22.8c0-11.4-17.1-17.1-45.6-22.8c-39.9-11.4-74.1-39.9-79.8-79.8
		c-5.7-28.5-17.1-45.6-22.8-45.6c-5.7,0-17.1,17.1-22.8,45.6c-11.4,39.9-39.9,74.1-79.8,79.8c-28.5,5.7-45.6,17.1-45.6,22.8
		C1448.9,718.4,1466,729.8,1494.5,735.5z"/>
	<path class="st1" d="M1882.2,815.3c-22.8-5.7-39.9-22.8-45.6-45.6c-5.7-17.1-5.7-22.8-11.4-22.8s-11.4,11.4-11.4,22.8
		c-5.7,22.8-22.8,39.9-45.6,45.6c-17.1,5.7-22.8,5.7-22.8,11.4c0,5.7,11.4,11.4,22.8,11.4c22.8,5.7,39.9,22.8,45.6,45.6
		c5.7,17.1,5.7,22.8,11.4,22.8s11.4-11.4,11.4-22.8c5.7-22.8,22.8-39.9,45.6-45.6c17.1-5.7,22.8-5.7,22.8-11.4
		C1905,821,1899.3,821,1882.2,815.3z"/>
	<path class="st2" d="M1101.1,1505.2c85.5,0,148.2-34.2,188.2-68.4v57h159.6v-319.3c0-199.6-136.8-336.4-342.1-336.4
		S764.7,975,764.7,1174.5C759,1379.8,890.2,1505.2,1101.1,1505.2z M1112.5,1003.5c85.5,0,171,45.6,171,176.7c0,5.7,0,34.2,0,45.6
		c-11.4,74.1-85.5,131.1-171,131.1c-102.6,0-171-68.4-171-176.7C935.8,1071.9,1004.2,1003.5,1112.5,1003.5z"/>
	<path class="st1" d="M2378.3,900.8c-17.1-79.8-108.3-125.4-153.9-136.8c-233.8-678.5-940.8-650-940.8-650l0,0l0,0
		c0,0-712.7-28.5-946.5,650c-39.9,11.4-136.8,51.3-153.9,136.8c-17.1,108.3-62.7,421.9-28.5,490.3c22.8,39.9,68.4,68.4,102.6,91.2
		c5.7,68.4,22.8,125.4,39.9,176.7c22.8,57,57,102.6,79.8,131.1c5.7,5.7,22.8,34.2,17.1,68.4s-34.2,51.3-39.9,51.3
		c-62.7,51.3-102.6,102.6-102.6,165.3c0,211,461.8,376.3,1032,376.3l0,0l0,0c570.2,0,1032-171,1032-376.3c0-57-34.2-114-102.6-165.3
		c-5.7-5.7-28.5-22.8-39.9-51.3c-11.4-39.9,11.4-68.4,17.1-68.4c22.8-28.5,57-74.1,79.8-131.1c17.1-51.3,34.2-108.3,39.9-176.7
		c34.2-17.1,79.8-51.3,102.6-91.2C2446.7,1322.8,2395.4,1009.2,2378.3,900.8z M1283.6,1830.2L1283.6,1830.2L1283.6,1830.2
		c-724.1,0-1043.4-85.5-900.8-792.5s900.8-684.2,900.8-684.2l0,0l0,0c0,0,752.6-28.5,900.8,678.5
		C2327,1739,2002,1830.2,1283.6,1830.2z"/>
</g>
</svg>
