<svg id="Layer_1" data-name="Layer 1" xmlns="http://www.w3.org/2000/svg" viewBox="0 0 32.34 28"><defs><style>.cls-1{fill:#add8e6;}</style></defs><path class="cls-1" d="M15.4,3.34c-.62-.35-1.26-.68-1.91-1A25.78,25.78,0,0,0,9.39.89,24,24,0,0,0,.69.11.77.77,0,0,0,0,.88V24a.82.82,0,0,0,.24.57.8.8,0,0,0,.59.19,23.83,23.83,0,0,1,7.76.55A27.44,27.44,0,0,1,15.4,28Z"/><path class="cls-1" d="M31.65.11A24.12,24.12,0,0,0,23,.88a27.08,27.08,0,0,0-4.12,1.49c-.64.29-1.28.62-1.91,1V28a27,27,0,0,1,6.82-2.65,23.77,23.77,0,0,1,7.75-.55.77.77,0,0,0,.59-.19.79.79,0,0,0,.25-.57V.88A.77.77,0,0,0,31.65.11Z"/></svg>