<svg id="Layer_1" data-name="Layer 1" xmlns="http://www.w3.org/2000/svg" viewBox="0 0 34.53 28"><defs><style>.cls-1{fill:#add8e6;}</style></defs><path class="cls-1" d="M7.47,28H2.61A2.66,2.66,0,0,1,0,25.34V14a2.66,2.66,0,0,1,2.66-2.66H7.47A2.66,2.66,0,0,1,10.12,14V25.34a2.73,2.73,0,0,1-.07.64A2.65,2.65,0,0,1,7.47,28ZM2.61,13.42A.58.58,0,0,0,2,14V25.34a.59.59,0,0,0,.59.59H7.47a.61.61,0,0,0,.58-.59V14A.59.59,0,0,0,8,13.69a.57.57,0,0,0-.49-.27ZM22.06,28c-.47,0-.93,0-1.4,0a42.19,42.19,0,0,1-8.29-1.45.91.91,0,0,1-.67-.42.89.89,0,0,1-.13-.56V14.33c0-.08,0-.19,0-.33a3,3,0,0,1,.06-.8,1.38,1.38,0,0,1,.41-.63,8.45,8.45,0,0,0,1.62-1.26,9.65,9.65,0,0,0,2-2.88l3-6.74A2.82,2.82,0,0,1,24,3.28l-.83,5a2.24,2.24,0,0,0,2.22,2.62h6.44a2.74,2.74,0,0,1,2.67,3.26l-1.91,9.54a4.26,4.26,0,0,1-3.22,3.35A32.3,32.3,0,0,1,22.06,28ZM13.8,24.56a.55.55,0,0,0,.41.22,57.39,57.39,0,0,0,6.57,1.06c5.48.55,6.89-.57,8.11-.84a2.15,2.15,0,0,0,1.6-1.7l1.91-9.54a.56.56,0,0,0-.13-.49.54.54,0,0,0-.46-.22H25.37A4.38,4.38,0,0,1,21.05,8l.84-5a.7.7,0,0,0-.5-.78h0a.69.69,0,0,0-.83.39L17.62,9.28a12.09,12.09,0,0,1-2.49,3.54,13,13,0,0,1-1.18,1,.47.47,0,0,0-.2.19.58.58,0,0,0-.06.3v9.83A.6.6,0,0,0,13.8,24.56Z"/></svg>