<svg id="Layer_1" data-name="Layer 1" xmlns="http://www.w3.org/2000/svg" viewBox="0 0 33.55 28"><defs><style>.cls-1{fill:#add8e6;fill-rule:evenodd;}</style></defs><g id="Icons"><g id="Rounded"><g id="Social"><g id="_-Round-_-Social-_-school" data-name="-Round-/-Social-/-school"><path id="_-Icon-Color" data-name="🔹-Icon-Color" class="cls-1" d="M4.67,15.89V20.4a3.22,3.22,0,0,0,1.67,2.82l8,4.38a3.18,3.18,0,0,0,3.08,0l8-4.38a3.22,3.22,0,0,0,1.67-2.82V15.89l-9.69,5.29a3.18,3.18,0,0,1-3.08,0ZM14.36.39.83,7.77a1.61,1.61,0,0,0,0,2.82L14.36,18a3.18,3.18,0,0,0,3.08,0l12.9-7v9.48a1.61,1.61,0,1,0,3.21,0V10.13a1.62,1.62,0,0,0-.83-1.42L17.44.39A3.24,3.24,0,0,0,14.36.39Z" style="fill: rgb(209, 25, 197);"></path></g></g></g></g></svg>