<svg id="Layer_1" data-name="Layer 1" xmlns="http://www.w3.org/2000/svg" viewBox="0 0 31.54 28"><defs><style>.cls-1{fill:#add8e6;}</style></defs><circle class="cls-1" cx="12.27" cy="6.08" r="6.08" transform="translate(-0.71 10.46) rotate(-45)"/><path class="cls-1" d="M12.27,15.05a13,13,0,0,0-12,8.09A3.53,3.53,0,0,0,3.53,28H21a3.53,3.53,0,0,0,3.27-4.86A13,13,0,0,0,12.27,15.05Z"/><path class="cls-1" d="M30.14,9.22H27.71V6.79a1.4,1.4,0,0,0-2.8,0V9.22H22.48a1.4,1.4,0,0,0,0,2.8h2.43v2.43a1.4,1.4,0,0,0,2.8,0V12h2.43a1.4,1.4,0,0,0,0-2.8Z"/></svg>