<svg id="Layer_1" data-name="Layer 1" xmlns="http://www.w3.org/2000/svg" viewBox="0 0 35.62 28"><defs><style>.cls-1{fill:#add8e6;}</style></defs><path class="cls-1" d="M12.36,13A6.51,6.51,0,1,0,5.84,6.51,6.52,6.52,0,0,0,12.36,13Z"/><path class="cls-1" d="M12.36,14.23A13,13,0,0,0,.3,22.35,4.11,4.11,0,0,0,4.1,28H20.62a4.11,4.11,0,0,0,3.79-5.65A13,13,0,0,0,12.36,14.23Z"/><path class="cls-1" d="M25.56,14.05a5.38,5.38,0,1,0-5.38-5.38A5.39,5.39,0,0,0,25.56,14.05Z"/><path class="cls-1" d="M35.37,21.33a10.54,10.54,0,0,0-9.81-6.61,10.42,10.42,0,0,0-3.83.72.79.79,0,0,0-.48.58.75.75,0,0,0,.27.7,14.24,14.24,0,0,1,4.11,6,3.69,3.69,0,0,1,0,2.39.72.72,0,0,0,.11.68.74.74,0,0,0,.61.31h5.8a3.44,3.44,0,0,0,3.18-4.73Z"/></svg>