<svg id="Layer_1" data-name="Layer 1" xmlns="http://www.w3.org/2000/svg" viewBox="0 0 32 28"><defs><style>.cls-1{fill:#add8e6;}</style></defs><path class="cls-1" d="M31.32.11a23.93,23.93,0,0,0-8.61.76,26.8,26.8,0,0,0-4.07,1.47A29,29,0,0,0,16,3.73a27.72,27.72,0,0,0-2.64-1.39A26.41,26.41,0,0,0,9.29.87,23.93,23.93,0,0,0,.68.11.76.76,0,0,0,0,.87V23.79a.8.8,0,0,0,.24.56.75.75,0,0,0,.59.18,23.3,23.3,0,0,1,7.67.56,27.13,27.13,0,0,1,7.07,2.77.07.07,0,0,0,0,0,.64.64,0,0,0,.19.08A.63.63,0,0,0,16,28l.17,0,.1,0,.1-.05h0l0,0a27,27,0,0,1,7.08-2.78,23.3,23.3,0,0,1,7.67-.56.74.74,0,0,0,.59-.18.8.8,0,0,0,.24-.56V.87A.76.76,0,0,0,31.32.11ZM15.24,26a28.35,28.35,0,0,0-6.39-2.37A25.47,25.47,0,0,0,1.52,23V1.56a22.52,22.52,0,0,1,7.37.77,24.87,24.87,0,0,1,3.84,1.39A25,25,0,0,1,15.24,5Zm15.24-3a25.47,25.47,0,0,0-7.33.64A28.5,28.5,0,0,0,16.76,26V5a25.31,25.31,0,0,1,6.35-2.71,22.25,22.25,0,0,1,7.37-.77Z"/><path class="cls-1" d="M16.53,27.77h0Z"/></svg>