<svg id="Layer_1" data-name="Layer 1" xmlns="http://www.w3.org/2000/svg" viewBox="0 0 25.28 28"><defs><style>.cls-1{fill:#add8e6;}</style></defs><path class="cls-1" d="M3.87,28a3.85,3.85,0,0,1-1.93-.52A3.82,3.82,0,0,1,0,24.13V3.88A3.81,3.81,0,0,1,1.94.53,3.76,3.76,0,0,1,5.8.53L23.35,10.66a3.86,3.86,0,0,1,0,6.69L5.81,27.48A4,4,0,0,1,3.87,28Zm0-26.56a2.42,2.42,0,0,0-1.21.33A2.4,2.4,0,0,0,1.44,3.88V24.13a2.38,2.38,0,0,0,1.21,2.1,2.44,2.44,0,0,0,2.45,0L22.63,16.11a2.44,2.44,0,0,0,0-4.21L5.08,1.77A2.4,2.4,0,0,0,3.87,1.44ZM9.93,21.13a2,2,0,0,1-2-1.63c-.48-2.59-.9-3-3.48-3.48a2.06,2.06,0,0,1,0-4c2.6-.47,3-.89,3.49-3.48a2.06,2.06,0,0,1,4,0c.47,2.6.89,3,3.48,3.49a2.06,2.06,0,0,1,0,4h0c-2.59.47-3,.89-3.48,3.47A2,2,0,0,1,9.93,21.13Zm0-12.82a.57.57,0,0,0-.61.47c-.57,3.17-1.44,4-4.63,4.62a.56.56,0,0,0-.45.6.57.57,0,0,0,.46.61c3.18.57,4.05,1.44,4.62,4.63a.57.57,0,0,0,.61.45.56.56,0,0,0,.6-.47c.58-3.17,1.44-4,4.62-4.62a.62.62,0,0,0,0-1.2c-3.18-.58-4-1.45-4.62-4.63A.56.56,0,0,0,9.93,8.31Z"/></svg>