<svg id="Layer_1" data-name="Layer 1" xmlns="http://www.w3.org/2000/svg" viewBox="0 0 22.82 28"><defs><style>.cls-1{fill:#add8e6;}</style></defs><path class="cls-1" d="M21.78,13a1,1,0,0,0-1,1V24.37a1.56,1.56,0,0,1-1.55,1.56H3.63a1.56,1.56,0,0,1-1.56-1.56V14A1,1,0,1,0,0,14V24.37A3.64,3.64,0,0,0,3.63,28H19.19a3.64,3.64,0,0,0,3.63-3.63V14A1,1,0,0,0,21.78,13Z"/><path class="cls-1" d="M7,7l3.41-3.41V17.89a1,1,0,1,0,2.08,0V3.54L15.86,7a1,1,0,0,0,.73.31,1,1,0,0,0,.74-1.77L12.14.3A1,1,0,0,0,11.8.08a1,1,0,0,0-.79,0,1.11,1.11,0,0,0-.34.22L5.49,5.49A1,1,0,0,0,5.49,7,1,1,0,0,0,7,7Z"/></svg>