<svg id="Layer_1" data-name="Layer 1" xmlns="http://www.w3.org/2000/svg" viewBox="0 0 28 28"><defs><style>.cls-1{fill:#add8e6;}</style></defs><path class="cls-1" d="M7.67,28a2,2,0,0,1-.79-.17A2,2,0,0,1,5.75,26l0-3.45a6.68,6.68,0,0,1-4.13-2.18A6.18,6.18,0,0,1,0,15.82v-9A6.71,6.71,0,0,1,6.61,0H21.39A6.71,6.71,0,0,1,28,6.78v9a6.85,6.85,0,0,1-.3,2,6.67,6.67,0,0,1-6.28,4.77H14.28L8.94,27.5A1.85,1.85,0,0,1,7.67,28ZM7.6,26Zm-.8-5.41h1l0,5.25,5.73-5.25h7.88A4.7,4.7,0,0,0,26,15.82v-9a4.66,4.66,0,0,0-4.59-4.71H6.61A4.66,4.66,0,0,0,2,6.78v9A4.1,4.1,0,0,0,3.16,19a4.79,4.79,0,0,0,3.07,1.53Z"/></svg>