<svg id="Layer_1" data-name="Layer 1" xmlns="http://www.w3.org/2000/svg" viewBox="0 0 28 28"><defs><style>.cls-1{fill:#add8e6;}</style></defs><path class="cls-1" d="M14,9.55A4.45,4.45,0,1,0,18.45,14,4.45,4.45,0,0,0,14,9.55Zm0,6.23A1.78,1.78,0,1,1,15.78,14,1.78,1.78,0,0,1,14,15.78Z"/><path class="cls-1" d="M26.41,11.42l-2.74-.74a11.24,11.24,0,0,0-.49-1.18l1.3-2.33a2.15,2.15,0,0,0-.34-2.6l-.71-.71a2.15,2.15,0,0,0-2.6-.34L18.5,4.82a11.24,11.24,0,0,0-1.18-.49l-.74-2.74A2.14,2.14,0,0,0,14.5,0h-1a2.14,2.14,0,0,0-2.08,1.59l-.74,2.74a11.24,11.24,0,0,0-1.18.49L7.17,3.52a2.15,2.15,0,0,0-2.6.34l-.71.71a2.15,2.15,0,0,0-.34,2.6L4.82,9.5a11.24,11.24,0,0,0-.49,1.18l-2.74.74A2.14,2.14,0,0,0,0,13.5v1a2.14,2.14,0,0,0,1.59,2.08l2.74.74a11.24,11.24,0,0,0,.49,1.18l-1.3,2.33a2.15,2.15,0,0,0,.34,2.6l.71.71a2.15,2.15,0,0,0,2.6.34l2.33-1.3a11.24,11.24,0,0,0,1.18.49l.74,2.74A2.14,2.14,0,0,0,13.5,28h1a2.14,2.14,0,0,0,2.08-1.59l.74-2.74a11.24,11.24,0,0,0,1.18-.49l2.33,1.3a2.15,2.15,0,0,0,2.6-.34l.71-.71a2.15,2.15,0,0,0,.34-2.6l-1.3-2.33a11.24,11.24,0,0,0,.49-1.18l2.74-.74A2.14,2.14,0,0,0,28,14.5v-1A2.14,2.14,0,0,0,26.41,11.42ZM14,20.06A6.06,6.06,0,1,1,20.06,14,6.06,6.06,0,0,1,14,20.06Z"/></svg>