<svg id="Layer_1" data-name="Layer 1" xmlns="http://www.w3.org/2000/svg" viewBox="0 0 19 28"><defs><style>.cls-1{fill:#add8e6;}</style></defs><path class="cls-1" d="M19,4.34V24.86a3.65,3.65,0,0,1-.39,1.65,2.9,2.9,0,0,1-1.12,1.18,2.31,2.31,0,0,1-1.56.27,2.49,2.49,0,0,1-1.38-.79L9.5,21.72l-5,5.45A2.41,2.41,0,0,1,2.67,28h0a2.36,2.36,0,0,1-1.15-.31A2.78,2.78,0,0,1,.39,26.51,3.55,3.55,0,0,1,0,24.86V4.34a4.79,4.79,0,0,1,1-3A3.39,3.39,0,0,1,3.63,0H15.37A3.39,3.39,0,0,1,18,1.32,4.79,4.79,0,0,1,19,4.34Z"/></svg>