<svg id="Layer_1" data-name="Layer 1" xmlns="http://www.w3.org/2000/svg" viewBox="0 0 28 28"><defs><style>.cls-1{fill:#add8e6;}</style></defs><path class="cls-1" d="M15.86,28a1.62,1.62,0,0,1-.77-.19l-3.72-1.94a1.82,1.82,0,0,1-1-1.62V15.43a.41.41,0,0,0-.08-.24L.41,3A1.87,1.87,0,0,1,.16,1,1.72,1.72,0,0,1,1.73,0H26.27a1.72,1.72,0,0,1,1.57,1A1.87,1.87,0,0,1,27.59,3L17.67,15.19a.41.41,0,0,0-.08.24V26.2a1.82,1.82,0,0,1-.82,1.53A1.67,1.67,0,0,1,15.86,28ZM1.73,1.44a.34.34,0,0,0-.32.21A.36.36,0,0,0,1.46,2l9.92,12.22a1.89,1.89,0,0,1,.41,1.17v8.82a.36.36,0,0,0,.19.33l3.72,1.94a.34.34,0,0,0,.35,0,.36.36,0,0,0,.16-.31V15.43a1.89,1.89,0,0,1,.41-1.17L26.54,2a.36.36,0,0,0,.05-.39.34.34,0,0,0-.32-.21Z"/></svg>