<svg id="Layer_1" data-name="Layer 1" xmlns="http://www.w3.org/2000/svg" viewBox="0 0 25 28"><defs><style>.cls-1{fill:#add8e6;}</style></defs><path class="cls-1" d="M12.5,13A6.49,6.49,0,1,1,19,6.49,6.5,6.5,0,0,1,12.5,13Zm0-11.54a5.05,5.05,0,1,0,5.05,5.05A5,5,0,0,0,12.5,1.44Z"/><path class="cls-1" d="M20.79,28H4.21A4.06,4.06,0,0,1,.45,22.4a13,13,0,0,1,24.1,0A4.06,4.06,0,0,1,20.79,28ZM12.5,15.72A11.52,11.52,0,0,0,1.78,22.94a2.62,2.62,0,0,0,2.43,3.62H20.79a2.62,2.62,0,0,0,2.43-3.62A11.52,11.52,0,0,0,12.5,15.72Z"/></svg>