<svg width="100" height="100" viewBox="0 0 160 80" fill="none" xmlns="http://www.w3.org/2000/svg">
<path d="M42.3594 51.546C42.3594 52.137 42.4907 52.6623 42.6877 53.1876C42.8847 53.7129 43.3444 54.3696 44.001 55.0263C44.395 55.4203 44.8547 55.9456 45.4457 56.4709C45.4457 56.4709 45.5113 56.4709 45.5113 56.4052V48C44.7233 48.1313 44.001 48.394 43.5414 48.8537C42.7534 49.6416 42.3594 50.4953 42.3594 51.546Z" fill="#412664"/>
<path d="M39.07 68.0225C38.6103 68.8762 38.3477 69.7955 38.3477 70.7805C38.3477 71.6998 38.6103 72.5535 39.2013 73.3415C39.7923 74.0638 40.5803 74.6548 41.631 75.1145C42.6816 75.5084 43.9293 75.7054 45.3739 75.7054H45.4396V66.5779L43.2069 64.4766C42.5503 64.8706 41.9593 65.1989 41.434 65.5929C40.3833 66.3809 39.5953 67.1689 39.07 68.0225Z" fill="#412664"/>
<path d="M0 3.6773V11.9512C0 13.9869 1.64165 15.6285 3.6773 15.6285H22.7861C24.8218 15.6285 26.4634 17.2702 26.4634 19.3058V78.9305C26.4634 80.9662 28.1051 82.6079 30.1407 82.6079H44.8499C41.9606 82.6079 39.3996 82.1482 37.167 81.2289C35.788 80.6379 34.5403 79.9155 33.4897 79.0619C30.4034 76.5666 29.1557 72.2326 30.272 68.424C30.469 67.7673 30.7317 67.1107 31.06 66.5197C31.9137 64.9437 33.2927 63.499 35.197 62.1201C36.182 61.3977 37.2983 60.7411 38.546 60.0187C37.8236 59.2964 37.167 58.5741 36.7073 57.9174C35.9193 56.8668 35.3283 55.8161 35 54.8311C34.6717 53.8461 34.4747 52.7955 34.4747 51.6792C34.4747 49.7748 35 48.0675 35.985 46.6229C36.97 45.1782 38.4146 43.9962 40.2533 43.2082C41.7636 42.5516 43.6022 42.2233 45.5722 42.0919V19.3058C45.5722 17.2702 47.2139 15.6285 49.2495 15.6285H68.3583C70.394 15.6285 72.0356 13.9869 72.0356 11.9512V3.6773C72.0356 1.64165 70.394 0 68.3583 0H3.61163C1.64165 0.065666 0 1.70732 0 3.6773Z" fill="#412664"/>
<path d="M65.4046 67.4425C66.1269 65.4725 65.0106 63.3056 63.0406 62.7146L59.429 61.5982C58.9694 63.8966 58.247 65.8665 57.3934 67.7052L50.2358 61.0072C51.2208 60.4819 52.1401 59.9566 52.8624 59.4313C54.6354 58.2493 55.883 56.936 56.7367 55.557C57.5904 54.178 57.9844 52.6677 57.9844 51.026C57.9844 49.1217 57.5247 47.5457 56.5397 46.1667C55.5547 44.7877 54.2414 43.8028 52.5997 43.0148C50.9581 42.2924 48.9224 41.8984 46.6898 41.8984C46.2958 41.8984 45.9018 41.9641 45.5078 42.0298V48.071C45.9018 48.0054 46.2301 47.874 46.6898 47.874C47.9375 47.874 48.9225 48.2024 49.5791 48.7934C50.2358 49.3844 50.5641 50.1724 50.5641 51.1573C50.5641 51.8797 50.3014 52.602 49.8418 53.2587C49.3821 53.981 48.5285 54.7033 47.2808 55.4256C46.7555 55.754 46.1645 56.0823 45.5078 56.4106V64.9472C45.5078 65.9322 45.9018 66.9172 46.6898 67.6395L52.7967 73.2868C52.4684 73.5495 52.1401 73.8778 51.7461 74.0748C49.8418 75.1254 47.8061 75.6508 45.5078 75.6508V82.48C48.9224 82.4144 52.0088 81.6264 54.7667 80.1817C55.883 79.5907 56.9337 78.8027 57.9187 78.0147L62.7123 82.48L67.5059 76.8984L62.8436 72.5645C63.8943 71.0541 64.748 69.3468 65.4046 67.4425Z" fill="#412664"/>
<path d="M120.893 64.484C117.544 66.06 113.932 66.848 109.927 66.848C106.184 66.848 102.769 66.257 99.683 65.0094C96.5967 63.8274 93.9044 62.0544 91.606 59.7561C89.3077 57.4578 87.5348 54.7655 86.2871 51.6792C85.0394 48.5929 84.3828 45.1126 84.3828 41.3039C84.3828 37.4953 85.0394 34.0807 86.2871 30.9287C87.5348 27.8424 89.3077 25.0844 91.606 22.8518C93.9044 20.5535 96.5967 18.8461 99.683 17.5985C102.769 16.4165 106.25 15.7598 109.927 15.7598C113.867 15.7598 117.544 16.5478 120.893 18.1238C122.535 18.9118 124.111 19.8311 125.621 21.0131C128.51 23.1801 132.582 22.7861 135.208 20.3565L135.799 19.7655C139.345 16.4822 139.083 10.7692 135.208 7.87992C132.91 6.1726 130.415 4.79362 127.722 3.61163C122.141 1.24766 115.902 0 108.942 0C102.704 0 96.9907 0.98499 91.7374 3.02064C86.4841 5.05628 81.8875 7.87992 78.0132 11.6229C74.0732 15.3658 71.0526 19.6998 68.8856 24.7561C66.7186 29.7467 65.668 35.2626 65.668 41.3039C65.668 47.2795 66.7186 52.7955 68.8856 57.8518C71.0526 62.8424 74.0732 67.242 77.9475 70.985C81.8218 74.7279 86.4184 77.5516 91.6717 79.5872C96.925 81.6229 102.704 82.6079 108.811 82.6079C115.771 82.6079 122.075 81.3602 127.657 78.9305C130.349 77.7486 132.844 76.3039 135.143 74.5966C139.017 71.7073 139.214 65.9943 135.734 62.711L135.143 62.1857C132.45 59.7561 128.379 59.2964 125.49 61.5291C124.111 62.7767 122.535 63.696 120.893 64.484Z" fill="#412664"/>
<path d="M109.86 52.2712C103.819 52.2712 98.8936 47.3462 98.8936 41.3049C98.8936 35.2637 103.819 30.3387 109.86 30.3387H126.867C123.256 24.6258 116.886 20.8828 109.597 20.8828C98.3026 20.8828 89.1094 30.0761 89.1094 41.3706C89.1094 52.6652 98.3026 61.8584 109.597 61.8584C116.82 61.8584 123.19 58.0498 126.867 52.4025H109.86V52.2712Z" fill="#412664"/>
</svg>
