<?xml version="1.0" encoding="utf-8"?>
<!-- Generator: Adobe Illustrator 26.0.0, SVG Export Plug-In . SVG Version: 6.00 Build 0)  -->
<svg version="1.1" id="Layer_1" xmlns="http://www.w3.org/2000/svg" xmlns:xlink="http://www.w3.org/1999/xlink" x="0px" y="0px"
	 viewBox="0 0 1000 1000" style="enable-background:new 0 0 1000 1000;" xml:space="preserve">
<style type="text/css">
	.st0{fill:url(#SVGID_1_);}
	.st1{fill:#FFFFFF;}
</style>
<linearGradient id="SVGID_1_" gradientUnits="userSpaceOnUse" x1="74.6409" y1="925.3591" x2="925.3591" y2="74.6409">
	<stop  offset="0" style="stop-color:#D92588"/>
	<stop  offset="1" style="stop-color:#7630D9"/>
</linearGradient>
<path class="st0" d="M745.2,1000H254.8C114.1,1000,0,885.9,0,745.2V254.8C0,114.1,114.1,0,254.8,0h490.3
	C885.9,0,1000,114.1,1000,254.8v490.3C1000,885.9,885.9,1000,745.2,1000z"/>
<g>
	<path class="st1" d="M651.9,652.9c-41.8,6.2-92.6,8-151.9,8c-134.8,0-226.2-9.7-265.4-57.7c-28.3-34.6-32.9-92.6-14.5-182.2
		c8.3-40.5,23.3-75.4,45.1-104.7c-4.3,13.4-7.9,27-10.8,40.8c-22.6,110.7-17,182.2,17.9,224.9c48.4,59.3,161.2,71.2,327.6,71.2
		C617.9,653.3,635.2,653.2,651.9,652.9z"/>
	<path class="st1" d="M657.1,307.5c0,3.3-5.7,6.2-14.8,8.4c-13.7,3.2-24.3,13.8-27.5,27.5c-2.1,9.1-5.1,14.8-8.4,14.8
		c-3.3,0-6.2-5.7-8.4-14.8c-3.2-13.7-13.8-24.3-27.5-27.5c-9.1-2.1-14.8-5.1-14.8-8.4s5.7-6.2,14.8-8.4
		c13.7-3.2,24.3-13.8,27.5-27.5c2.1-9.1,5.1-14.8,8.4-14.8c3.3,0,6.2,5.7,8.4,14.8c3.2,13.7,13.8,24.3,27.5,27.5
		C651.5,301.2,657.1,304.2,657.1,307.5z"/>
	<path class="st1" d="M709.3,348.4c0,1.8-3.1,3.4-8,4.6c-7.4,1.7-13.2,7.5-14.9,14.9c-1.2,4.9-2.7,8-4.6,8s-3.4-3.1-4.6-8
		c-1.7-7.4-7.5-13.2-14.9-14.9c-4.9-1.2-8-2.7-8-4.6c0-1.8,3.1-3.4,8-4.6c7.4-1.7,13.2-7.5,14.9-14.9c1.2-4.9,2.7-8,4.6-8
		s3.4,3.1,4.6,8c1.7,7.4,7.5,13.2,14.9,14.9C706.3,345,709.3,346.7,709.3,348.4z"/>
	<path class="st1" d="M867.7,372.4c-5-27.8-37.1-41.3-51-45.9C738.2,98.2,500,107.5,500,107.5s-1.3-0.1-3.9-0.1
		c-31.2,0-240.3,7.9-312.8,219.1c-13.9,4.6-46,18.1-51,45.9c-6.4,35.7-21.8,141.8-9.7,163.7c7.3,13.1,22.7,23.6,33.8,29.9
		c2.2,22.4,6.7,41.9,13.3,59c7.7,19.8,18.4,34.3,26.6,44.2c1,1.5,7.8,11.1,4.9,23.6c-1.7,7.4-6.3,13.9-12.6,18.1
		c-21.7,16.6-33.8,35.2-33.8,54.8c0,70,154.5,126.9,345.2,126.9c95.3,0,181.6-14.2,244.1-37.2c62.5-23,101.1-54.7,101.1-89.7
		c0-19.6-12.2-38.2-33.8-54.9c-6.4-4.2-10.9-10.7-12.6-18.1c-2.8-12.6,3.8-22.2,4.9-23.6c8.2-10,18.9-24.5,26.6-44.2
		c6.7-17.1,11.1-36.7,13.3-59c11.2-6.3,26.6-16.8,33.8-29.9C889.6,514.1,874.2,408.1,867.7,372.4z M500,682.8
		c-242,0-349.7-29.6-301.3-266.2S500,188.9,500,188.9s1.3-0.1,3.5-0.1c30.8,0,252.8,7.7,297.8,227.8
		C849.7,653.3,741.9,682.8,500,682.8z"/>
	<path class="st1" d="M570.7,299.1c13.7-3.2,24.3-13.8,27.5-27.5c2.1-9.1,5.1-14.8,8.4-14.8c3.3,0,6.2,5.7,8.4,14.8
		c3.2,13.7,13.8,24.3,27.5,27.5c9.1,2.1,14.8,5.1,14.8,8.4s-5.7,6.2-14.8,8.4c-13.7,3.2-24.3,13.8-27.5,27.5
		c-2.1,9.1-5.1,14.8-8.4,14.8c-3.3,0-6.2-5.7-8.4-14.8c-3.2-13.7-13.8-24.3-27.5-27.5c-9.1-2.1-14.8-5.1-14.8-8.4
		S561.6,301.2,570.7,299.1z M500,660.9c-134.8,0-226.2-9.7-265.4-57.7c-28.3-34.6-32.9-92.6-14.5-182.2
		c8.3-40.5,23.3-75.4,45.1-104.7c-4.3,13.4-7.9,27-10.8,40.8c-22.6,110.7-17,182.2,17.9,224.9c48.4,59.3,161.2,71.2,327.6,71.2
		c18,0,35.3-0.2,52-0.5C610.2,659.1,559.3,660.9,500,660.9z M701.3,352.9c-7.4,1.7-13.2,7.5-14.9,14.9c-1.2,4.9-2.7,8-4.6,8
		s-3.4-3.1-4.6-8c-1.7-7.4-7.5-13.2-14.9-14.9c-4.9-1.2-8-2.7-8-4.6c0-1.8,3.1-3.4,8-4.6c7.4-1.7,13.2-7.5,14.9-14.9
		c1.2-4.9,2.7-8,4.6-8s3.4,3.1,4.6,8c1.7,7.4,7.5,13.2,14.9,14.9c4.9,1.2,8,2.7,8,4.6C709.3,350.2,706.3,351.8,701.3,352.9z"/>
</g>
</svg>
