<?xml version="1.0" encoding="utf-8"?>
<!-- Generator: Adobe Illustrator 26.0.0, SVG Export Plug-In . SVG Version: 6.00 Build 0)  -->
<svg version="1.1" id="Layer_1" xmlns="http://www.w3.org/2000/svg" xmlns:xlink="http://www.w3.org/1999/xlink" x="0px" y="0px"
	 viewBox="0 0 269.2 45" style="enable-background:new 0 0 269.2 45;" xml:space="preserve">
<style type="text/css">
	.st0{fill:url(#SVGID_1_);}
	.st1{fill:#FFFFFF;}
	.st2{display:none;fill:#FFFFFF;}
</style>
<g>
	
		<linearGradient id="SVGID_1_" gradientUnits="userSpaceOnUse" x1="-0.0155" y1="24.2717" x2="43.922" y2="24.2717" gradientTransform="matrix(1 0 0 -1 0 46.7717)">
		<stop  offset="0" style="stop-color:#D92588"/>
		<stop  offset="1" style="stop-color:#7630D9"/>
	</linearGradient>
	<path class="st0" d="M43.44,25.34c-0.35,0.64-0.91,1.23-1.66,1.77c-0.15,0.96-0.39,1.84-0.7,2.64c-0.4,1.04-0.93,1.84-1.37,2.42
		C41.6,33.72,42,35.31,42,36.4c0,5.65-10.08,8.6-20.04,8.6S1.92,42.04,1.92,36.4c0-1.08,0.4-2.68,2.28-4.22
		c-0.44-0.58-0.96-1.38-1.37-2.42c-0.31-0.8-0.54-1.68-0.7-2.64c-0.75-0.54-1.3-1.13-1.66-1.77C0.1,24.69-0.2,23.6,0.12,20.2
		c0.18-1.91,0.49-3.87,0.64-4.72c0.27-1.5,1.37-2.76,3.06-3.55c1.85-4.69,5.2-8.19,9.76-10.17C17.34,0.13,20.79,0,21.76,0
		c0.09,0,0.16,0,0.2,0s0.12,0,0.2,0c0.97,0,4.42,0.13,8.16,1.75c4.56,1.98,7.91,5.49,9.76,10.17c1.69,0.79,2.79,2.05,3.06,3.55
		c0.15,0.85,0.46,2.81,0.64,4.72C44.11,23.59,43.81,24.67,43.44,25.34z"/>
	<path class="st1" d="M10.05,26.8c-1.83-2.24-2.12-5.98-0.94-11.77c0.15-0.74,0.34-1.45,0.56-2.13c-1.14,1.53-1.93,3.36-2.36,5.47
		c-0.96,4.69-0.72,7.72,0.76,9.53c2.05,2.51,6.84,3.02,13.89,3.02c3.1,0,5.77-0.1,7.95-0.42c-0.87,0.02-1.78,0.02-2.72,0.02
		C18.49,30.52,12.58,29.9,10.05,26.8z"/>
	<path class="st1" d="M25.66,12.87c0.71,0.17,1.27,0.72,1.44,1.44c0.11,0.48,0.27,0.77,0.44,0.77s0.33-0.29,0.44-0.77
		c0.17-0.71,0.72-1.27,1.44-1.44c0.48-0.11,0.77-0.27,0.77-0.44c0-0.17-0.29-0.33-0.77-0.44c-0.71-0.17-1.27-0.72-1.44-1.44
		c-0.11-0.48-0.27-0.77-0.44-0.77s-0.33,0.29-0.44,0.77c-0.17,0.71-0.72,1.27-1.44,1.44c-0.48,0.11-0.77,0.27-0.77,0.44
		C24.89,12.6,25.19,12.75,25.66,12.87z"/>
	<path class="st1" d="M32.5,14.33c-0.39-0.09-0.69-0.39-0.78-0.78c-0.06-0.26-0.15-0.42-0.24-0.42s-0.18,0.16-0.24,0.42
		c-0.09,0.39-0.39,0.69-0.78,0.78c-0.26,0.06-0.42,0.15-0.42,0.24s0.16,0.18,0.42,0.24c0.39,0.09,0.69,0.39,0.78,0.78
		c0.06,0.26,0.15,0.42,0.24,0.42s0.18-0.16,0.24-0.42c0.09-0.39,0.39-0.69,0.78-0.78c0.26-0.06,0.42-0.15,0.42-0.24
		S32.76,14.39,32.5,14.33z"/>
	<path class="st2" d="M18.76,26.43c1.55,0,2.61-0.61,3.34-1.19l0.03,0.99h2.76v-5.58c0-3.5-2.43-5.85-6.04-5.85
		s-6.04,2.35-6.04,5.85C12.82,24.17,15.15,26.43,18.76,26.43z M18.96,17.58c1.47,0,3.03,0.81,3.03,3.08c0,0.06-0.01,0.63-0.03,0.75
		c-0.24,1.33-1.53,2.33-3,2.33c-1.84,0-3.03-1.21-3.03-3.08C15.93,18.79,17.12,17.58,18.96,17.58z"/>
	<path class="st1" d="M41.21,15.82c-0.26-1.45-1.94-2.16-2.67-2.4C34.43,1.48,21.96,1.97,21.96,1.97l0,0l0,0
		c0,0-12.47-0.49-16.58,11.45c-0.73,0.24-2.41,0.95-2.67,2.4c-0.34,1.86-1.14,7.42-0.51,8.56c0.38,0.68,1.19,1.23,1.77,1.56
		c0.12,1.17,0.35,2.19,0.7,3.09c0.4,1.03,0.96,1.79,1.39,2.31c0.06,0.08,0.41,0.58,0.26,1.24c-0.13,0.59-0.57,0.88-0.66,0.94
		c-1.13,0.87-1.77,1.84-1.77,2.87c0,3.67,8.09,6.64,18.07,6.64l0,0l0,0c9.98,0,18.07-2.97,18.07-6.64c0-1.03-0.64-2-1.77-2.87
		c-0.09-0.06-0.53-0.36-0.66-0.94c-0.15-0.66,0.2-1.16,0.26-1.24c0.43-0.52,0.99-1.28,1.39-2.31c0.35-0.89,0.58-1.92,0.7-3.09
		c0.59-0.33,1.39-0.88,1.77-1.56C42.36,23.24,41.55,17.69,41.21,15.82z M21.96,32.06L21.96,32.06L21.96,32.06
		c-12.67,0-18.31-1.55-15.78-13.92C8.72,5.76,21.96,6.23,21.96,6.23l0,0l0,0c0,0,13.24-0.46,15.78,11.91
		C40.27,30.51,34.63,32.06,21.96,32.06z"/>
	<g>
		<g>
			<path class="st1" d="M60.65,14.04c-5.26,0-8.79,3.42-8.79,8.52c0,5.11,3.4,8.42,8.66,8.42c2.26,0,3.8-0.89,4.86-1.73l0.04,1.44
				h4.02v-8.12C69.44,17.47,65.91,14.04,60.65,14.04z M65.17,23.65c-0.36,1.94-2.23,3.39-4.37,3.39c-2.68,0-4.41-1.76-4.41-4.48
				s1.73-4.48,4.41-4.48c2.13,0,4.41,1.18,4.41,4.48C65.22,22.65,65.2,23.48,65.17,23.65z"/>
			<path class="st1" d="M71.59,22.56v13.06h4.02l0.04-6.38c1.06,0.84,2.6,1.73,4.86,1.73c5.26,0,8.66-3.3,8.66-8.42
				c0-5.09-3.53-8.52-8.79-8.52C75.12,14.04,71.59,17.47,71.59,22.56z M75.81,22.56c0-3.31,2.28-4.48,4.41-4.48
				c2.68,0,4.41,1.76,4.41,4.48s-1.73,4.48-4.41,4.48c-2.13,0-4.01-1.46-4.37-3.39C75.82,23.48,75.81,22.65,75.81,22.56z"/>
			<path class="st1" d="M100.1,14.04c-5.26,0-8.79,3.42-8.79,8.52c0,5.11,3.4,8.42,8.66,8.42c2.26,0,3.8-0.89,4.86-1.73l0.04,1.44
				h4.02v-8.12C108.89,17.47,105.36,14.04,100.1,14.04z M104.62,23.65c-0.36,1.94-2.23,3.39-4.37,3.39c-2.68,0-4.41-1.76-4.41-4.48
				s1.73-4.48,4.41-4.48c2.13,0,4.41,1.18,4.41,4.48C104.67,22.65,104.66,23.48,104.62,23.65z"/>
			<path class="st1" d="M128.62,22.46V9.39h-4.02l-0.04,6.38c-1.06-0.84-2.6-1.73-4.86-1.73c-5.26,0-8.66,3.3-8.66,8.42
				c0,5.09,3.53,8.52,8.79,8.52S128.62,27.55,128.62,22.46z M124.39,22.46c0,3.31-2.28,4.48-4.41,4.48c-2.68,0-4.41-1.76-4.41-4.48
				s1.73-4.48,4.41-4.48c2.13,0,4.01,1.46,4.37,3.39C124.38,21.53,124.39,22.37,124.39,22.46z"/>
			<path class="st1" d="M134.77,16.49l-0.04-1.71h-3.97v7.01v9.18h4.4v-8.23c0-0.09,0.04-0.92,0.04-1.09c0-2.8,2.04-3.39,4.18-3.39
				c0.55,0,1.19,0.09,1.45,0.2v-3.97C138.73,14.25,136.12,14.39,134.77,16.49z"/>
			<path class="st1" d="M147.6,14.81h-4.45v16.17h4.45V14.81z M145.42,9.37c-1.46,0-2.44,0.95-2.44,2.36s0.98,2.36,2.44,2.36
				s2.44-0.95,2.44-2.36S146.88,9.37,145.42,9.37z"/>
			<path class="st1" d="M167.58,30.98v-9.14c0-4.94-3.25-7.51-8.11-7.51c-2.26,0-4.17,0.89-5.23,1.73l-0.04-1.28H150v7.01v9.18h4.4
				v-8.23c0-0.09,0.01-0.92,0.04-1.09c0.36-1.94,2.62-3.39,4.75-3.39c2.4,0,3.85,1.35,3.85,4.07v8.64L167.58,30.98L167.58,30.98z"/>
			<path class="st1" d="M187.31,30.98v-9.14c0-4.94-3.25-7.51-8.11-7.51c-2.26,0-4.17,0.89-5.23,1.73l-0.04-6.38h-4.2v12.11v9.18
				h4.4v-8.23c0-0.09,0.01-0.92,0.04-1.09c0.36-1.94,2.62-3.39,4.75-3.39c2.4,0,3.85,1.35,3.85,4.07v8.64L187.31,30.98L187.31,30.98
				z"/>
			<path class="st1" d="M206.91,22.46c0-5.09-3.41-8.52-8.66-8.52s-8.79,3.42-8.79,8.52c0,5.09,3.53,8.52,8.79,8.52
				c4.08,0,7.12-2.06,8.28-5.36h-5.02c-0.68,0.87-1.65,1.33-3.25,1.33c-2.03,0-3.63-1.08-4.17-2.86h12.7
				C206.86,23.56,206.91,23.02,206.91,22.46z M198.24,17.97c1.64,0,3.46,0.75,4.1,2.72h-8.22C194.69,19,196.27,17.97,198.24,17.97z"
				/>
			<rect x="209.05" y="20.7" class="st1" width="10.57" height="3.39"/>
			<path class="st1" d="M241.1,14.33c-2.04,0-3.98,0.69-5.29,2.48c-1.17-1.74-3.15-2.48-5.43-2.48c-1.69,0-3.31,0.47-4.56,1.65
				l-0.04-1.2h-4v7.97v8.23h4.4v-8.23v-1.67c0.04-1.86,1.25-2.81,3.35-2.81c1.31,0,2.86,0.59,2.86,2.8v9.91h4.53v-9.91
				c0-0.06,0-0.12,0-0.18c0.12-1.73,1.32-2.62,3.34-2.62c1.31,0,2.86,0.59,2.86,2.8v9.91h4.53v-9.91
				C247.63,16.22,244.75,14.33,241.1,14.33z"/>
			<path class="st1" d="M267.23,22.46c0-5.09-3.41-8.52-8.66-8.52c-5.26,0-8.79,3.42-8.79,8.52c0,5.09,3.53,8.52,8.79,8.52
				c4.08,0,7.12-2.06,8.28-5.36h-5.02c-0.68,0.87-1.65,1.33-3.25,1.33c-2.03,0-3.63-1.08-4.17-2.86h12.7
				C267.19,23.56,267.23,23.02,267.23,22.46z M258.57,17.97c1.64,0,3.46,0.75,4.1,2.72h-8.22C255.02,19,256.59,17.97,258.57,17.97z"
				/>
		</g>
	</g>
</g>
</svg>
