<?xml version="1.0" encoding="utf-8"?>
<!-- Generator: Adobe Illustrator 26.2.1, SVG Export Plug-In . SVG Version: 6.00 Build 0)  -->
<svg version="1.1" id="Layer_1" xmlns="http://www.w3.org/2000/svg" xmlns:xlink="http://www.w3.org/1999/xlink" x="0px" y="0px"
	 viewBox="0 0 1000 1000" style="enable-background:new 0 0 1000 1000;" xml:space="preserve">
<style type="text/css">
	.st0{fill:#FFFFFF;}
</style>
<g>
	<path class="st0" d="M693.5,694.7c-53.2,7.9-118,10.2-193.5,10.2c-171.7,0-288.1-12.3-338-73.5c-36-44.1-41.9-117.9-18.5-232.1
		c10.6-51.6,29.7-96,57.4-133.3c-5.5,17.1-10.1,34.4-13.7,52c-28.8,141-21.6,232,22.8,286.5c61.6,75.5,205.3,90.7,417.3,90.7
		C650.2,695.3,672.2,695.1,693.5,694.7z"/>
	<path class="st0" d="M700.1,254.8c0,4.2-7.2,7.9-18.8,10.7c-17.4,4.1-30.9,17.6-35,35c-2.7,11.6-6.5,18.8-10.7,18.8
		c-4.2,0-7.9-7.2-10.7-18.8c-4.1-17.4-17.6-30.9-35-35c-11.6-2.7-18.8-6.5-18.8-10.7c0-4.2,7.2-7.9,18.8-10.7
		c17.4-4.1,30.9-17.6,35-35c2.7-11.6,6.5-18.8,10.7-18.8c4.2,0,7.9,7.2,10.7,18.8c4.1,17.4,17.6,30.9,35,35
		C692.9,246.8,700.1,250.6,700.1,254.8z"/>
	<path class="st0" d="M766.6,306.9c0,2.3-3.9,4.3-10.2,5.8c-9.4,2.2-16.8,9.6-19,19c-1.5,6.3-3.5,10.2-5.8,10.2
		c-2.3,0-4.3-3.9-5.8-10.2c-2.2-9.4-9.6-16.8-19-19c-6.3-1.5-10.2-3.5-10.2-5.8c0-2.3,3.9-4.3,10.2-5.8c9.4-2.2,16.8-9.6,19-19
		c1.5-6.3,3.5-10.2,5.8-10.2s4.3,3.9,5.8,10.2c2.2,9.4,9.6,16.8,19,19C762.7,302.6,766.6,304.7,766.6,306.9z"/>
	<path class="st0" d="M968.3,337.5c-6.4-35.4-47.2-52.6-65-58.5C803.4-11.8,500,0.1,500,0.1S498.3,0,495,0
		C455.3,0,189,10.1,96.6,279c-17.7,5.9-58.6,23.1-65,58.4C23.4,382.9,3.8,518,19.3,545.9c9.3,16.7,28.9,30,43.1,38.1
		c2.8,28.5,8.5,53.4,16.9,75.2c9.8,25.2,23.4,43.7,33.9,56.3c1.3,1.9,9.9,14.1,6.3,30.1c-2.2,9.4-8,17.7-16.1,23
		c-27.6,21.1-43,44.8-43,69.8c0,89.2,196.8,161.6,439.6,161.6c121.4,0,231.3-18.1,310.9-47.4c79.6-29.3,128.8-69.7,128.8-114.3
		c0-25-15.5-48.7-43-69.9c-8.1-5.3-13.9-13.6-16.1-23c-3.6-16,4.9-28.3,6.3-30.1c10.4-12.7,24.1-31.2,33.9-56.3
		c8.5-21.8,14.1-46.7,17-75.2c14.3-8,33.9-21.4,43.1-38.1C996.2,518,976.6,382.9,968.3,337.5z M500,732.8
		c-308.2,0-445.4-37.7-383.8-339c61.6-301.3,383.8-290,383.8-290s1.6-0.1,4.5-0.1c39.2,0,322,9.8,379.3,290.1
		C945.4,695.2,808.1,732.8,500,732.8z"/>
	<path class="st0" d="M590,244.1c17.4-4.1,30.9-17.6,35-35c2.7-11.6,6.5-18.8,10.7-18.8c4.2,0,7.9,7.2,10.7,18.8
		c4.1,17.4,17.6,30.9,35,35c11.6,2.7,18.8,6.5,18.8,10.7c0,4.2-7.2,7.9-18.8,10.7c-17.4,4.1-30.9,17.6-35,35
		c-2.7,11.6-6.5,18.8-10.7,18.8c-4.2,0-7.9-7.2-10.7-18.8c-4.1-17.4-17.6-30.9-35-35c-11.6-2.7-18.8-6.5-18.8-10.7
		C571.2,250.6,578.4,246.8,590,244.1z M500,704.9c-171.7,0-288.1-12.3-338-73.5c-36-44.1-41.9-117.9-18.5-232.1
		c10.6-51.6,29.7-96,57.4-133.3c-5.5,17.1-10.1,34.4-13.7,52c-28.8,141-21.6,232,22.8,286.5c61.6,75.5,205.3,90.7,417.3,90.7
		c22.9,0,44.9-0.2,66.2-0.6C640.3,702.6,575.5,704.9,500,704.9z M756.4,312.7c-9.4,2.2-16.8,9.6-19,19c-1.5,6.3-3.5,10.2-5.8,10.2
		c-2.3,0-4.3-3.9-5.8-10.2c-2.2-9.4-9.6-16.8-19-19c-6.3-1.5-10.2-3.5-10.2-5.8c0-2.3,3.9-4.3,10.2-5.8c9.4-2.2,16.8-9.6,19-19
		c1.5-6.3,3.5-10.2,5.8-10.2s4.3,3.9,5.8,10.2c2.2,9.4,9.6,16.8,19,19c6.3,1.5,10.2,3.5,10.2,5.8
		C766.6,309.2,762.7,311.2,756.4,312.7z"/>
</g>
</svg>
