<svg id="Layer_1" data-name="Layer 1" xmlns="http://www.w3.org/2000/svg" xmlns:xlink="http://www.w3.org/1999/xlink" viewBox="0 0 973 1000"><defs><style>.cls-1{fill:url(#linear-gradient);}.cls-2{fill:url(#linear-gradient-2);}.cls-3{fill:url(#linear-gradient-3);}.cls-4{fill:url(#linear-gradient-4);}</style><linearGradient id="linear-gradient" x1="215.14" y1="698.97" x2="449.71" y2="464.39" gradientUnits="userSpaceOnUse"><stop offset="0" stop-color="#d92588"/><stop offset="1" stop-color="#7630d9"/></linearGradient><linearGradient id="linear-gradient-2" x1="589.05" y1="287.89" x2="655.3" y2="221.64" xlink:href="#linear-gradient"/><linearGradient id="linear-gradient-3" x1="700.11" y1="324.91" x2="736.1" y2="288.92" xlink:href="#linear-gradient"/><linearGradient id="linear-gradient-4" x1="113.34" y1="933.75" x2="859.66" y2="187.43" xlink:href="#linear-gradient"/></defs><path class="cls-1" d="M196.57,604.59c-44.42-54.48-51.67-145.52-22.83-286.52a477.35,477.35,0,0,1,13.66-52Q145.88,322,130,399.37c-23.36,114.22-17.48,188,18.5,232.1,49.89,61.18,166.32,73.47,338,73.47,75.51,0,140.33-2.38,193.51-10.25q-31.87.62-66.16.59C401.89,695.28,258.15,680.11,196.57,604.59Z"/><path class="cls-2" d="M576.5,265.43a47,47,0,0,1,35,35c2.73,11.61,6.49,18.78,10.65,18.78s7.93-7.17,10.66-18.78a47,47,0,0,1,35-35c11.59-2.74,18.76-6.51,18.76-10.67s-7.17-7.93-18.76-10.66a47,47,0,0,1-35-35c-2.73-11.6-6.5-18.78-10.66-18.78s-7.92,7.18-10.65,18.78a47,47,0,0,1-35,35c-11.6,2.73-18.76,6.5-18.76,10.66S564.9,262.69,576.5,265.43Z"/><path class="cls-3" d="M742.92,301.12a25.54,25.54,0,0,1-19-19c-1.48-6.31-3.53-10.2-5.78-10.2s-4.31,3.89-5.79,10.2a25.54,25.54,0,0,1-19,19c-6.3,1.49-10.19,3.54-10.19,5.8s3.89,4.31,10.19,5.79a25.57,25.57,0,0,1,19,19c1.48,6.3,3.53,10.2,5.79,10.2s4.3-3.9,5.78-10.2a25.57,25.57,0,0,1,19-19c6.3-1.48,10.19-3.53,10.19-5.79S749.22,302.61,742.92,301.12Z"/><path class="cls-4" d="M954.85,337.47c-6.42-35.36-47.23-52.56-65-58.45C789.9-11.8,486.5.07,486.5.07h0S183.1-11.8,83.12,279c-17.74,5.89-58.55,23.09-65,58.45C9.9,382.87-9.69,518,5.77,545.89c9.26,16.67,28.87,30,43.13,38.05,2.8,28.48,8.47,53.39,16.95,75.16,9.8,25.15,23.43,43.65,33.85,56.33,1.34,1.85,9.9,14.08,6.28,30.1a37.94,37.94,0,0,1-16.09,23c-27.59,21.14-43,44.83-43,69.85C46.84,927.62,243.68,1000,486.5,1000h0c242.82,0,439.66-72.38,439.66-161.66,0-25-15.46-48.71-43-69.85a37.94,37.94,0,0,1-16.09-23c-3.62-16,4.94-28.25,6.28-30.1,10.42-12.68,24.05-31.18,33.85-56.33,8.48-21.77,14.15-46.68,17-75.16,14.26-8,33.87-21.38,43.13-38.05C982.69,518,963.1,382.87,954.85,337.47ZM486.5,732.8h0c-308.16,0-445.43-37.67-383.8-339s383.8-290,383.8-290h0s322.17-11.3,383.8,290.05S794.66,732.8,486.5,732.8Z"/></svg>