<svg id="Layer_1" data-name="Layer 1" xmlns="http://www.w3.org/2000/svg" xmlns:xlink="http://www.w3.org/1999/xlink" viewBox="0 0 2560 2560"><defs><style>.cls-1{fill:url(#linear-gradient);}.cls-2{fill:#fff;}</style><linearGradient id="linear-gradient" x1="487.98" y1="2079.69" x2="2131.84" y2="435.83" gradientUnits="userSpaceOnUse"><stop offset="0" stop-color="#d92588"/><stop offset="1" stop-color="#7630d9"/></linearGradient></defs><rect class="cls-1" x="147.53" y="95.38" width="2324.76" height="2324.76" rx="1162.38"/><path class="cls-2" d="M904.8,1403.78c-62.07-76-72.2-203.17-31.91-400A666.74,666.74,0,0,1,892,931.21q-58,78.07-80.24,186c-32.64,159.48-24.43,262.45,25.85,324.06,69.7,85.41,232.4,102.57,472.32,102.57,105.51,0,196.09-3.32,270.39-14.3q-44.54.86-92.44.82C1191.69,1530.41,990.84,1509.22,904.8,1403.78Z"/><path class="cls-2" d="M1435.66,930.25a65.71,65.71,0,0,1,48.94,48.93c3.81,16.2,9.07,26.22,14.89,26.22s11.07-10,14.88-26.22a65.71,65.71,0,0,1,48.94-48.93c16.2-3.82,26.21-9.08,26.21-14.89s-10-11.07-26.21-14.89a65.7,65.7,0,0,1-48.94-48.93c-3.81-16.2-9.07-26.22-14.88-26.22s-11.08,10-14.89,26.22a65.7,65.7,0,0,1-48.94,48.93c-16.2,3.82-26.21,9.08-26.21,14.89S1419.46,926.43,1435.66,930.25Z"/><path class="cls-2" d="M1668.2,980.09a35.68,35.68,0,0,1-26.58-26.58c-2.08-8.8-4.93-14.24-8.09-14.24s-6,5.44-8.09,14.24a35.68,35.68,0,0,1-26.58,26.58c-8.8,2.07-14.24,4.93-14.24,8.09s5.44,6,14.24,8.09a35.68,35.68,0,0,1,26.58,26.58c2.07,8.8,4.93,14.24,8.09,14.24s6-5.44,8.09-14.24a35.68,35.68,0,0,1,26.58-26.58c8.8-2.07,14.24-4.93,14.24-8.09S1677,982.16,1668.2,980.09Z"/><path class="cls-2" d="M1964.34,1030.83c-9-49.36-66-73.38-90.79-81.6-139.7-406.05-563.64-389.47-563.64-389.47h0S886,543.18,746.27,949.23c-24.79,8.22-81.81,32.24-90.79,81.6-11.52,63.39-38.89,252.1-17.28,291,12.93,23.28,40.33,41.91,60.26,53.12,3.91,39.77,11.83,74.55,23.68,104.94,13.69,35.12,32.74,60.95,47.29,78.66,1.88,2.57,13.85,19.65,8.79,42-4.52,20-19.39,30-22.49,32-38.55,29.52-60.15,62.59-60.15,97.52,0,124.66,275,225.72,614.33,225.72h0c339.28,0,614.33-101.06,614.33-225.72,0-34.93-21.6-68-60.15-97.52-3.1-2-18-12.1-22.49-32-5.06-22.37,6.91-39.45,8.78-42,14.56-17.71,33.61-43.54,47.3-78.66,11.85-30.39,19.77-65.17,23.68-104.94,19.93-11.21,47.33-29.84,60.26-53.12C2003.23,1282.93,1975.86,1094.22,1964.34,1030.83Zm-654.43,552h0c-430.59,0-622.39-52.59-536.28-473.33s536.28-405,536.28-405h0s450.16-15.78,536.28,405S1740.5,1582.79,1309.91,1582.79Z"/></svg>