<?xml version="1.0" encoding="utf-8"?>
<!-- Generator: Adobe Illustrator 26.0.0, SVG Export Plug-In . SVG Version: 6.00 Build 0)  -->
<svg version="1.1" id="Layer_1" xmlns="http://www.w3.org/2000/svg" xmlns:xlink="http://www.w3.org/1999/xlink" x="0px" y="0px"
	 viewBox="0 0 43.26 43.26" style="enable-background:new 0 0 43.26 43.26;" xml:space="preserve">
<style type="text/css">
	.st0{fill:url(#SVGID_1_);}
	.st1{fill:url(#SVGID_00000177483927351238426200000017501005514150945422_);}
	.st2{fill:url(#SVGID_00000000215004202751559150000016683728507558208676_);}
	.st3{fill:url(#SVGID_00000113347208876530705670000000943797141961261198_);}
	.st4{fill:#EDF5FE;}
	.st5{filter:url(#Adobe_OpacityMaskFilter);}
	.st6{filter:url(#Adobe_OpacityMaskFilter_00000056411172849408566430000000077869820056096678_);}
	
		.st7{mask:url(#SVGID_00000090981859236677884460000009051862382921870232_);fill:url(#SVGID_00000011719915137124093350000017925831087913723051_);}
	.st8{fill:url(#SVGID_00000132796280050145155950000002615675989139962550_);}
	.st9{fill:url(#SVGID_00000017508039362836561150000006020754228630528914_);}
	.st10{fill:url(#SVGID_00000019680153698820127310000002248201421976345492_);}
	.st11{fill:url(#SVGID_00000090261692387793145180000007731904641708725929_);}
	.st12{fill:url(#SVGID_00000129166158287617004590000004955992395663876793_);}
	.st13{fill:#FFFFFF;}
	.st14{fill:url(#SVGID_00000015318965191294679790000017506696130462103681_);}
	.st15{fill:url(#SVGID_00000044175550387987807530000003167960872602391209_);}
	.st16{fill:url(#SVGID_00000176762205896103449520000004243873197112261261_);}
	.st17{fill:url(#SVGID_00000087402659781150133830000014752433964973735063_);}
	.st18{fill:url(#SVGID_00000096777888144845244610000006870034542647216810_);}
	.st19{fill:url(#SVGID_00000043425366735215129520000013461722825937783997_);}
	.st20{fill:url(#SVGID_00000092433993944631802220000017554935179538372758_);}
	.st21{fill:url(#SVGID_00000112620401127600975180000014052807803402403498_);}
	.st22{fill:url(#SVGID_00000120543823256521612150000011919300622479653292_);}
	.st23{filter:url(#Adobe_OpacityMaskFilter_00000062885151892577775820000014284346693318746518_);}
	.st24{filter:url(#Adobe_OpacityMaskFilter_00000171709176311746290400000007606414221423326623_);}
	
		.st25{mask:url(#SVGID_00000179604627562418324570000003267548935193590421_);fill:url(#SVGID_00000177454776346634201000000014491350791629385885_);}
	.st26{fill:url(#SVGID_00000063596372637017689840000016154274871677737385_);}
	.st27{fill:url(#SVGID_00000015340303950097021050000003262634086492020370_);}
	.st28{fill:url(#SVGID_00000084525633659563128530000011246086031779772576_);}
	.st29{fill:url(#SVGID_00000114796420765755235900000012227285867588378029_);}
	.st30{fill:url(#SVGID_00000098181536264452470790000013663820790649571982_);}
	.st31{fill:url(#SVGID_00000163786647597342779770000015709647077136353463_);}
	.st32{fill:url(#SVGID_00000108997560569506104010000014054281266142854785_);}
	.st33{filter:url(#Adobe_OpacityMaskFilter_00000113338866180924582030000012696606270234053778_);}
	.st34{filter:url(#Adobe_OpacityMaskFilter_00000157996405729747321110000012488994646343315389_);}
	
		.st35{mask:url(#SVGID_00000158736853852342623300000007684081037641138310_);fill:url(#SVGID_00000080917738758637109690000004623337212282239145_);}
	.st36{fill:url(#SVGID_00000146490473467289496840000012893206994383266213_);}
	.st37{fill:url(#SVGID_00000158016446344516178260000015146738661112555705_);}
	.st38{fill:url(#SVGID_00000099633677616947495850000012900836097674108845_);}
</style>
<g>
	<linearGradient id="SVGID_1_" gradientUnits="userSpaceOnUse" x1="21.6285" y1="43.2569" x2="21.6285" y2="-9.094947e-13">
		<stop  offset="0" style="stop-color:#808ABB"/>
		<stop  offset="1" style="stop-color:#BDCAE5"/>
	</linearGradient>
	<circle class="st0" cx="21.63" cy="21.63" r="21.63"/>
	
		<linearGradient id="SVGID_00000036971580784563366420000008485350059380925333_" gradientUnits="userSpaceOnUse" x1="21.6285" y1="41.8678" x2="21.6285" y2="1.3891">
		<stop  offset="0" style="stop-color:#5F678F"/>
		<stop  offset="1" style="stop-color:#51587C"/>
	</linearGradient>
	<circle style="fill:url(#SVGID_00000036971580784563366420000008485350059380925333_);" cx="21.63" cy="21.63" r="20.24"/>
	
		<linearGradient id="SVGID_00000075880243022720409740000015956642243938832016_" gradientUnits="userSpaceOnUse" x1="21.6285" y1="41.0691" x2="21.6285" y2="2.1878">
		<stop  offset="0" style="stop-color:#AEBBDA"/>
		<stop  offset="1" style="stop-color:#828DBF"/>
	</linearGradient>
	<circle style="fill:url(#SVGID_00000075880243022720409740000015956642243938832016_);" cx="21.63" cy="21.63" r="19.44"/>
	
		<linearGradient id="SVGID_00000016796196493502298960000015765974476152969874_" gradientUnits="userSpaceOnUse" x1="6.1616" y1="21.6285" x2="37.0953" y2="21.6285">
		<stop  offset="0" style="stop-color:#FFFFFF"/>
		<stop  offset="1" style="stop-color:#AEBBDB"/>
	</linearGradient>
	<path style="fill:url(#SVGID_00000016796196493502298960000015765974476152969874_);" d="M24.13,7.28L24.13,7.28
		c2.13-2.36,6.03-0.74,5.87,2.43v0c-0.1,2,1.54,3.64,3.54,3.54h0c3.17-0.16,4.79,3.74,2.43,5.87l0,0c-1.48,1.34-1.48,3.67,0,5.01
		l0,0c2.36,2.13,0.74,6.03-2.43,5.87h0c-2-0.1-3.64,1.54-3.54,3.54v0c0.16,3.17-3.74,4.79-5.87,2.43l0,0
		c-1.34-1.48-3.67-1.48-5.01,0l0,0c-2.13,2.36-6.03,0.74-5.87-2.43v0c0.1-2-1.54-3.64-3.54-3.54h0c-3.17,0.16-4.79-3.74-2.43-5.87
		l0,0c1.48-1.34,1.48-3.67,0-5.01l0,0C4.93,17,6.55,13.09,9.71,13.25h0c2,0.1,3.64-1.54,3.54-3.54v0C13.09,6.55,17,4.93,19.13,7.28
		l0,0C20.46,8.77,22.79,8.77,24.13,7.28z"/>
	
		<linearGradient id="SVGID_00000124121678559366165590000015284408605281216162_" gradientUnits="userSpaceOnUse" x1="21.6282" y1="31.9398" x2="21.6282" y2="11.3172">
		<stop  offset="0" style="stop-color:#C2CEE7"/>
		<stop  offset="1" style="stop-color:#4B5075"/>
	</linearGradient>
	<path style="fill:url(#SVGID_00000124121678559366165590000015284408605281216162_);" d="M31.94,21.63c0,0.3-0.01,0.6-0.04,0.89
		c-0.45,5.28-4.88,9.42-10.27,9.42c-5.4,0-9.82-4.14-10.27-9.42c-0.03-0.29-0.04-0.59-0.04-0.89c0-5.69,4.62-10.31,10.31-10.31
		C27.32,11.32,31.94,15.93,31.94,21.63z"/>
	<path class="st4" d="M22.29,16.51l1.26,2.56c0.11,0.22,0.32,0.37,0.56,0.4l2.82,0.41c0.61,0.09,0.85,0.83,0.41,1.26l-2.04,1.99
		c-0.17,0.17-0.25,0.41-0.21,0.65l0.48,2.81c0.1,0.6-0.53,1.06-1.07,0.78l-2.53-1.33c-0.22-0.11-0.47-0.11-0.69,0l-2.53,1.33
		c-0.54,0.29-1.18-0.18-1.07-0.78l0.48-2.81c0.04-0.24-0.04-0.48-0.21-0.65l-2.04-1.99c-0.44-0.43-0.2-1.17,0.41-1.26l2.82-0.41
		c0.24-0.03,0.45-0.19,0.56-0.4l1.26-2.56C21.24,15.96,22.02,15.96,22.29,16.51z"/>
</g>
</svg>
