<?xml version="1.0" encoding="utf-8"?>
<!-- Generator: Adobe Illustrator 26.1.0, SVG Export Plug-In . SVG Version: 6.00 Build 0)  -->
<svg version="1.1" id="Layer_1" xmlns="http://www.w3.org/2000/svg" xmlns:xlink="http://www.w3.org/1999/xlink" x="0px" y="0px"
	 viewBox="0 0 864 783" style="enable-background:new 0 0 864 783;" xml:space="preserve">
<style type="text/css">
	.st0{fill:url(#SVGID_1_);}
	.st1{fill:url(#SVGID_00000053511757562853255010000008551909669969097407_);}
	.st2{fill:url(#SVGID_00000089549603715867333850000013803653976844683448_);}
	.st3{fill:url(#SVGID_00000183237790278105454070000006133462929021607598_);}
	.st4{fill:#B6157C;}
	.st5{font-family:'SpaceAge';}
	.st6{font-size:66.8623px;}
</style>
<g>
	<linearGradient id="SVGID_1_" gradientUnits="userSpaceOnUse" x1="609.5092" y1="308.5663" x2="100.519" y2="625.0812">
		<stop  offset="0.1874" style="stop-color:#FF337E"/>
		<stop  offset="0.61" style="stop-color:#B6157C"/>
		<stop  offset="0.719" style="stop-color:#AD117C"/>
		<stop  offset="0.8945" style="stop-color:#95077B"/>
		<stop  offset="1" style="stop-color:#84007A"/>
	</linearGradient>
	<polygon class="st0" points="248.5,289.9 187.9,395.4 300.6,597.9 535.2,597.9 649.6,398.2 589.2,290.8 555.1,353.4 580.7,396.7 
		500.4,538.9 336.2,538.2 256.3,400.5 319.1,289.9 	"/>
	
		<linearGradient id="SVGID_00000056398281322384825950000002474922148590073748_" gradientUnits="userSpaceOnUse" x1="562.6478" y1="213.1647" x2="173.9889" y2="454.8517">
		<stop  offset="0.1874" style="stop-color:#FF337E"/>
		<stop  offset="0.61" style="stop-color:#B6157C"/>
		<stop  offset="0.719" style="stop-color:#AD117C"/>
		<stop  offset="0.8945" style="stop-color:#95077B"/>
		<stop  offset="1" style="stop-color:#84007A"/>
	</linearGradient>
	<polygon style="fill:url(#SVGID_00000056398281322384825950000002474922148590073748_);" points="266.9,238.8 301.9,178.9 
		534.3,178.9 570.6,238.8 432.7,490.4 361.7,490.4 505,240.9 	"/>
</g>
<g>
	
		<linearGradient id="SVGID_00000081636098974657313560000017696574532787346595_" gradientUnits="userSpaceOnUse" x1="1509.6512" y1="308.5663" x2="1000.6612" y2="625.0812">
		<stop  offset="0.2" style="stop-color:#00B968"/>
		<stop  offset="0.2526" style="stop-color:#08B282"/>
		<stop  offset="0.3524" style="stop-color:#16A7AF"/>
		<stop  offset="0.4486" style="stop-color:#209ED2"/>
		<stop  offset="0.539" style="stop-color:#2897EB"/>
		<stop  offset="0.6213" style="stop-color:#2C93FA"/>
		<stop  offset="0.6882" style="stop-color:#2E92FF"/>
		<stop  offset="0.7543" style="stop-color:#2C8CF6"/>
		<stop  offset="0.861" style="stop-color:#287DDE"/>
		<stop  offset="0.9944" style="stop-color:#2065B8"/>
		<stop  offset="1" style="stop-color:#2064B6"/>
	</linearGradient>
	<polygon style="fill:url(#SVGID_00000081636098974657313560000017696574532787346595_);" points="1148.7,289.9 1088.1,395.4 
		1200.7,597.9 1435.3,597.9 1549.8,398.2 1489.4,290.8 1455.2,353.4 1480.8,396.7 1400.5,538.9 1236.4,538.2 1156.5,400.5 
		1219.2,289.9 	"/>
	
		<linearGradient id="SVGID_00000137104476765446314290000012955536115115363006_" gradientUnits="userSpaceOnUse" x1="1462.79" y1="213.1647" x2="1074.1311" y2="454.8517">
		<stop  offset="0.2" style="stop-color:#00B968"/>
		<stop  offset="0.61" style="stop-color:#2E92FF"/>
		<stop  offset="0.6926" style="stop-color:#2C8CF6"/>
		<stop  offset="0.8261" style="stop-color:#287DDE"/>
		<stop  offset="0.993" style="stop-color:#2065B8"/>
		<stop  offset="1" style="stop-color:#2064B6"/>
	</linearGradient>
	<polygon style="fill:url(#SVGID_00000137104476765446314290000012955536115115363006_);" points="1167.1,238.8 1202,178.9 
		1434.4,178.9 1470.8,238.8 1332.9,490.4 1261.9,490.4 1405.2,240.9 	"/>
</g>
<text transform="matrix(1 0 0 1 1033.9537 691.5)" class="st5 st6" style="fill:#00B968;">SEPTEM DEV</text>
<rect x="1795.3" y="423" style="fill:none;" width="4.3" height="27.8"/>
<text transform="matrix(1 0 0 1 133.8112 680.2411)" class="st4 st5 st6">SEPTEM DEV</text>
</svg>
