<svg id="Layer_1" data-name="Layer 1" xmlns="http://www.w3.org/2000/svg" xmlns:xlink="http://www.w3.org/1999/xlink" viewBox="0 0 864 783.03"><defs><style>.cls-1{fill:none;}.cls-2{fill-rule:evenodd;fill:url(#Gradiente_sem_nome_6);}</style><linearGradient id="Gradiente_sem_nome_6" x1="563.9" y1="-11624.84" x2="1097.91" y2="-11289.78" gradientTransform="matrix(1, 0, 0, -1, -267.64, -11128.77)" gradientUnits="userSpaceOnUse"><stop offset="0" stop-color="#c92795"/><stop offset="0.59" stop-color="#a62bb2"/><stop offset="1" stop-color="#892eca"/></linearGradient></defs><rect class="cls-1" x="1097.03" y="147.69" width="1605.6" height="1716.33" transform="translate(-37.52 1937.41) rotate(-53.58)"/><path class="cls-2" d="M135.54,437.68V548.11a79.15,79.15,0,0,0,40.9,69.22L373,724.69a78,78,0,0,0,75.45,0L644.93,617.33a79.16,79.16,0,0,0,40.91-69.22V437.68L448.41,567.43a77.91,77.91,0,0,1-75.45,0ZM373,58,41.57,238.81c-27.09,14.93-27.09,54.29,0,69.22L373,488.8a77.91,77.91,0,0,0,75.45,0L764.46,316.21V548.52a39.27,39.27,0,0,0,78.53,0V296.58A39.48,39.48,0,0,0,822.54,262L448.31,58A80,80,0,0,0,373,58Z"/></svg>