<svg width="74" height="62" viewBox="0 0 74 62" fill="none" xmlns="http://www.w3.org/2000/svg">
<path fill-rule="evenodd" clip-rule="evenodd" d="M10.6101 35.09V45C10.6115 46.2633 10.9517 47.5031 11.5955 48.5902C12.2393 49.6772 13.1629 50.5715 14.2701 51.1799L31.8301 60.77C32.864 61.3389 34.025 61.6373 35.2051 61.6373C36.3853 61.6373 37.5462 61.3389 38.5801 60.77L56.1401 51.1799C57.2497 50.5752 58.1748 49.6814 58.8175 48.5934C59.4601 47.5053 59.7962 46.2636 59.7901 45V35.13L38.5801 46.72C37.5462 47.2889 36.3853 47.5873 35.2051 47.5873C34.025 47.5873 32.864 47.2889 31.8301 46.72L10.6101 35.09ZM31.8301 1.14996L2.22013 17.31C1.66804 17.6165 1.20798 18.0651 0.887665 18.6093C0.56735 19.1535 0.398438 19.7735 0.398438 20.405C0.398438 21.0364 0.56735 21.6564 0.887665 22.2006C1.20798 22.7448 1.66804 23.1934 2.22013 23.5L31.8301 39.66C32.864 40.2289 34.025 40.5273 35.2051 40.5273C36.3853 40.5273 37.5462 40.2289 38.5801 39.66L66.8201 24.2299V45C66.9126 45.8637 67.3212 46.6628 67.9673 47.2434C68.6134 47.824 69.4515 48.1452 70.3201 48.1452C71.1888 48.1452 72.0268 47.824 72.6729 47.2434C73.3191 46.6628 73.7277 45.8637 73.8201 45V22.4799C73.8184 21.8485 73.6478 21.229 73.3261 20.6857C73.0043 20.1423 72.543 19.695 71.9901 19.39L38.5501 1.14996C37.5145 0.603489 36.3611 0.317871 35.1901 0.317871C34.0191 0.317871 32.8658 0.603489 31.8301 1.14996V1.14996Z" fill="white"/>
</svg>
