<svg xmlns="http://www.w3.org/2000/svg" viewBox="0 0 174.5 170"><defs><style>.cls-1{fill:#FF9000;}</style></defs><g id="Layer_2" data-name="Layer 2"><g id="Camada_1" data-name="Camada 1"><path class="cls-1" d="M70.56,17.64A52.93,52.93,0,1,0,85.9,121.22a10.12,10.12,0,0,1-5.71-5.08c-1.67-3.35-.87-7.14,2.15-10.15l.23-.23L123.32,74.6c.1-1.34.17-2.68.17-4A52.92,52.92,0,0,0,70.56,17.64Zm5.88,82v6.2H70.56V100A40.74,40.74,0,0,1,52.92,95.7L55.6,86c5.62,2.18,13.11,4.49,19,3.17,6.76-1.53,8.15-8.48.67-11.82C69.76,74.83,53,72.65,53,58.32c0-8,6.11-15.19,17.54-16.76V35.28h5.88v6A54.09,54.09,0,0,1,90.8,43.74l-2.12,9.69c-4.52-1.59-9.51-3-14.36-2.74-8.76.52-9.53,8.1-3.42,11.27C81,66.69,94.09,70.2,94.09,82.81,94.1,92.92,86.18,98.29,76.44,99.65Z"/><path class="cls-1" d="M106.42,121.7H99.54A58.79,58.79,0,1,1,129.35,70l11.17-8.54a70.57,70.57,0,1,0-38,72Z"/><path class="cls-1" d="M174.17,111.49a3.94,3.94,0,0,0-3.68-2.86H145.94l15.95-47.87c.41-1.64,0-3.68-1.63-4.5-1.64-1.23-3.28-.82-4.91,0L85.8,109.45c-1.23,1.23-2,2.86-1.23,4.5a4.91,4.91,0,0,0,4.09,2.86h24.55l-16,47.87c-.41,1.64,0,3.68,1.64,4.5a3.13,3.13,0,0,0,2,.82,5.83,5.83,0,0,0,2.46-.82L172.94,116C174.17,114.77,175,113.13,174.17,111.49Z"/></g></g></svg>