<svg id="Layer_1" data-name="Layer 1" xmlns="http://www.w3.org/2000/svg" xmlns:xlink="http://www.w3.org/1999/xlink" viewBox="0 0 2224.16 2053.07"><defs><style>.cls-1{fill:none;}.cls-2{fill:#847d9e;}.cls-3,.cls-75,.cls-78{fill:#fff;}.cls-10,.cls-11,.cls-12,.cls-13,.cls-14,.cls-15,.cls-16,.cls-17,.cls-18,.cls-19,.cls-20,.cls-21,.cls-22,.cls-23,.cls-24,.cls-25,.cls-28,.cls-29,.cls-3,.cls-5,.cls-6,.cls-7,.cls-75,.cls-76,.cls-8,.cls-9{isolation:isolate;}.cls-3{opacity:0.07;}.cls-4{opacity:0.25;}.cls-5{fill:#14042a;opacity:0.05;}.cls-6{fill:#1c0530;opacity:0.1;}.cls-7{fill:#250737;opacity:0.14;}.cls-8{fill:#2d083d;opacity:0.19;}.cls-9{fill:#360a44;opacity:0.24;}.cls-10{fill:#3e0b4a;opacity:0.29;}.cls-11{fill:#470d51;opacity:0.33;}.cls-12{fill:#500f57;opacity:0.38;}.cls-13{fill:#58105e;opacity:0.43;}.cls-14{fill:#611264;opacity:0.48;}.cls-15{fill:#69136b;opacity:0.52;}.cls-16{fill:#721571;opacity:0.57;}.cls-17{fill:#7a1678;opacity:0.62;}.cls-18{fill:#83187e;opacity:0.67;}.cls-19{fill:#8c1a85;opacity:0.71;}.cls-20{fill:#941b8b;opacity:0.76;}.cls-21{fill:#9d1d92;opacity:0.81;}.cls-22{fill:#a51e98;opacity:0.86;}.cls-23{fill:#ae209f;opacity:0.9;}.cls-24{fill:#b621a5;opacity:0.95;}.cls-25{fill:#bf23ac;}.cls-25,.cls-31{opacity:0.42;}.cls-26{fill:url(#Gradiente_sem_nome_2);}.cls-27,.cls-28{opacity:0.3;}.cls-28{fill:#ff8787;}.cls-29{fill:#00d8e0;}.cls-29,.cls-68{opacity:0.9;}.cls-30{clip-path:url(#clip-path);}.cls-32,.cls-76{opacity:0.05;}.cls-33{fill:#230724;}.cls-34{opacity:0.1;}.cls-35{fill:#2e0b24;}.cls-36{opacity:0.14;}.cls-37{fill:#391025;}.cls-38{opacity:0.19;}.cls-39{fill:#441425;}.cls-40{opacity:0.24;}.cls-41{fill:#4f1926;}.cls-42{opacity:0.29;}.cls-43{fill:#5a1e26;}.cls-44{opacity:0.33;}.cls-45{fill:#652227;}.cls-46{opacity:0.38;}.cls-47{fill:#702727;}.cls-48{opacity:0.43;}.cls-49{fill:#7b2c28;}.cls-50{opacity:0.48;}.cls-51{fill:#863028;}.cls-52{opacity:0.52;}.cls-53{fill:#913529;}.cls-54{opacity:0.57;}.cls-55{fill:#9c3929;}.cls-56{opacity:0.62;}.cls-57{fill:#a73e2a;}.cls-58{opacity:0.67;}.cls-59{fill:#b2432a;}.cls-60{opacity:0.71;}.cls-61{fill:#bd472b;}.cls-62{opacity:0.76;}.cls-63{fill:#c84c2b;}.cls-64{opacity:0.81;}.cls-65{fill:#d3512c;}.cls-66{opacity:0.86;}.cls-67{fill:#de552c;}.cls-69{fill:#e95a2d;}.cls-70{opacity:0.95;}.cls-71{fill:#f45e2d;}.cls-72{fill:#ff632e;}.cls-73{fill:#ea6334;}.cls-74{fill:#ff9518;}.cls-75{opacity:0.15;}.cls-77{fill-rule:evenodd;fill:url(#Gradiente_sem_nome_3);}.cls-79{fill:url(#Gradiente_sem_nome_4);}.cls-80{fill:#f2d100;}.cls-81{fill:#a9c4da;}.cls-82{fill:#f27e00;}.cls-83{fill:url(#Gradiente_sem_nome_5);}</style><radialGradient id="Gradiente_sem_nome_2" cx="-5048.93" cy="-5397.13" r="2.51" gradientTransform="matrix(83.86, -43.81, -45.42, -86.95, 178575.02, -689061.95)" gradientUnits="userSpaceOnUse"><stop offset="0.02" stop-color="#ff006f"/><stop offset="0.08" stop-color="#f30070"/><stop offset="0.45" stop-color="#b40072"/><stop offset="0.72" stop-color="#8c0074"/><stop offset="0.86" stop-color="#7d0075"/></radialGradient><clipPath id="clip-path"><rect class="cls-1" x="849.18" y="655.01" width="233.34" height="248.04"/></clipPath><linearGradient id="Gradiente_sem_nome_3" x1="1000.32" y1="1415.58" x2="1077.01" y2="1477.58" gradientTransform="translate(-284.94 252.93) rotate(-12.48)" gradientUnits="userSpaceOnUse"><stop offset="0" stop-color="#c92795"/><stop offset="0.59" stop-color="#a62bb2"/><stop offset="1" stop-color="#892eca"/></linearGradient><linearGradient id="Gradiente_sem_nome_4" x1="557.79" y1="11546.63" x2="528.77" y2="11589" gradientTransform="translate(-267.64 -11125.91)" gradientUnits="userSpaceOnUse"><stop offset="0.02" stop-color="#fff"/><stop offset="0.37" stop-color="#ededed"/><stop offset="1" stop-color="#c4c4c4"/></linearGradient><linearGradient id="Gradiente_sem_nome_5" x1="606.91" y1="11572.81" x2="570.98" y2="11625.29" gradientTransform="translate(-267.64 -11125.91)" gradientUnits="userSpaceOnUse"><stop offset="0.02" stop-color="#fff"/><stop offset="0.62" stop-color="#b7b7b7"/><stop offset="1" stop-color="#8e8e8e"/></linearGradient></defs><rect class="cls-1" x="-347.11" y="179.12" width="1605.6" height="1716.33" transform="translate(-649.54 788.11) rotate(-53.58)"/><path class="cls-2" d="M343.16,1176.21l-.91-.33a5.23,5.23,0,0,0-5,.8l-.77.58a1.25,1.25,0,0,1-2-.63,1.29,1.29,0,0,1,0-.8l.33-.9a5.16,5.16,0,0,0,.26-2.61,5.36,5.36,0,0,0-1-2.41l-.6-.78a1.19,1.19,0,0,1-.24-.74,1.26,1.26,0,0,1,.24-.75,1.17,1.17,0,0,1,.64-.45,1.19,1.19,0,0,1,.79,0l.92.34a5.35,5.35,0,0,0,2.6.26,5.18,5.18,0,0,0,2.41-1l.78-.6a1.34,1.34,0,0,1,.75-.24,1.22,1.22,0,0,1,.74.25,1.24,1.24,0,0,1,.46.64,1.3,1.3,0,0,1,0,.78l-.34.92a5.28,5.28,0,0,0-.27,2.61,5.18,5.18,0,0,0,1,2.41l.59.77a1.24,1.24,0,0,1,.24.75,1.25,1.25,0,0,1-.91,1.18,1.26,1.26,0,0,1-.79,0Z"/><path class="cls-2" d="M413.64,1333.54l-.9-.34a5.3,5.3,0,0,0-5,.76l-.77.59a1.25,1.25,0,0,1-1.51,0,1.21,1.21,0,0,1-.46-.66,1.19,1.19,0,0,1,0-.81l.33-.9a5.27,5.27,0,0,0,.27-2.61,5.4,5.4,0,0,0-1-2.41l-.6-.78a1.23,1.23,0,0,1-.24-.74,1.27,1.27,0,0,1,.25-.75,1.27,1.27,0,0,1,1.42-.44l.92.34a5.27,5.27,0,0,0,2.61.27,5.4,5.4,0,0,0,2.41-1l.77-.6a1.27,1.27,0,0,1,1.5,0,1.36,1.36,0,0,1,.46.64,1.33,1.33,0,0,1,0,.79l-.34.91a5.3,5.3,0,0,0,.76,5l.59.77a1.27,1.27,0,0,1,.27.75,1.25,1.25,0,0,1-.25.77,1.26,1.26,0,0,1-.65.46A1.32,1.32,0,0,1,413.64,1333.54Z"/><path class="cls-2" d="M1158.14,1139.67l-1.82-.67a10.54,10.54,0,0,0-5.22-.54,10.66,10.66,0,0,0-4.83,2l-1.55,1.19a2.5,2.5,0,0,1-3,0,2.45,2.45,0,0,1-.91-1.3,2.54,2.54,0,0,1,.06-1.59l.67-1.82a10.55,10.55,0,0,0-1.52-10l-1.19-1.54a2.51,2.51,0,0,1,1.28-3.92,2.44,2.44,0,0,1,1.58,0l1.83.68a10.5,10.5,0,0,0,5.21.53,10.62,10.62,0,0,0,4.84-2l1.54-1.19a2.49,2.49,0,0,1,3.92,1.26,2.41,2.41,0,0,1-.06,1.59l-.67,1.83a10.56,10.56,0,0,0,1.53,10l1.18,1.55a2.47,2.47,0,0,1,.51,1.5,2.44,2.44,0,0,1-.49,1.51,2.54,2.54,0,0,1-1.29.91,2.47,2.47,0,0,1-1.59,0Z"/><path class="cls-2" d="M713.72,507l-1.06-.4a6.09,6.09,0,0,0-3-.31,6.26,6.26,0,0,0-2.79,1.19l-.89.68a1.52,1.52,0,0,1-.87.3,1.47,1.47,0,0,1-1.4-1,1.42,1.42,0,0,1,0-.91l.39-1.05a6.09,6.09,0,0,0-.88-5.82l-.68-.88a1.5,1.5,0,0,1-.3-.87,1.47,1.47,0,0,1,.29-.87,1.4,1.4,0,0,1,.74-.52,1.52,1.52,0,0,1,.92,0l1.06.39a6.17,6.17,0,0,0,3,.31,6,6,0,0,0,2.8-1.18l.89-.7a1.42,1.42,0,0,1,.86-.29,1.42,1.42,0,0,1,1.4,1,1.49,1.49,0,0,1,0,.91l-.4,1.07a6.17,6.17,0,0,0-.31,3,6,6,0,0,0,1.19,2.79l.69.91a1.42,1.42,0,0,1,.29.86,1.35,1.35,0,0,1-.28.87,1.44,1.44,0,0,1-.75.53,1.42,1.42,0,0,1-.91,0Z"/><path class="cls-2" d="M585.62,1245.75l-1-.39a6.08,6.08,0,0,0-3-.31,6.24,6.24,0,0,0-2.79,1.18l-.9.68a1.42,1.42,0,0,1-.87.29,1.39,1.39,0,0,1-.87-.28,1.47,1.47,0,0,1-.5-1.66l.4-1a6.19,6.19,0,0,0,.3-3,6.12,6.12,0,0,0-1.18-2.8l-.69-.88a1.47,1.47,0,0,1,0-1.74,1.47,1.47,0,0,1,.75-.52,1.49,1.49,0,0,1,.91,0l1.06.39a6.2,6.2,0,0,0,3,.31,6.13,6.13,0,0,0,2.79-1.18l.89-.7a1.44,1.44,0,0,1,.87-.29,1.37,1.37,0,0,1,.87.28,1.44,1.44,0,0,1,.53.75,1.42,1.42,0,0,1,0,.91l-.39,1.07a6,6,0,0,0,.89,5.81l.67.9a1.4,1.4,0,0,1,.3.86,1.44,1.44,0,0,1-.29.87,1.42,1.42,0,0,1-.74.53,1.45,1.45,0,0,1-.92,0Z"/><path class="cls-2" d="M456.27,751.16l-.76-.28a4.3,4.3,0,0,0-2.13-.21,4.37,4.37,0,0,0-2,.84l-.64.47a1,1,0,0,1-.61.22,1,1,0,0,1-1-.73,1,1,0,0,1,0-.65l.26-.75a4.33,4.33,0,0,0,.22-2.14,4.17,4.17,0,0,0-.83-2l-.48-.63a1.05,1.05,0,0,1-.21-.62,1,1,0,0,1,.2-.61,1,1,0,0,1,.53-.37,1,1,0,0,1,.65,0l.74.28a4.28,4.28,0,0,0,4.1-.62l.65-.49a1.1,1.1,0,0,1,.61-.22,1,1,0,0,1,.62.2,1,1,0,0,1,.37.53.94.94,0,0,1,0,.66l-.27.76a4.29,4.29,0,0,0-.22,2.13,4.33,4.33,0,0,0,.84,2l.5.63a1.07,1.07,0,0,1,.2.62,1,1,0,0,1-.2.61,1,1,0,0,1-.52.38A1,1,0,0,1,456.27,751.16Z"/><path class="cls-2" d="M867.36,378l-.74-.27a4.28,4.28,0,0,0-4.1.62l-.65.48a1,1,0,0,1-.61.22,1,1,0,0,1-.62-.19,1,1,0,0,1-.37-.54,1,1,0,0,1,0-.65l.27-.76a4.3,4.3,0,0,0,.22-2.13,4.18,4.18,0,0,0-.84-2l-.49-.64a1,1,0,0,1-.21-.61,1.07,1.07,0,0,1,.2-.62,1,1,0,0,1,.53-.37,1,1,0,0,1,.65,0l.75.29a4.33,4.33,0,0,0,2.14.21,4.29,4.29,0,0,0,2-.84l.64-.47a1,1,0,0,1,.61-.23,1.1,1.1,0,0,1,.63.2,1.14,1.14,0,0,1,.37.54,1,1,0,0,1,0,.65l-.26.75a4.33,4.33,0,0,0,.61,4.11l.48.63a1,1,0,0,1,.21.61,1.07,1.07,0,0,1-.2.62,1,1,0,0,1-.53.37,1,1,0,0,1-.65,0Z"/><path class="cls-2" d="M1099.92,612.52l-.74-.28A4.33,4.33,0,0,0,1097,612a4.5,4.5,0,0,0-2,.83l-.62.49a1,1,0,0,1-1.23,0,1.07,1.07,0,0,1-.38-.53,1.11,1.11,0,0,1,0-.65l.28-.74a4.41,4.41,0,0,0,.22-2.13,4.35,4.35,0,0,0-.83-2l-.5-.64a1.09,1.09,0,0,1-.21-.61,1,1,0,0,1,.21-.61,1,1,0,0,1,.52-.38,1,1,0,0,1,.65,0l.76.28a4.18,4.18,0,0,0,2.1.24,4.28,4.28,0,0,0,2-.8l.63-.49a1,1,0,0,1,1.23,0,1.07,1.07,0,0,1,.38.53,1.11,1.11,0,0,1,0,.65l-.28.75a4.29,4.29,0,0,0,.68,4.1l.48.63a1,1,0,0,1,.16.6,1,1,0,0,1-.21.58,1,1,0,0,1-.51.36,1.09,1.09,0,0,1-.62,0Z"/><path class="cls-2" d="M597.05,515.72l-.76-.29a4.24,4.24,0,0,0-2.12-.18,4.33,4.33,0,0,0-1.95.88l-.63.48a1,1,0,0,1-.61.21,1.07,1.07,0,0,1-.62-.2,1,1,0,0,1-.37-.53,1,1,0,0,1,0-.65l.27-.74a4.32,4.32,0,0,0-.62-4.12l-.48-.63a1,1,0,0,1-.21-.61,1.07,1.07,0,0,1,.2-.62,1,1,0,0,1,.53-.37,1,1,0,0,1,.65,0l.74.28a4.32,4.32,0,0,0,2.14.21,4.25,4.25,0,0,0,2-.83l.63-.48a1,1,0,0,1,.61-.21,1.07,1.07,0,0,1,.62.2,1,1,0,0,1,.37.53,1,1,0,0,1,0,.65l-.3.78a4.29,4.29,0,0,0-.23,2.13,4.37,4.37,0,0,0,.84,2l.49.64a1,1,0,0,1-.1,1.12,1,1,0,0,1-.48.34,1.08,1.08,0,0,1-.59,0Z"/><path class="cls-2" d="M460.55,1923.65l-.74-.28a4.35,4.35,0,0,0-4.12.61l-.63.5a1,1,0,0,1-1.23,0,1.07,1.07,0,0,1-.38-.53,1.11,1.11,0,0,1,0-.65l.29-.75a4.29,4.29,0,0,0,.22-2.13,4.33,4.33,0,0,0-.84-2l-.5-.63a1.07,1.07,0,0,1-.2-.62,1,1,0,0,1,.2-.61,1,1,0,0,1,.53-.38,1,1,0,0,1,.64,0l.76.28a4.28,4.28,0,0,0,2.13.21,4.37,4.37,0,0,0,2-.84l.62-.48a1.13,1.13,0,0,1,.62-.21,1,1,0,0,1,.61.21,1,1,0,0,1,.38.52,1,1,0,0,1,0,.65l-.27.74a4.34,4.34,0,0,0,.62,4.13l.48.62a1.05,1.05,0,0,1,.21.62,1,1,0,0,1-.2.61,1,1,0,0,1-1.18.36Z"/><path class="cls-2" d="M398.35,1540.2l-.73-.27a4.33,4.33,0,0,0-4.13.62l-.63.48a1,1,0,0,1-.61.2.9.9,0,0,1-.61-.2,1,1,0,0,1-.38-.53,1,1,0,0,1,0-.64l.27-.74a4.22,4.22,0,0,0,.23-2.14,4.26,4.26,0,0,0-.84-2l-.49-.63a1.05,1.05,0,0,1-.21-.62,1,1,0,0,1,.2-.61,1.07,1.07,0,0,1,.53-.38,1,1,0,0,1,.65,0l.75.29a4.33,4.33,0,0,0,2.14.21,4.29,4.29,0,0,0,2-.84l.63-.49a1.12,1.12,0,0,1,.61-.21,1.05,1.05,0,0,1,.62.21,1,1,0,0,1,.37.53,1,1,0,0,1,0,.65l-.28.74a4.32,4.32,0,0,0-.21,2.14,4.16,4.16,0,0,0,.84,2l.47.62a1,1,0,0,1,.21.62,1,1,0,0,1-.2.61,1.07,1.07,0,0,1-.53.38,1,1,0,0,1-.65,0Z"/><path class="cls-2" d="M667.69,1906l-.76-.29a4.28,4.28,0,0,0-4.1.62l-.63.5a1,1,0,0,1-1.23,0,1,1,0,0,1-.38-.53,1.07,1.07,0,0,1,0-.64l.29-.76a4.41,4.41,0,0,0,.21-2.13,4.5,4.5,0,0,0-.85-2l-.48-.62a1.15,1.15,0,0,1-.21-.62,1,1,0,0,1,.2-.61,1.09,1.09,0,0,1,.54-.38,1,1,0,0,1,.64,0l.74.27a4.46,4.46,0,0,0,2.14.22,4.41,4.41,0,0,0,2-.84l.62-.48a1.13,1.13,0,0,1,.62-.21,1,1,0,0,1,.61.21,1,1,0,0,1,.38.53,1,1,0,0,1,0,.64l-.27.74a4.23,4.23,0,0,0-.27,2.17,4.34,4.34,0,0,0,.82,2l.5.64a1,1,0,0,1-.06,1.13,1,1,0,0,1-1.06.39Z"/><path class="cls-2" d="M406.59,1968.14l-.74-.28a4.41,4.41,0,0,0-2.13-.22,4.35,4.35,0,0,0-2,.83l-.63.5a1.07,1.07,0,0,1-.62.2,1,1,0,0,1-.62-.2,1,1,0,0,1-.37-.53,1,1,0,0,1,0-.64l.28-.76a4.18,4.18,0,0,0,.22-2.13,4.38,4.38,0,0,0-.84-2l-.49-.63a1,1,0,0,1,0-1.23,1.07,1.07,0,0,1,.53-.38,1.11,1.11,0,0,1,.65,0l.75.29a4.45,4.45,0,0,0,2.14.2,4.33,4.33,0,0,0,2-.84l.63-.48a1.12,1.12,0,0,1,.61-.21,1,1,0,0,1,.62.21,1,1,0,0,1,.37.53,1,1,0,0,1,0,.64l-.28.74a4.33,4.33,0,0,0-.21,2.14,4.55,4.55,0,0,0,.83,2l.48.62a1,1,0,0,1,.21.62,1,1,0,0,1-.2.61,1.07,1.07,0,0,1-.53.38,1.11,1.11,0,0,1-.65,0Z"/><path class="cls-2" d="M418.34,1579.71l-.73-.27a4.33,4.33,0,0,0-4.13.62l-.63.48a1,1,0,0,1-.61.21,1.07,1.07,0,0,1-.62-.2,1,1,0,0,1-.37-.53,1,1,0,0,1,0-.65l.27-.74a4.18,4.18,0,0,0,.23-2.13,4.37,4.37,0,0,0-.84-2l-.49-.64a1,1,0,0,1,0-1.23,1,1,0,0,1,.53-.37,1,1,0,0,1,.65,0l.75.29a4.26,4.26,0,0,0,4.11-.63l.63-.48a1,1,0,0,1,.61-.21,1.07,1.07,0,0,1,.62.2,1,1,0,0,1,.37.53,1,1,0,0,1,0,.65l-.28.74a4.32,4.32,0,0,0,.62,4.12l.48.63a1,1,0,0,1,.21.61,1.07,1.07,0,0,1-.2.62,1,1,0,0,1-.53.37,1,1,0,0,1-.65,0Z"/><path class="cls-2" d="M505.56,1918.78l-.74-.28a4.38,4.38,0,0,0-4.13.63l-.62.48a1,1,0,0,1-.62.2,1,1,0,0,1-.61-.2,1,1,0,0,1-.38-.53,1.07,1.07,0,0,1,0-.64l.28-.74a4.37,4.37,0,0,0,.21-2.15,4.16,4.16,0,0,0-.84-2l-.48-.62a1.15,1.15,0,0,1-.21-.62,1,1,0,0,1,.21-.61,1,1,0,0,1,1.18-.36l.73.27a4.24,4.24,0,0,0,4.12-.6l.63-.5a1.15,1.15,0,0,1,.62-.21,1,1,0,0,1,.61.21,1,1,0,0,1,.38.53,1,1,0,0,1,0,.64l-.28.76a4.27,4.27,0,0,0,.63,4.11l.48.62a1.13,1.13,0,0,1,.21.62,1,1,0,0,1-.2.61,1.07,1.07,0,0,1-.53.38,1.11,1.11,0,0,1-.65,0Z"/><path class="cls-2" d="M359.5,1862.49l-.76-.29a4.36,4.36,0,0,0-2.12-.22,4.29,4.29,0,0,0-2,.84l-.64.5a1,1,0,0,1-.61.2,1.07,1.07,0,0,1-.62-.2,1,1,0,0,1-.37-.53,1,1,0,0,1,0-.65l.29-.75a4.32,4.32,0,0,0,.21-2.14,4.38,4.38,0,0,0-.84-2l-.49-.62a1.07,1.07,0,0,1-.2-.62,1,1,0,0,1,.2-.61,1.07,1.07,0,0,1,.53-.38,1,1,0,0,1,.65,0l.74.27a4.32,4.32,0,0,0,4.12-.62l.62-.48a1.08,1.08,0,0,1,.62-.21,1,1,0,0,1,.62.21,1,1,0,0,1,.35,1.17l-.27.74a4.33,4.33,0,0,0-.22,2.14,4.17,4.17,0,0,0,.83,2l.49.64a1.05,1.05,0,0,1,.21.62,1,1,0,0,1-.2.61,1.07,1.07,0,0,1-.53.38A1.11,1.11,0,0,1,359.5,1862.49Z"/><path class="cls-2" d="M820,1702.09l-.75-.28a4.31,4.31,0,0,0-4.1.61l-.64.5a1.09,1.09,0,0,1-.61.21,1.07,1.07,0,0,1-.62-.2,1,1,0,0,1-.37-.53,1,1,0,0,1,0-.65l.28-.76a4.28,4.28,0,0,0,.21-2.13,4.37,4.37,0,0,0-.84-2l-.48-.62a1,1,0,0,1-.21-.62,1,1,0,0,1,.2-.61,1.07,1.07,0,0,1,.53-.38,1.11,1.11,0,0,1,.65,0l.74.28a4.44,4.44,0,0,0,2.14.21,4.37,4.37,0,0,0,2-.84l.63-.47a1,1,0,0,1,.61-.21,1.07,1.07,0,0,1,.62.2,1,1,0,0,1,.37.53,1,1,0,0,1,0,.64l-.27.75a4.33,4.33,0,0,0,.61,4.11l.45.69a1,1,0,0,1,.15.58,1,1,0,0,1-.2.56,1,1,0,0,1-.48.36,1,1,0,0,1-.6,0Z"/><path class="cls-2" d="M806.39,1555.07l-.75-.28a4.22,4.22,0,0,0-2.14-.21,4.29,4.29,0,0,0-2,.84l-.66.38a1,1,0,0,1-.61.2,1.06,1.06,0,0,1-.62-.19,1,1,0,0,1-.37-.54.94.94,0,0,1,0-.64l.27-.74a4.25,4.25,0,0,0,.2-2.09,4.38,4.38,0,0,0-.79-1.93l-.49-.63a1,1,0,0,1-.2-.61,1.07,1.07,0,0,1,.2-.62,1,1,0,0,1,.53-.37,1,1,0,0,1,.65,0l.74.27a4.33,4.33,0,0,0,4.11-.61l.63-.49a1.08,1.08,0,0,1,.62-.21,1,1,0,0,1,.61.2,1.07,1.07,0,0,1,.38.53,1,1,0,0,1,0,.65l-.28.75a4.28,4.28,0,0,0,.62,4.1l.49.64a1,1,0,0,1,.21.61,1.07,1.07,0,0,1-.2.62,1,1,0,0,1-.53.37,1,1,0,0,1-.65,0Z"/><path class="cls-2" d="M674.19,692.94l-.74-.27a4.23,4.23,0,0,0-2.14-.22,4.32,4.32,0,0,0-2,.84l-.63.48a1.12,1.12,0,0,1-.61.21,1,1,0,0,1-.62-.21,1,1,0,0,1-.37-.52,1,1,0,0,1,0-.65l.28-.74a4.33,4.33,0,0,0,.21-2.14,4.16,4.16,0,0,0-.84-2l-.48-.62a1,1,0,0,1-.2-.62,1,1,0,0,1,.2-.61,1,1,0,0,1,.53-.38,1.08,1.08,0,0,1,.64,0l.74.28a4.46,4.46,0,0,0,2.14.23,4.37,4.37,0,0,0,2-.84l.63-.49a1,1,0,0,1,.62-.21,1,1,0,0,1,.61.2,1,1,0,0,1,.38.53,1,1,0,0,1,0,.64l-.28.76a4.27,4.27,0,0,0,.63,4.11l.48.62a1.05,1.05,0,0,1,.21.62,1,1,0,0,1-.2.61,1.11,1.11,0,0,1-.53.38,1,1,0,0,1-.65,0Z"/><path class="cls-2" d="M760,1360.81l-.74-.27a4.33,4.33,0,0,0-4.13.62l-.62.48a1.05,1.05,0,0,1-.62.21,1,1,0,0,1-.61-.2,1.07,1.07,0,0,1-.38-.53,1.11,1.11,0,0,1,0-.65l.28-.74a4.35,4.35,0,0,0-.63-4.12l-.48-.63a1,1,0,0,1,0-1.23,1,1,0,0,1,.54-.37,1,1,0,0,1,.64,0l.74.28a4.33,4.33,0,0,0,2.14.22,4.28,4.28,0,0,0,2-.84l.63-.48a1,1,0,0,1,.61-.21,1,1,0,0,1,.62.2,1.07,1.07,0,0,1,.38.53,1.11,1.11,0,0,1,0,.65l-.28.74a4.33,4.33,0,0,0-.22,2.14,4.28,4.28,0,0,0,.85,2l.48.63a1,1,0,0,1,.2.61.94.94,0,0,1-.2.62,1,1,0,0,1-1.17.35Z"/><path class="cls-2" d="M969.22,937.19l-.74-.27a4.32,4.32,0,0,0-4.12.62l-.63.48a1,1,0,0,1-.61.21,1.07,1.07,0,0,1-.62-.2,1,1,0,0,1-.37-.53,1,1,0,0,1,0-.65l.27-.74a4.32,4.32,0,0,0-.62-4.12l-.48-.63a1,1,0,0,1-.21-.61,1,1,0,0,1,.2-.62,1,1,0,0,1,.53-.37,1,1,0,0,1,.65,0l.74.27a4.22,4.22,0,0,0,2.14.23,4.29,4.29,0,0,0,2-.84L968,929a1,1,0,0,1,.61-.21,1.07,1.07,0,0,1,.62.2,1,1,0,0,1,.37.53,1,1,0,0,1,0,.65l-.28.75a4.33,4.33,0,0,0,.63,4.11l.48.63a1,1,0,0,1,.21.61,1.07,1.07,0,0,1-.2.62,1,1,0,0,1-.53.37,1,1,0,0,1-.65,0Z"/><path class="cls-2" d="M657.39,1738.68l-.74-.28a4.32,4.32,0,0,0-4.12.62l-.63.48a1,1,0,0,1-.61.21,1.07,1.07,0,0,1-.62-.2,1,1,0,0,1-.37-.53,1,1,0,0,1,0-.65l.27-.74a4.26,4.26,0,0,0-.61-4.11l-.49-.63a1,1,0,0,1,0-1.24,1,1,0,0,1,.53-.37,1,1,0,0,1,.65,0l.75.28a4.34,4.34,0,0,0,2.14.22,4.2,4.2,0,0,0,2-.85l.63-.48a1.09,1.09,0,0,1,.61-.21,1.07,1.07,0,0,1,.62.2,1,1,0,0,1,.37.53,1,1,0,0,1,0,.65l-.27.74a4.41,4.41,0,0,0,.62,4.13l.48.62a1,1,0,0,1,.21.62,1,1,0,0,1-.73,1A1.11,1.11,0,0,1,657.39,1738.68Z"/><path class="cls-2" d="M1071.07,1332.48l-.74-.27a4.41,4.41,0,0,0-2.16-.21,4.3,4.3,0,0,0-2,.87l-.63.48a1,1,0,0,1-.61.21,1.07,1.07,0,0,1-.62-.2,1.05,1.05,0,0,1-.36-1.18l.28-.74a4.29,4.29,0,0,0-.55-4.13l-.48-.63a1,1,0,0,1-.21-.61,1.07,1.07,0,0,1,.2-.62,1,1,0,0,1,.53-.37,1,1,0,0,1,.65,0l.74.28a4.25,4.25,0,0,0,2.15.19,4.38,4.38,0,0,0,2-.9l.63-.48a1.09,1.09,0,0,1,.61-.21,1,1,0,0,1,.62.21,1.09,1.09,0,0,1,.37.52,1,1,0,0,1,0,.65l-.27.74a4.37,4.37,0,0,0-.23,2.15,4.28,4.28,0,0,0,.85,2l.48.62a1,1,0,0,1,.31.66,1.09,1.09,0,0,1-.19.7,1.08,1.08,0,0,1-.61.39,1.06,1.06,0,0,1-.72-.11Z"/><path class="cls-2" d="M1012.67,1144.53l-.74-.27a4.29,4.29,0,0,0-2.13-.23,4.46,4.46,0,0,0-2,.83l-.64.5a1,1,0,0,1-.61.2.94.94,0,0,1-.62-.2,1,1,0,0,1-.37-.53.94.94,0,0,1,0-.64l.28-.76a4.29,4.29,0,0,0,.22-2.13,4.38,4.38,0,0,0-.84-2l-.49-.63a1,1,0,0,1-.21-.62,1,1,0,0,1,1.38-1l.75.28a4.21,4.21,0,0,0,2.14.21,4.38,4.38,0,0,0,2-.84l.63-.48a1,1,0,0,1,.61-.2.94.94,0,0,1,.62.2,1,1,0,0,1,.35,1.17l-.27.74a4.33,4.33,0,0,0-.21,2.14,4.28,4.28,0,0,0,.83,2l.48.62a1.05,1.05,0,0,1,.21.62,1,1,0,0,1-.2.61,1.07,1.07,0,0,1-.53.38A1,1,0,0,1,1012.67,1144.53Z"/><path class="cls-2" d="M931.05,620.62l-.75-.28a4.26,4.26,0,0,0-4.11.63l-.63.48a1,1,0,0,1-.61.21,1.07,1.07,0,0,1-.62-.2,1,1,0,0,1-.37-.53,1,1,0,0,1,0-.65l.27-.74a4.32,4.32,0,0,0-.62-4.12l-.48-.63a1,1,0,0,1-.21-.61,1.07,1.07,0,0,1,.2-.62,1,1,0,0,1,.53-.37,1,1,0,0,1,.65,0l.74.27a4.32,4.32,0,0,0,2.14.21,4.38,4.38,0,0,0,2-.84l.63-.48a1,1,0,0,1,1.22,0,1.07,1.07,0,0,1,.38.53,1,1,0,0,1,0,.65l-.27.74a4.18,4.18,0,0,0-.23,2.13,4.12,4.12,0,0,0,.84,2l.49.64a1,1,0,0,1,.21.61,1,1,0,0,1-.72,1,1,1,0,0,1-.65,0Z"/><path class="cls-2" d="M656.3,1581.13l-.75-.27a4.18,4.18,0,0,0-2.13-.23,4.46,4.46,0,0,0-2,.83l-.64.5a1,1,0,0,1-.61.21,1.07,1.07,0,0,1-.62-.2,1.16,1.16,0,0,1-.37-.53,1,1,0,0,1,0-.65l.28-.76a4.25,4.25,0,0,0-.63-4.1l-.48-.63a1,1,0,0,1,0-1.23,1,1,0,0,1,.53-.37,1,1,0,0,1,.65,0l.74.28a4.46,4.46,0,0,0,2.14.22,4.37,4.37,0,0,0,2-.84l.63-.48a1,1,0,0,1,.61-.21,1,1,0,0,1,.62.2,1,1,0,0,1,.37.53,1,1,0,0,1,0,.65l-.27.74a4.32,4.32,0,0,0-.21,2.14,4.16,4.16,0,0,0,.84,2l.47.63a1,1,0,0,1,.21.61,1.07,1.07,0,0,1-.2.62,1,1,0,0,1-1.17.35Z"/><path class="cls-2" d="M521.71,1821.15l-1.05-.4a6.16,6.16,0,0,0-5.82.88l-.88.69a1.54,1.54,0,0,1-.88.31,1.51,1.51,0,0,1-.88-.28,1.42,1.42,0,0,1-.49-1.69l.39-1.05a6.1,6.1,0,0,0,.3-3,6,6,0,0,0-1.18-2.8l-.68-.89a1.43,1.43,0,0,1-.3-.86,1.45,1.45,0,0,1,1-1.4,1.45,1.45,0,0,1,.92,0l1,.38a6.15,6.15,0,0,0,5.82-.88l.89-.68a1.42,1.42,0,0,1,.87-.29,1.48,1.48,0,0,1,.86.29,1.5,1.5,0,0,1,.53.74,1.45,1.45,0,0,1,0,.92l-.4,1a6.24,6.24,0,0,0-.3,3,6.13,6.13,0,0,0,1.18,2.79l.68.9a1.42,1.42,0,0,1,.29.87,1.39,1.39,0,0,1-.28.87,1.47,1.47,0,0,1-1.66.5Z"/><path class="cls-2" d="M142.64,922l.27.74a4.39,4.39,0,0,0,1.23,1.77,4.31,4.31,0,0,0,1.94,1l.77.17a1.08,1.08,0,0,1,.55.33,1.06,1.06,0,0,1,.24.59,1,1,0,0,1-.15.62,1,1,0,0,1-.49.41l-.75.29a4.24,4.24,0,0,0-1.76,1.22,4.36,4.36,0,0,0-1,1.92l-.16.78a1,1,0,0,1-.33.56,1,1,0,0,1-.6.25,1,1,0,0,1-1-.67l-.27-.74a4.36,4.36,0,0,0-1.23-1.76,4.26,4.26,0,0,0-1.93-.94l-.77-.18a1,1,0,0,1-.57-.31.93.93,0,0,1-.26-.6,1,1,0,0,1,.16-.64,1,1,0,0,1,.52-.4l.74-.29a4.33,4.33,0,0,0,1.76-1.23,4.41,4.41,0,0,0,1-1.92l.16-.78a1,1,0,0,1,.33-.55.93.93,0,0,1,.59-.25,1,1,0,0,1,.63.16A1,1,0,0,1,142.64,922Z"/><path class="cls-2" d="M459.53,1201.93l-1.82-.65a10.48,10.48,0,0,0-10,1.5l-1.54,1.18a2.57,2.57,0,0,1-1.5.52,2.52,2.52,0,0,1-1.51-.49,2.56,2.56,0,0,1-.92-1.3,2.47,2.47,0,0,1,.05-1.59l.68-1.82a10.47,10.47,0,0,0-1.52-10l-1.18-1.55a2.55,2.55,0,0,1-.52-1.5,2.45,2.45,0,0,1,.49-1.52,2.56,2.56,0,0,1,1.3-.91,2.51,2.51,0,0,1,1.58.06l1.83.68A10.52,10.52,0,0,0,455,1183l1.54-1.18a2.47,2.47,0,0,1,1.5-.51,2.44,2.44,0,0,1,1.51.49,2.46,2.46,0,0,1,.91,1.29,2.54,2.54,0,0,1,0,1.59l-.68,1.82a10.59,10.59,0,0,0,1.52,10.07l1.17,1.53a2.47,2.47,0,0,1,.53,1.5,2.5,2.5,0,0,1-.49,1.51,2.45,2.45,0,0,1-1.3.91,2.54,2.54,0,0,1-1.59-.06Z"/><path class="cls-2" d="M517.54,958.34l1.83.68a10.51,10.51,0,0,0,10-1.51l1.54-1.18a2.49,2.49,0,0,1,1.5-.53,2.6,2.6,0,0,1,1.52.49,2.49,2.49,0,0,1,.85,2.89l-.67,1.84a10.51,10.51,0,0,0,1.52,10l1.18,1.55a2.48,2.48,0,0,1,0,3,2.5,2.5,0,0,1-2.89.87l-1.82-.67a10.51,10.51,0,0,0-10.09,1.47l-1.56,1.17a2.49,2.49,0,0,1-1.5.53,2.57,2.57,0,0,1-1.51-.49,2.45,2.45,0,0,1-.91-1.3,2.41,2.41,0,0,1,.06-1.59l.67-1.82a10.59,10.59,0,0,0-1.53-10l-1.18-1.54a2.5,2.5,0,0,1-.49-1.51,2.45,2.45,0,0,1,.51-1.5,2.5,2.5,0,0,1,2.89-.83Z"/><path class="cls-2" d="M413.32,955l.75.28a4.3,4.3,0,0,0,2.13.22,4.17,4.17,0,0,0,2-.83l.64-.5a1,1,0,0,1,.61-.21,1.07,1.07,0,0,1,.62.2,1,1,0,0,1,.37.53,1,1,0,0,1,0,.65l-.28.76a4.32,4.32,0,0,0,.63,4.1l.48.63a1,1,0,0,1,.21.61,1,1,0,0,1-.2.62,1,1,0,0,1-.53.37,1,1,0,0,1-.65,0l-.74-.28a4.32,4.32,0,0,0-2.14-.21,4.37,4.37,0,0,0-2,.84l-.63.47a1,1,0,0,1-.61.21,1.07,1.07,0,0,1-.62-.2,1,1,0,0,1-.37-.53,1,1,0,0,1,0-.65l.27-.74a4.33,4.33,0,0,0-.61-4.11l-.49-.64a1,1,0,0,1-.21-.61,1.07,1.07,0,0,1,.2-.62,1,1,0,0,1,.53-.37,1,1,0,0,1,.65,0Z"/><path class="cls-2" d="M240.1,1013.23l.75.29a4.32,4.32,0,0,0,2.14.21,4.24,4.24,0,0,0,2-.85l.63-.48a1,1,0,0,1,.61-.2,1,1,0,0,1,1,.73,1,1,0,0,1,0,.65l-.27.73a4.34,4.34,0,0,0,.62,4.13l.48.62a1,1,0,0,1,0,1.23,1.07,1.07,0,0,1-.53.38,1.11,1.11,0,0,1-.65,0l-.74-.28a4.42,4.42,0,0,0-2.13-.22,4.46,4.46,0,0,0-2,.83l-.64.5a1,1,0,0,1-.61.21,1.07,1.07,0,0,1-.62-.2,1,1,0,0,1-.37-.54,1.08,1.08,0,0,1,0-.64l.29-.76a4.28,4.28,0,0,0,.22-2.13,4.38,4.38,0,0,0-.84-2l-.49-.63a1,1,0,0,1-.21-.62,1,1,0,0,1,.2-.61,1,1,0,0,1,.53-.37,1,1,0,0,1,.65,0Z"/><path class="cls-2" d="M402.4,1089.61l.75.28a4.22,4.22,0,0,0,2.14.22,4.26,4.26,0,0,0,2-.84l.63-.48a1,1,0,0,1,.61-.21,1.07,1.07,0,0,1,.62.2,1.11,1.11,0,0,1,.37.53,1,1,0,0,1,0,.65l-.27.74a4.33,4.33,0,0,0-.23,2.14,4.38,4.38,0,0,0,.85,2l.48.63a1,1,0,0,1,0,1.22,1.07,1.07,0,0,1-.53.38,1,1,0,0,1-.65,0l-.74-.27a4.22,4.22,0,0,0-2.14-.22,4.37,4.37,0,0,0-2,.84l-.63.48a1,1,0,0,1-.61.21,1,1,0,0,1-.62-.2,1,1,0,0,1-.37-.53,1,1,0,0,1,0-.65l.27-.74a4.32,4.32,0,0,0-.62-4.12l-.48-.63a1,1,0,0,1-.21-.61,1,1,0,0,1,.2-.62,1,1,0,0,1,.53-.37,1,1,0,0,1,.64,0Z"/><path class="cls-2" d="M437.71,75.35l.74.27a4.26,4.26,0,0,0,4.11-.63l.64-.47a1,1,0,0,1,.61-.22,1.07,1.07,0,0,1,.62.2,1,1,0,0,1,.37.53.91.91,0,0,1,0,.65l-.26.75a4.33,4.33,0,0,0-.22,2.14,4.25,4.25,0,0,0,.83,2l.5.63a1,1,0,0,1,0,1.23,1.07,1.07,0,0,1-.53.38,1.11,1.11,0,0,1-.65,0l-.75-.29a4.41,4.41,0,0,0-2.13-.22,4.33,4.33,0,0,0-2,.84l-.65.48a1,1,0,0,1-.61.23,1.07,1.07,0,0,1-.62-.2,1,1,0,0,1-.37-.54,1,1,0,0,1,0-.64l.27-.77a4.29,4.29,0,0,0,.22-2.13,4.38,4.38,0,0,0-.84-2l-.48-.62a1,1,0,0,1,0-1.24,1.11,1.11,0,0,1,.53-.37,1,1,0,0,1,.65,0Z"/><path class="cls-2" d="M615.36,355.71l.76.33a4.44,4.44,0,0,0,2.14.21,4.37,4.37,0,0,0,2-.84l.63-.48a1,1,0,0,1,.61-.2.94.94,0,0,1,.62.2,1,1,0,0,1,.37.53.94.94,0,0,1,0,.64l-.27.74A4.37,4.37,0,0,0,622,359a4.21,4.21,0,0,0,.8,2l.49.63a1.08,1.08,0,0,1,.21.62,1,1,0,0,1-.2.61,1.07,1.07,0,0,1-.53.38,1.11,1.11,0,0,1-.65,0l-.75-.29a4.3,4.3,0,0,0-2.13-.21,4.17,4.17,0,0,0-2,.83l-.64.5a1,1,0,0,1-.61.2,1,1,0,0,1-.62-.2,1,1,0,0,1-.37-.53.94.94,0,0,1,0-.64l.28-.76a4.26,4.26,0,0,0,.24-2.12,4.32,4.32,0,0,0-.81-2l-.48-.63a1,1,0,0,1-.23-.61,1,1,0,0,1,.71-1,1,1,0,0,1,.65,0Z"/><path class="cls-2" d="M641,240.68l.75.29a4.33,4.33,0,0,0,2.14.22,4.39,4.39,0,0,0,2-.85l.62-.48a1,1,0,0,1,.62-.21,1.07,1.07,0,0,1,.62.2,1,1,0,0,1,.37.53,1,1,0,0,1,0,.65l-.27.74a4.3,4.3,0,0,0-.21,2.13,4.37,4.37,0,0,0,.84,2l.48.62a1,1,0,0,1,0,1.23,1.07,1.07,0,0,1-.53.38,1.11,1.11,0,0,1-.65,0l-.74-.28a4.45,4.45,0,0,0-2.14-.21,4.26,4.26,0,0,0-2,.84l-.63.48a1,1,0,0,1-.61.2.94.94,0,0,1-.62-.2,1,1,0,0,1-.37-.53,1,1,0,0,1,0-.64l.28-.74a4.45,4.45,0,0,0,.23-2.14,4.37,4.37,0,0,0-.84-2l-.49-.63a1,1,0,0,1-.19-.61,1,1,0,0,1,.19-.6,1,1,0,0,1,.52-.37,1.16,1.16,0,0,1,.64,0Z"/><path class="cls-2" d="M416.68,52.63l.75.28a4.22,4.22,0,0,0,2.11.18,4.38,4.38,0,0,0,1.95-.85l.71-.48a1.09,1.09,0,0,1,.61-.21,1,1,0,0,1,.62.21,1,1,0,0,1,.35,1.17l-.27.74a4.33,4.33,0,0,0-.21,2.14,4.55,4.55,0,0,0,.83,2l.48.62a1,1,0,0,1,.21.62,1,1,0,0,1-.2.61,1.07,1.07,0,0,1-.53.38,1.11,1.11,0,0,1-.65,0l-.74-.28a4.41,4.41,0,0,0-2.13-.22,4.35,4.35,0,0,0-2,.83l-.64.49a1,1,0,0,1-.61.21,1,1,0,0,1-1-1.37l.28-.76a4.29,4.29,0,0,0,.22-2.13,4.33,4.33,0,0,0-.84-2l-.49-.63a1.05,1.05,0,0,1-.16-.59,1,1,0,0,1,.2-.58.93.93,0,0,1,.49-.36,1,1,0,0,1,.61,0Z"/><path class="cls-2" d="M341.21,894.61l.76.27a4.18,4.18,0,0,0,2.13.22,4.09,4.09,0,0,0,2-.84l.63-.47a1,1,0,0,1,.61-.21,1.07,1.07,0,0,1,.62.2,1,1,0,0,1,.37.53,1,1,0,0,1,0,.65l-.27.73a4.35,4.35,0,0,0,.63,4.12l.47.64a1,1,0,0,1,.22.61,1,1,0,0,1-.19.62,1,1,0,0,1-.54.37,1,1,0,0,1-.65,0l-.75-.26a4.37,4.37,0,0,0-4.11.6l-.63.49a1,1,0,0,1-.61.2,1,1,0,0,1-1-.73,1,1,0,0,1,0-.65l.27-.74a4.26,4.26,0,0,0,.22-2.12,4.37,4.37,0,0,0-.84-2l-.48-.64a1,1,0,0,1,0-1.24,1,1,0,0,1,.54-.37,1,1,0,0,1,.65,0Z"/><path class="cls-2" d="M667.8,1009.88l-1.82-.68a10.58,10.58,0,0,0-5.23-.53,10.46,10.46,0,0,0-4.83,2.05l-1.55,1.18a2.47,2.47,0,0,1-1.5.53,2.5,2.5,0,0,1-1.51-.49,2.45,2.45,0,0,1-.91-1.3,2.41,2.41,0,0,1,.06-1.59l.66-1.83a10.44,10.44,0,0,0,.54-5.22,10.55,10.55,0,0,0-2-4.83l-1.19-1.55a2.53,2.53,0,0,1-.53-1.5,2.57,2.57,0,0,1,.49-1.51,2.49,2.49,0,0,1,2.89-.85l1.84.66a10.47,10.47,0,0,0,10-1.51l1.56-1.18a2.55,2.55,0,0,1,1.5-.52,2.5,2.5,0,0,1,2.42,1.79,2.38,2.38,0,0,1-.06,1.58l-.67,1.83a10.55,10.55,0,0,0,1.52,10.05l1.18,1.56a2.44,2.44,0,0,1,.53,1.49,2.58,2.58,0,0,1-.49,1.52,2.5,2.5,0,0,1-1.3.91,2.54,2.54,0,0,1-1.59-.06Z"/><path class="cls-2" d="M1105.35,885.34l-1.83-.66a10.42,10.42,0,0,0-10,1.51l-1.54,1.18a2.49,2.49,0,0,1-1.5.51,2.45,2.45,0,0,1-1.52-.49,2.54,2.54,0,0,1-.91-1.29,2.47,2.47,0,0,1,0-1.59l.68-1.82a10.59,10.59,0,0,0-1.53-10.05l-1.18-1.56a2.49,2.49,0,0,1-.49-1.49,2.55,2.55,0,0,1,.48-1.49,2.53,2.53,0,0,1,2.86-.88l1.83.68a10.58,10.58,0,0,0,10.06-1.52l1.54-1.19a2.61,2.61,0,0,1,1.5-.51,2.57,2.57,0,0,1,1.51.49,2.49,2.49,0,0,1,.91,1.3,2.54,2.54,0,0,1,0,1.59l-.68,1.82a10.51,10.51,0,0,0,1.51,10l1.18,1.55a2.45,2.45,0,0,1,.53,1.5,2.5,2.5,0,0,1-3.38,2.36Z"/><path class="cls-2" d="M129.13,1706.52l-1.84-.66a10.51,10.51,0,0,0-5.21-.55,10.4,10.4,0,0,0-4.82,2.06l-1.55,1.18a2.47,2.47,0,0,1-1.5.51,2.51,2.51,0,0,1-2.42-1.78,2.54,2.54,0,0,1,0-1.59l.68-1.82a10.52,10.52,0,0,0-1.53-10l-1.17-1.56a2.51,2.51,0,0,1,2.85-3.86l1.82.68a10.58,10.58,0,0,0,10.06-1.52l1.54-1.18a2.51,2.51,0,0,1,3,0,2.6,2.6,0,0,1,.91,1.3,2.47,2.47,0,0,1,0,1.59l-.67,1.82a10.48,10.48,0,0,0,1.5,10l1.19,1.54a2.55,2.55,0,0,1,.52,1.5,2.5,2.5,0,0,1-.48,1.52,2.47,2.47,0,0,1-1.31.91A2.51,2.51,0,0,1,129.13,1706.52Z"/><path class="cls-2" d="M845.28,826.4l-1.06-.38a6.07,6.07,0,0,0-5.81.88l-.9.67a1.43,1.43,0,0,1-.87.3,1.53,1.53,0,0,1-.87-.28,1.47,1.47,0,0,1-.52-.75,1.45,1.45,0,0,1,0-.92l.4-1a6.24,6.24,0,0,0,.3-3,6.13,6.13,0,0,0-1.18-2.79l-.68-.9a1.42,1.42,0,0,1-.29-.87,1.41,1.41,0,0,1,.28-.86,1.43,1.43,0,0,1,.75-.53,1.49,1.49,0,0,1,.91,0l1,.4a6.16,6.16,0,0,0,5.82-.88l.88-.69a1.45,1.45,0,0,1,1.74,0,1.42,1.42,0,0,1,.5,1.65l-.38,1.06a6.08,6.08,0,0,0,.88,5.82l.68.89a1.45,1.45,0,0,1-.73,2.26,1.45,1.45,0,0,1-.92,0Z"/><path class="cls-2" d="M1093.39,727.65l-1.06-.38a6,6,0,0,0-5.85.94l-.89.68a1.54,1.54,0,0,1-.87.29,1.5,1.5,0,0,1-.87-.28,1.48,1.48,0,0,1-.53-.75,1.45,1.45,0,0,1,0-.92l.38-1.05a6,6,0,0,0,.31-3,6,6,0,0,0-1.18-2.78l-.68-.89a1.55,1.55,0,0,1-.3-.87,1.44,1.44,0,0,1,.29-.87,1.42,1.42,0,0,1,.74-.53,1.45,1.45,0,0,1,.92,0l1.05.38a6,6,0,0,0,5.85-.94l.9-.68a1.42,1.42,0,0,1,.86-.29,1.4,1.4,0,0,1,.88.28,1.47,1.47,0,0,1,.52.75,1.42,1.42,0,0,1,0,.91l-.38,1.06a6.17,6.17,0,0,0-.31,3,5.92,5.92,0,0,0,1.19,2.78l.68.9a1.42,1.42,0,0,1,.29.87,1.5,1.5,0,0,1-.28.87,1.55,1.55,0,0,1-.75.53,1.42,1.42,0,0,1-.91,0Z"/><path class="cls-2" d="M628.39,743l-.74-.28a4.39,4.39,0,0,0-4.14.61l-.63.48a1,1,0,0,1-.61.21,1.07,1.07,0,0,1-.62-.2,1,1,0,0,1-.37-.53,1,1,0,0,1,0-.65l.27-.74a4.33,4.33,0,0,0-.61-4.11l-.49-.64a1,1,0,0,1-.21-.61,1.07,1.07,0,0,1,.2-.62,1,1,0,0,1,.53-.37,1,1,0,0,1,.65,0l.75.28a4.29,4.29,0,0,0,2.13.22,4.18,4.18,0,0,0,2-.84l.64-.49a1,1,0,0,1,.61-.21,1.07,1.07,0,0,1,.62.2,1,1,0,0,1,.37.53,1,1,0,0,1,0,.65l-.28.75a4.33,4.33,0,0,0-.21,2.14,4.29,4.29,0,0,0,.84,2l.48.63a1,1,0,0,1,0,1.23,1,1,0,0,1-.53.38A1.08,1.08,0,0,1,628.39,743Z"/><path class="cls-2" d="M747.87,895l-1.07-.41a6,6,0,0,0-3-.3,6,6,0,0,0-2.79,1.19l-.9.68a1.44,1.44,0,0,1-2.23-1.65l.39-1.05a6.16,6.16,0,0,0-.88-5.82l-.69-.88a1.44,1.44,0,0,1-.29-.87,1.5,1.5,0,0,1,.28-.87,1.48,1.48,0,0,1,.75-.53,1.42,1.42,0,0,1,.91,0l1.06.38a6.06,6.06,0,0,0,5.81-.86l.9-.7a1.47,1.47,0,0,1,.86-.3,1.44,1.44,0,0,1,.87.29,1.44,1.44,0,0,1,.5,1.66L748,886a6.05,6.05,0,0,0,.88,5.8l.69.9a1.44,1.44,0,0,1,.29.87,1.5,1.5,0,0,1-.28.87,1.55,1.55,0,0,1-.75.53A1.42,1.42,0,0,1,747.87,895Z"/><path class="cls-2" d="M322.82,1895.59l-1.82-.67a10.55,10.55,0,0,0-10.05,1.5l-1.54,1.18a2.5,2.5,0,0,1-3.93-1.26,2.54,2.54,0,0,1,.06-1.59l.66-1.83a10.49,10.49,0,0,0-1.51-10l-1.18-1.54a2.58,2.58,0,0,1-.52-1.51,2.52,2.52,0,0,1,.49-1.5,2.5,2.5,0,0,1,2.89-.87l1.82.68a10.54,10.54,0,0,0,10-1.52l1.55-1.17a2.5,2.5,0,0,1,3.87,2.85l-.68,1.82a10.59,10.59,0,0,0,1.53,10.05l1.18,1.54a2.5,2.5,0,0,1-1.27,3.93,2.54,2.54,0,0,1-1.59-.05Z"/><path class="cls-2" d="M243.55,1899l-.74-.27a4.22,4.22,0,0,0-2.14-.22,4.32,4.32,0,0,0-2,.84l-.63.48a1,1,0,0,1-.61.21,1.07,1.07,0,0,1-.62-.2,1,1,0,0,1-.37-.53,1,1,0,0,1,0-.65l.28-.74a4.45,4.45,0,0,0,.22-2.14,4.37,4.37,0,0,0-.84-2l-.48-.63a1,1,0,0,1-.21-.61,1.07,1.07,0,0,1,.2-.62,1,1,0,0,1,.53-.37,1,1,0,0,1,.65,0l.74.27a4.32,4.32,0,0,0,4.12-.62l.63-.48a1,1,0,0,1,.61-.21,1.07,1.07,0,0,1,.62.2,1,1,0,0,1,.37.53,1,1,0,0,1,0,.65l-.27.74a4.22,4.22,0,0,0-.23,2.14,4.28,4.28,0,0,0,.85,2l.48.63a1,1,0,0,1,.21.61,1.07,1.07,0,0,1-.2.62,1,1,0,0,1-.53.37A1,1,0,0,1,243.55,1899Z"/><path class="cls-2" d="M307.05,1502.4,306,1502a6.08,6.08,0,0,0-3-.31,6.17,6.17,0,0,0-2.78,1.19l-.9.68a1.44,1.44,0,0,1-.87.29,1.37,1.37,0,0,1-.87-.28,1.44,1.44,0,0,1-.5-1.66l.4-1.05a6.19,6.19,0,0,0,.3-3,6.12,6.12,0,0,0-1.18-2.8l-.69-.88a1.42,1.42,0,0,1-.29-.87,1.39,1.39,0,0,1,.28-.87,1.43,1.43,0,0,1,.75-.52,1.35,1.35,0,0,1,.91,0l1.06.39a6.17,6.17,0,0,0,3,.31,6,6,0,0,0,2.8-1.18l.89-.7a1.42,1.42,0,0,1,.87-.29,1.37,1.37,0,0,1,.87.28,1.47,1.47,0,0,1,.52.75,1.35,1.35,0,0,1,0,.91l-.39,1.07a6,6,0,0,0,.87,5.8l.69.91a1.49,1.49,0,0,1,.3.86,1.44,1.44,0,0,1-.29.87,1.42,1.42,0,0,1-.74.53,1.45,1.45,0,0,1-.92,0Z"/><path class="cls-2" d="M460.7,1373.37l-.74-.27a4.3,4.3,0,0,0-2.13-.22,4.18,4.18,0,0,0-2,.84l-.65.48a1,1,0,0,1-1.24,0,1.06,1.06,0,0,1-.37-.54,1,1,0,0,1,0-.65l.26-.76a4.31,4.31,0,0,0-.61-4.1l-.5-.64a1.12,1.12,0,0,1-.21-.61,1,1,0,0,1,.2-.62,1,1,0,0,1,.53-.37,1,1,0,0,1,.65,0l.76.29a4.28,4.28,0,0,0,2.13.21,4.37,4.37,0,0,0,2-.84l.63-.47a1,1,0,0,1,1.24,0,1,1,0,0,1,.37.54,1,1,0,0,1,0,.65l-.26.75a4.18,4.18,0,0,0-.23,2.13,4.37,4.37,0,0,0,.84,2l.48.63a1.09,1.09,0,0,1,.21.61,1,1,0,0,1-1.38,1Z"/><path class="cls-2" d="M190.38,1511.09l-.75-.29a4.28,4.28,0,0,0-2.13-.18,4.43,4.43,0,0,0-1.95.88l-.62.48a1.05,1.05,0,0,1-.62.21,1.07,1.07,0,0,1-.62-.2,1,1,0,0,1-.37-.53,1,1,0,0,1,0-.65l.27-.74A4.32,4.32,0,0,0,183,1506l-.48-.63a1,1,0,0,1-.21-.61,1.07,1.07,0,0,1,.2-.62,1,1,0,0,1,.53-.37,1,1,0,0,1,.65,0l.74.28a4.41,4.41,0,0,0,4.13-.62l.62-.48a1,1,0,0,1,.61-.21,1,1,0,0,1,1,.73,1.11,1.11,0,0,1,0,.65l-.31.78a4.33,4.33,0,0,0,.61,4.11l.5.64a1,1,0,0,1,.11.58,1,1,0,0,1-.21.54,1,1,0,0,1-.49.34,1.08,1.08,0,0,1-.59,0Z"/><path class="cls-2" d="M267.52,1688.31l-.74-.27a4.22,4.22,0,0,0-2.14-.22,4.37,4.37,0,0,0-2,.84l-.63.48a1.09,1.09,0,0,1-.61.21,1.08,1.08,0,0,1-.62-.21,1,1,0,0,1-.35-1.17l.27-.74a4.33,4.33,0,0,0-.62-4.13l-.48-.62a1,1,0,0,1-.21-.62,1,1,0,0,1,.2-.61,1.07,1.07,0,0,1,.53-.38,1.11,1.11,0,0,1,.65,0l.74.28a4.26,4.26,0,0,0,4.11-.61l.64-.49a1,1,0,0,1,.61-.21.94.94,0,0,1,.62.2,1,1,0,0,1,.37.53.94.94,0,0,1,0,.64l-.28.76a4.3,4.3,0,0,0-.22,2.13,4.38,4.38,0,0,0,.85,2l.48.62a1,1,0,0,1,.21.62,1,1,0,0,1-.2.61,1.07,1.07,0,0,1-.53.38,1,1,0,0,1-.65,0Z"/><path class="cls-2" d="M524.39,1616l-.76-.28a4.29,4.29,0,0,0-2.13-.22,4.38,4.38,0,0,0-2,.85l-.62.48a1,1,0,0,1-1.23,0,1.07,1.07,0,0,1-.38-.53,1,1,0,0,1,0-.65l.27-.74a4.34,4.34,0,0,0,.22-2.14,4.26,4.26,0,0,0-.84-2l-.48-.63a1.12,1.12,0,0,1-.21-.61,1,1,0,0,1,.2-.62,1,1,0,0,1,.53-.37,1,1,0,0,1,.65,0l.74.28a4.33,4.33,0,0,0,2.14.21,4.29,4.29,0,0,0,2-.84l.63-.48a1,1,0,0,1,.61-.21,1.07,1.07,0,0,1,.62.2,1,1,0,0,1,.37.53,1,1,0,0,1,0,.65l-.27.74a4.18,4.18,0,0,0-.23,2.13,4.37,4.37,0,0,0,.84,2l.49.64a1,1,0,0,1,.22.61,1.07,1.07,0,0,1-.2.62,1,1,0,0,1-.53.37.94.94,0,0,1-.64,0Z"/><path class="cls-2" d="M31,1070.72l.74.27a4.34,4.34,0,0,0,2.14.22,4.2,4.2,0,0,0,2-.85l.64-.47a1,1,0,0,1,.61-.22,1,1,0,0,1,.63.2,1,1,0,0,1,.37.53,1,1,0,0,1,0,.65l-.27.75a4.33,4.33,0,0,0-.22,2.14,4.16,4.16,0,0,0,.84,2l.49.63a1,1,0,0,1,.2.62.92.92,0,0,1-.2.61,1,1,0,0,1-.52.38,1.11,1.11,0,0,1-.65,0l-.75-.29a4.27,4.27,0,0,0-4.1.62l-.66.48a1,1,0,0,1-.61.23,1.07,1.07,0,0,1-.62-.2,1,1,0,0,1-.37-.54,1,1,0,0,1,0-.65L31,1077a4.18,4.18,0,0,0,.22-2.13,4.23,4.23,0,0,0-.84-2l-.48-.62a1.07,1.07,0,0,1-.2-.62.94.94,0,0,1,.2-.62,1,1,0,0,1,1.17-.35Z"/><path class="cls-2" d="M208.69,1351.07l.76.34a4.45,4.45,0,0,0,2.14.21,4.37,4.37,0,0,0,2-.84l.63-.48a1,1,0,0,1,.62-.2.92.92,0,0,1,.61.2,1,1,0,0,1,.37.53,1,1,0,0,1,0,.64l-.28.74a4.37,4.37,0,0,0-.23,2.12,4.32,4.32,0,0,0,.8,2l.49.63a1,1,0,0,1,0,1.23,1,1,0,0,1-.53.38,1.11,1.11,0,0,1-.65,0l-.75-.29a4.28,4.28,0,0,0-4.1.62l-.63.5a1.07,1.07,0,0,1-.62.2,1,1,0,0,1-1-1.37l.28-.76a4.26,4.26,0,0,0,.24-2.12,4.32,4.32,0,0,0-.81-2l-.48-.63a1,1,0,0,1-.22-.61,1,1,0,0,1,.18-.62,1.06,1.06,0,0,1,.52-.39,1,1,0,0,1,.65,0Z"/><path class="cls-2" d="M234.3,1236.05l.75.29a4.26,4.26,0,0,0,4.11-.63l.63-.48a1,1,0,0,1,.61-.21,1.07,1.07,0,0,1,.62.2,1,1,0,0,1,.37.53,1,1,0,0,1,0,.65l-.27.74a4.3,4.3,0,0,0-.21,2.13,4.37,4.37,0,0,0,.84,2l.48.62a1,1,0,0,1,.21.62,1,1,0,0,1-.2.61,1.07,1.07,0,0,1-.53.38,1.11,1.11,0,0,1-.65,0l-.74-.28a4.32,4.32,0,0,0-2.14-.21,4.26,4.26,0,0,0-2,.84l-.63.47a1,1,0,0,1-.61.21.94.94,0,0,1-.62-.2,1,1,0,0,1-.37-.53,1,1,0,0,1,0-.64l.27-.74a4.28,4.28,0,0,0-.61-4.12l-.49-.63a1,1,0,0,1-.19-.61,1,1,0,0,1,.71-1,1.07,1.07,0,0,1,.64,0Z"/><path class="cls-2" d="M10,1048l.75.28a4.25,4.25,0,0,0,2.12.18,4.35,4.35,0,0,0,1.94-.85l.71-.48a1.13,1.13,0,0,1,.62-.21,1,1,0,0,1,.61.21,1,1,0,0,1,.38.52,1.11,1.11,0,0,1,0,.65l-.28.74a4.38,4.38,0,0,0,.63,4.13l.48.62a1,1,0,0,1,.2.62,1,1,0,0,1-.2.61,1.07,1.07,0,0,1-.53.38,1.11,1.11,0,0,1-.65,0l-.73-.28a4.46,4.46,0,0,0-2.14-.22,4.35,4.35,0,0,0-2,.83l-.63.49a1,1,0,0,1-1.23,0,1.07,1.07,0,0,1-.38-.53,1,1,0,0,1,0-.65l.28-.75a4.31,4.31,0,0,0-.61-4.1l-.5-.63a1.05,1.05,0,0,1-.16-.59,1,1,0,0,1,.2-.58.93.93,0,0,1,.49-.36,1,1,0,0,1,.61,0Z"/><path class="cls-2" d="M895.22,1226.86l-1.06-.4a6.08,6.08,0,0,0-3-.31,6.17,6.17,0,0,0-2.78,1.19l-.9.68a1.45,1.45,0,0,1-2.24-1.65l.4-1a6.19,6.19,0,0,0,.3-3,6.28,6.28,0,0,0-1.18-2.8l-.69-.88a1.49,1.49,0,0,1-.3-.86,1.47,1.47,0,0,1,.29-.88,1.39,1.39,0,0,1,.75-.52,1.42,1.42,0,0,1,.91,0l1.06.38a6.17,6.17,0,0,0,3,.31,6,6,0,0,0,2.8-1.18l.89-.7a1.42,1.42,0,0,1,.86-.29,1.42,1.42,0,0,1,1.4,1,1.49,1.49,0,0,1,0,.91l-.4,1.07a6.2,6.2,0,0,0-.31,3,6,6,0,0,0,1.19,2.78l.69.91a1.42,1.42,0,0,1,.29.86,1.35,1.35,0,0,1-.28.87,1.44,1.44,0,0,1-.75.53,1.42,1.42,0,0,1-.91,0Z"/><path class="cls-2" d="M778.55,1235.55l-.75-.29a4.32,4.32,0,0,0-4.08.7l-.63.48a1,1,0,0,1-.61.21,1.07,1.07,0,0,1-.62-.2,1,1,0,0,1-.37-.53,1,1,0,0,1,0-.65l.27-.74a4.32,4.32,0,0,0-.62-4.12l-.48-.63a1,1,0,0,1-.21-.61,1.07,1.07,0,0,1,.2-.62,1,1,0,0,1,.53-.37,1,1,0,0,1,.65,0l.74.27a4.32,4.32,0,0,0,4.12-.62l.63-.48a1,1,0,0,1,.61-.21,1.07,1.07,0,0,1,.62.2,1,1,0,0,1,.37.53,1,1,0,0,1,0,.65l-.31.78a4.45,4.45,0,0,0-.23,2.14,4.29,4.29,0,0,0,.84,2l.49.64a1,1,0,0,1,.12.58,1,1,0,0,1-.7.88,1,1,0,0,1-.59,0Z"/><path class="cls-2" d="M796.86,1075.54l.76.33a4.39,4.39,0,0,0,4.12-.62l.63-.48a1,1,0,0,1,.61-.21,1,1,0,0,1,.62.2,1,1,0,0,1,.37.53,1,1,0,0,1,0,.65l-.28.74a4.34,4.34,0,0,0,.57,4.08l.49.64a1,1,0,0,1,.21.61,1.07,1.07,0,0,1-.2.62,1,1,0,0,1-.53.37,1,1,0,0,1-.65,0l-.75-.28a4.31,4.31,0,0,0-4.1.61l-.64.5a1,1,0,0,1-.61.21,1.07,1.07,0,0,1-.62-.2,1,1,0,0,1-.37-.53,1,1,0,0,1,0-.65l.28-.76a4.24,4.24,0,0,0,.24-2.12,4.32,4.32,0,0,0-.81-2l-.48-.63a1,1,0,0,1-.22-.61,1,1,0,0,1,.18-.62,1.06,1.06,0,0,1,.52-.39,1,1,0,0,1,.65,0Z"/><path class="cls-2" d="M822.47,960.52l.75.28a4.22,4.22,0,0,0,2.14.22,4.3,4.3,0,0,0,2-.85l.62-.48a1,1,0,0,1,1.24,0,1,1,0,0,1,.37.53,1,1,0,0,1,0,.65l-.27.74a4.32,4.32,0,0,0-.21,2.14,4.38,4.38,0,0,0,.84,2l.48.63a1,1,0,0,1,.21.61,1.07,1.07,0,0,1-.2.62,1.11,1.11,0,0,1-.53.37,1,1,0,0,1-.65,0l-.74-.27a4.32,4.32,0,0,0-4.12.62l-.63.48a1,1,0,0,1-.61.21,1.07,1.07,0,0,1-.62-.2,1.05,1.05,0,0,1-.36-1.18l.28-.74a4.28,4.28,0,0,0-.61-4.12l-.49-.63a1,1,0,0,1-.19-.61,1,1,0,0,1,.2-.6,1,1,0,0,1,.51-.37,1.08,1.08,0,0,1,.64,0Z"/><path class="cls-3" d="M464.85,1307.33c-.5-1.06-1-2.13-1.52-3.18A128.55,128.55,0,0,0,373,1315.42c-67.61,35.33-95.49,122.23-62.27,194.09.5,1.07,1,2.14,1.52,3.19a128.61,128.61,0,0,0,90.37-11.27C470.21,1466.11,498.09,1379.22,464.85,1307.33Z"/><g class="cls-4"><path class="cls-5" d="M587.46,1650.51c111.88-118.93,111.88-311.77,0-430.7s-293.29-118.94-405.18,0-111.88,311.77,0,430.7S475.57,1769.45,587.46,1650.51Z"/><path class="cls-6" d="M583.15,1645.94c109.51-116.41,109.51-305.15,0-421.55s-287-116.41-396.56,0-109.51,305.14,0,421.55S473.64,1762.34,583.15,1645.94Z"/><path class="cls-7" d="M578.83,1641.35C686,1527.47,686,1342.85,578.83,1229S298,1115.1,190.91,1229s-107.13,298.49,0,412.37S471.71,1755.22,578.83,1641.35Z"/><path class="cls-8" d="M574.52,1636.75c104.73-111.33,104.73-291.85,0-403.18s-274.56-111.34-379.29,0-104.74,291.85,0,403.18S469.78,1748.09,574.52,1636.75Z"/><path class="cls-9" d="M570.19,1632.16c102.36-108.8,102.36-285.2,0-394s-268.29-108.8-370.65,0-102.35,285.2,0,394S467.84,1741,570.19,1632.16Z"/><path class="cls-10" d="M565.88,1627.57c100-106.26,100-278.56,0-384.82s-262-106.27-362,0-100,278.56,0,384.82S465.91,1733.84,565.88,1627.57Z"/><path class="cls-11" d="M561.56,1623c97.58-103.73,97.58-271.91,0-375.64s-255.8-103.73-353.38,0-97.58,271.91,0,375.64S464,1726.71,561.56,1623Z"/><path class="cls-12" d="M557.25,1618.4c95.21-101.2,95.21-265.28,0-366.48s-249.56-101.21-344.76,0-95.21,265.28,0,366.48S462.05,1719.61,557.25,1618.4Z"/><path class="cls-13" d="M552.93,1613.81c92.82-98.66,92.82-258.64,0-357.3s-243.31-98.67-336.12,0-92.82,258.64,0,357.3S460.11,1712.48,552.93,1613.81Z"/><path class="cls-14" d="M548.61,1609.22c90.44-96.13,90.44-252,0-348.12s-237-96.13-327.48,0-90.44,252,0,348.12S458.18,1705.35,548.61,1609.22Z"/><path class="cls-15" d="M544.3,1604.63c88-93.6,88-245.34,0-338.94s-230.81-93.6-318.86,0-88,245.34,0,338.94S456.25,1698.23,544.3,1604.63Z"/><path class="cls-16" d="M540,1600c85.66-91.06,85.66-238.7,0-329.76s-224.55-91.06-310.22,0-85.66,238.7,0,329.76S454.31,1691.1,540,1600Z"/><path class="cls-17" d="M535.67,1595.46c83.29-88.53,83.29-232.07,0-320.6s-218.32-88.54-301.6,0-83.29,232.07,0,320.6S452.39,1684,535.67,1595.46Z"/><path class="cls-18" d="M531.36,1590.87c80.89-86,80.89-225.43,0-311.42s-212.07-86-293,0-80.9,225.43,0,311.42S450.45,1676.87,531.36,1590.87Z"/><path class="cls-19" d="M581.18,1481.53c24.11-115.23-44.23-229.41-152.62-255s-215.81,47-239.92,162.23,44.23,229.41,152.62,255S557.07,1596.75,581.18,1481.53Z"/><path class="cls-20" d="M575.16,1480.41c23.52-111.69-42.6-222.5-147.67-247.49s-209.3,45.28-232.82,157,42.6,222.5,147.67,247.49S551.65,1592.1,575.16,1480.41Z"/><path class="cls-21" d="M569.09,1479.22c22.91-108.16-41-215.57-142.75-239.92s-202.8,43.6-225.7,151.76,41,215.57,142.76,239.91S546.19,1587.38,569.09,1479.22Z"/><path class="cls-22" d="M563.05,1478c22.28-104.63-39.44-208.64-137.87-232.33s-196.28,41.93-218.56,146.55,39.44,208.65,137.87,232.34S540.77,1582.66,563.05,1478Z"/><path class="cls-23" d="M557.05,1476.85c21.66-101.1-37.89-201.73-133-224.76s-189.78,40.29-211.44,141.4,37.89,201.73,133,224.76S535.39,1578,557.05,1476.85Z"/><path class="cls-24" d="M551.12,1475.59c21-97.59-36.36-194.82-128.17-217.17s-183.28,38.66-204.3,136.25S255,1589.49,346.82,1611.84,530.1,1573.19,551.12,1475.59Z"/><path class="cls-25" d="M545.14,1474.42c20.38-94.07-34.84-187.89-123.33-209.55s-176.75,37-197.13,131.1S259.52,1583.86,348,1605.52,524.77,1568.49,545.14,1474.42Z"/></g><path class="cls-26" d="M383.71,1610.47c90.44,0,163.76-77.94,163.76-174.07s-73.32-174.08-163.76-174.08S220,1340.26,220,1436.4,293.27,1610.47,383.71,1610.47Z"/><g class="cls-27"><g class="cls-27"><path class="cls-28" d="M339.3,1546.5c10.57-26.59,23.43-53.76,21.7-82.55-1.06-17.45-7.46-34-10.76-51.12-1.73-9.06-2.57-18.7.41-27.42,1.94-5.64,5.35-10.56,8.73-15.39q14.69-21,29.4-42.09c9.19-13.15,18.52-26.59,23.23-42.19a94.8,94.8,0,0,0,3.7-22.26,154,154,0,0,0-72.74,2.66c-5.16,14.41-13.9,28-21.55,41.38-10,17.47-18.67,36.34-21,56.63-2.56,22.07,2.49,44.23,6.06,66.13,7.21,44.12,7.87,92-12.82,131a140.38,140.38,0,0,1-8,13.26A161.77,161.77,0,0,0,326,1598.34C327,1580.77,332.78,1562.91,339.3,1546.5Z"/></g><g class="cls-27"><path class="cls-28" d="M256.77,1441.69c6.5-19.69,2-41.38-3.43-61.42a246.51,246.51,0,0,0-10.85-32.55,184.58,184.58,0,0,0-15.4,136.68c3.71-3.94,7.34-8,10.85-12.16C245.65,1463.12,253,1453.26,256.77,1441.69Z"/></g><g class="cls-27"><path class="cls-28" d="M446.78,1527.34c2-12.18,9.41-22.36,15.45-32.92,15-26.18,22.29-56.77,37.73-82.69,9.09-15.26,20.8-28.56,32.45-41.73l3.51-4c-1.09-2.68-2.24-5.33-3.45-8a174.8,174.8,0,0,0-31.73-47c-9.35,11.14-19.42,21.69-29,32.63-18,20.55-34.78,43.93-39.69,71.48-2.15,12.09-1.92,24.5-3,36.74-3.2,35.74-17.66,69.09-26.83,103.65-4.63,17.4-7.77,36-7.53,54.1A156.13,156.13,0,0,0,457.42,1592c1.36-.71,2.71-1.46,4-2.2A299.77,299.77,0,0,1,450.14,1557C447.42,1547.4,445.18,1537.27,446.78,1527.34Z"/></g><g class="cls-27"><path class="cls-28" d="M510.45,1516.51c1.45,7.36,4.49,14.08,8,20.62a183,183,0,0,0,30.78-95.65,105.5,105.5,0,0,0-20.1,17.86C515.74,1474.73,506.39,1496,510.45,1516.51Z"/></g></g><path class="cls-29" d="M628.38,1247c-17-24.83-81-8.48-161.91,36.41a164.38,164.38,0,0,1,15.55,10.7c50.15-23,88.15-28.63,100-11.3,21.27,31.11-49.74,124.54-158.61,208.67s-214.38,127.12-235.67,96c-11.84-17.34,4.94-54,41-97.63a184.22,184.22,0,0,1-4.82-19c-65.12,68-99.46,127.63-82.5,152.44,25.27,37,154.78-17.32,289.25-121.25S653.65,1284,628.38,1247Z"/><g class="cls-30"><g class="cls-31"><g class="cls-32"><path class="cls-33" d="M1046.6,864.86c44.59-47.4,44.59-124.25,0-171.66s-116.89-47.4-161.48,0-44.6,124.26,0,171.66S1002,912.26,1046.6,864.86Z"/></g><g class="cls-34"><path class="cls-35" d="M1044.86,863c43.63-46.38,43.63-121.58,0-168s-114.37-46.38-158,0-43.63,121.58,0,168S1001.23,909.39,1044.86,863Z"/></g><g class="cls-36"><path class="cls-37" d="M1043.12,861.16c42.67-45.36,42.67-118.9,0-164.26s-111.85-45.35-154.52,0-42.67,118.9,0,164.26S1000.45,906.52,1043.12,861.16Z"/></g><g class="cls-38"><path class="cls-39" d="M1041.38,859.31c41.71-44.33,41.71-116.22,0-160.56s-109.34-44.34-151.05,0-41.71,116.23,0,160.56S999.67,903.65,1041.38,859.31Z"/></g><g class="cls-40"><path class="cls-41" d="M1039.64,857.47c40.75-43.32,40.75-113.55,0-156.87s-106.82-43.32-147.57,0-40.75,113.55,0,156.87S998.89,900.78,1039.64,857.47Z"/></g><g class="cls-42"><path class="cls-43" d="M1037.91,855.62c39.79-42.3,39.79-110.88,0-153.18s-104.31-42.29-144.1,0-39.79,110.88,0,153.18S998.11,897.92,1037.91,855.62Z"/></g><g class="cls-44"><path class="cls-45" d="M1036.16,853.77c38.83-41.28,38.83-108.2,0-149.47s-101.78-41.28-140.61,0-38.83,108.19,0,149.47S997.33,895,1036.16,853.77Z"/></g><g class="cls-46"><path class="cls-47" d="M1034.43,851.92c37.86-40.25,37.86-105.52,0-145.78s-99.27-40.25-137.14,0-37.87,105.53,0,145.78S996.56,892.18,1034.43,851.92Z"/></g><g class="cls-48"><path class="cls-49" d="M1032.69,850.07c36.91-39.23,36.91-102.84,0-142.08S935.94,668.75,899,708s-36.91,102.85,0,142.08S995.78,889.31,1032.69,850.07Z"/></g><g class="cls-50"><path class="cls-51" d="M1031,848.23c36-38.22,36-100.18,0-138.39s-94.24-38.22-130.19,0-36,100.17,0,138.39S995,886.44,1031,848.23Z"/></g><g class="cls-52"><path class="cls-53" d="M1029.21,846.38c35-37.2,35-97.5,0-134.7s-91.72-37.19-126.71,0-35,97.5,0,134.7S994.22,883.58,1029.21,846.38Z"/></g><g class="cls-54"><path class="cls-55" d="M1027.47,844.53c34-36.17,34-94.82,0-131s-89.2-36.18-123.23,0-34,94.82,0,131S993.44,880.7,1027.47,844.53Z"/></g><g class="cls-56"><path class="cls-57" d="M1025.73,842.68c33.07-35.15,33.07-92.14,0-127.3s-86.68-35.15-119.75,0-33.07,92.15,0,127.3S992.66,877.83,1025.73,842.68Z"/></g><g class="cls-58"><path class="cls-59" d="M1024,840.83c32.11-34.13,32.11-89.47,0-123.6s-84.17-34.13-116.28,0-32.11,89.47,0,123.6S991.89,875,1024,840.83Z"/></g><g class="cls-60"><path class="cls-61" d="M1022.26,839c31.15-33.12,31.15-86.8,0-119.91s-81.65-33.12-112.8,0-31.15,86.79,0,119.91S991.11,872.1,1022.26,839Z"/></g><g class="cls-62"><path class="cls-63" d="M1020.52,837.13c30.18-32.08,30.18-84.11,0-116.2s-79.13-32.09-109.32,0-30.19,84.12,0,116.2S990.33,869.23,1020.52,837.13Z"/></g><g class="cls-64"><path class="cls-65" d="M1018.78,835.29c29.23-31.07,29.23-81.44,0-112.51s-76.62-31.07-105.84,0-29.23,81.44,0,112.51S989.55,866.36,1018.78,835.29Z"/></g><g class="cls-66"><path class="cls-67" d="M1017,833.44c28.27-30.05,28.27-78.77,0-108.82s-74.1-30-102.37,0-28.27,78.77,0,108.82S988.77,863.49,1017,833.44Z"/></g><g class="cls-68"><path class="cls-69" d="M1015.3,831.59c27.31-29,27.31-76.09,0-105.12s-71.58-29-98.89,0-27.31,76.09,0,105.12S988,860.62,1015.3,831.59Z"/></g><g class="cls-70"><path class="cls-71" d="M1013.57,829.75c26.35-28,26.35-73.42,0-101.43s-69.07-28-95.42,0-26.35,73.42,0,101.43S987.22,857.76,1013.57,829.75Z"/></g><g class="cls-31"><path class="cls-72" d="M1011.82,827.9c25.39-27,25.39-70.75,0-97.73s-66.54-27-91.93,0-25.39,70.74,0,97.73S986.44,854.88,1011.82,827.9Z"/></g></g><path class="cls-73" d="M1011.82,827.9c25.39-27,25.39-70.75,0-97.73s-66.54-27-91.93,0-25.39,70.74,0,97.73S986.44,854.88,1011.82,827.9Z"/><path class="cls-74" d="M979.12,732.35l43.42,12.77a66,66,0,0,0-36.85-31.92,61.45,61.45,0,0,0-47.44,3.27c7.54,2,14.43,6.22,21.65,9.36A165.26,165.26,0,0,0,979.12,732.35Z"/><path class="cls-74" d="M957.73,758.43c4.91,2.94,9.66,6.27,15,8.29,13.28,5,28.23,1.22,41.89,4.95,5.73,1.52,11,4.37,16.29,7.1a73.37,73.37,0,0,0-2.78-19.68c-20.19-4.84-41.41-6.79-61.15-13.56-15.38-5.23-30.37-13.61-46.06-16.43a68,68,0,0,0-10.42,13.71A113.4,113.4,0,0,1,957.73,758.43Z"/><path class="cls-74" d="M968.38,818.8a107.47,107.47,0,0,1-14.49-5.52c-3.32-1.66-6.45-3.7-9.71-5.53-12.93-7.29-27.27-11-41.76-13.59a71.76,71.76,0,0,0,9,22.73c13.76,5.23,26.39,14.46,40.63,18.54a119.9,119.9,0,0,0,13.1,2.72l15.37,2.58a64.63,64.63,0,0,1,10,2.23,64.74,64.74,0,0,0,16.23-10.21C994.07,827.8,981.3,823.06,968.38,818.8Z"/><path class="cls-74" d="M933.63,787.51c2.1,1.65,4,3.64,6.16,5.14,3.68,2.52,8.08,3.51,12.35,4.57a227.65,227.65,0,0,1,51,19.6c4.19,2.21,8.32,4.57,12.61,6.52a69.68,69.68,0,0,0,8.83-14.66q1-2.28,1.84-4.56c-21.64-7.47-42.6-19.54-65.3-21.94-4-.42-8.22-.63-11.46-3-2.35-1.77-3.89-4.48-5.87-6.7a29.73,29.73,0,0,0-8.46-6.24,64.67,64.67,0,0,0-31.6-7.52,73,73,0,0,0-2.87,18.54q7.89,1.2,15.65,3C922.53,781.76,928.7,783.6,933.63,787.51Z"/><path class="cls-75" d="M956.76,710.6a63.76,63.76,0,0,0-37.89,20.66,71.11,71.11,0,0,0-17.74,41.15,237.48,237.48,0,0,0,103.28-49,61.89,61.89,0,0,0-47.65-12.8Z"/><path class="cls-76" d="M1030.58,772.58a59.27,59.27,0,0,0-13.95-1.78c-15.14-.06-30.62,6.68-39.81,19.46-6.06,8.43-9.15,18.89-15,27.52a51.69,51.69,0,0,1-29.24,20.65,61.75,61.75,0,0,0,68-1,67.84,67.84,0,0,0,23.6-27.93,72.93,72.93,0,0,0,6.38-36.93Z"/><path class="cls-76" d="M1030.85,777.49a42.92,42.92,0,0,0-13.7,6.86c-10.51,8-17.33,20.53-21.12,33.62a143.6,143.6,0,0,0-4.51,24.55,66.29,66.29,0,0,0,29-26.12,72.45,72.45,0,0,0,10.32-38.91Z"/></g><path class="cls-77" d="M984.1,1456.6l6,16.19a12.22,12.22,0,0,0,9.42,7.93l33.07,5.08a11.11,11.11,0,0,0,10.45-4.1l21.42-26.4a12.76,12.76,0,0,0,1.91-12.37l-6-16.2-25.87,31.91a11.11,11.11,0,0,1-10.45,4.1Zm12.31-68.55-36.12,44.49c-2.95,3.66-.81,9.43,3.75,10.15l55.74,8.52a11.12,11.12,0,0,0,10.46-4.1l34.44-42.45,12.6,34.06a5.89,5.89,0,0,0,7.57,3.63,6.17,6.17,0,0,0,3.32-7.89l-13.67-37a6.1,6.1,0,0,0-4.71-4l-62.93-9.6A11.38,11.38,0,0,0,996.41,1388.05Z"/><path class="cls-2" d="M487.94,359l-1.06-.4a6.05,6.05,0,0,0-3-.31,6.16,6.16,0,0,0-2.79,1.19l-.9.68a1.42,1.42,0,0,1-.87.29,1.39,1.39,0,0,1-.87-.28,1.47,1.47,0,0,1-.5-1.66l.4-1a6.2,6.2,0,0,0,.3-3,6.12,6.12,0,0,0-1.18-2.8l-.69-.88a1.47,1.47,0,0,1,0-1.74,1.55,1.55,0,0,1,.75-.53,1.42,1.42,0,0,1,.91,0l1.06.38a6.06,6.06,0,0,0,3,.32,6.12,6.12,0,0,0,2.8-1.18l.89-.7a1.44,1.44,0,0,1,.87-.29,1.37,1.37,0,0,1,.87.28,1.44,1.44,0,0,1,.53.75,1.42,1.42,0,0,1,0,.91L488,350a6.06,6.06,0,0,0-.32,3,6.21,6.21,0,0,0,1.19,2.79l.69.91a1.4,1.4,0,0,1,.3.86,1.44,1.44,0,0,1-.29.87,1.42,1.42,0,0,1-.74.53,1.45,1.45,0,0,1-.92,0Z"/><path class="cls-2" d="M284.83,697.69l-.75-.28a4.32,4.32,0,0,0-2.14-.21,4.38,4.38,0,0,0-2,.84l-.64.47a1,1,0,0,1-.61.22.92.92,0,0,1-.62-.2,1,1,0,0,1-.37-.53,1,1,0,0,1,0-.65l.26-.75a4.33,4.33,0,0,0,.22-2.14,4.27,4.27,0,0,0-.83-2l-.48-.63a1,1,0,0,1,0-1.23,1,1,0,0,1,.53-.37,1,1,0,0,1,.65,0l.74.28a4.29,4.29,0,0,0,2.13.22,4.33,4.33,0,0,0,2-.84l.65-.49a1.1,1.1,0,0,1,.61-.22,1.07,1.07,0,0,1,.62.2,1,1,0,0,1,.37.53,1.06,1.06,0,0,1,0,.66l-.27.76a4.29,4.29,0,0,0-.22,2.13,4.33,4.33,0,0,0,.84,2l.49.64a1,1,0,0,1,.21.61,1,1,0,0,1-.2.61,1.07,1.07,0,0,1-.53.38A1,1,0,0,1,284.83,697.69Z"/><path class="cls-2" d="M371.27,367.64l-.75-.29a4.28,4.28,0,0,0-2.13-.18,4.43,4.43,0,0,0-1.95.88l-.62.48a1.05,1.05,0,0,1-.62.21,1.09,1.09,0,0,1-.62-.2,1.11,1.11,0,0,1-.37-.53,1,1,0,0,1,0-.65l.27-.74a4.22,4.22,0,0,0,.22-2.14,4.32,4.32,0,0,0-.84-2l-.48-.63a1,1,0,0,1,0-1.23,1,1,0,0,1,.54-.37,1,1,0,0,1,.64,0l.74.28a4.41,4.41,0,0,0,4.13-.62l.62-.48a1,1,0,0,1,.61-.21,1,1,0,0,1,.62.2,1.07,1.07,0,0,1,.38.53,1.11,1.11,0,0,1,0,.65l-.31.78a4.33,4.33,0,0,0,.61,4.11l.5.64a1.12,1.12,0,0,1,.12.58,1.11,1.11,0,0,1-.22.54,1,1,0,0,1-.49.34,1.08,1.08,0,0,1-.59,0Z"/><path class="cls-2" d="M448.41,544.86l-.74-.28a4.32,4.32,0,0,0-2.14-.21,4.37,4.37,0,0,0-2,.84l-.63.48a1,1,0,0,1-.61.2,1.07,1.07,0,0,1-.62-.2,1,1,0,0,1-.37-.53,1,1,0,0,1,0-.65l.27-.73a4.33,4.33,0,0,0-.62-4.13l-.48-.62a1,1,0,0,1,0-1.23,1.07,1.07,0,0,1,.53-.38,1.11,1.11,0,0,1,.65,0l.74.28a4.26,4.26,0,0,0,4.11-.61l.64-.5a1,1,0,0,1,.61-.2.94.94,0,0,1,.62.2,1,1,0,0,1,.37.53.94.94,0,0,1,0,.64l-.28.76a4.17,4.17,0,0,0-.21,2.13,4.37,4.37,0,0,0,.84,2l.48.62a1,1,0,0,1,.21.62,1,1,0,0,1-.2.61,1.07,1.07,0,0,1-.53.38,1.11,1.11,0,0,1-.65,0Z"/><path class="cls-2" d="M402.61,594.9l-.74-.27a4.37,4.37,0,0,0-2.15-.22,4.44,4.44,0,0,0-2,.83l-.62.48a1,1,0,0,1-1.23,0,1.07,1.07,0,0,1-.38-.53,1.11,1.11,0,0,1,0-.65l.27-.74a4.29,4.29,0,0,0,.23-2.13,4.37,4.37,0,0,0-.84-2l-.49-.64a1.09,1.09,0,0,1-.21-.61,1.07,1.07,0,0,1,.2-.62,1,1,0,0,1,.53-.37,1,1,0,0,1,.65,0l.75.28a4.28,4.28,0,0,0,4.1-.62l.64-.49a1,1,0,0,1,1.23,0,1,1,0,0,1,.37.53,1,1,0,0,1,0,.65l-.29.75a4.45,4.45,0,0,0-.21,2.14,4.24,4.24,0,0,0,.85,2l.48.63a1,1,0,0,1,.21.61,1.07,1.07,0,0,1-.2.62,1,1,0,0,1-1.17.36Z"/><path class="cls-2" d="M299.15,293.38l-.75-.29a4.39,4.39,0,0,0-2.13-.17,4.22,4.22,0,0,0-1.94.87l-.63.48a1,1,0,0,1-.61.21,1,1,0,0,1-.62-.2,1.07,1.07,0,0,1-.38-.53,1.11,1.11,0,0,1,0-.65l.28-.74a4.32,4.32,0,0,0,.21-2.14,4.16,4.16,0,0,0-.84-2l-.48-.63a1,1,0,0,1-.2-.61.94.94,0,0,1,.2-.62,1,1,0,0,1,.53-.37.94.94,0,0,1,.64,0l.74.27a4.33,4.33,0,0,0,4.13-.62l.62-.48a1.15,1.15,0,0,1,.62-.21,1,1,0,0,1,.61.2,1.07,1.07,0,0,1,.38.53,1,1,0,0,1,0,.65l-.3.78a4.25,4.25,0,0,0,.61,4.11l.49.64a1.17,1.17,0,0,1,.12.58,1,1,0,0,1-.71.88,1,1,0,0,1-.59,0Z"/><path class="cls-2" d="M317.46,133.37l.76.33a4.35,4.35,0,0,0,2.14.21,4.39,4.39,0,0,0,2-.83l.62-.48a1,1,0,0,1,1.23,0,1.07,1.07,0,0,1,.38.53,1.11,1.11,0,0,1,0,.65l-.28.74a4.33,4.33,0,0,0-.23,2.11,4.43,4.43,0,0,0,.8,2l.5.64a1,1,0,0,1,.21.61,1.07,1.07,0,0,1-.2.62,1,1,0,0,1-.54.37.94.94,0,0,1-.64,0l-.76-.28a4.15,4.15,0,0,0-2.12-.22,4.37,4.37,0,0,0-2,.84l-.63.49a1.08,1.08,0,0,1-.62.21,1,1,0,0,1-.61-.2,1.07,1.07,0,0,1-.38-.53,1.11,1.11,0,0,1,0-.65l.28-.76a4.24,4.24,0,0,0,.24-2.12,4.32,4.32,0,0,0-.81-2l-.48-.63a1,1,0,0,1-.22-.61,1.07,1.07,0,0,1,.18-.62,1,1,0,0,1,.53-.39,1.08,1.08,0,0,1,.64,0Z"/><path class="cls-2" d="M190.05,136.61l-1.06-.4a6.09,6.09,0,0,0-3-.31,6.26,6.26,0,0,0-2.79,1.19l-.89.68a1.52,1.52,0,0,1-.87.3,1.45,1.45,0,0,1-1.37-1.95l.39-1.05a6.09,6.09,0,0,0-.88-5.82l-.68-.88a1.49,1.49,0,0,1-.3-.86,1.47,1.47,0,0,1,.29-.88,1.4,1.4,0,0,1,.74-.52,1.52,1.52,0,0,1,.92,0l1.06.39a6.17,6.17,0,0,0,3,.31,6,6,0,0,0,2.8-1.18l.89-.7a1.42,1.42,0,0,1,.86-.29,1.42,1.42,0,0,1,1.4,1,1.49,1.49,0,0,1,0,.91l-.4,1.07a6.2,6.2,0,0,0-.31,3,6,6,0,0,0,1.19,2.78l.69.91a1.42,1.42,0,0,1,.29.86,1.35,1.35,0,0,1-.28.87,1.44,1.44,0,0,1-.75.53,1.42,1.42,0,0,1-.91,0Z"/><path class="cls-2" d="M73.38,145.3l-.76-.29a4.24,4.24,0,0,0-2.12-.18,4.33,4.33,0,0,0-2,.88l-.63.48a1,1,0,0,1-.61.21,1.07,1.07,0,0,1-.62-.2,1,1,0,0,1-.37-.53,1,1,0,0,1,0-.65l.27-.74a4.32,4.32,0,0,0-.62-4.12l-.48-.63a1,1,0,0,1-.21-.61,1.07,1.07,0,0,1,.2-.62,1,1,0,0,1,.53-.37,1,1,0,0,1,.65,0l.74.27a4.32,4.32,0,0,0,4.12-.62l.63-.48a1,1,0,0,1,.61-.21,1.07,1.07,0,0,1,.62.2,1,1,0,0,1,.37.53,1,1,0,0,1,0,.65l-.3.78a4.45,4.45,0,0,0-.23,2.14,4.29,4.29,0,0,0,.84,2l.49.64a1,1,0,0,1,.12.58,1,1,0,0,1-.7.88,1,1,0,0,1-.59,0Z"/><path class="cls-2" d="M150.52,322.52l-.74-.27a4.32,4.32,0,0,0-4.12.62l-.63.48a1.12,1.12,0,0,1-.61.21,1,1,0,0,1-.62-.2,1.05,1.05,0,0,1-.36-1.18l.28-.74a4.33,4.33,0,0,0,.21-2.14,4.12,4.12,0,0,0-.84-2l-.47-.63a1,1,0,0,1-.21-.62,1,1,0,0,1,.2-.61,1,1,0,0,1,.53-.37,1,1,0,0,1,.64,0l.74.28a4.28,4.28,0,0,0,4.12-.61l.63-.49a1,1,0,0,1,1.23,0,1.07,1.07,0,0,1,.38.53,1,1,0,0,1,0,.65l-.28.75a4.26,4.26,0,0,0,.63,4.11l.48.62a1.08,1.08,0,0,1,.21.62,1,1,0,0,1-.2.61,1.05,1.05,0,0,1-.53.38,1,1,0,0,1-.65,0Z"/><path class="cls-2" d="M109.47,446l-.74-.27a4.39,4.39,0,0,0-4.14.61l-.63.48a1,1,0,0,1-.61.21,1.07,1.07,0,0,1-.62-.2,1,1,0,0,1-.37-.53,1,1,0,0,1,0-.65l.27-.74a4.29,4.29,0,0,0,.22-2.13,4.35,4.35,0,0,0-.83-2l-.49-.64a1,1,0,0,1-.21-.61,1.07,1.07,0,0,1,.2-.62,1,1,0,0,1,.53-.37,1,1,0,0,1,.65,0l.75.28a4.28,4.28,0,0,0,4.1-.62l.64-.49a1,1,0,0,1,.61-.21,1.07,1.07,0,0,1,.62.2,1,1,0,0,1,.37.53,1,1,0,0,1,0,.65l-.28.75a4.33,4.33,0,0,0-.21,2.14,4.29,4.29,0,0,0,.84,2l.48.63a1,1,0,0,1,.22.61,1.07,1.07,0,0,1-.2.62,1,1,0,0,1-.53.38A1,1,0,0,1,109.47,446Z"/><path class="cls-2" d="M138.44,743.05l-.76-.28a4.3,4.3,0,0,0-2.13-.21,4.37,4.37,0,0,0-2,.84l-.64.47a1,1,0,0,1-.61.22.94.94,0,0,1-.62-.2,1,1,0,0,1-.37-.53,1,1,0,0,1,0-.65l.26-.75a4.33,4.33,0,0,0-.61-4.11l-.48-.63a1,1,0,0,1-.21-.61,1.07,1.07,0,0,1,.2-.62,1,1,0,0,1,.53-.37,1,1,0,0,1,.65,0l.74.27a4.28,4.28,0,0,0,4.1-.62l.65-.48a1,1,0,0,1,1.23,0,1,1,0,0,1,.37.54.91.91,0,0,1,0,.65l-.27.76a4.28,4.28,0,0,0,.62,4.1l.5.64a1,1,0,0,1,.2.61,1,1,0,0,1-.2.62,1,1,0,0,1-.53.37A1,1,0,0,1,138.44,743.05Z"/><path class="cls-2" d="M259.58,472.79l-.76-.29a4.36,4.36,0,0,0-2.12-.17,4.21,4.21,0,0,0-1.95.87l-.63.48a1,1,0,0,1-.61.21,1.07,1.07,0,0,1-.62-.2,1,1,0,0,1-.37-.53,1,1,0,0,1,0-.65l.27-.74a4.32,4.32,0,0,0-.62-4.12l-.48-.62a1,1,0,0,1,0-1.24,1,1,0,0,1,.53-.37,1,1,0,0,1,.65,0l.74.27a4.32,4.32,0,0,0,4.12-.62l.63-.48a1.09,1.09,0,0,1,.61-.21,1.07,1.07,0,0,1,.62.2,1,1,0,0,1,.37.53,1,1,0,0,1,0,.65l-.3.78a4.45,4.45,0,0,0-.23,2.14,4.29,4.29,0,0,0,.84,2l.49.64a1,1,0,0,1,.12.58,1,1,0,0,1-.22.55,1,1,0,0,1-.48.33,1,1,0,0,1-.59,0Z"/><path class="cls-2" d="M215.43,582l-.74-.27a4.35,4.35,0,0,0-2.14-.22,4.41,4.41,0,0,0-2,.84l-.62.48a1.08,1.08,0,0,1-.62.21,1,1,0,0,1-.61-.2,1.11,1.11,0,0,1-.38-.53,1,1,0,0,1,0-.65l.27-.74a4.23,4.23,0,0,0,.22-2.14,4.37,4.37,0,0,0-.84-2l-.48-.63a1.12,1.12,0,0,1-.21-.61,1,1,0,0,1,.2-.62,1,1,0,0,1,.53-.37,1,1,0,0,1,.65,0l.74.28a4.22,4.22,0,0,0,2.14.23,4.29,4.29,0,0,0,2-.84l.64-.49a1,1,0,0,1,.62-.21,1,1,0,0,1,.61.2,1,1,0,0,1,.37.53,1,1,0,0,1,0,.65l-.29.75a4.3,4.3,0,0,0,.64,4.11l.48.63a1.09,1.09,0,0,1,.21.61,1,1,0,0,1-.21.61,1,1,0,0,1-.53.38,1,1,0,0,1-.64,0Z"/><path class="cls-2" d="M84.78,586.8l-.74-.28a4.37,4.37,0,0,0-2.15-.22,4.55,4.55,0,0,0-2,.83l-.62.48a1,1,0,0,1-1.23,0,1.07,1.07,0,0,1-.38-.53,1.11,1.11,0,0,1,0-.65l.27-.74a4.29,4.29,0,0,0,.23-2.13,4.37,4.37,0,0,0-.84-2l-.49-.64a1,1,0,0,1-.21-.61,1.07,1.07,0,0,1,.2-.62,1.16,1.16,0,0,1,.53-.37,1,1,0,0,1,.65,0l.75.28a4.3,4.3,0,0,0,2.13.22,4.17,4.17,0,0,0,2-.83l.64-.5a1,1,0,0,1,1.23,0,1,1,0,0,1,.37.53,1,1,0,0,1,0,.65l-.29.76a4.4,4.4,0,0,0-.21,2.13,4.2,4.2,0,0,0,.85,2l.48.63a1,1,0,0,1-.51,1.61A1,1,0,0,1,84.78,586.8Z"/><path class="cls-2" d="M137.94,1208.5l-.57,1a6,6,0,0,0-.79,2.93,5.9,5.9,0,0,0,.72,2.94l.52,1a1.4,1.4,0,0,1,.15.9,1.45,1.45,0,0,1-1.24,1.21,1.48,1.48,0,0,1-.9-.17l-1-.56a6,6,0,0,0-2.93-.79,6.15,6.15,0,0,0-3,.71l-1,.54a1.44,1.44,0,0,1-1.71-.27,1.46,1.46,0,0,1-.23-1.72l.55-1a6,6,0,0,0,.8-2.92,6.06,6.06,0,0,0-.71-3l-.55-1a1.57,1.57,0,0,1-.15-.9,1.46,1.46,0,0,1,.43-.82,1.42,1.42,0,0,1,.82-.4,1.39,1.39,0,0,1,.89.18l1,.56a6,6,0,0,0,2.92.79A5.9,5.9,0,0,0,135,1207l1-.53a1.41,1.41,0,0,1,.9-.15,1.39,1.39,0,0,1,.81.42,1.42,1.42,0,0,1,.4.82,1.49,1.49,0,0,1-.17.9Z"/><path class="cls-2" d="M127.61,1325l-.41.69a4.27,4.27,0,0,0,0,4.14l.38.69a1,1,0,0,1-.2,1.22,1,1,0,0,1-.58.28,1,1,0,0,1-.64-.12l-.68-.39a4.37,4.37,0,0,0-4.17-.06l-.7.38a1,1,0,0,1-.64.1,1,1,0,0,1-.86-.88,1,1,0,0,1,.13-.63l.39-.69a4.46,4.46,0,0,0,.56-2.08,4.36,4.36,0,0,0-.51-2.09l-.37-.69a1.11,1.11,0,0,1-.11-.64,1.05,1.05,0,0,1,.3-.58.94.94,0,0,1,.59-.28,1,1,0,0,1,.63.12l.72.43a4.44,4.44,0,0,0,2.07.57,4.34,4.34,0,0,0,2.09-.51l.71-.38a1,1,0,0,1,.59,0,1,1,0,0,1,.5.31,1,1,0,0,1,.26.53,1.09,1.09,0,0,1-.08.59Z"/><path class="cls-2" d="M42.65,1384.17l-.4.7a4.25,4.25,0,0,0,0,4.13l.37.7a1.06,1.06,0,0,1-.19,1.22,1.09,1.09,0,0,1-.59.28,1.05,1.05,0,0,1-.63-.12l-.69-.39a4.3,4.3,0,0,0-4.17-.06l-.69.38a1,1,0,0,1-.65.1,1,1,0,0,1-.85-.88,1,1,0,0,1,.12-.64l.39-.68a4.35,4.35,0,0,0,.56-2.08,4.23,4.23,0,0,0-.51-2.09l-.37-.7a1,1,0,0,1-.1-.64,1,1,0,0,1,.88-.86,1,1,0,0,1,.63.13l.73.42a4.29,4.29,0,0,0,4.15.07l.71-.39a1,1,0,0,1,1.09.28,1,1,0,0,1,.18,1.12Z"/><path class="cls-2" d="M47.33,1535.57l-.39.68a4.35,4.35,0,0,0-.56,2.08,4.23,4.23,0,0,0,.51,2.09l.37.7a1,1,0,0,1,.1.64,1,1,0,0,1-.3.57,1.06,1.06,0,0,1-.58.28,1,1,0,0,1-.64-.12l-.68-.39a4.33,4.33,0,0,0-4.17,0l-.7.37a1.08,1.08,0,0,1-.64.11,1,1,0,0,1-.57-.3.94.94,0,0,1-.28-.58,1,1,0,0,1,.12-.64l.39-.69a4.29,4.29,0,0,0,.07-4.15l-.39-.71a1.06,1.06,0,0,1,.19-1.22,1.09,1.09,0,0,1,.59-.28,1,1,0,0,1,.63.12l.7.4a4.28,4.28,0,0,0,4.16,0l.69-.37a1,1,0,0,1,1.22.2,1.06,1.06,0,0,1,.28.58,1,1,0,0,1-.12.64Z"/><path class="cls-2" d="M342.73,494.66l2.81.09a14.84,14.84,0,0,0,7.17-1.55,14.54,14.54,0,0,0,5.61-4.8l1.55-2.26a3.46,3.46,0,0,1,5.78-.08,3.56,3.56,0,0,1,.62,2.15l-.09,2.72a14.86,14.86,0,0,0,1.57,7.2,14.58,14.58,0,0,0,4.86,5.51l2.24,1.58a3.48,3.48,0,0,1,.93,4.85,3.43,3.43,0,0,1-.93.93,3.55,3.55,0,0,1-2.14.62L370,511.5a14.78,14.78,0,0,0-12.73,6.43l-1.57,2.26a3.46,3.46,0,0,1-1.77,1.4,3.5,3.5,0,0,1-4.63-3.46l.1-2.81a14.63,14.63,0,0,0-1.57-7.2,14.91,14.91,0,0,0-4.86-5.54l-2.33-1.49a3.61,3.61,0,0,1-1.4-1.77,3.49,3.49,0,0,1,3.47-4.64Z"/><path class="cls-78" d="M248.28,472.4l18.55-27.1-3-2-18.55,27.1Z"/><path class="cls-78" d="M291.14,402.85,272.6,430l3,2,18.54-27.15Z"/><path class="cls-79" d="M290.82,480.23l23.85-5.78a7.43,7.43,0,0,0,5.62-8.18L317,441.92a7.39,7.39,0,0,0-3.16-5.12L253,395.14a7.44,7.44,0,0,0-10.31,1.93L222.09,427.2A7.45,7.45,0,0,0,224,437.51l60.83,41.66A7.65,7.65,0,0,0,290.82,480.23Z"/><path class="cls-80" d="M342.43,487.45l-4.21-5.12-4.21-5.1-2,3-2.05,3,6.29,2.09Z"/><path class="cls-78" d="M235.06,529.86l28.16-41.09A6.33,6.33,0,0,0,261.6,480h0l-28.67-19.56a6.35,6.35,0,0,0-8.82,1.66L196,503.12a6.35,6.35,0,0,0,1.65,8.84h0l28.65,19.64A6.35,6.35,0,0,0,235.06,529.86Z"/><path class="cls-81" d="M228.82,482.38l10.32-15.06-6.79-4.69a4.93,4.93,0,0,0-6.85,1.27l-7.52,11Z"/><path class="cls-81" d="M217.75,498.86l10.3-15.06-10.9-7.47-10.3,15.06Z"/><path class="cls-81" d="M206.38,515.12l10.32-15.07-10.93-7.38-7.53,11a4.94,4.94,0,0,0,1.28,6.85Z"/><path class="cls-81" d="M241.22,490.8l10.31-15-10.92-7.47-10.3,15.05Z"/><path class="cls-81" d="M230,507.18l10.3-15-10.9-7.47-10.32,15Z"/><path class="cls-81" d="M218.79,523.66l10.3-15.06-10.9-7.51-10.3,15.06Z"/><path class="cls-81" d="M253.4,499.15l7.52-11a4.93,4.93,0,0,0-1.28-6.84l-6.83-4.7-10.36,15.08Z"/><path class="cls-81" d="M242.26,515.6l10.3-15.06-10.91-7.46-10.3,15Z"/><path class="cls-81" d="M233.75,527.92l7.52-11-11-7.41L220,524.57l6.83,4.7A5,5,0,0,0,233.75,527.92Z"/><path class="cls-78" d="M315,413.09,343.07,372a6.35,6.35,0,0,0-1.65-8.82l-28.63-19.65a6.34,6.34,0,0,0-8.82,1.64l-28.12,41.15a6.34,6.34,0,0,0,1.65,8.81l28.64,19.65a6.34,6.34,0,0,0,8.82-1.64Z"/><path class="cls-81" d="M308.77,365.61l10.31-15.06-6.83-4.68a5,5,0,0,0-6.85,1.27l-7.54,11Z"/><path class="cls-81" d="M297.65,382.08,308,367l-10.9-7.47-10.32,15.06Z"/><path class="cls-81" d="M286.28,398.41l10.32-15.06-10.92-7.45-7.52,11a5,5,0,0,0,1.27,6.85Z"/><path class="cls-81" d="M321.17,374.09l10.32-15-10.92-7.48-10.3,15.05Z"/><path class="cls-81" d="M309.93,390.46l10.3-15-10.9-7.48L299,383Z"/><path class="cls-81" d="M298.74,407l10.31-15.06-10.91-7.47-10.31,15.06Z"/><path class="cls-81" d="M333.28,382.4l7.53-11a4.94,4.94,0,0,0-1.28-6.85h0l-6.84-4.69-10.31,15.06Z"/><path class="cls-81" d="M322.17,398.88l10.31-15.05-10.9-7.47-10.32,15.05Z"/><path class="cls-81" d="M313.61,411.16l7.52-11-10.92-7.45L299.9,407.76l6.83,4.69A5,5,0,0,0,313.61,411.16Z"/><path class="cls-82" d="M341.16,492.44a4.85,4.85,0,1,0-1.27-6.75A4.85,4.85,0,0,0,341.16,492.44Z"/><path class="cls-83" d="M308.25,464a31.8,31.8,0,0,1,44.19-8.3l-35.89,52.51a31.81,31.81,0,0,1-8.33-44.18Z"/></svg>