<svg id="Layer_1" data-name="Layer 1" xmlns="http://www.w3.org/2000/svg" xmlns:xlink="http://www.w3.org/1999/xlink" viewBox="0 0 2224.16 2053.07"><defs><style>.cls-1{fill:none;}.cls-2{clip-path:url(#clip-path);}.cls-108,.cls-24,.cls-3{opacity:0.42;}.cls-4{fill:#111;}.cls-10,.cls-100,.cls-101,.cls-102,.cls-103,.cls-104,.cls-105,.cls-106,.cls-107,.cls-108,.cls-11,.cls-112,.cls-113,.cls-12,.cls-13,.cls-14,.cls-15,.cls-16,.cls-17,.cls-18,.cls-19,.cls-20,.cls-21,.cls-22,.cls-23,.cls-24,.cls-28,.cls-4,.cls-5,.cls-6,.cls-7,.cls-79,.cls-8,.cls-80,.cls-81,.cls-82,.cls-89,.cls-9,.cls-90,.cls-91,.cls-92,.cls-93,.cls-94,.cls-95,.cls-96,.cls-97,.cls-98,.cls-99{isolation:isolate;}.cls-32,.cls-4{opacity:0.05;}.cls-5{fill:#1c1c1c;}.cls-34,.cls-5,.cls-79{opacity:0.1;}.cls-6{fill:#262626;}.cls-36,.cls-6{opacity:0.14;}.cls-7{fill:#303030;}.cls-38,.cls-7{opacity:0.19;}.cls-8{fill:#3b3b3b;}.cls-40,.cls-8{opacity:0.24;}.cls-9{fill:#454545;}.cls-42,.cls-9{opacity:0.29;}.cls-10{fill:#4f4f4f;}.cls-10,.cls-44{opacity:0.33;}.cls-11{fill:#5a5a5a;}.cls-11,.cls-46{opacity:0.38;}.cls-12{fill:#646464;}.cls-12,.cls-48,.cls-81,.cls-82{opacity:0.43;}.cls-13{fill:#6e6e6e;}.cls-13,.cls-50{opacity:0.48;}.cls-14{fill:#797979;}.cls-14,.cls-52{opacity:0.52;}.cls-15{fill:#838383;}.cls-15,.cls-54{opacity:0.57;}.cls-16{fill:#8d8d8d;}.cls-16,.cls-56{opacity:0.62;}.cls-17{fill:#989898;}.cls-17,.cls-58{opacity:0.67;}.cls-18{fill:#a2a2a2;}.cls-18,.cls-60{opacity:0.71;}.cls-19{fill:#acacac;}.cls-19,.cls-62{opacity:0.76;}.cls-20{fill:#b7b7b7;}.cls-20,.cls-64{opacity:0.81;}.cls-21,.cls-27{fill:#c1c1c1;}.cls-21,.cls-66{opacity:0.86;}.cls-22{fill:#cbcbcb;}.cls-22,.cls-68{opacity:0.9;}.cls-23{fill:#d6d6d6;}.cls-23,.cls-70{opacity:0.95;}.cls-24,.cls-25{fill:#e0e0e0;}.cls-26{fill:#d3d3d3;}.cls-112,.cls-28,.cls-83{fill:#fff;}.cls-28{opacity:0.21;}.cls-29{fill:#b2b2b2;}.cls-30{fill:#969696;}.cls-31{fill:#847d9e;}.cls-33{fill:#090d2d;}.cls-35{fill:#081936;}.cls-37{fill:#082440;}.cls-39{fill:#073049;}.cls-41{fill:#073b53;}.cls-43{fill:#06475c;}.cls-45{fill:#065266;}.cls-47{fill:#065d6f;}.cls-49{fill:#056979;}.cls-51{fill:#057482;}.cls-53{fill:#04808c;}.cls-55{fill:#048b95;}.cls-57{fill:#03979f;}.cls-59{fill:#03a2a8;}.cls-61{fill:#03adb2;}.cls-63{fill:#02b9bb;}.cls-65{fill:#02c4c5;}.cls-67{fill:#01d0ce;}.cls-69{fill:#01dbd8;}.cls-71{fill:#00e7e1;}.cls-72{fill:#00f2eb;}.cls-73{fill:#00bab7;}.cls-74{fill:#00adab;}.cls-75{fill:#24c6c4;}.cls-76{fill:#1fa09e;}.cls-77{fill:#0b9996;}.cls-78{fill:#00807d;}.cls-80{opacity:0.35;fill:url(#Gradiente_sem_nome);}.cls-81{fill:url(#Gradiente_sem_nome_2);}.cls-82{fill:url(#Gradiente_sem_nome_3);}.cls-84{fill:url(#Gradiente_sem_nome_4);}.cls-85{fill:#f2d100;}.cls-86{fill:#a9c4da;}.cls-87{fill:#f27e00;}.cls-88{fill:url(#Gradiente_sem_nome_5);}.cls-89{fill:#15022b;opacity:0.05;}.cls-90{fill:#1f0233;opacity:0.1;}.cls-91{fill:#29023b;opacity:0.14;}.cls-92{fill:#330243;opacity:0.19;}.cls-93{fill:#3d024b;opacity:0.24;}.cls-94{fill:#470153;opacity:0.29;}.cls-95{fill:#51015b;opacity:0.33;}.cls-96{fill:#5b0163;opacity:0.38;}.cls-97{fill:#65016b;opacity:0.43;}.cls-98{fill:#6f0173;opacity:0.48;}.cls-99{fill:#79017a;opacity:0.52;}.cls-100{fill:#830182;opacity:0.57;}.cls-101{fill:#970192;opacity:0.67;}.cls-102{fill:#a1019a;opacity:0.71;}.cls-103{fill:#ab00a2;opacity:0.76;}.cls-104{fill:#b500aa;opacity:0.81;}.cls-105{fill:#bf00b2;opacity:0.86;}.cls-106{fill:#c900ba;opacity:0.9;}.cls-107{fill:#d300c2;opacity:0.95;}.cls-108{fill:#dd00ca;}.cls-109{fill:#5f00a5;}.cls-110{fill:#d133c5;}.cls-111{fill:#d14ac7;}.cls-112{opacity:0.15;}.cls-113{opacity:0.12;}</style><clipPath id="clip-path"><rect class="cls-1" x="1183.36" y="179.02" width="1605.6" height="1716.33" transform="matrix(0.31, -0.95, 0.95, 0.31, 380.24, 2599.75)"/></clipPath><linearGradient id="Gradiente_sem_nome" x1="1680.95" y1="12297.22" x2="1697.58" y2="12347.26" gradientTransform="translate(-267.64 -11125.91)" gradientUnits="userSpaceOnUse"><stop offset="0.02" stop-color="#fff"/><stop offset="1" stop-color="#fff"/></linearGradient><linearGradient id="Gradiente_sem_nome_2" x1="1687.68" y1="12297.55" x2="1698.12" y2="12319.61" xlink:href="#Gradiente_sem_nome"/><linearGradient id="Gradiente_sem_nome_3" x1="1660.26" y1="12310.49" x2="1668.31" y2="12323.42" xlink:href="#Gradiente_sem_nome"/><linearGradient id="Gradiente_sem_nome_4" x1="1524.35" y1="11859.77" x2="1503.67" y2="11889.97" gradientTransform="translate(-267.64 -11125.91)" gradientUnits="userSpaceOnUse"><stop offset="0.02" stop-color="#fff"/><stop offset="0.37" stop-color="#ededed"/><stop offset="1" stop-color="#c4c4c4"/></linearGradient><linearGradient id="Gradiente_sem_nome_5" x1="1559.35" y1="11878.43" x2="1533.74" y2="11915.82" gradientTransform="translate(-267.64 -11125.91)" gradientUnits="userSpaceOnUse"><stop offset="0.02" stop-color="#fff"/><stop offset="0.62" stop-color="#b7b7b7"/><stop offset="1" stop-color="#8e8e8e"/></linearGradient></defs><g class="cls-2"><g class="cls-3"><path class="cls-4" d="M1898.77,946.92c194.23,0,351.7-167.38,351.7-373.86S2093,199.2,1898.77,199.2s-351.71,167.39-351.71,373.86S1704.52,946.92,1898.77,946.92Z"/><path class="cls-5" d="M1898.77,939.35c190.3,0,344.58-164,344.58-366.29s-154.28-366.29-344.58-366.29-344.59,164-344.59,366.29S1708.46,939.35,1898.77,939.35Z"/><path class="cls-6" d="M1898.77,931.77c186.36,0,337.44-160.6,337.44-358.71s-151.08-358.7-337.44-358.7S1561.32,375,1561.32,573.06,1712.4,931.77,1898.77,931.77Z"/><path class="cls-7" d="M1898.77,924.13c182.42,0,330.3-157.19,330.3-351.11s-147.88-351.11-330.3-351.11-330.31,157.22-330.31,351.15S1716.34,924.13,1898.77,924.13Z"/><path class="cls-8" d="M1898.77,916.61c178.48,0,323.18-153.81,323.18-343.55s-144.7-343.54-323.18-343.54-323.19,153.81-323.19,343.54S1720.28,916.61,1898.77,916.61Z"/><path class="cls-9" d="M1898.77,909c174.54,0,316-150.42,316-336s-141.46-335.89-316-335.89-316,150.41-316,336S1724.22,909,1898.77,909Z"/><path class="cls-10" d="M1898.77,901.43c170.6,0,308.9-147,308.9-328.37s-138.3-328.36-308.9-328.36-308.91,147-308.91,328.36S1728.16,901.43,1898.77,901.43Z"/><path class="cls-11" d="M1898.77,893.84c166.65,0,301.76-143.62,301.76-320.78s-135.11-320.78-301.76-320.78S1597,395.9,1597,573.06,1732.1,893.84,1898.77,893.84Z"/><path class="cls-12" d="M1898.77,886.27c162.72,0,294.64-140.23,294.64-313.21s-131.89-313.2-294.64-313.2-294.65,140.27-294.65,313.2S1736,886.27,1898.77,886.27Z"/><path class="cls-13" d="M1898.77,878.68c158.78,0,287.5-136.83,287.5-305.62s-128.75-305.61-287.5-305.61-287.51,136.83-287.51,305.61S1740,878.68,1898.77,878.68Z"/><path class="cls-14" d="M1898.77,871.13c154.84,0,280.36-133.43,280.36-298s-125.52-298-280.36-298-280.37,133.44-280.37,298S1743.92,871.13,1898.77,871.13Z"/><path class="cls-15" d="M1898.77,863.52c150.9,0,273.24-130,273.24-290.46S2049.67,282.6,1898.77,282.6s-273.25,130-273.25,290.46S1747.86,863.52,1898.77,863.52Z"/><path class="cls-16" d="M1898.77,855.93c147,0,266.1-126.64,266.1-282.87s-119.14-282.87-266.1-282.87-266.11,126.65-266.11,282.87S1751.8,855.93,1898.77,855.93Z"/><path class="cls-17" d="M1898.77,848.35c143,0,259-123.25,259-275.29s-115.94-275.28-259-275.28-259,123.25-259,275.28S1755.74,848.35,1898.77,848.35Z"/><path class="cls-18" d="M1898.77,840.78c139.08,0,251.84-119.86,251.84-267.72s-112.76-267.71-251.84-267.71-251.85,119.86-251.85,267.71S1759.67,840.78,1898.77,840.78Z"/><path class="cls-19" d="M1898.77,833.18c135.14,0,244.7-116.46,244.7-260.12s-109.56-260.12-244.7-260.12S1654.06,429.4,1654.06,573.06,1763.62,833.18,1898.77,833.18Z"/><path class="cls-20" d="M1898.77,825.6c131.2,0,237.56-113.07,237.56-252.54S2030,320.53,1898.77,320.53,1661.2,433.59,1661.2,573.06,1767.52,825.6,1898.77,825.6Z"/><path class="cls-21" d="M1898.77,818c127.26,0,230.42-109.67,230.42-245S2026,328.13,1898.77,328.13s-230.43,109.65-230.43,244.93S1771.52,818,1898.77,818Z"/><path class="cls-22" d="M1898.77,810.44c123.32,0,223.3-106.28,223.3-237.38s-100-237.37-223.3-237.37S1675.46,442,1675.46,573.06,1775.44,810.44,1898.77,810.44Z"/><path class="cls-23" d="M1898.77,802.85c119.38,0,216.16-102.88,216.16-229.79s-96.78-229.78-216.16-229.78S1682.6,446.13,1682.6,573.06,1779.38,802.85,1898.77,802.85Z"/><path class="cls-24" d="M1898.77,795.26c115.44,0,209-99.48,209-222.2s-93.58-222.2-209-222.2-209,99.49-209,222.2S1783.32,795.26,1898.77,795.26Z"/></g><path class="cls-25" d="M1898.77,795.26c115.44,0,209-99.48,209-222.2s-93.58-222.2-209-222.2-209,99.49-209,222.2S1783.32,795.26,1898.77,795.26Z"/><path class="cls-26" d="M1898.77,795.26c115.44,0,209-99.48,209-222.2s-93.58-222.2-209-222.2-209,99.49-209,222.2S1783.32,795.26,1898.77,795.26Z"/><path class="cls-25" d="M1812,519.56c36.86-45.3,71.09-96.28,121.59-122.84,19.84-10.45,41.33-16.55,63.31-19.86a198.3,198.3,0,0,0-98.16-26c-115.44,0-209,99.48-209,222.2a232.79,232.79,0,0,0,20.39,95.84c8.48-24.76,21.68-47.75,36.66-68.88C1766.87,571.75,1790.25,546.35,1812,519.56Z"/><path class="cls-27" d="M2011.08,575.78c-7.21,22.81-10.55,47-19.56,69.06-5.89,14.39-14.07,27.57-23,40.1-29.18,41.19-66.75,76.19-110.42,98.77-3.34,1.73-6.71,3.36-10.1,4.94a197.41,197.41,0,0,0,50.78,6.61c115.45,0,209-99.48,209-222.2a232.55,232.55,0,0,0-22.34-100A202.54,202.54,0,0,0,2011.08,575.78Z"/><path class="cls-28" d="M1940.33,401.19c31.47,33.55,13.5,106.82-40.13,163.66s-122.62,75.7-154.09,42.14-13.5-106.86,40.13-163.67S1908.86,367.64,1940.33,401.19Z"/><path class="cls-29" d="M1746.46,495.78c.76,10.26,8.92,20.4,11.18,22.49a15,15,0,0,0,7.14,4c15.25,3.51,31.56-.12,45.51-7.57a35.48,35.48,0,0,0,7.51-5.15,33.71,33.71,0,0,0,6.16-8.32c6-10.91,8.52-24.23,5.8-36.56-4.77-21.5-39.62-40.3-59.43-26.59C1752.89,450.13,1744.78,472.9,1746.46,495.78Z"/><path class="cls-30" d="M1758.14,471.23a54.75,54.75,0,0,1,25-27.23,49.89,49.89,0,0,1,23.1-5.51c-11.91-5.9-25.85-7.33-35.91-.37-17.44,12.05-25.55,34.8-23.87,57.66.4,5.62,3,11.18,5.73,15.42,0-1.85-.06-3.69,0-5.54C1752.33,493.91,1753.58,481.94,1758.14,471.23Z"/><path class="cls-29" d="M1947.86,674a36.34,36.34,0,0,1,15.25-14.63,62.87,62.87,0,0,1,13.11-4.56c3.67-.89,7.47-1.6,11.2-1,10.11,1.48,17.44,12.45,17.53,23.29s-5.85,21-13.73,27.86a47.46,47.46,0,0,1-35.89,11.52,13.59,13.59,0,0,1-6.54-2.07c-3-2.14-4.33-6.09-5.1-9.84a53.38,53.38,0,0,1-1.17-11.2A39,39,0,0,1,1947.86,674Z"/><path class="cls-30" d="M1999.91,676.94c-1.25,4.08-3.18,6.44-5.51,10a53.46,53.46,0,0,1-8.31,9.76,55,55,0,0,1-12.28,8.85c-5.28,2.65-11.2,5.26-17,6.24-3.08.52-6.15,1-9.24,1.5a8.16,8.16,0,0,0,1.2,1,13.59,13.59,0,0,0,6.54,2.07,47.5,47.5,0,0,0,35.89-11.52c7.88-6.87,13.82-17,13.73-27.85a26.6,26.6,0,0,0-2.44-10.71A93,93,0,0,1,1999.91,676.94Z"/><path class="cls-29" d="M1964.87,438.47c-14.56,2.59-25.69,9.36-30.13,14.15-3.21,3.47-6.61,10.76-7.58,14.31-4.75,17.28-.14,36.57,9.54,53.55a44.88,44.88,0,0,0,6.7,9.26,49.22,49.22,0,0,0,10.91,8.06c14.31,8.19,31.8,12.57,48.06,10.76,28.36-3.13,49.3-52.61,31.43-77.08C2018.08,450,1986.13,434.7,1964.87,438.47Z"/><path class="cls-30" d="M2033.8,471.48c-15.72-21.55-47.67-36.8-68.93-33a68.5,68.5,0,0,0-19.14,6.39c1.28-.3,2.57-.58,3.91-.83,21.26-3.77,53.2,11.48,68.93,33,14.77,20.21,3,57.51-17.49,71.62a11.4,11.4,0,0,0,1.3-.11C2030.75,545.43,2051.67,496,2033.8,471.48Z"/><path class="cls-29" d="M1820.85,717.34c17.83,1.54,38.14-3.21,50-17.31a49.26,49.26,0,0,0,9.72-20c4.68-19.16-.27-39.22-11.61-54.29s-28.7-25.26-47.64-30.21c-9.83-2.55-20.39-3.75-30.66-1.27s-20.16,9.15-24.49,18.61c-2.28,5-2.92,10.41-3.52,15.71-.19,1.72-.39,3.45-.56,5.18-4.14,39,19.81,73.6,58,83.37Z"/><path class="cls-30" d="M1830,704.91l-.78-.21c-38.24-9.77-62.16-44.31-58-83.36.18-1.73.38-3.46.57-5.19.53-4.67,1.1-9.45,2.77-13.92a30.38,30.38,0,0,0-8.39,10.65c-2.28,5-2.92,10.41-3.52,15.71-.19,1.72-.39,3.45-.56,5.18-4.14,39.05,19.81,73.6,58,83.37l.77.2c17.83,1.54,38.14-3.21,50-17.32a43.76,43.76,0,0,0,5.72-8.89C1864.45,702.47,1846.19,706.32,1830,704.91Z"/><path class="cls-29" d="M2087.74,609c-1.79-6.37-6-12.85-12.44-15.25a18.07,18.07,0,0,0-8.15-1,23.21,23.21,0,0,0-17.2,10.58c-3.71,5.75-5,13-4.22,20.17a23.62,23.62,0,0,0,3.54,10.8c2.19,3.27,5.76,5.9,9.57,6.26a19.07,19.07,0,0,0,5.87-.68c.62-.13,1.24-.28,1.86-.43,14-3.27,22.77-15.74,21.18-30.19Z"/><path class="cls-30" d="M2087.77,609.33V609c-1.79-6.37-6-12.85-12.44-15.25a18.07,18.07,0,0,0-8.15-1h-.35c6,2.57,10.1,8.83,11.84,15v.3c1.59,14.44-7.21,26.92-21.19,30.18-.62.16-1.23.29-1.85.44l-1.35.3a11.82,11.82,0,0,0,4.58,1.56,19.07,19.07,0,0,0,5.87-.68c.62-.13,1.24-.28,1.85-.43C2080.52,636.25,2089.36,623.78,2087.77,609.33Z"/><path class="cls-29" d="M1880.3,372c-3.77,2.84-7,7.54-7,12.83a15.89,15.89,0,0,0,1.22,6.27,17.58,17.58,0,0,0,11,10.16,19.59,19.59,0,0,0,14.26-1.69,16,16,0,0,0,6.24-5.18,11.32,11.32,0,0,0,1.82-8.57,15.24,15.24,0,0,0-1.84-4.17c-.24-.43-.47-.84-.72-1.27-5.48-9.55-15.77-13.06-24.86-8.44Z"/><path class="cls-30" d="M1880.52,371.94l-.2.09c-3.76,2.84-7,7.53-7,12.83a15.69,15.69,0,0,0,1.2,6.27c0,.09.07.17.1.24.25-5.07,3.4-9.58,7-12.32l.19-.1c9.1-4.62,19.39-1.1,24.87,8.44.24.41.47.84.72,1.28s.35.62.51.92a9.71,9.71,0,0,0-.07-3.76,15.24,15.24,0,0,0-1.84-4.17l-.72-1.28C1899.86,370.83,1889.59,367.3,1880.52,371.94Z"/><path class="cls-31" d="M2172.61,897.41h1a5.3,5.3,0,0,0,2.54-.58,5.16,5.16,0,0,0,1.95-1.73l.54-.8a1.31,1.31,0,0,1,.64-.5,1.26,1.26,0,0,1,1.44.48,1.19,1.19,0,0,1,.21.77v1a5.28,5.28,0,0,0,.57,2.56,5.36,5.36,0,0,0,1.72,2l.81.55a1.27,1.27,0,0,1,.46,1.42,1.25,1.25,0,0,1-.46.63,1.17,1.17,0,0,1-.75.23h-1a5.35,5.35,0,0,0-4.54,2.29l-.55.82a1.17,1.17,0,0,1-.63.46,1.28,1.28,0,0,1-1.41-.47,1.12,1.12,0,0,1-.23-.75v-1a5.34,5.34,0,0,0-2.29-4.53l-.8-.54a1.24,1.24,0,0,1-.46-.64,1.2,1.2,0,0,1,.49-1.41,1.27,1.27,0,0,1,.76-.21Z"/><path class="cls-31" d="M1415.09,681.57h1a5.23,5.23,0,0,0,4.53-2.29l.54-.8a1.28,1.28,0,0,1,1.44-.5,1.25,1.25,0,0,1,.64.49,1.19,1.19,0,0,1,.21.77v1a5.34,5.34,0,0,0,2.29,4.56l.81.55a1.24,1.24,0,0,1,.46.64,1.16,1.16,0,0,1,0,.78,1.2,1.2,0,0,1-.47.64,1.27,1.27,0,0,1-.74.23h-1a5.34,5.34,0,0,0-4.55,2.29l-.56.81a1.17,1.17,0,0,1-.63.46,1.33,1.33,0,0,1-.79,0,1.25,1.25,0,0,1-.63-.46,1.33,1.33,0,0,1-.23-.75v-1a5.05,5.05,0,0,0-.56-2.56,5.19,5.19,0,0,0-1.72-2l-.8-.55a1.36,1.36,0,0,1-.5-.63,1.22,1.22,0,0,1,0-.8,1.33,1.33,0,0,1,.48-.64A1.29,1.29,0,0,1,1415.09,681.57Z"/><path class="cls-31" d="M1294.17,786.55l2,.06a10.51,10.51,0,0,0,5.11-1.1,10.34,10.34,0,0,0,4-3.42l1.1-1.61a2.49,2.49,0,0,1,1.26-1,2.46,2.46,0,0,1,2.86.94,2.53,2.53,0,0,1,.44,1.53l-.06,1.94A10.6,10.6,0,0,0,1312,789a10.4,10.4,0,0,0,3.46,3.93l1.6,1.12a2.49,2.49,0,0,1,.66,3.46,2.59,2.59,0,0,1-.66.66,2.53,2.53,0,0,1-1.53.44l-1.94-.08a10.53,10.53,0,0,0-9.07,4.58l-1.12,1.61a2.49,2.49,0,0,1-1.26,1,2.49,2.49,0,0,1-3.3-2.47l.07-2a10.52,10.52,0,0,0-4.58-9.08l-1.66-1.06a2.54,2.54,0,0,1-1-1.26,2.51,2.51,0,0,1,1.55-3.18,2.63,2.63,0,0,1,.92-.13Z"/><path class="cls-31" d="M1178.12,1120.49l2,.07a10.55,10.55,0,0,0,9.07-4.57l1.1-1.6a2.4,2.4,0,0,1,1.26-1,2.48,2.48,0,0,1,2.86.94,2.51,2.51,0,0,1,.44,1.53l-.07,1.94a10.56,10.56,0,0,0,4.59,9.07L1201,1128a2.57,2.57,0,0,1,1,1.27,2.52,2.52,0,0,1-2.47,3.31l-1.94-.07a10.52,10.52,0,0,0-9.08,4.57l-1.1,1.6a2.49,2.49,0,0,1-1.26,1,2.54,2.54,0,0,1-1.59,0,2.5,2.5,0,0,1-1.71-2.48l.07-1.94a10.56,10.56,0,0,0-4.59-9.07l-1.61-1.09a2.54,2.54,0,0,1-1-2.86,2.51,2.51,0,0,1,2.47-1.72Z"/><path class="cls-31" d="M1738.09,1580.33h1.13a6,6,0,0,0,5.24-2.65l.64-.93a1.45,1.45,0,0,1,.74-.55,1.42,1.42,0,0,1,.91,0,1.38,1.38,0,0,1,.74.54,1.54,1.54,0,0,1,.26.88l0,1.12a6.12,6.12,0,0,0,2.65,5.25l.93.63a1.44,1.44,0,0,1,.55,1.64,1.49,1.49,0,0,1-.54.74,1.47,1.47,0,0,1-.88.26h-1.13a6.12,6.12,0,0,0-3,.65,6,6,0,0,0-2.28,2l-.63,1a1.51,1.51,0,0,1-.73.54,1.45,1.45,0,0,1-.92,0,1.47,1.47,0,0,1-1-1.42v-1.14a6.12,6.12,0,0,0-.65-3,6,6,0,0,0-2-2.28l-.94-.64a1.45,1.45,0,0,1-.55-.74,1.45,1.45,0,0,1,1.42-1.9Z"/><path class="cls-31" d="M1643.67,844.25h1.12a6.24,6.24,0,0,0,3-.66,6,6,0,0,0,2.28-2l.65-.92a1.39,1.39,0,0,1,.73-.55,1.42,1.42,0,0,1,.91,0,1.49,1.49,0,0,1,.74.54,1.54,1.54,0,0,1,.26.88v1.12a6.18,6.18,0,0,0,2.65,5.25l.93.63a1.39,1.39,0,0,1,.55.73,1.42,1.42,0,0,1,0,.91,1.38,1.38,0,0,1-.54.74,1.47,1.47,0,0,1-.88.26H1655a6.09,6.09,0,0,0-5.25,2.64l-.63.94a1.39,1.39,0,0,1-.73.55,1.45,1.45,0,0,1-.92,0,1.43,1.43,0,0,1-.73-.55,1.47,1.47,0,0,1-.26-.88v-1.13a6.11,6.11,0,0,0-2.66-5.24l-.92-.64a1.51,1.51,0,0,1-.56-.73,1.45,1.45,0,0,1,0-.92,1.46,1.46,0,0,1,1.42-1Z"/><path class="cls-31" d="M1921.09,1273.66h.8a4.25,4.25,0,0,0,2.1-.46,4.32,4.32,0,0,0,1.61-1.42l.46-.65a1.07,1.07,0,0,1,.51-.4,1,1,0,0,1,.65,0,.92.92,0,0,1,.52.39,1,1,0,0,1,.18.63v.79a4.36,4.36,0,0,0,.46,2.1,4.21,4.21,0,0,0,1.41,1.61l.65.45a1.06,1.06,0,0,1,.39.52,1,1,0,0,1,0,.65,1.06,1.06,0,0,1-.39.52,1,1,0,0,1-.62.18H1929a4.34,4.34,0,0,0-2.09.46,4.29,4.29,0,0,0-1.61,1.41l-.46.66a1,1,0,0,1-.51.41,1,1,0,0,1-1.18-.39,1.09,1.09,0,0,1-.17-.63v-.81a4.3,4.3,0,0,0-1.87-3.7l-.67-.45a1,1,0,0,1-.39-.52,1,1,0,0,1,0-.64,1.06,1.06,0,0,1,.39-.52A1,1,0,0,1,1921.09,1273.66Z"/><path class="cls-31" d="M1660.38,1681.08h.78a4.3,4.3,0,0,0,3.7-1.87l.47-.66a1,1,0,0,1,1.16-.41,1.06,1.06,0,0,1,.52.39,1,1,0,0,1,.18.63v.81a4.28,4.28,0,0,0,1.87,3.7l.66.45a1.06,1.06,0,0,1,.39.52,1,1,0,0,1,0,.65,1,1,0,0,1-.39.52.92.92,0,0,1-.62.18h-.81a4.46,4.46,0,0,0-2.09.46,4.32,4.32,0,0,0-1.61,1.42l-.46.65a1,1,0,0,1-.51.41,1.06,1.06,0,0,1-.66,0,1.08,1.08,0,0,1-.52-.4,1.05,1.05,0,0,1-.17-.63v-.8a4.32,4.32,0,0,0-1.86-3.71l-.65-.44a1.08,1.08,0,0,1-.39-.51,1,1,0,0,1,.38-1.18,1,1,0,0,1,.63-.18Z"/><path class="cls-31" d="M1429.84,1622.83h.79a4.34,4.34,0,0,0,3.72-1.88l.44-.65a1.12,1.12,0,0,1,.52-.39,1,1,0,0,1,1.17.38,1,1,0,0,1,.19.63v.78a4.47,4.47,0,0,0,.45,2.1,4.41,4.41,0,0,0,1.41,1.62l.67.45a1,1,0,0,1,.39.52,1,1,0,0,1-1,1.35h-.8a4.38,4.38,0,0,0-2.07.43,4.44,4.44,0,0,0-1.61,1.37l-.45.67a1,1,0,0,1-.52.39.91.91,0,0,1-.65,0,1,1,0,0,1-.52-.39,1,1,0,0,1-.18-.62v-.8a4.3,4.3,0,0,0-1.93-3.69l-.65-.44a1.06,1.06,0,0,1-.33-1.14,1.1,1.1,0,0,1,.38-.5,1.06,1.06,0,0,1,.59-.19Z"/><path class="cls-31" d="M1860.92,1541.3h.8a4.32,4.32,0,0,0,2.08-.5,4.18,4.18,0,0,0,1.57-1.44l.45-.65a1.06,1.06,0,0,1,.52-.39,1,1,0,0,1,1.17.38,1,1,0,0,1,.18.62v.79a4.42,4.42,0,0,0,1.88,3.73l.66.44a1,1,0,0,1,.38,1.17,1.06,1.06,0,0,1-.39.52,1,1,0,0,1-.62.18h-.79a4.39,4.39,0,0,0-3.72,1.88l-.45.65a1,1,0,0,1-.51.39,1,1,0,0,1-.65,0,1.06,1.06,0,0,1-.52-.39,1,1,0,0,1-.19-.62v-.84a4.26,4.26,0,0,0-1.86-3.71l-.67-.46a1,1,0,0,1-.25-1.09,1.05,1.05,0,0,1,.35-.48,1,1,0,0,1,.56-.2Z"/><path class="cls-31" d="M1550.68,161.21h.79a4.39,4.39,0,0,0,3.72-1.86l.45-.67a1,1,0,0,1,.51-.39,1,1,0,0,1,.65,0,1,1,0,0,1,.52.39,1,1,0,0,1,.19.62v.8a4.3,4.3,0,0,0,1.87,3.7l.67.45a1.06,1.06,0,0,1,.39.52,1,1,0,0,1,0,.65,1.06,1.06,0,0,1-.39.52,1,1,0,0,1-.62.18h-.8a4.35,4.35,0,0,0-2.09.47,4.21,4.21,0,0,0-1.61,1.41l-.45.65a1,1,0,0,1-.52.39,1,1,0,0,1-.65,0,1.06,1.06,0,0,1-.52-.39,1,1,0,0,1-.18-.62v-.79a4.49,4.49,0,0,0-.47-2.1,4.4,4.4,0,0,0-1.41-1.62l-.66-.45a.93.93,0,0,1-.38-.51,1,1,0,0,1,0-.65,1.06,1.06,0,0,1,.39-.52,1,1,0,0,1,.62-.19Z"/><path class="cls-31" d="M1509.43,463.88h.78a4.54,4.54,0,0,0,2.11-.46,4.35,4.35,0,0,0,1.62-1.42l.44-.65a1.06,1.06,0,0,1,.52-.39,1,1,0,0,1,1.17.38,1.06,1.06,0,0,1,.19.62v.79a4.24,4.24,0,0,0,.45,2.1,4.32,4.32,0,0,0,1.41,1.62l.67.45a1.06,1.06,0,0,1,.39.52,1,1,0,0,1,0,.65,1,1,0,0,1-.39.52,1,1,0,0,1-.62.18h-.8a4.25,4.25,0,0,0-2.1.46,4.32,4.32,0,0,0-1.61,1.42l-.44.65a1,1,0,0,1-.52.39,1,1,0,0,1-.65,0,1,1,0,0,1-.52-.38,1.06,1.06,0,0,1-.19-.62v-.79a4.34,4.34,0,0,0-1.88-3.72l-.65-.45a1,1,0,0,1-.39-.52,1,1,0,0,1,0-.64,1.06,1.06,0,0,1,.39-.52,1,1,0,0,1,.62-.19Z"/><path class="cls-31" d="M1359.41,242.66h.81a4.26,4.26,0,0,0,3.7-1.86l.45-.67a1.06,1.06,0,0,1,.52-.39,1,1,0,0,1,1.17.38,1,1,0,0,1,.18.62v.81a4.34,4.34,0,0,0,1.88,3.7l.65.45a1.06,1.06,0,0,1,.39.52,1,1,0,0,1,0,.65,1.06,1.06,0,0,1-.39.52,1,1,0,0,1-.62.18h-.79a4.39,4.39,0,0,0-3.72,1.88l-.45.65a1,1,0,0,1-.52.39,1,1,0,0,1-1.15-.36,1,1,0,0,1-.19-.62v-.79a4.27,4.27,0,0,0-.43-2.14,4.36,4.36,0,0,0-1.41-1.66l-.67-.45a1,1,0,0,1-.31-.5,1.18,1.18,0,0,1,0-.59,1,1,0,0,1,.88-.7Z"/><path class="cls-31" d="M1588,102.13h.79a4.35,4.35,0,0,0,3.72-1.86l.45-.67a1.06,1.06,0,0,1,.52-.39,1,1,0,0,1,1.17.38,1,1,0,0,1,.18.62V101a4.26,4.26,0,0,0,1.86,3.7l.67.45a1.06,1.06,0,0,1,.39.52,1,1,0,0,1-.38,1.17,1,1,0,0,1-.62.18H1596a4.35,4.35,0,0,0-2.09.47,4.21,4.21,0,0,0-1.61,1.41l-.45.65a1,1,0,0,1-.52.39,1,1,0,0,1-1.17-.38,1,1,0,0,1-.18-.62v-.79a4.39,4.39,0,0,0-1.88-3.72l-.65-.45a1.06,1.06,0,0,1-.39-.52,1.16,1.16,0,0,1,0-.64,1,1,0,0,1,1-.71Z"/><path class="cls-31" d="M1583.91,340.82h.79a4.29,4.29,0,0,0,3.72-1.88l.45-.65a1,1,0,0,1,.52-.39,1,1,0,0,1,.65,0,1,1,0,0,1,.7,1v.78a4.27,4.27,0,0,0,1.87,3.72l.66.45a1.06,1.06,0,0,1,.39.52,1,1,0,0,1,0,.65,1,1,0,0,1-.39.52,1,1,0,0,1-.62.18h-.81a4.28,4.28,0,0,0-3.7,1.88l-.45.65a1,1,0,0,1-.52.39.88.88,0,0,1-.64,0,1,1,0,0,1-.52-.38,1,1,0,0,1-.19-.62v-.79a4.53,4.53,0,0,0-.46-2.1,4.43,4.43,0,0,0-1.42-1.62l-.65-.45a.93.93,0,0,1-.39-.52,1,1,0,0,1,0-.64,1,1,0,0,1,1-.71Z"/><path class="cls-31" d="M1509.44,179.9h.79A4.42,4.42,0,0,0,1514,178l.44-.65a1.06,1.06,0,0,1,.52-.39,1,1,0,0,1,1.17.38,1,1,0,0,1,.18.62v.79a4.28,4.28,0,0,0,.46,2.11,4.35,4.35,0,0,0,1.42,1.62l.65.44a1.12,1.12,0,0,1,.39.52,1,1,0,0,1,0,.65,1.06,1.06,0,0,1-.39.52,1,1,0,0,1-.62.18h-.79a4.27,4.27,0,0,0-3.72,1.87l-.45.66a.94.94,0,0,1-.51.39,1,1,0,0,1-1.17-.38,1,1,0,0,1-.19-.62v-.81a4.32,4.32,0,0,0-1.89-3.7l-.65-.45a1.06,1.06,0,0,1-.39-.52A1,1,0,0,1,1509,180a1,1,0,0,1,.42-.06Z"/><path class="cls-31" d="M1665.78,187.74h.8a4.27,4.27,0,0,0,3.71-1.87l.44-.66a1.06,1.06,0,0,1,.52-.39,1.2,1.2,0,0,1,.65,0,1,1,0,0,1,.52.39,1.06,1.06,0,0,1,.19.62v.81a4.32,4.32,0,0,0,1.89,3.7l.65.45a1.06,1.06,0,0,1,.39.52,1,1,0,0,1-1,1.35h-.79a4.48,4.48,0,0,0-2.1.46,4.43,4.43,0,0,0-1.62,1.42l-.44.65a1.06,1.06,0,0,1-.52.39,1,1,0,0,1-1.17-.38,1.11,1.11,0,0,1-.19-.63v-.78a4.3,4.3,0,0,0-1.86-3.72l-.67-.45a1.06,1.06,0,0,1-.39-.52,1,1,0,0,1,0-.65,1.06,1.06,0,0,1,.39-.52A1,1,0,0,1,1665.78,187.74Z"/><path class="cls-31" d="M1278.42,484h.8a4.25,4.25,0,0,0,2.1-.46,4.11,4.11,0,0,0,1.6-1.41l.46-.67a1,1,0,0,1,.51-.39,1.2,1.2,0,0,1,.65,0,1.06,1.06,0,0,1,.52.39,1,1,0,0,1,.19.62v.81a4.32,4.32,0,0,0,1.89,3.7l.65.44a1,1,0,0,1,0,1.69,1.06,1.06,0,0,1-.62.19h-.79a4.37,4.37,0,0,0-2.1.47,4.43,4.43,0,0,0-1.63,1.41l-.44.65a1.06,1.06,0,0,1-.52.39,1,1,0,0,1-.65,0,1.06,1.06,0,0,1-.52-.39,1,1,0,0,1-.18-.62V490a4.3,4.3,0,0,0-1.86-3.72l-.64-.51a1,1,0,0,1-.33-.51,1.22,1.22,0,0,1,0-.6,1.14,1.14,0,0,1,.35-.49,1.05,1.05,0,0,1,.56-.22Z"/><path class="cls-31" d="M1149.8,570.67h.8a4.28,4.28,0,0,0,2.11-.45,4.43,4.43,0,0,0,1.63-1.41l.44-.67a1.06,1.06,0,0,1,.52-.39,1,1,0,0,1,.65,0,1,1,0,0,1,.52.39,1.06,1.06,0,0,1,.19.62v.8a4.32,4.32,0,0,0,1.89,3.71l.65.44a1.06,1.06,0,0,1,.39.52,1,1,0,0,1-.38,1.17,1.11,1.11,0,0,1-.63.19h-.79a4.4,4.4,0,0,0-3.72,1.88l-.44.65a1.06,1.06,0,0,1-.52.39,1,1,0,0,1-.65,0,1,1,0,0,1-.71-1v-.79a4.29,4.29,0,0,0-1.86-3.71l-.67-.45a1.17,1.17,0,0,1-.4-.51,1.2,1.2,0,0,1,0-.65,1,1,0,0,1,1-.73Z"/><path class="cls-31" d="M1337.31,619.39h.81a4.21,4.21,0,0,0,2.09-.46,4.35,4.35,0,0,0,1.62-1.42l.5-.56a1.06,1.06,0,0,1,.52-.39,1,1,0,0,1,1.29.58,1,1,0,0,1,.06.42v.79a4.48,4.48,0,0,0,.46,2,4.53,4.53,0,0,0,1.36,1.59l.65.44a1.06,1.06,0,0,1,.39.52,1,1,0,0,1-.38,1.17,1,1,0,0,1-.62.18h-.79a4.36,4.36,0,0,0-2.1.46,4.44,4.44,0,0,0-1.65,1.42l-.45.67a1.06,1.06,0,0,1-.52.39,1,1,0,0,1-.64,0,1,1,0,0,1-.52-.38,1,1,0,0,1-.19-.62v-.81a4.26,4.26,0,0,0-1.86-3.7l-.67-.45a1.06,1.06,0,0,1-.39-.52,1,1,0,0,1,0-.64,1,1,0,0,1,.38-.52,1,1,0,0,1,.62-.19Z"/><path class="cls-31" d="M1658.88,1445.93h.78a4.22,4.22,0,0,0,2.1-.46,4.3,4.3,0,0,0,1.63-1.42l.44-.65a1.24,1.24,0,0,1,.52-.39,1,1,0,0,1,.65,0,1,1,0,0,1,.52.39,1,1,0,0,1,.18.62v.79a4.31,4.31,0,0,0,1.88,3.72l.65.45a.94.94,0,0,1,.39.51.91.91,0,0,1,0,.65,1,1,0,0,1-1,.71h-.79a4.26,4.26,0,0,0-3.71,1.86l-.46.67a1,1,0,0,1-.51.39,1,1,0,0,1-.65,0,1,1,0,0,1-.71-1v-.8a4.32,4.32,0,0,0-1.89-3.71l-.65-.44a1.12,1.12,0,0,1-.39-.52,1,1,0,0,1,.38-1.17,1,1,0,0,1,.63-.18Z"/><path class="cls-31" d="M1460,758.89h.79a4.25,4.25,0,0,0,2.1-.46,4.18,4.18,0,0,0,1.62-1.42l.45-.65a1,1,0,0,1,.51-.39,1,1,0,0,1,1.18.39,1,1,0,0,1,.18.62v.79a4.31,4.31,0,0,0,1.88,3.72l.65.44a1.06,1.06,0,0,1,.39.52,1,1,0,0,1-.38,1.17,1,1,0,0,1-.62.18H1468a4.28,4.28,0,0,0-2.11.45,4.32,4.32,0,0,0-1.61,1.42l-.45.66a1,1,0,0,1-.52.38,1,1,0,0,1-.65,0,1.06,1.06,0,0,1-.52-.39,1,1,0,0,1-.18-.62v-.79a4.28,4.28,0,0,0-1.88-3.72l-.66-.45a1,1,0,0,1-.38-.51,1,1,0,0,1,0-.65,1.06,1.06,0,0,1,.39-.52,1,1,0,0,1,.62-.19Z"/><path class="cls-31" d="M1375.69,1257.21h.79a4.25,4.25,0,0,0,2.1-.46,4.32,4.32,0,0,0,1.62-1.41l.44-.66a1.06,1.06,0,0,1,.52-.39,1,1,0,0,1,.65,0,1,1,0,0,1,.71,1v.79a4.33,4.33,0,0,0,1.88,3.72l.65.44a1.06,1.06,0,0,1,.39.52,1,1,0,0,1,0,.65,1,1,0,0,1-1,.71h-.79a4.19,4.19,0,0,0-3.71,1.86l-.45.67a1.06,1.06,0,0,1-.52.39,1,1,0,0,1-.65,0,1,1,0,0,1-.71-1v-.8a4.37,4.37,0,0,0-.47-2.1,4.32,4.32,0,0,0-1.42-1.61l-.65-.44a1.06,1.06,0,0,1-.39-.52,1,1,0,0,1,0-.65,1,1,0,0,1,1-.71Z"/><path class="cls-31" d="M1421.52,398.42h.79a4.37,4.37,0,0,0,2.1-.47,4.24,4.24,0,0,0,1.62-1.41l.45-.66a1.06,1.06,0,0,1,.52-.39,1.2,1.2,0,0,1,.65,0,1.06,1.06,0,0,1,.52.39,1,1,0,0,1,.18.62v.79a4.28,4.28,0,0,0,1.87,3.72l.66.44a1,1,0,0,1,.39.53,1,1,0,0,1,0,.64,1,1,0,0,1-.38.52,1.06,1.06,0,0,1-.62.19h-.81a4.35,4.35,0,0,0-2.09.47,4.08,4.08,0,0,0-1.61,1.42l-.45.65a1,1,0,0,1-.52.39,1,1,0,0,1-1.35-1v-.78a4.41,4.41,0,0,0-.47-2.11,4.32,4.32,0,0,0-1.41-1.62l-.65-.44a1,1,0,0,1-.39-.52,1.2,1.2,0,0,1,0-.65,1,1,0,0,1,1-.71Z"/><path class="cls-31" d="M1155.43,913.54h.79a4.2,4.2,0,0,0,2.12-.47,4.43,4.43,0,0,0,1.62-1.45l.44-.65a1.06,1.06,0,0,1,.52-.39,1,1,0,0,1,1.17.38,1.06,1.06,0,0,1,.19.62v.79a4.3,4.3,0,0,0,1.81,3.75l.65.45a1.06,1.06,0,0,1,.39.52,1,1,0,0,1,0,.65,1.06,1.06,0,0,1-.39.52,1,1,0,0,1-.62.18h-.79a4.32,4.32,0,0,0-3.7,2l-.44.65a1,1,0,0,1-.52.39,1,1,0,0,1-1.17-.38,1,1,0,0,1-.18-.62v-.79a4.4,4.4,0,0,0-.46-2.11,4.32,4.32,0,0,0-1.42-1.61l-.66-.45a1.05,1.05,0,0,1-.5-.52,1,1,0,0,1,0-.73,1.06,1.06,0,0,1,.46-.56,1,1,0,0,1,.71-.12Z"/><path class="cls-31" d="M1269.63,1073.83h.79a4.3,4.3,0,0,0,3.72-1.86l.45-.67a1.06,1.06,0,0,1,.52-.39,1,1,0,0,1,.64,0,1,1,0,0,1,.71,1v.8a4.26,4.26,0,0,0,1.87,3.7l.66.45a1.06,1.06,0,0,1,.39.52,1,1,0,0,1,0,.65,1.06,1.06,0,0,1-.39.52,1,1,0,0,1-.62.18h-.81a4.35,4.35,0,0,0-3.7,1.88l-.45.66a1,1,0,0,1-.52.38,1,1,0,0,1-1.35-1v-.79a4.39,4.39,0,0,0-1.88-3.72l-.65-.45a.94.94,0,0,1-.39-.51,1,1,0,0,1,1-1.36Z"/><path class="cls-31" d="M1510.86,1546h.8a4.25,4.25,0,0,0,2.1-.46,4.32,4.32,0,0,0,1.61-1.42l.44-.65a1.06,1.06,0,0,1,.52-.39,1,1,0,0,1,1.17.38,1.06,1.06,0,0,1,.19.62v.79a4.33,4.33,0,0,0,1.88,3.72l.65.45a1.06,1.06,0,0,1,.39.52,1,1,0,0,1,0,.64,1.06,1.06,0,0,1-.39.52,1,1,0,0,1-.62.19h-.79a4.46,4.46,0,0,0-2.09.46,4.32,4.32,0,0,0-1.61,1.42l-.45.66a1.06,1.06,0,0,1-.52.39,1,1,0,0,1-.64,0,1.06,1.06,0,0,1-.52-.39,1,1,0,0,1-.19-.62v-.79a4.24,4.24,0,0,0-.45-2.1,4.08,4.08,0,0,0-1.42-1.61l-.66-.45a1,1,0,0,1-.4-1.17,1,1,0,0,1,.38-.52,1,1,0,0,1,.62-.19Z"/><path class="cls-31" d="M1471.75,547.74h.79a4.35,4.35,0,0,0,2.1-.45,4.4,4.4,0,0,0,1.62-1.41l.45-.67a1.06,1.06,0,0,1,.52-.39,1,1,0,0,1,1.35,1v.81a4.23,4.23,0,0,0,1.88,3.7l.65.45a1.06,1.06,0,0,1,.39.52,1,1,0,0,1,0,.65,1,1,0,0,1-1,.7h-.79a4.37,4.37,0,0,0-2.1.47,4.24,4.24,0,0,0-1.62,1.41l-.45.65a1,1,0,0,1-.52.39,1.06,1.06,0,0,1-1.17-.38,1,1,0,0,1-.18-.62v-.79a4.37,4.37,0,0,0-.47-2.1,4.24,4.24,0,0,0-1.41-1.62l-.65-.45a1,1,0,0,1-.39-.52,1,1,0,0,1,0-.64,1.06,1.06,0,0,1,.39-.52,1,1,0,0,1,.62-.19Z"/><path class="cls-31" d="M1524.61,277.69l1.12.05a6.18,6.18,0,0,0,5.25-2.65l.63-.93a1.38,1.38,0,0,1,.73-.57,1.44,1.44,0,0,1,1.84.9,1.42,1.42,0,0,1,.08.54v1.12a6.15,6.15,0,0,0,2.66,5.25l.93.63a1.47,1.47,0,0,1,.55.73,1.42,1.42,0,0,1,0,.91,1.45,1.45,0,0,1-.55.74,1.42,1.42,0,0,1-.87.26h-1.13a6.15,6.15,0,0,0-5.25,2.66l-.63.93a1.46,1.46,0,0,1-2.65-.88v-1.12a6.24,6.24,0,0,0-.66-3,6.05,6.05,0,0,0-2-2.29l-.92-.64a1.43,1.43,0,0,1-.55-.73,1.45,1.45,0,0,1,1.42-1.91Z"/><path class="cls-31" d="M2165.63,1013.38l-.49-.62a4.15,4.15,0,0,0-1.72-1.29,4.31,4.31,0,0,0-2.13-.3l-.79.08a1.05,1.05,0,0,1-1-.63,1.16,1.16,0,0,1,0-.64,1,1,0,0,1,.33-.54l.63-.5a4.37,4.37,0,0,0,1.29-1.72,4.28,4.28,0,0,0,.31-2.12l-.09-.79a1,1,0,0,1,.14-.64,1,1,0,0,1,1.68-.11l.49.62a4.21,4.21,0,0,0,1.72,1.29,4.16,4.16,0,0,0,2.12.29l.79-.07a1,1,0,0,1,.64.12,1,1,0,0,1,.44.49,1,1,0,0,1,0,.65,1,1,0,0,1-.37.55l-.61.5a4.36,4.36,0,0,0-1.6,3.84l.1.79a1.1,1.1,0,0,1-.14.64,1,1,0,0,1-.49.42,1,1,0,0,1-.65,0A1,1,0,0,1,2165.63,1013.38Z"/><path class="cls-31" d="M1703.59,990.3h1.94a10.54,10.54,0,0,0,9.08-4.57l1.09-1.61a2.5,2.5,0,0,1,1.27-1,2.38,2.38,0,0,1,1.58,0,2.49,2.49,0,0,1,1.73,2.47l-.07,1.94a10.48,10.48,0,0,0,4.57,9.06l1.61,1.12a2.36,2.36,0,0,1,1,1.26,2.41,2.41,0,0,1,0,1.59,2.49,2.49,0,0,1-2.48,1.71l-1.94-.08a10.52,10.52,0,0,0-9.07,4.59l-1.09,1.61a2.57,2.57,0,0,1-1.27,1,2.52,2.52,0,0,1-3.18-1.58,2.7,2.7,0,0,1-.13-.89l.07-1.94a10.55,10.55,0,0,0-4.58-9.08l-1.6-1.09a2.51,2.51,0,0,1-1-2.85,2.59,2.59,0,0,1,1-1.28,2.43,2.43,0,0,1,1.52-.43Z"/><path class="cls-31" d="M1798.14,1096l-1.94-.07a10.51,10.51,0,0,0-9.08,4.56l-1.09,1.61a2.54,2.54,0,0,1-1.26,1,2.45,2.45,0,0,1-2.86-1,2.47,2.47,0,0,1-.44-1.53v-2a10.52,10.52,0,0,0-4.57-9.06l-1.61-1.1a2.54,2.54,0,0,1-1-1.26,2.51,2.51,0,0,1,1.58-3.18,2.43,2.43,0,0,1,.89-.13l1.94.07a10.44,10.44,0,0,0,5.15-1.1,10.57,10.57,0,0,0,4-3.45l1.11-1.6a2.43,2.43,0,0,1,2.85-1,2.49,2.49,0,0,1,1.71,2.48l-.07,1.94a10.56,10.56,0,0,0,4.59,9.07l1.6,1.09a2.48,2.48,0,0,1-.07,4.13,2.46,2.46,0,0,1-1.53.43Z"/><path class="cls-31" d="M1898.2,1066.63h-.8a4.27,4.27,0,0,0-3.7,1.87l-.45.67a1.06,1.06,0,0,1-.52.39,1,1,0,0,1-.65,0,1,1,0,0,1-.71-1v-.8a4.32,4.32,0,0,0-1.89-3.71l-.65-.44a1.06,1.06,0,0,1-.39-.52,1,1,0,0,1,0-.65,1.06,1.06,0,0,1,.39-.52,1,1,0,0,1,.62-.18h.79a4.31,4.31,0,0,0,3.72-1.88l.44-.65a1.06,1.06,0,0,1,.52-.39,1,1,0,0,1,.65,0,1,1,0,0,1,.71,1v.79a4.27,4.27,0,0,0,1.86,3.71l.67.46a1,1,0,0,1,.39.51,1,1,0,0,1,0,.65,1,1,0,0,1-1,.71Z"/><path class="cls-31" d="M2044.52,957.13h-.8a4.37,4.37,0,0,0-2.1.47A4.32,4.32,0,0,0,2040,959l-.44.65a1.06,1.06,0,0,1-.52.39,1,1,0,0,1-.65,0,1,1,0,0,1-.71-1v-.78a4.31,4.31,0,0,0-1.88-3.73l-.65-.44a1.06,1.06,0,0,1-.39-.52,1,1,0,0,1,.38-1.17,1,1,0,0,1,.63-.18h.79a4.46,4.46,0,0,0,2.09-.46,4.32,4.32,0,0,0,1.62-1.41l.45-.66a1.06,1.06,0,0,1,.52-.39,1,1,0,0,1,.65,0,1.06,1.06,0,0,1,.52.39,1.13,1.13,0,0,1,.19.62v.81a4.23,4.23,0,0,0,.46,2.09,4.29,4.29,0,0,0,1.41,1.61l.67.45a1,1,0,0,1,.39.51,1,1,0,0,1,0,.65,1.06,1.06,0,0,1-.39.52,1,1,0,0,1-.62.19Z"/><path class="cls-31" d="M1869.66,998.7h-.79a4.34,4.34,0,0,0-3.72,1.88l-.44.66a1.06,1.06,0,0,1-.52.39,1.2,1.2,0,0,1-.65,0,1,1,0,0,1-.71-1v-.79a4.22,4.22,0,0,0-1.88-3.72l-.65-.45a1,1,0,0,1-.39-.52,1,1,0,0,1,0-.64,1.06,1.06,0,0,1,.39-.52,1,1,0,0,1,.62-.19h.79a4.25,4.25,0,0,0,2.1-.46,4.35,4.35,0,0,0,1.62-1.42l.44-.65a1.06,1.06,0,0,1,.52-.39,1,1,0,0,1,.65,0,1,1,0,0,1,.52.39,1,1,0,0,1,.19.62v.78a4.51,4.51,0,0,0,.45,2.11,4.38,4.38,0,0,0,1.43,1.62l.65.44a1.06,1.06,0,0,1,.39.52.91.91,0,0,1,0,.65,1,1,0,0,1-.39.52,1,1,0,0,1-.62.18Z"/><path class="cls-31" d="M2149.87,1909.84h-.79a4.23,4.23,0,0,0-2.09.46,4.35,4.35,0,0,0-1.62,1.42l-.46.65a1,1,0,0,1-1.16.41,1.06,1.06,0,0,1-.52-.39.94.94,0,0,1-.17-.63V1911a4.28,4.28,0,0,0-1.87-3.72l-.66-.45a1.06,1.06,0,0,1-.39-.52,1,1,0,0,1,.38-1.17,1,1,0,0,1,.63-.18h.8a4.3,4.3,0,0,0,3.7-1.87l.47-.66a1,1,0,0,1,.51-.4,1,1,0,0,1,.65,0,1,1,0,0,1,.69,1v.81a4.46,4.46,0,0,0,.46,2.09,4.29,4.29,0,0,0,1.41,1.61l.65.45a1,1,0,0,1,.39,1.16,1.06,1.06,0,0,1-.39.52,1,1,0,0,1-.62.19Z"/><path class="cls-31" d="M1893.52,1699l-.83-.07a4.4,4.4,0,0,0-3.72,1.88l-.44.65a1.06,1.06,0,0,1-.52.39,1,1,0,0,1-.65,0,1,1,0,0,1-.71-1v-.79a4.33,4.33,0,0,0-1.81-3.7l-.67-.45a1,1,0,0,1-.39-.52,1,1,0,0,1,1-1.35h.8a4.3,4.3,0,0,0,3.7-1.87l.45-.67a1.06,1.06,0,0,1,.52-.39,1,1,0,0,1,.65,0,1,1,0,0,1,.52.39,1,1,0,0,1,.19.62v.8a4.33,4.33,0,0,0,.44,2.09,4.38,4.38,0,0,0,1.39,1.63l.65.45a1,1,0,0,1,.4.51,1,1,0,0,1,0,.64,1,1,0,0,1-1,.73Z"/><path class="cls-31" d="M1905.13,1816.29h-.8a4.36,4.36,0,0,0-2.1.46,4.26,4.26,0,0,0-1.61,1.43l-.44.65a1.06,1.06,0,0,1-.52.39,1,1,0,0,1-.65,0,1.06,1.06,0,0,1-.52-.39,1,1,0,0,1-.19-.62v-.78a4.37,4.37,0,0,0-.47-2.1,4.29,4.29,0,0,0-1.41-1.61l-.66-.45a1,1,0,0,1-.38-.51,1.2,1.2,0,0,1,0-.65,1,1,0,0,1,1-.71h.79a4.33,4.33,0,0,0,3.72-1.88l.45-.65a1.06,1.06,0,0,1,.52-.39,1,1,0,0,1,.64,0,.89.89,0,0,1,.52.39,1,1,0,0,1,.19.62v.79a4.34,4.34,0,0,0,.45,2.09,4.4,4.4,0,0,0,1.41,1.62l.67.45a1,1,0,0,1,.37,1.15,1.09,1.09,0,0,1-.37.52,1.1,1.1,0,0,1-.61.19Z"/><path class="cls-31" d="M2177,1924.85h-.81a4.34,4.34,0,0,0-2.06.49,4.29,4.29,0,0,0-1.58,1.41l-.53.68a1,1,0,0,1-.51.39,1,1,0,0,1-.65,0,1.06,1.06,0,0,1-.52-.39,1,1,0,0,1-.19-.62V1926a4.42,4.42,0,0,0-1.88-3.73l-.65-.44a1.06,1.06,0,0,1-.39-.52,1,1,0,0,1,.38-1.17,1,1,0,0,1,.63-.18h.78a4.48,4.48,0,0,0,2.1-.46,4.32,4.32,0,0,0,1.62-1.41l.45-.66a1.06,1.06,0,0,1,.52-.39,1,1,0,0,1,.65,0,1.06,1.06,0,0,1,.52.39,1,1,0,0,1,.18.62v.81a4.23,4.23,0,0,0,.46,2.09,4.29,4.29,0,0,0,1.41,1.61l.67.44a1,1,0,0,1,.33.51,1.06,1.06,0,0,1,0,.61,1,1,0,0,1-.36.5,1,1,0,0,1-.57.21Z"/><path class="cls-31" d="M1985.52,1101.44h-.81a4.23,4.23,0,0,0-2.09.46,4.29,4.29,0,0,0-1.61,1.41l-.44.65a1.06,1.06,0,0,1-.52.39,1,1,0,0,1-1.29-.58,1,1,0,0,1-.06-.42v-.78a4.37,4.37,0,0,0-.47-2.1,4.32,4.32,0,0,0-1.42-1.61l-.65-.46a1.07,1.07,0,0,1-.4-.51,1,1,0,0,1,0-.65.92.92,0,0,1,.39-.52,1,1,0,0,1,.62-.18h.8a4.35,4.35,0,0,0,3.72-1.87l.44-.65a1.06,1.06,0,0,1,.52-.39,1,1,0,0,1,.65,0,1.06,1.06,0,0,1,.52.39,1,1,0,0,1,.18.62v.79a4.46,4.46,0,0,0,.46,2.09,4.27,4.27,0,0,0,1.46,1.61l.67.46a1.14,1.14,0,0,1,.4.52,1,1,0,0,1,0,.65,1.06,1.06,0,0,1-.39.52,1.09,1.09,0,0,1-.63.17Z"/><path class="cls-31" d="M1639.31,1094l1.94.07a10.39,10.39,0,0,0,5.13-1.13,10.66,10.66,0,0,0,4-3.45l1.09-1.61a2.54,2.54,0,0,1,1.26-1,2.49,2.49,0,0,1,3.17,1.54,2.44,2.44,0,0,1,.13.93l0,2a10.49,10.49,0,0,0,4.57,9.08l1.6,1.09a2.5,2.5,0,0,1,.66,3.47,2.59,2.59,0,0,1-.66.66,2.53,2.53,0,0,1-1.53.44l-2-.06a10.45,10.45,0,0,0-9.06,4.57l-1,1.54a2.48,2.48,0,0,1-2.85,1,2.51,2.51,0,0,1-1.27-1,2.47,2.47,0,0,1-.44-1.53l.07-1.94a10.52,10.52,0,0,0-4.59-9.07l-1.6-1.11a2.49,2.49,0,0,1,1.5-4.56Z"/><path class="cls-31" d="M1262.58,1349l2,.06a10.45,10.45,0,0,0,9.06-4.57l1.09-1.61a2.51,2.51,0,0,1,1.27-1,2.41,2.41,0,0,1,1.59,0,2.64,2.64,0,0,1,1.72,2.52l-.07,1.94a10.56,10.56,0,0,0,4.59,9.07l1.6,1.11a2.51,2.51,0,0,1,0,4.1,2.54,2.54,0,0,1-1.51.46l-1.94-.07a10.57,10.57,0,0,0-9.09,4.58l-1.09,1.61a2.51,2.51,0,0,1-3.49.64,2.43,2.43,0,0,1-.64-.64,2.49,2.49,0,0,1-.45-1.52l.07-1.94a10.47,10.47,0,0,0-4.57-9.08l-1.61-1.1a2.4,2.4,0,0,1-1-1.26,2.51,2.51,0,0,1,0-1.58,2.49,2.49,0,0,1,2.51-1.72Z"/><path class="cls-31" d="M1287.82,374.62h2a10.46,10.46,0,0,0,9.06-4.57l1.1-1.61a2.53,2.53,0,0,1,2.85-1,2.49,2.49,0,0,1,1.28.95,2.51,2.51,0,0,1,.45,1.52l-.08,1.94a10.56,10.56,0,0,0,4.59,9.07l1.61,1.11a2.54,2.54,0,0,1,.94,1.27,2.63,2.63,0,0,1,0,1.57,2.52,2.52,0,0,1-2.44,1.72l-2-.07a10.58,10.58,0,0,0-9.08,4.58l-1.11,1.73a2.5,2.5,0,0,1-1.26,1,2.53,2.53,0,0,1-2.86-.94,2.58,2.58,0,0,1-.45-1.52l.07-2a10.38,10.38,0,0,0-1.12-5.13,10.68,10.68,0,0,0-3.45-3.95l-1.61-1.09a2.44,2.44,0,0,1,0-4.12A2.41,2.41,0,0,1,1287.82,374.62Z"/><path class="cls-31" d="M1528,1323.73h1.12a6.12,6.12,0,0,0,5.29-2.65l.64-.92a1.39,1.39,0,0,1,.73-.55,1.42,1.42,0,0,1,.91,0,1.38,1.38,0,0,1,.74.54,1.54,1.54,0,0,1,.26.88v1.12a6.18,6.18,0,0,0,2.65,5.25l.92.64a1.43,1.43,0,0,1,.55.73,1.45,1.45,0,0,1,0,.92,1.46,1.46,0,0,1-1.42,1h-1.12a6.17,6.17,0,0,0-5.26,2.65l-.62.93a1.43,1.43,0,0,1-.73.55,1.45,1.45,0,0,1-.92,0,1.46,1.46,0,0,1-1-1.42v-1.13a6.23,6.23,0,0,0-.65-3,6,6,0,0,0-2-2.28l-.93-.63a1.44,1.44,0,0,1-.55-1.64,1.38,1.38,0,0,1,.54-.74,1.47,1.47,0,0,1,.88-.26Z"/><path class="cls-31" d="M1323.21,1495.06h1.13a6,6,0,0,0,5.25-2.72l.64-.92a1.45,1.45,0,0,1,.74-.55,1.42,1.42,0,0,1,.91,0,1.38,1.38,0,0,1,.74.54,1.54,1.54,0,0,1,.26.88v1.12a6,6,0,0,0,2.65,5.23l.92.64a1.43,1.43,0,0,1,.55.73,1.45,1.45,0,0,1,0,.92,1.51,1.51,0,0,1-.54.73,1.47,1.47,0,0,1-.88.26h-1.12a6,6,0,0,0-5.26,2.72l-.64.93a1.53,1.53,0,0,1-.73.55,1.45,1.45,0,0,1-.92,0,1.47,1.47,0,0,1-1-1.42v-1.13a6,6,0,0,0-.64-3,6.16,6.16,0,0,0-2-2.27l-.93-.64a1.44,1.44,0,0,1-.55-1.64,1.49,1.49,0,0,1,.54-.74,1.47,1.47,0,0,1,.88-.26Z"/><path class="cls-31" d="M1758.78,1334.2h.79a4.28,4.28,0,0,0,2.11-.46,4.43,4.43,0,0,0,1.63-1.41l.44-.65a1.06,1.06,0,0,1,.52-.39,1,1,0,0,1,1.17.38,1,1,0,0,1,.18.63v.78a4.3,4.3,0,0,0,1.86,3.72l.67.45a1.06,1.06,0,0,1,.39.52,1,1,0,0,1,0,.65,1.06,1.06,0,0,1-.39.52,1,1,0,0,1-.62.18h-.8a4.24,4.24,0,0,0-3.7,1.86l-.46.67a1,1,0,0,1-.51.39,1,1,0,0,1-.65,0,1,1,0,0,1-.71-1v-.81a4.32,4.32,0,0,0-1.89-3.7l-.65-.4a1.07,1.07,0,0,1-.4-.51,1,1,0,0,1,.38-1.17A1.09,1.09,0,0,1,1758.78,1334.2Z"/><path class="cls-31" d="M1599.16,1228.18h1.14a6,6,0,0,0,3-.65,6.16,6.16,0,0,0,2.27-2l.64-.93a1.53,1.53,0,0,1,.73-.55,1.46,1.46,0,0,1,1.92,1.42v1.12a6.12,6.12,0,0,0,.65,3,6.05,6.05,0,0,0,2,2.29l.93.63a1.44,1.44,0,0,1,.55,1.64,1.45,1.45,0,0,1-.55.74,1.42,1.42,0,0,1-.87.26h-1.12a6.11,6.11,0,0,0-3,.64,6,6,0,0,0-2.28,2l-.63,1a1.53,1.53,0,0,1-.73.55,1.45,1.45,0,0,1-.92,0,1.49,1.49,0,0,1-1-1.42v-1.14a6,6,0,0,0-2.64-5.23l-.94-.65a1.43,1.43,0,0,1-.55-.73,1.47,1.47,0,0,1,.54-1.65A1.48,1.48,0,0,1,1599.16,1228.18Z"/><path class="cls-31" d="M1690.28,144.83l1.94.07a10.51,10.51,0,0,0,9.08-4.56l1.09-1.61a2.54,2.54,0,0,1,1.26-1,2.52,2.52,0,0,1,2.86,1,2.47,2.47,0,0,1,.44,1.53v2a10.52,10.52,0,0,0,4.57,9.06l1.61,1.1a2.54,2.54,0,0,1,1,1.26,2.51,2.51,0,0,1-1.58,3.18,2.43,2.43,0,0,1-.89.13l-1.94-.07a10.52,10.52,0,0,0-9.06,4.57l-1.11,1.6a2.5,2.5,0,0,1-3.47.66,2.59,2.59,0,0,1-.66-.66,2.53,2.53,0,0,1-.43-1.53l.07-1.94a10.44,10.44,0,0,0-1.14-5.12,10.68,10.68,0,0,0-3.45-3.95l-1.61-1.09a2.51,2.51,0,0,1,1.51-4.58Z"/><path class="cls-31" d="M1764.52,116.8h.79a4.25,4.25,0,0,0,2.1-.46,4.11,4.11,0,0,0,1.62-1.42l.44-.65a1.06,1.06,0,0,1,.52-.39,1,1,0,0,1,.65,0,1,1,0,0,1,.52.39,1.06,1.06,0,0,1,.19.62v.79a4.33,4.33,0,0,0,1.88,3.72l.65.44a1.06,1.06,0,0,1,.39.52,1,1,0,0,1,0,.65,1,1,0,0,1-1,.71h-.79a4.27,4.27,0,0,0-3.72,1.87l-.44.66a1.06,1.06,0,0,1-.52.39,1,1,0,0,1-.65,0,1,1,0,0,1-.71-1v-.79a4.25,4.25,0,0,0-1.92-3.71l-.65-.45a1,1,0,0,1-.35-.55,1,1,0,0,1,0-.65,1.06,1.06,0,0,1,.39-.52A1.09,1.09,0,0,1,1764.52,116.8Z"/><rect class="cls-1" x="1298.16" y="1096.84" width="271.29" height="271.29"/><g class="cls-3"><g class="cls-32"><path class="cls-33" d="M1433.81,1365.45a133,133,0,1,0-133-133h0A133,133,0,0,0,1433.81,1365.45Z"/></g><g class="cls-34"><path class="cls-35" d="M1433.81,1362.76a130.27,130.27,0,1,0-130.29-130.27,130.27,130.27,0,0,0,130.29,130.27Z"/></g><g class="cls-36"><path class="cls-37" d="M1433.81,1360.06a127.57,127.57,0,1,0-127.56-127.58h0a127.56,127.56,0,0,0,127.55,127.57Z"/></g><g class="cls-38"><path class="cls-39" d="M1433.81,1357.36a124.87,124.87,0,1,0-124.87-124.87h0a124.86,124.86,0,0,0,124.85,124.87Z"/></g><g class="cls-40"><path class="cls-41" d="M1433.81,1354.67a122.18,122.18,0,1,0-122.17-122.19h0A122.19,122.19,0,0,0,1433.81,1354.67Z"/></g><g class="cls-42"><path class="cls-43" d="M1433.81,1352a119.48,119.48,0,1,0-119.47-119.49h0A119.49,119.49,0,0,0,1433.81,1352Z"/></g><g class="cls-44"><path class="cls-45" d="M1433.81,1349.3A116.81,116.81,0,1,0,1317,1232.48h0A116.81,116.81,0,0,0,1433.81,1349.3Z"/></g><g class="cls-46"><path class="cls-47" d="M1433.81,1346.6a114.11,114.11,0,1,0-114.1-114.12h0A114.11,114.11,0,0,0,1433.81,1346.6Z"/></g><g class="cls-48"><path class="cls-49" d="M1433.81,1343.9a111.41,111.41,0,1,0-111.4-111.42h0A111.41,111.41,0,0,0,1433.8,1343.9Z"/></g><g class="cls-50"><path class="cls-51" d="M1433.81,1341.21a108.72,108.72,0,1,0-108.71-108.73h0A108.72,108.72,0,0,0,1433.81,1341.21Z"/></g><g class="cls-52"><path class="cls-53" d="M1433.81,1338.51a106,106,0,1,0-106-106h0A106,106,0,0,0,1433.81,1338.51Z"/></g><g class="cls-54"><path class="cls-55" d="M1433.81,1335.81a103.32,103.32,0,1,0-103.29-103.35v0A103.32,103.32,0,0,0,1433.81,1335.81Z"/></g><g class="cls-56"><path class="cls-57" d="M1433.81,1333.13a100.63,100.63,0,1,0-100.62-100.64h0A100.64,100.64,0,0,0,1433.81,1333.13Z"/></g><g class="cls-58"><path class="cls-59" d="M1433.81,1330.42a97.93,97.93,0,1,0-97.92-97.94h0a97.92,97.92,0,0,0,97.91,97.93Z"/></g><g class="cls-60"><path class="cls-61" d="M1433.81,1327.72a95.23,95.23,0,1,0-95.23-95.23h0A95.24,95.24,0,0,0,1433.81,1327.72Z"/></g><g class="cls-62"><path class="cls-63" d="M1433.81,1325.05a92.56,92.56,0,1,0-92.55-92.57h0A92.56,92.56,0,0,0,1433.81,1325.05Z"/></g><g class="cls-64"><path class="cls-65" d="M1433.81,1322.35a89.86,89.86,0,1,0-89.86-89.86h0A89.86,89.86,0,0,0,1433.81,1322.35Z"/></g><g class="cls-66"><path class="cls-67" d="M1433.81,1319.66a87.17,87.17,0,1,0-87.16-87.18h0A87.17,87.17,0,0,0,1433.81,1319.66Z"/></g><g class="cls-68"><path class="cls-69" d="M1433.81,1317a84.47,84.47,0,1,0-84.46-84.48h0A84.47,84.47,0,0,0,1433.81,1317Z"/></g><g class="cls-70"><path class="cls-71" d="M1433.81,1314.26a81.77,81.77,0,1,0-81.76-81.78h0A81.77,81.77,0,0,0,1433.81,1314.26Z"/></g><g class="cls-3"><path class="cls-72" d="M1433.81,1311.57a79.08,79.08,0,1,0-79.07-79.09h0A79.09,79.09,0,0,0,1433.81,1311.57Z"/></g></g><path class="cls-73" d="M1433.81,1311.57a79.08,79.08,0,1,0-79.07-79.09h0A79.09,79.09,0,0,0,1433.81,1311.57Z"/><path class="cls-74" d="M1466.15,1160.3a122.69,122.69,0,0,1-4.83,38c-8.65,28.42-30,51.77-55,67.84-7.32,4.71-15.07,8.89-21.45,14.8a55.2,55.2,0,0,0-6.79,7.7,79.09,79.09,0,1,0,88.08-128.34Z"/><path class="cls-75" d="M1442.38,1181.78a78.24,78.24,0,0,0,10.83-13.37,66.13,66.13,0,0,0,5.35-11,79.15,79.15,0,0,0-103.82,75,72.47,72.47,0,0,0,.36,7.51,154.62,154.62,0,0,1,13.39-9.18C1393.68,1215.21,1421.52,1202.88,1442.38,1181.78Z"/><path class="cls-76" d="M1512.89,1232.49a78.75,78.75,0,0,0-23.46-56.23,169,169,0,0,1-2.09,35.73,107,107,0,0,1-17.47,43.89c-7.27,10.26-16.87,19.09-21.51,30.75a94.17,94.17,0,0,0-3.11,10.14q-2.09,7.27-4.35,14.48a79.07,79.07,0,0,0,72-78.76Z"/><path class="cls-77" d="M1431.77,1170.58a14.44,14.44,0,0,0-6.27,6.61,5.73,5.73,0,0,0-.49,3,26.6,26.6,0,0,0,8.16,15.4,13.06,13.06,0,0,0,2.65,2.09,11.85,11.85,0,0,0,3.55,1.26,18.08,18.08,0,0,0,13-2.1c6.64-4.18,8.67-18.81,1.63-24.33C1447.9,1167.59,1439.27,1167.32,1431.77,1170.58Z"/><path class="cls-78" d="M1441.46,1171.92a19.81,19.81,0,0,1,12.25,5.79,20.28,20.28,0,0,1,4.71,7.63c.5-5-.72-10.1-4.31-12.9-6.27-4.85-14.84-5.12-22.34-1.86a11.9,11.9,0,0,0-4.48,3.82l1.86-.64A30.52,30.52,0,0,1,1441.46,1171.92Z"/><path class="cls-77" d="M1398.61,1255.69a13.47,13.47,0,0,1,6.82,3.77,25.1,25.1,0,0,1,3.14,4.18,12,12,0,0,1,1.73,3.89,8.36,8.36,0,0,1-5.69,9.07,13.1,13.1,0,0,1-11-1.7,18.59,18.59,0,0,1-8.36-11.49,4.28,4.28,0,0,1-.28-1.7,4.56,4.56,0,0,1,.41-1.67,4.38,4.38,0,0,1,2.5-2.26,17.29,17.29,0,0,1,3.64-1.71A13.24,13.24,0,0,1,1398.61,1255.69Z"/><path class="cls-78" d="M1404,1274.74a12,12,0,0,1-4-.84,17.9,17.9,0,0,1-4.32-1.84,20.43,20.43,0,0,1-4.48-3.36,25.8,25.8,0,0,1-4.18-5.35c-.54-1-1.1-2.09-1.63-3.14a2.52,2.52,0,0,0-.21.54,5.58,5.58,0,0,0,.11,2.6,18.68,18.68,0,0,0,8.36,11.49,13.16,13.16,0,0,0,11.06,1.69,8.76,8.76,0,0,0,3.3-2.09,29.67,29.67,0,0,1-4,.3Z"/><path class="cls-77" d="M1444.06,1225.93a11.8,11.8,0,0,1-4.92,4.85,29.33,29.33,0,0,1-5,.92,14,14,0,0,1-3.87-.46,8.91,8.91,0,0,1-6.73-7.07,7.81,7.81,0,0,1,3.79-7.31,18.36,18.36,0,0,1,12.19-2.73,6.25,6.25,0,0,1,2.36.61,4.91,4.91,0,0,1,2.09,2.65,12,12,0,0,1,.82,3,8.74,8.74,0,0,1-.73,5.58Z"/><path class="cls-78" d="M1425.29,1224.22a9.31,9.31,0,0,1,1.23-3.09,15.3,15.3,0,0,1,2.59-2.86,19.13,19.13,0,0,1,4.41-2.14,22.29,22.29,0,0,1,5.56-.86c1-.1,2.09-.23,3.18-.31a2.74,2.74,0,0,0-.46-.29,6.25,6.25,0,0,0-2.36-.61,18.38,18.38,0,0,0-12.17,2.78,7.83,7.83,0,0,0-3.72,7.31,6.46,6.46,0,0,0,1.26,2.87,16.92,16.92,0,0,1,.46-2.82Z"/><path class="cls-77" d="M1469.7,1255.69a17.57,17.57,0,0,0-6.64-7.19,12.38,12.38,0,0,0-4.54-.83,19.07,19.07,0,0,0-13.23,7.56,12.09,12.09,0,0,0-1.82,2.72,14,14,0,0,0-1.08,3.7,25.35,25.35,0,0,0,1.79,14.51c3.58,7.69,18.69,9.07,23.43,1.82C1471.81,1271.6,1472.76,1261.23,1469.7,1255.69Z"/><path class="cls-78" d="M1467.63,1278c4.18-6.27,5.13-16.72,2.09-22.39a21.07,21.07,0,0,0-3.53-4.81c.19.34.4.67.59,1,3,5.64,2.09,16-2.09,22.4-3.93,6-14.93,6.09-20.65,1.59l.16.36C1447.78,1283.85,1462.89,1285.23,1467.63,1278Z"/><path class="cls-77" d="M1366.36,1222.82c1.68,6.56,5.77,13.27,12,15.86a16.88,16.88,0,0,0,7.92,1.17,22.25,22.25,0,0,0,16.85-10.45,33.17,33.17,0,0,0,4.3-20.55,25.52,25.52,0,0,0-3.34-11.12,13.7,13.7,0,0,0-9.28-6.6,17.46,17.46,0,0,0-5.71.56l-1.82.4c-13.65,3-22.34,15.53-20.92,30.43Z"/><path class="cls-78" d="M1371.67,1224.65v-.31c-1.42-14.8,7.27-27.36,20.9-30.41l1.8-.4a20.06,20.06,0,0,1,5-.54,11.22,11.22,0,0,0-4.62-1.78,17.2,17.2,0,0,0-5.71.57l-1.82.39c-13.65,2.91-22.34,15.45-20.92,30.35v.3c1.67,6.56,5.77,13.27,12,15.86a16.33,16.33,0,0,0,3.7,1,24.14,24.14,0,0,1-10.31-15.06Z"/><path class="cls-77" d="M1435.63,1305.86a8.08,8.08,0,0,0,3.6-6.27,7.06,7.06,0,0,0-.67-3,8.91,8.91,0,0,0-2.3-3.1,8.81,8.81,0,0,0-3.39-1.83,10.57,10.57,0,0,0-7.29.81,8.1,8.1,0,0,0-3.2,2.51,5.27,5.27,0,0,0-.91,2,5.39,5.39,0,0,0,0,2.19,7.32,7.32,0,0,0,1,2.09c.13.21.25.4.36.61a9.77,9.77,0,0,0,12.69,4.16Z"/><path class="cls-78" d="M1435.52,1305.86a8.1,8.1,0,0,0,2.53-2.71,8,8,0,0,0,1.06-3.56,7.06,7.06,0,0,0-.67-3v-.13a8,8,0,0,1-1.13,3.38,8.19,8.19,0,0,1-2.46,2.58h0a9.78,9.78,0,0,1-12.77-4.18l-.38-.6c0-.17-.19-.32-.27-.46a4.25,4.25,0,0,0,0,1.81,7.32,7.32,0,0,0,1,2.09c.13.21.25.4.36.61a9.78,9.78,0,0,0,12.77,4.18Z"/><path class="cls-77" d="M1502.52,1269.59a6.43,6.43,0,0,0-1.9-5.43,5.84,5.84,0,0,0-2.09-1.17,7.12,7.12,0,0,0-6,.9,8.31,8.31,0,0,0-3.3,4.87,6.22,6.22,0,0,0-.15,3.26,4.29,4.29,0,0,0,.76,1.58,4.36,4.36,0,0,0,1.33,1.16,5.82,5.82,0,0,0,1.74.46h.61a7.82,7.82,0,0,0,9.13-5.67Z"/><path class="cls-78" d="M1502.46,1269.66a6.26,6.26,0,0,0-.32-2.94,6.57,6.57,0,0,0-1.58-2.5,5.88,5.88,0,0,0-2.1-1.17h-.1a6.72,6.72,0,0,1,1.4,2.41,6.54,6.54,0,0,1,.27,2.78h0a7.82,7.82,0,0,1-9.13,5.64h-1a3.43,3.43,0,0,0,1.13.94,5.75,5.75,0,0,0,1.73.46h.56a7.84,7.84,0,0,0,9.12-5.62Z"/><path class="cls-77" d="M1498.82,1224.34a12,12,0,0,0-8.11-7,11.08,11.08,0,0,0-4.62.17,13.28,13.28,0,0,0-8.74,7,15.62,15.62,0,0,0-.79,10.91,12.11,12.11,0,0,0,2.82,5.37,7.69,7.69,0,0,0,2.65,1.78,7.87,7.87,0,0,0,3.14.56,10.79,10.79,0,0,0,3.2-.83l1-.38a14.63,14.63,0,0,0,9.45-17.49Z"/><path class="cls-78" d="M1498.82,1224.45v-.11a12,12,0,0,0-8.11-7,11.08,11.08,0,0,0-4.62.17h-.19a12.17,12.17,0,0,1,7.76,6.87v.15a14.63,14.63,0,0,1-9.47,17.6l-1,.38-.73.27a6.4,6.4,0,0,0,2.67.42,10.51,10.51,0,0,0,3.2-.84l1-.38a14.62,14.62,0,0,0,9.47-17.57Z"/><path class="cls-77" d="M1487.52,1184.73a5.78,5.78,0,0,0-2.66-.52,5.91,5.91,0,0,0-2.63.71,5.61,5.61,0,0,0-1.61,1.61,6.64,6.64,0,0,0-1,2.64,6.4,6.4,0,0,0,.19,2.82,8.06,8.06,0,0,0,3.4,4.18,6,6,0,0,0,2.83,1,3.86,3.86,0,0,0,1.58-.22,3.64,3.64,0,0,0,1.36-.85,5.57,5.57,0,0,0,.88-1.38c0-.14.15-.31.23-.46a7.21,7.21,0,0,0-2.5-9.55Z"/><path class="cls-78" d="M1487.52,1184.77a5.85,5.85,0,0,0-2.67-.52,6,6,0,0,0-2.62.71,5.61,5.61,0,0,0-1.61,1.61h0a6.13,6.13,0,0,1,5.12-.1h0a7.22,7.22,0,0,1,2.51,9.55c0,.15-.15.31-.23.48a1.54,1.54,0,0,0-.17.34,3.14,3.14,0,0,0,1.11-.76,6.22,6.22,0,0,0,.88-1.38c0-.14.14-.31.22-.46a7.2,7.2,0,0,0,.59-5.23,7.28,7.28,0,0,0-3.13-4.24Z"/><path class="cls-79" d="M1484.84,1172.13a79.07,79.07,0,0,1-111.6,111.28,79.07,79.07,0,0,0,120.82-102A78.2,78.2,0,0,0,1484.84,1172.13Z"/><path class="cls-80" d="M1423.41,1198.07a68.53,68.53,0,0,1,68.74,18.14,4.19,4.19,0,0,0,6.93-4,71.78,71.78,0,0,0-6.27-15.3,67.44,67.44,0,0,0-63.29-34.62,68.69,68.69,0,0,0-62.17,88,2.83,2.83,0,0,0,.23.75,4.19,4.19,0,0,0,8-.44,68.59,68.59,0,0,1,47.91-52.54Z"/><path class="cls-81" d="M1439.25,1171.75c1.52,3.74-4.43,9.68-13.29,13.32s-17.27,3.53-18.82-.19,4.43-9.68,13.3-13.32S1437.72,1168,1439.25,1171.75Z"/><path class="cls-82" d="M1403.92,1187.45c1.17,2.22-1.08,5.71-5,7.82s-8.11,1.9-9.28-.19,1.06-5.71,5-7.82S1402.67,1185.21,1403.92,1187.45Z"/><path class="cls-83" d="M1226.87,770.69l13.22-19.31-2.11-1.45-13.22,19.31Z"/><path class="cls-83" d="M1257.41,721.13l-13.21,19.31,2.11,1.45,13.21-19.35Z"/><path class="cls-84" d="M1257.18,776.27l17-4.12a5.29,5.29,0,0,0,4-5.83L1275.85,749a5.28,5.28,0,0,0-2.25-3.65l-43.34-29.68a5.31,5.31,0,0,0-7.35,1.37l-14.7,21.47a5.31,5.31,0,0,0,1.37,7.35l43.34,29.68A5.48,5.48,0,0,0,1257.18,776.27Z"/><path class="cls-85" d="M1294,781.41l-3-3.65-3-3.63-1.44,2.16-1.46,2.16,4.48,1.49Z"/><path class="cls-83" d="M1217.45,811.63l20.07-29.28a4.51,4.51,0,0,0-1.16-6.27h0l-20.43-13.94a4.52,4.52,0,0,0-6.28,1.18l-20.05,29.27a4.53,4.53,0,0,0,1.18,6.3h0l20.41,14A4.53,4.53,0,0,0,1217.45,811.63Z"/><path class="cls-86" d="M1213,777.8l7.35-10.73-4.84-3.34a3.5,3.5,0,0,0-4.88.9l-5.36,7.84Z"/><path class="cls-86" d="M1205.12,789.54l7.34-10.73-7.77-5.32-7.34,10.73Z"/><path class="cls-86" d="M1197,801.13l7.35-10.74-7.79-5.26-5.36,7.84a3.52,3.52,0,0,0,.91,4.88Z"/><path class="cls-86" d="M1221.84,783.8l7.35-10.67-7.78-5.32-7.34,10.72Z"/><path class="cls-86" d="M1213.84,795.47l7.34-10.72-7.77-5.32-7.35,10.7Z"/><path class="cls-86" d="M1205.86,807.21l7.34-10.73-7.77-5.35-7.34,10.73Z"/><path class="cls-86" d="M1230.52,789.75l5.36-7.84A3.51,3.51,0,0,0,1235,777l-4.87-3.35-7.38,10.74Z"/><path class="cls-86" d="M1222.58,801.47l7.34-10.73-7.77-5.32-7.34,10.71Z"/><path class="cls-86" d="M1216.52,810.25l5.36-7.84-7.84-5.28-7.34,10.73,4.87,3.35A3.59,3.59,0,0,0,1216.52,810.25Z"/><path class="cls-83" d="M1274.41,728.43l20-29.27a4.53,4.53,0,0,0-1.17-6.29l-20.4-14a4.53,4.53,0,0,0-6.29,1.17l-20,29.32a4.51,4.51,0,0,0,1.17,6.28l20.41,14a4.51,4.51,0,0,0,6.28-1.17Z"/><path class="cls-86" d="M1270,694.6l7.35-10.73-4.87-3.34a3.52,3.52,0,0,0-4.88.91l-5.37,7.84Z"/><path class="cls-86" d="M1262.05,706.33l7.34-10.73-7.77-5.32L1254.27,701Z"/><path class="cls-86" d="M1254,718l7.35-10.73-7.78-5.31-5.36,7.83a3.52,3.52,0,0,0,.91,4.88Z"/><path class="cls-86" d="M1278.81,700.64l7.35-10.72-7.78-5.33L1271,695.32Z"/><path class="cls-86" d="M1270.8,712.3l7.34-10.72-7.77-5.33L1263,707Z"/><path class="cls-86" d="M1262.83,724.05l7.34-10.73L1262.4,708l-7.35,10.73Z"/><path class="cls-86" d="M1287.44,706.56l5.36-7.84a3.51,3.51,0,0,0-.91-4.88h0L1287,690.5l-7.35,10.73Z"/><path class="cls-86" d="M1279.52,718.3l7.35-10.72-7.77-5.32L1271.75,713Z"/><path class="cls-86" d="M1273.42,727.05l5.36-7.84L1271,713.9l-7.35,10.73,4.87,3.34A3.55,3.55,0,0,0,1273.42,727.05Z"/><path class="cls-87" d="M1293.05,785a3.46,3.46,0,1,0-.9-4.81A3.46,3.46,0,0,0,1293.05,785Z"/><path class="cls-88" d="M1269.6,764.73a22.66,22.66,0,0,1,31.49-5.91l-25.57,37.41a22.66,22.66,0,0,1-5.94-31.48Z"/><path class="cls-31" d="M2047.78,1450.27h1.13a6,6,0,0,0,5.24-2.65l.64-.93a1.45,1.45,0,0,1,.74-.55,1.42,1.42,0,0,1,.91,0,1.49,1.49,0,0,1,.74.54,1.62,1.62,0,0,1,.26.88l-.05,1.12a6.12,6.12,0,0,0,2.65,5.25l.93.63a1.44,1.44,0,0,1,.55,1.64,1.49,1.49,0,0,1-.54.74,1.47,1.47,0,0,1-.88.26H2059a6.12,6.12,0,0,0-3,.65,6,6,0,0,0-2.28,2l-.63,1a1.51,1.51,0,0,1-.73.54,1.46,1.46,0,0,1-1.92-1.42v-1.14a6.12,6.12,0,0,0-.65-3,6,6,0,0,0-2-2.28l-.94-.64a1.45,1.45,0,0,1-.55-.74,1.42,1.42,0,0,1,0-.91,1.47,1.47,0,0,1,.55-.73,1.42,1.42,0,0,1,.87-.26Z"/><path class="cls-31" d="M1942.15,1620.84h.78a4.23,4.23,0,0,0,2.09-.46,4.06,4.06,0,0,0,1.61-1.41l.47-.66a1,1,0,0,1,1.16-.41,1.06,1.06,0,0,1,.52.39,1,1,0,0,1,.18.63v.81a4.3,4.3,0,0,0,1.87,3.7l.66.45a1.06,1.06,0,0,1,.39.52,1,1,0,0,1,0,.65,1.06,1.06,0,0,1-.39.52,1,1,0,0,1-.62.18h-.81a4.46,4.46,0,0,0-2.09.46,4.32,4.32,0,0,0-1.61,1.42l-.46.65a1,1,0,0,1-.51.4.94.94,0,0,1-.66,0,1,1,0,0,1-.69-1v-.8a4.32,4.32,0,0,0-1.86-3.71l-.65-.45a1,1,0,0,1,.62-1.87Z"/><path class="cls-31" d="M2155.9,1405.56h.8a4.32,4.32,0,0,0,2.08-.5,4.1,4.1,0,0,0,1.57-1.44l.45-.65a1.12,1.12,0,0,1,.52-.39,1,1,0,0,1,1.17.38,1,1,0,0,1,.18.62v.79a4.42,4.42,0,0,0,1.88,3.73l.66.44a1,1,0,0,1,.38,1.17,1.06,1.06,0,0,1-.39.52,1,1,0,0,1-.62.18h-.79a4.39,4.39,0,0,0-3.72,1.88l-.45.65a.94.94,0,0,1-.51.39.91.91,0,0,1-.65,0,1,1,0,0,1-.52-.39,1,1,0,0,1-.19-.62v-.84a4.26,4.26,0,0,0-.45-2.1,4.21,4.21,0,0,0-1.41-1.61l-.67-.46a1,1,0,0,1,.1-1.57,1,1,0,0,1,.56-.2Z"/><path class="cls-31" d="M2188.5,1563.28l-.83-.07a4.42,4.42,0,0,0-3.72,1.88l-.44.65a1.06,1.06,0,0,1-.52.39.91.91,0,0,1-.65,0,1,1,0,0,1-.52-.39,1.06,1.06,0,0,1-.19-.62v-.79a4.33,4.33,0,0,0-1.81-3.7l-.67-.45a1,1,0,0,1-.39-.52,1,1,0,0,1,1-1.35h.8a4.3,4.3,0,0,0,3.7-1.87l.45-.67a1.12,1.12,0,0,1,.52-.39,1,1,0,0,1,.65,0,1.06,1.06,0,0,1,.52.39,1,1,0,0,1,.19.62v.8a4.3,4.3,0,0,0,.44,2.09,4.38,4.38,0,0,0,1.39,1.63l.65.45a1,1,0,0,1,.4.51,1,1,0,0,1,0,.64,1,1,0,0,1-1,.73Z"/><path class="cls-31" d="M2200.11,1680.55h-.8a4.48,4.48,0,0,0-2.1.46,4.27,4.27,0,0,0-1.61,1.43l-.44.65a1.06,1.06,0,0,1-.52.39.91.91,0,0,1-.65,0,1,1,0,0,1-.52-.39,1,1,0,0,1-.19-.62v-.78a4.34,4.34,0,0,0-1.88-3.71l-.66-.45a1,1,0,0,1-.38-.51,1,1,0,0,1,0-.65,1.06,1.06,0,0,1,.39-.52,1.13,1.13,0,0,1,.62-.19h.79a4.28,4.28,0,0,0,3.72-1.88l.45-.65a1,1,0,0,1,.52-.39,1,1,0,0,1,.64,0,1,1,0,0,1,.52.39,1,1,0,0,1,.19.62v.79a4.3,4.3,0,0,0,1.86,3.71l.67.45a1,1,0,0,1,.37,1.15,1.09,1.09,0,0,1-.37.52,1,1,0,0,1-.61.19Z"/><path class="cls-31" d="M2091.36,1336h.8a4.27,4.27,0,0,0,2.1-.46,4.58,4.58,0,0,0,1.61-1.42l.46-.65a1,1,0,0,1,.51-.4.91.91,0,0,1,.65,0,.92.92,0,0,1,.52.39,1,1,0,0,1,.18.63v.79a4.27,4.27,0,0,0,.46,2.1,4.21,4.21,0,0,0,1.41,1.61l.65.45a1.08,1.08,0,0,1,.39.52,1,1,0,0,1,0,.65,1.06,1.06,0,0,1-.39.52,1,1,0,0,1-.62.18h-.79a4.3,4.3,0,0,0-3.7,1.87l-.46.66a1,1,0,0,1-.51.41,1,1,0,0,1-1.18-.39,1,1,0,0,1-.17-.63V1342a4.31,4.31,0,0,0-1.87-3.7l-.67-.45a1,1,0,0,1-.39-.52,1,1,0,0,1,0-.64.89.89,0,0,1,.39-.52A1,1,0,0,1,2091.36,1336Z"/><path class="cls-31" d="M2068.47,1129h-.8a4.25,4.25,0,0,0-2.1.46,4.11,4.11,0,0,0-1.6,1.41l-.45.67a1.12,1.12,0,0,1-.52.39,1,1,0,0,1-.65,0,1,1,0,0,1-.52-.39,1,1,0,0,1-.19-.62v-.8a4.34,4.34,0,0,0-1.89-3.71l-.65-.44a1,1,0,0,1-.39-.52.91.91,0,0,1,0-.65,1,1,0,0,1,.39-.52,1,1,0,0,1,.62-.18h.79a4.53,4.53,0,0,0,2.1-.46,4.61,4.61,0,0,0,1.62-1.42l.44-.65a1,1,0,0,1,.52-.39.91.91,0,0,1,.65,0,1,1,0,0,1,.71,1v.79a4.23,4.23,0,0,0,1.86,3.71l.67.46a1,1,0,0,1,.39.51,1,1,0,0,1,0,.65,1.06,1.06,0,0,1-.39.52,1.16,1.16,0,0,1-.62.19Z"/><path class="cls-31" d="M2155.79,1163.79H2155a4.19,4.19,0,0,0-2.09.46,4.14,4.14,0,0,0-1.61,1.41l-.44.65a1.12,1.12,0,0,1-.52.39,1,1,0,0,1-1.29-.59,1,1,0,0,1-.06-.41v-.78a4.37,4.37,0,0,0-.47-2.1,4.32,4.32,0,0,0-1.42-1.61l-.65-.46a1,1,0,0,1-.4-.51.91.91,0,0,1,0-.65.89.89,0,0,1,.39-.52,1,1,0,0,1,.62-.18h.8a4.4,4.4,0,0,0,3.72-1.87l.44-.65a1,1,0,0,1,.52-.39.91.91,0,0,1,.65,0,1.06,1.06,0,0,1,.52.39,1,1,0,0,1,.18.62v.79a4.23,4.23,0,0,0,.46,2.09,4.34,4.34,0,0,0,1.46,1.61l.67.46a1.14,1.14,0,0,1,.4.52,1,1,0,0,1,0,.65,1.06,1.06,0,0,1-.39.52,1.09,1.09,0,0,1-.63.17Z"/><path class="cls-31" d="M2037.86,1937.45h.8a4.27,4.27,0,0,0,2.1-.46,4.48,4.48,0,0,0,1.61-1.42l.46-.65a1.07,1.07,0,0,1,.51-.4,1,1,0,0,1,.65,0,1,1,0,0,1,.52.39,1.06,1.06,0,0,1,.18.63v.79a4.25,4.25,0,0,0,.46,2.1,4.13,4.13,0,0,0,1.41,1.61l.65.45a1.12,1.12,0,0,1,.39.52,1,1,0,0,1,0,.65,1.06,1.06,0,0,1-.39.52,1,1,0,0,1-.62.18h-.79a4.29,4.29,0,0,0-2.09.46,4.22,4.22,0,0,0-1.61,1.41l-.46.66a1,1,0,0,1-.51.41,1,1,0,0,1-1.18-.39,1,1,0,0,1-.17-.63v-.81a4.32,4.32,0,0,0-1.87-3.7l-.67-.45a1,1,0,0,1-.39-.52,1,1,0,0,1,0-.64.92.92,0,0,1,.39-.52A1,1,0,0,1,2037.86,1937.45Z"/><path class="cls-31" d="M2015,1730.42h-.8a4.25,4.25,0,0,0-2.1.46,4.19,4.19,0,0,0-1.6,1.41l-.45.67a1.06,1.06,0,0,1-.52.39,1,1,0,0,1-.65,0,1,1,0,0,1-.52-.39,1,1,0,0,1-.19-.62v-.8a4.34,4.34,0,0,0-1.89-3.71l-.65-.44a1,1,0,0,1-.39-.52.91.91,0,0,1,0-.65,1,1,0,0,1,.39-.52,1,1,0,0,1,.62-.18h.79a4.31,4.31,0,0,0,3.72-1.88l.44-.65a1,1,0,0,1,.52-.39,1,1,0,0,1,.65,0,1,1,0,0,1,.71,1v.79a4.23,4.23,0,0,0,1.86,3.71l.67.46a1,1,0,0,1,.39.51,1,1,0,0,1,0,.65,1.06,1.06,0,0,1-.39.52,1.08,1.08,0,0,1-.62.19Z"/><path class="cls-31" d="M2102.29,1765.23h-.81a4.19,4.19,0,0,0-2.09.46,4.14,4.14,0,0,0-1.61,1.41l-.44.65a1.06,1.06,0,0,1-.52.39,1,1,0,0,1-1.29-.59,1,1,0,0,1-.06-.41v-.78a4.49,4.49,0,0,0-.47-2.1,4.32,4.32,0,0,0-1.42-1.61l-.65-.46a1,1,0,0,1-.4-.51.91.91,0,0,1,0-.65.89.89,0,0,1,.39-.52,1,1,0,0,1,.62-.18h.8a4.4,4.4,0,0,0,3.72-1.87l.44-.65a1,1,0,0,1,.52-.39,1,1,0,0,1,.65,0,1.06,1.06,0,0,1,.52.39,1,1,0,0,1,.18.62v.79a4.2,4.2,0,0,0,1.92,3.7l.67.46a1.14,1.14,0,0,1,.4.52,1,1,0,0,1,0,.65,1.06,1.06,0,0,1-.39.52,1.09,1.09,0,0,1-.63.17Z"/><path class="cls-31" d="M1607.94,883.1l-.49-.62a4.32,4.32,0,0,0-3.85-1.59l-.79.08a1,1,0,0,1-.62-.15,1,1,0,0,1-.42-.48,1,1,0,0,1,0-.64,1,1,0,0,1,.33-.54l.63-.5a4.47,4.47,0,0,0,1.29-1.72,4.28,4.28,0,0,0,.31-2.12l-.09-.79a1,1,0,0,1,.63-1.06,1,1,0,0,1,1.19.31l.49.62a4.27,4.27,0,0,0,3.84,1.58l.79-.07a1,1,0,0,1,.64.12,1.05,1.05,0,0,1,.44.49,1,1,0,0,1,0,.65,1,1,0,0,1-.37.55l-.61.5a4.34,4.34,0,0,0-1.6,3.84l.1.79a1.1,1.1,0,0,1-.14.64,1,1,0,0,1-.49.42,1,1,0,0,1-.65,0A1,1,0,0,1,1607.94,883.1Z"/><path class="cls-31" d="M1340.51,936.35h-.8a4.36,4.36,0,0,0-2.1.46,4.19,4.19,0,0,0-1.6,1.41l-.45.67a1.06,1.06,0,0,1-.52.39,1,1,0,0,1-.65,0,1,1,0,0,1-.52-.39,1,1,0,0,1-.19-.62v-.8a4.34,4.34,0,0,0-1.89-3.71l-.65-.44a1.06,1.06,0,0,1-.39-.52.91.91,0,0,1,0-.65,1.06,1.06,0,0,1,.39-.52,1,1,0,0,1,.62-.18h.79a4.38,4.38,0,0,0,2.1-.46,4.43,4.43,0,0,0,1.62-1.42l.44-.65a1.06,1.06,0,0,1,.52-.39,1,1,0,0,1,.65,0,1,1,0,0,1,.71,1v.79a4.25,4.25,0,0,0,1.86,3.71l.67.46a1,1,0,0,1,.39.51,1,1,0,0,1,0,.65,1,1,0,0,1-.39.52,1.06,1.06,0,0,1-.62.19Z"/><path class="cls-31" d="M1424.77,908.27H1424a4.3,4.3,0,0,0-3.7,1.87l-.44.65a1.12,1.12,0,0,1-.52.39,1,1,0,0,1-1.29-.59,1,1,0,0,1-.06-.41v-.78a4.37,4.37,0,0,0-.47-2.1,4.24,4.24,0,0,0-1.42-1.61l-.65-.46a1.17,1.17,0,0,1-.4-.51,1,1,0,0,1,0-.65.89.89,0,0,1,.39-.52,1,1,0,0,1,.62-.18h.8a4.39,4.39,0,0,0,3.72-1.87l.44-.65a1.06,1.06,0,0,1,.52-.39.91.91,0,0,1,.65,0,1.06,1.06,0,0,1,.52.39,1,1,0,0,1,.18.62v.79a4.2,4.2,0,0,0,1.92,3.7l.67.46a1.14,1.14,0,0,1,.4.52,1,1,0,0,1,0,.65,1.06,1.06,0,0,1-.39.52,1.09,1.09,0,0,1-.63.17Z"/><path class="cls-31" d="M1510.77,998.7h-.8a4.27,4.27,0,0,0-3.7,1.87l-.45.67a1.12,1.12,0,0,1-.52.39,1,1,0,0,1-.65,0,1.06,1.06,0,0,1-.52-.39,1.13,1.13,0,0,1-.19-.62v-.8a4.29,4.29,0,0,0-1.89-3.71l-.65-.44a1.06,1.06,0,0,1-.39-.52,1,1,0,0,1,0-.65,1.06,1.06,0,0,1,.39-.52,1,1,0,0,1,.62-.18h.79a4.31,4.31,0,0,0,3.72-1.88l.44-.65a1.06,1.06,0,0,1,.52-.39.91.91,0,0,1,.65,0,1,1,0,0,1,.71,1v.79a4.28,4.28,0,0,0,1.86,3.71l.67.46a.94.94,0,0,1,.39.51.91.91,0,0,1,0,.65,1,1,0,0,1-.39.52,1.13,1.13,0,0,1-.62.19Z"/><path class="cls-31" d="M1598.09,1033.51h-.81a4.23,4.23,0,0,0-2.09.46,4.28,4.28,0,0,0-1.61,1.41l-.44.65a1.12,1.12,0,0,1-.52.39,1,1,0,0,1-1.29-.59,1,1,0,0,1-.06-.41v-.78a4.37,4.37,0,0,0-.47-2.1,4.32,4.32,0,0,0-1.42-1.61l-.65-.46a1.17,1.17,0,0,1-.4-.51,1,1,0,0,1,0-.65.93.93,0,0,1,.39-.52,1,1,0,0,1,.62-.18h.8a4.38,4.38,0,0,0,3.72-1.87l.44-.65a1.06,1.06,0,0,1,.52-.39.91.91,0,0,1,.65,0,1.06,1.06,0,0,1,.52.39,1,1,0,0,1,.18.62v.79a4.2,4.2,0,0,0,1.92,3.7l.67.46a1.14,1.14,0,0,1,.4.52.91.91,0,0,1,0,.65,1,1,0,0,1-.39.52,1.05,1.05,0,0,1-.63.17Z"/><path class="cls-31" d="M2035.42,141.41l-.37-.48a3.4,3.4,0,0,0-1.34-1,3.44,3.44,0,0,0-1.65-.23l-.61.06a.73.73,0,0,1-.48-.11.79.79,0,0,1-.32-.38.82.82,0,0,1,0-.49.73.73,0,0,1,.25-.42l.49-.39a3.37,3.37,0,0,0,1-1.33,3.29,3.29,0,0,0,.24-1.64l-.07-.61a.79.79,0,0,1,.11-.5.71.71,0,0,1,.38-.32.77.77,0,0,1,.92.24l.38.48a3.37,3.37,0,0,0,1.33,1,3.28,3.28,0,0,0,1.64.22l.61,0a.73.73,0,0,1,.5.09.79.79,0,0,1,.34.38.72.72,0,0,1,0,.5.79.79,0,0,1-.29.43l-.47.39a3.35,3.35,0,0,0-1.24,3l.08.61a.88.88,0,0,1-.11.5.79.79,0,0,1-.38.32.72.72,0,0,1-.5,0A.77.77,0,0,1,2035.42,141.41Z"/><path class="cls-31" d="M1874.06,121.15h-.62a3.38,3.38,0,0,0-1.63.36,3.34,3.34,0,0,0-1.24,1.09l-.35.52a.79.79,0,0,1-.4.3.72.72,0,0,1-.5,0,.78.78,0,0,1-.41-.3.9.9,0,0,1-.14-.48V122a3.36,3.36,0,0,0-1.47-2.87l-.5-.34a.78.78,0,0,1-.3-.41.72.72,0,0,1,0-.5.79.79,0,0,1,.3-.4.75.75,0,0,1,.48-.14h.61a3.34,3.34,0,0,0,2.88-1.46l.34-.5a.78.78,0,0,1,.41-.3.72.72,0,0,1,.5,0,.76.76,0,0,1,.55.77v.61a3.3,3.3,0,0,0,1.44,2.88l.52.35a.79.79,0,0,1,.3.4.79.79,0,0,1-.3.9.83.83,0,0,1-.48.15Z"/><path class="cls-31" d="M1894.27,168.81h-.63a3.25,3.25,0,0,0-1.62.35,3.29,3.29,0,0,0-1.24,1.1l-.34.5a.83.83,0,0,1-.41.3.77.77,0,0,1-1-.45.7.7,0,0,1,0-.32v-.61a3.38,3.38,0,0,0-.37-1.62,3.23,3.23,0,0,0-1.1-1.25l-.5-.36a.8.8,0,0,1-.31-.39.89.89,0,0,1,0-.51.79.79,0,0,1,.78-.54h.62a3.36,3.36,0,0,0,2.88-1.45l.34-.5a.78.78,0,0,1,.41-.3.72.72,0,0,1,.5,0,.79.79,0,0,1,.4.3.75.75,0,0,1,.14.48v.61a3.37,3.37,0,0,0,.36,1.62,3.24,3.24,0,0,0,1.13,1.25l.52.35a.9.9,0,0,1,.31.41.85.85,0,0,1,0,.5.75.75,0,0,1-.3.4.79.79,0,0,1-.49.13Z"/><path class="cls-31" d="M1951.09,126.59h-.62a3.43,3.43,0,0,0-1.63.35,3.36,3.36,0,0,0-1.24,1.1l-.34.52a.83.83,0,0,1-.41.3.85.85,0,0,1-.5,0,.81.81,0,0,1-.4-.3.86.86,0,0,1-.15-.49v-.61a3.37,3.37,0,0,0-1.46-2.88l-.51-.34a.85.85,0,0,1-.3-.4.72.72,0,0,1,0-.5.83.83,0,0,1,.3-.41.82.82,0,0,1,.48-.14h.61a3.38,3.38,0,0,0,1.63-.35,3.6,3.6,0,0,0,1.26-1.1l.34-.51a.79.79,0,0,1,.9-.3.77.77,0,0,1,.55.78v.61a3.31,3.31,0,0,0,1.44,2.87l.52.36a.73.73,0,0,1,.3.39.75.75,0,0,1,0,.51.79.79,0,0,1-.3.4.83.83,0,0,1-.48.15Z"/><path class="cls-31" d="M2026.13,217.09h-.62a3.24,3.24,0,0,0-1.62.36,3.37,3.37,0,0,0-1.25,1.09l-.34.5a.87.87,0,0,1-.4.31.78.78,0,0,1-1-.46.7.7,0,0,1-.05-.32V218a3.38,3.38,0,0,0-.36-1.63,3.49,3.49,0,0,0-1.1-1.25l-.51-.35a.87.87,0,0,1-.31-.4.85.85,0,0,1,0-.5.69.69,0,0,1,.31-.4.75.75,0,0,1,.48-.14h.62a3.41,3.41,0,0,0,2.88-1.45l.34-.51a.79.79,0,0,1,.9-.3.83.83,0,0,1,.41.3.85.85,0,0,1,.14.49v.61a3.39,3.39,0,0,0,.35,1.62,3.45,3.45,0,0,0,1.13,1.24l.52.36a.87.87,0,0,1,.31.4.72.72,0,0,1,0,.5.78.78,0,0,1-.3.41.84.84,0,0,1-.49.13Z"/><path class="cls-31" d="M2044.55,171.72l-.66-.06a3.47,3.47,0,0,0-2.94,1.49l-.35.52a.9.9,0,0,1-.41.31.92.92,0,0,1-.52,0,.85.85,0,0,1-.41-.31.88.88,0,0,1-.15-.49v-.63a3.45,3.45,0,0,0-1.44-2.93l-.53-.36a.85.85,0,0,1-.31-.41.89.89,0,0,1,0-.51.81.81,0,0,1,.8-.56h.63a3.41,3.41,0,0,0,2.93-1.48l.36-.53a.79.79,0,0,1,.41-.31.81.81,0,0,1,.93.31.84.84,0,0,1,.15.49v.63a3.3,3.3,0,0,0,.35,1.66,3.42,3.42,0,0,0,1.1,1.29l.51.36a.77.77,0,0,1,.32.91.85.85,0,0,1-.29.43.88.88,0,0,1-.49.15Z"/><path class="cls-31" d="M2084.26,231.45h-.64a3.42,3.42,0,0,0-1.66.37,3.32,3.32,0,0,0-1.28,1.13l-.35.51a.8.8,0,0,1-.92.31.77.77,0,0,1-.42-.31.84.84,0,0,1-.15-.49v-.61a3.46,3.46,0,0,0-.37-1.67,3.34,3.34,0,0,0-1.12-1.27l-.52-.36a.79.79,0,0,1-.3-.4.92.92,0,0,1,0-.52.74.74,0,0,1,.31-.41.86.86,0,0,1,.49-.15h.63a3.41,3.41,0,0,0,2.94-1.49l.36-.52a.85.85,0,0,1,.41-.31.89.89,0,0,1,.51,0,.76.76,0,0,1,.41.31.82.82,0,0,1,.15.5v.62a3.4,3.4,0,0,0,1.48,2.94l.53.36a.78.78,0,0,1,.29.91.91.91,0,0,1-.29.41.86.86,0,0,1-.49.15Z"/><path class="cls-31" d="M2125.69,219.88h-.63a3.39,3.39,0,0,0-1.66.36,3.43,3.43,0,0,0-1.27,1.12l-.36.53a.85.85,0,0,1-.41.31.74.74,0,0,1-.51,0,.77.77,0,0,1-.42-.31.84.84,0,0,1-.15-.49v-.63a3.4,3.4,0,0,0-1.49-2.94l-.52-.35a.9.9,0,0,1-.31-.41.92.92,0,0,1,0-.52.85.85,0,0,1,.31-.41.78.78,0,0,1,.49-.14h.63a3.42,3.42,0,0,0,1.66-.37,3.49,3.49,0,0,0,1.29-1.12l.34-.52a.93.93,0,0,1,.42-.31.89.89,0,0,1,.51,0,.79.79,0,0,1,.56.8v.62a3.38,3.38,0,0,0,1.48,2.94l.53.37a.78.78,0,0,1,.31.4.82.82,0,0,1-.8,1.08Z"/><path class="cls-31" d="M2199.18,277.07h-.65a3.27,3.27,0,0,0-1.65.36,3.45,3.45,0,0,0-1.28,1.12l-.35.51a.74.74,0,0,1-.41.31.79.79,0,0,1-1-.46,1,1,0,0,1-.05-.33V278a3.42,3.42,0,0,0-.37-1.66,3.54,3.54,0,0,0-1.12-1.28l-.52-.36a.87.87,0,0,1-.32-.41.89.89,0,0,1,0-.51.71.71,0,0,1,.31-.41.8.8,0,0,1,.49-.14h.64a3.46,3.46,0,0,0,2.94-1.49l.35-.51a.82.82,0,0,1,.42-.31.74.74,0,0,1,.51,0,.79.79,0,0,1,.41.31.76.76,0,0,1,.14.49v.63A3.5,3.5,0,0,0,2198,274a3.4,3.4,0,0,0,1.16,1.28l.53.36a.9.9,0,0,1,.31.41.77.77,0,0,1,0,.52.74.74,0,0,1-.31.41.85.85,0,0,1-.49.14Z"/><path class="cls-31" d="M1496.86,904.32l.34-.72a4.27,4.27,0,0,0,.49-2.1,4.43,4.43,0,0,0-.6-2.06l-.39-.69a1.07,1.07,0,0,1-.14-.63,1,1,0,0,1,.28-.59.93.93,0,0,1,.57-.31,1,1,0,0,1,.65.11l.71.34a4.38,4.38,0,0,0,2.1.48,4.19,4.19,0,0,0,2.06-.58l.68-.4a1.1,1.1,0,0,1,.64-.12,1,1,0,0,1,.59.27,1,1,0,0,1,.2,1.22l-.34.71a4.31,4.31,0,0,0,.1,4.14l.4.7a1,1,0,0,1,.16.64,1,1,0,0,1-1.5.78l-.74-.34a4.29,4.29,0,0,0-4.14.1l-.69.41a1,1,0,0,1-.64.13,1,1,0,0,1-.58-.27,1,1,0,0,1-.3-.58A1,1,0,0,1,1496.86,904.32Z"/><path class="cls-31" d="M1464.67,1085.39l.33-.7a4.27,4.27,0,0,0,.49-2.1,4.38,4.38,0,0,0-.59-2.08l-.4-.67a1.1,1.1,0,0,1-.12-.64,1,1,0,0,1,.27-.59,1.08,1.08,0,0,1,.58-.3,1,1,0,0,1,.64.1l.71.34a4.14,4.14,0,0,0,2.09.48,4.45,4.45,0,0,0,2.08-.58l.68-.4a1,1,0,0,1,.63-.13,1,1,0,0,1,.8,1.48l-.34.72a4.29,4.29,0,0,0,.09,4.15l.41.7a1,1,0,0,1-.14,1.21,1,1,0,0,1-.58.31,1,1,0,0,1-.64-.1l-.72-.34a4.37,4.37,0,0,0-2.1-.47,4.24,4.24,0,0,0-2.06.59l-.68.4a1.09,1.09,0,0,1-.64.13,1,1,0,0,1-.89-.85,1,1,0,0,1,.11-.64Z"/><path class="cls-31" d="M1420.71,1033.71l.34-.71a4.38,4.38,0,0,0,.49-2.1,4.45,4.45,0,0,0-.58-2.08l-.4-.68a1.06,1.06,0,0,1-.13-.63,1,1,0,0,1,.85-.9,1,1,0,0,1,.64.11l.71.33a4.28,4.28,0,0,0,4.15-.08l.7-.42a1,1,0,0,1,.64-.13,1.06,1.06,0,0,1,.58.28,1.1,1.1,0,0,1,.31.58,1,1,0,0,1-.11.63l-.34.73a4.21,4.21,0,0,0,.1,4.14l.4.7a1,1,0,0,1,.14.63,1,1,0,0,1-1.49.8l-.73-.35a4.34,4.34,0,0,0-4.15.12l-.64.42a1.07,1.07,0,0,1-.63.14,1,1,0,0,1-.59-.27,1,1,0,0,1-.31-.57A1.09,1.09,0,0,1,1420.71,1033.71Z"/><path class="cls-31" d="M1563.3,734.76l.34-.72a4.27,4.27,0,0,0,.49-2.1,4.43,4.43,0,0,0-.6-2.06l-.39-.69a1.07,1.07,0,0,1-.14-.63.94.94,0,0,1,.28-.59.93.93,0,0,1,.57-.31,1.05,1.05,0,0,1,.65.11l.71.34a4.38,4.38,0,0,0,2.1.48,4.19,4.19,0,0,0,2.06-.58l.68-.4a1.09,1.09,0,0,1,.64-.12,1,1,0,0,1,.59.27,1.08,1.08,0,0,1,.3.58,1,1,0,0,1-.1.64l-.34.71a4.31,4.31,0,0,0,.1,4.14l.4.7a1,1,0,0,1,.15.64,1,1,0,0,1-.85.9,1,1,0,0,1-.65-.12l-.73-.34a4.29,4.29,0,0,0-4.14.1l-.7.41a.93.93,0,0,1-.63.13,1,1,0,0,1-.58-.27,1,1,0,0,1-.3-.58A1,1,0,0,1,1563.3,734.76Z"/><path class="cls-31" d="M1923.62,1367.24h-.79a4.13,4.13,0,0,0-2.09.46,4.34,4.34,0,0,0-1.62,1.42l-.46.65a1,1,0,0,1-1.16.41,1.12,1.12,0,0,1-.52-.39,1.09,1.09,0,0,1-.17-.63v-.79a4.24,4.24,0,0,0-.45-2.1,4.11,4.11,0,0,0-1.42-1.62l-.66-.45a1.12,1.12,0,0,1-.39-.52,1,1,0,0,1,.38-1.17,1,1,0,0,1,.63-.18h.8a4.31,4.31,0,0,0,3.7-1.87l.47-.66a1,1,0,0,1,.51-.4.91.91,0,0,1,.65,0,1,1,0,0,1,.69,1v.81a4.3,4.3,0,0,0,1.87,3.7l.65.45a1,1,0,0,1,.39,1.16,1,1,0,0,1-.39.52,1,1,0,0,1-.62.19Z"/><path class="cls-31" d="M1950.7,1382.25h-.81a4.26,4.26,0,0,0-2.06.49,4.36,4.36,0,0,0-1.58,1.41l-.53.68a1,1,0,0,1-.51.39,1,1,0,0,1-.65,0,1.12,1.12,0,0,1-.52-.39,1.06,1.06,0,0,1-.19-.62v-.78a4.38,4.38,0,0,0-1.88-3.73l-.65-.44a1.12,1.12,0,0,1-.39-.52,1,1,0,0,1,.38-1.17,1,1,0,0,1,.63-.18h.78a4.48,4.48,0,0,0,2.1-.46,4.41,4.41,0,0,0,1.62-1.41l.45-.66a1,1,0,0,1,.52-.39.91.91,0,0,1,.65,0,1,1,0,0,1,.52.39.91.91,0,0,1,.18.62v.81a4.34,4.34,0,0,0,.46,2.09,4.46,4.46,0,0,0,1.41,1.61l.67.44a1,1,0,0,1,.33.51.91.91,0,0,1,0,.61,1,1,0,0,1-.36.5,1,1,0,0,1-.57.21Z"/><path class="cls-31" d="M1811.61,1394.84h.8a4.14,4.14,0,0,0,2.1-.46,4.32,4.32,0,0,0,1.61-1.42l.46-.65a1.07,1.07,0,0,1,.51-.4,1,1,0,0,1,.65,0,1,1,0,0,1,.7,1v.79a4.36,4.36,0,0,0,.46,2.1,4.14,4.14,0,0,0,1.41,1.61l.65.45a1.06,1.06,0,0,1,.39.52,1,1,0,0,1,0,.65,1,1,0,0,1-1,.7h-.79a4.46,4.46,0,0,0-2.09.46,4.38,4.38,0,0,0-1.61,1.41l-.46.66a1,1,0,0,1-.51.41,1,1,0,0,1-1.18-.39,1.05,1.05,0,0,1-.17-.63v-.81a4.31,4.31,0,0,0-1.87-3.7l-.67-.45a1,1,0,0,1-.39-.52,1,1,0,0,1,0-.64,1,1,0,0,1,1-.71Z"/><path class="cls-31" d="M1788.72,1187.81h-.8a4.48,4.48,0,0,0-2.1.46,4.35,4.35,0,0,0-1.6,1.41l-.45.67a1,1,0,0,1-.52.39.91.91,0,0,1-.65,0,1,1,0,0,1-.52-.39,1,1,0,0,1-.19-.62v-.8a4.34,4.34,0,0,0-1.89-3.71l-.65-.44a1,1,0,0,1-.39-.52,1,1,0,0,1,0-.65,1.06,1.06,0,0,1,.39-.52,1,1,0,0,1,.62-.18h.79a4.25,4.25,0,0,0,2.1-.46,4.35,4.35,0,0,0,1.62-1.42l.44-.65a1.12,1.12,0,0,1,.52-.39,1,1,0,0,1,.65,0,1,1,0,0,1,.71,1v.79a4.27,4.27,0,0,0,1.86,3.71l.67.46a1.08,1.08,0,0,1,.39.51,1,1,0,0,1,0,.65,1,1,0,0,1-.39.52,1,1,0,0,1-.62.19Z"/><path class="cls-31" d="M1876,1222.62h-.81a4.3,4.3,0,0,0-3.7,1.87l-.44.65a1,1,0,0,1-.52.39,1,1,0,0,1-1.29-.58,1,1,0,0,1-.06-.42v-.78a4.32,4.32,0,0,0-1.89-3.71l-.65-.46a1.07,1.07,0,0,1-.4-.51,1,1,0,0,1,0-.65.92.92,0,0,1,.39-.52,1,1,0,0,1,.62-.18h.8a4.33,4.33,0,0,0,3.72-1.87l.44-.65a1.12,1.12,0,0,1,.52-.39,1,1,0,0,1,.65,0,1.12,1.12,0,0,1,.52.39,1,1,0,0,1,.18.62v.79a4.29,4.29,0,0,0,.46,2.09,4.19,4.19,0,0,0,1.46,1.61l.67.46a1.2,1.2,0,0,1,.4.52,1,1,0,0,1,0,.65,1,1,0,0,1-.39.52,1,1,0,0,1-.63.17Z"/></g><g class="cls-3"><path class="cls-89" d="M2099.86,1620.16a117.9,117.9,0,1,0-166.74,0A117.89,117.89,0,0,0,2099.86,1620.16Z"/><path class="cls-90" d="M2098.2,1618.5a115.56,115.56,0,1,0-163.42,0A115.55,115.55,0,0,0,2098.2,1618.5Z"/><path class="cls-91" d="M2096.53,1616.83a113.2,113.2,0,1,0-160.09,0A113.18,113.18,0,0,0,2096.53,1616.83Z"/><path class="cls-92" d="M2094.86,1615.17a110.84,110.84,0,1,0-156.75,0A110.84,110.84,0,0,0,2094.86,1615.17Z"/><path class="cls-93" d="M2093.2,1613.5a108.48,108.48,0,1,0-153.42,0A108.49,108.49,0,0,0,2093.2,1613.5Z"/><path class="cls-94" d="M2091.53,1611.83a106.12,106.12,0,1,0-150.08,0A106.13,106.13,0,0,0,2091.53,1611.83Z"/><path class="cls-95" d="M2089.87,1610.17a103.77,103.77,0,1,0-146.76,0A103.79,103.79,0,0,0,2089.87,1610.17Z"/><path class="cls-96" d="M2088.2,1608.5a101.41,101.41,0,1,0-143.42,0A101.42,101.42,0,0,0,2088.2,1608.5Z"/><path class="cls-97" d="M2086.53,1606.83a99.06,99.06,0,1,0-140.09,0A99.06,99.06,0,0,0,2086.53,1606.83Z"/><path class="cls-98" d="M2084.86,1605.16a96.7,96.7,0,1,0-136.75,0A96.7,96.7,0,0,0,2084.86,1605.16Z"/><path class="cls-99" d="M2083.19,1603.5a94.34,94.34,0,1,0-133.41,0A94.33,94.33,0,0,0,2083.19,1603.5Z"/><path class="cls-100" d="M2020.89,1628.65a92,92,0,1,0-96.3-87.45A92,92,0,0,0,2020.89,1628.65Z"/><path class="cls-101" d="M2019.51,1624a87.27,87.27,0,1,0-90.24-84.2A87.27,87.27,0,0,0,2019.51,1624Z"/><path class="cls-102" d="M2018.85,1621.65a84.91,84.91,0,1,0-87.24-82.51A84.91,84.91,0,0,0,2018.85,1621.65Z"/><path class="cls-103" d="M2018.22,1619.35a82.55,82.55,0,1,0-84.26-80.81A82.56,82.56,0,0,0,2018.22,1619.35Z"/><path class="cls-104" d="M2017.6,1617a80.19,80.19,0,1,0-81.31-79.06A80.19,80.19,0,0,0,2017.6,1617Z"/><path class="cls-105" d="M2017.06,1614.65a77.85,77.85,0,1,0-78.4-77.3A77.85,77.85,0,0,0,2017.06,1614.65Z"/><path class="cls-106" d="M2016.49,1612.28a75.49,75.49,0,1,0-75.48-75.49A75.49,75.49,0,0,0,2016.49,1612.28Z"/><path class="cls-107" d="M2089.63,1537.27A73.13,73.13,0,1,0,2016,1609.9,73.13,73.13,0,0,0,2089.63,1537.27Z"/><path class="cls-108" d="M2087.25,1537.77a70.77,70.77,0,1,0-71.74,69.78A70.77,70.77,0,0,0,2087.25,1537.77Z"/></g><path class="cls-109" d="M2086.81,1544.77a70.77,70.77,0,1,0-78.32,62.32A70.78,70.78,0,0,0,2086.81,1544.77Z"/><path class="cls-110" d="M1976.15,1527.82a7.45,7.45,0,0,0,10.95-6.42l.24-7.64a7.59,7.59,0,0,1,11.86-6,7.6,7.6,0,0,0,11.85-5.61l.43-5a7.59,7.59,0,0,1,13.21-4.41l10.5,11.68.29.3c4,4,10.51,1.5,11.67-3.44a173.79,173.79,0,0,1,5.74-18.7l1.88-5.32a70.81,70.81,0,0,0-105.83,38.39l5.06,1.93A220.82,220.82,0,0,1,1976.15,1527.82Z"/><path class="cls-110" d="M2068.72,1516.21a6.35,6.35,0,0,0-5.26,8.83l.84,1.94a6.35,6.35,0,0,1-9.3,7.82l-4.62-3a6.34,6.34,0,0,0-9.38,7.6l5.42,14a6.34,6.34,0,0,1-10.32,6.85,6.35,6.35,0,0,0-10.75,4.48l0,2.51a6.34,6.34,0,0,1-12,2.84l-11-21.08a6.35,6.35,0,0,0-11.66,1l-4.39,13.41a6.34,6.34,0,0,1-12.11-.19l-3.77-12.88,0-.06a4.66,4.66,0,0,0-7-2.51l-14.74,9.35a70.77,70.77,0,1,0,135.08-42.25Z"/><path class="cls-111" d="M2027.39,1529.27l-3.11-5.71a10.07,10.07,0,0,0-18.63,7.15l1.55,6.47a10.08,10.08,0,0,0,14.25,6.69l1.55-.77A10.06,10.06,0,0,0,2027.39,1529.27Z"/><path class="cls-112" d="M1961.28,1492.52c-.32.4-.64.79-1,1.19a70.81,70.81,0,0,0,38.3,111.57C2006.21,1547.77,1982.31,1512.14,1961.28,1492.52Z"/><path class="cls-113" d="M1998.07,1468.46l21.69,11.74a47.27,47.27,0,0,1,23.25,53.39,47.27,47.27,0,0,0,12.93,45.84l9.14,8.83a72.31,72.31,0,0,0,7.57-8.39,70.78,70.78,0,0,0-74.58-111.41Z"/><path class="cls-112" d="M1965.12,1546.86a60.51,60.51,0,0,1-7.46-42.49l1.84-9.52a70.76,70.76,0,0,0,12.55,97A60.48,60.48,0,0,0,1965.12,1546.86Z"/><path class="cls-113" d="M2066.9,1487.11c-2.4,27-2.45,63.71,11.22,84.46A70.82,70.82,0,0,0,2066.9,1487.11Z"/></svg>