<?xml version="1.0" encoding="utf-8"?>
<!-- Generator: Adobe Illustrator 26.1.0, SVG Export Plug-In . SVG Version: 6.00 Build 0)  -->
<svg version="1.1" id="Layer_1" xmlns="http://www.w3.org/2000/svg" xmlns:xlink="http://www.w3.org/1999/xlink" x="0px" y="0px"
	 viewBox="0 0 2224.2 2053.1" style="enable-background:new 0 0 2224.2 2053.1;" xml:space="preserve">
<style type="text/css">
	.st0{clip-path:url(#SVGID_00000106140143335931510730000001180935755686490511_);}
	.st1{opacity:0.42;}
	.st2{opacity:5.000000e-02;fill:#111111;enable-background:new    ;}
	.st3{opacity:0.1;fill:#1C1C1C;enable-background:new    ;}
	.st4{opacity:0.14;fill:#262626;enable-background:new    ;}
	.st5{opacity:0.19;fill:#303030;enable-background:new    ;}
	.st6{opacity:0.24;fill:#3B3B3B;enable-background:new    ;}
	.st7{opacity:0.29;fill:#454545;enable-background:new    ;}
	.st8{opacity:0.33;fill:#4F4F4F;enable-background:new    ;}
	.st9{opacity:0.38;fill:#5A5A5A;enable-background:new    ;}
	.st10{opacity:0.43;fill:#646464;enable-background:new    ;}
	.st11{opacity:0.48;fill:#6E6E6E;enable-background:new    ;}
	.st12{opacity:0.52;fill:#797979;enable-background:new    ;}
	.st13{opacity:0.57;fill:#838383;enable-background:new    ;}
	.st14{opacity:0.62;fill:#8D8D8D;enable-background:new    ;}
	.st15{opacity:0.67;fill:#989898;enable-background:new    ;}
	.st16{opacity:0.71;fill:#A2A2A2;enable-background:new    ;}
	.st17{opacity:0.76;fill:#ACACAC;enable-background:new    ;}
	.st18{opacity:0.81;fill:#B7B7B7;enable-background:new    ;}
	.st19{opacity:0.86;fill:#C1C1C1;enable-background:new    ;}
	.st20{opacity:0.9;fill:#CBCBCB;enable-background:new    ;}
	.st21{opacity:0.95;fill:#D6D6D6;enable-background:new    ;}
	.st22{opacity:0.42;fill:#E0E0E0;enable-background:new    ;}
	.st23{fill:#E0E0E0;}
	.st24{fill:#D3D3D3;}
	.st25{fill:#C1C1C1;}
	.st26{opacity:0.21;fill:#FFFFFF;enable-background:new    ;}
	.st27{fill:#B2B2B2;}
	.st28{fill:#969696;}
	.st29{fill:#847D9E;}
	.st30{fill:none;}
	.st31{opacity:5.000000e-02;}
	.st32{fill:#090D2D;}
	.st33{opacity:0.1;}
	.st34{fill:#081936;}
	.st35{opacity:0.14;}
	.st36{fill:#082440;}
	.st37{opacity:0.19;}
	.st38{fill:#073049;}
	.st39{opacity:0.24;}
	.st40{fill:#073B53;}
	.st41{opacity:0.29;}
	.st42{fill:#06475C;}
	.st43{opacity:0.33;}
	.st44{fill:#065266;}
	.st45{opacity:0.38;}
	.st46{fill:#065D6F;}
	.st47{opacity:0.43;}
	.st48{fill:#056979;}
	.st49{opacity:0.48;}
	.st50{fill:#057482;}
	.st51{opacity:0.52;}
	.st52{fill:#04808C;}
	.st53{opacity:0.57;}
	.st54{fill:#048B95;}
	.st55{opacity:0.62;}
	.st56{fill:#03979F;}
	.st57{opacity:0.67;}
	.st58{fill:#03A2A8;}
	.st59{opacity:0.71;}
	.st60{fill:#03ADB2;}
	.st61{opacity:0.76;}
	.st62{fill:#02B9BB;}
	.st63{opacity:0.81;}
	.st64{fill:#02C4C5;}
	.st65{opacity:0.86;}
	.st66{fill:#01D0CE;}
	.st67{opacity:0.9;}
	.st68{fill:#01DBD8;}
	.st69{opacity:0.95;}
	.st70{fill:#00E7E1;}
	.st71{fill:#00F2EB;}
	.st72{fill:#00BAB7;}
	.st73{fill:#00ADAB;}
	.st74{fill:#24C6C4;}
	.st75{fill:#1FA09E;}
	.st76{fill:#0B9996;}
	.st77{fill:#00807D;}
	.st78{opacity:0.1;enable-background:new    ;}
	.st79{opacity:0.35;fill:url(#SVGID_00000079476994845397544820000007114620864257663638_);enable-background:new    ;}
	.st80{opacity:0.43;fill:url(#SVGID_00000116210069559556252710000003347963056367754145_);enable-background:new    ;}
	.st81{opacity:0.43;fill:url(#SVGID_00000005251258464781440500000000463354584257430925_);enable-background:new    ;}
	.st82{fill:#FFFFFF;}
	.st83{fill:url(#SVGID_00000171698367664246952170000001001546219288929967_);}
	.st84{fill:#F2D100;}
	.st85{fill:#A9C4DA;}
	.st86{fill:#F27E00;}
	.st87{fill:url(#SVGID_00000082365520979376903210000001646597173367801784_);}
	.st88{opacity:4.760000e-02;fill:#15022B;enable-background:new    ;}
	.st89{opacity:9.520000e-02;fill:#1F0233;enable-background:new    ;}
	.st90{opacity:0.1429;fill:#29023B;enable-background:new    ;}
	.st91{opacity:0.1905;fill:#330243;enable-background:new    ;}
	.st92{opacity:0.2381;fill:#3D024B;enable-background:new    ;}
	.st93{opacity:0.2857;fill:#470153;enable-background:new    ;}
	.st94{opacity:0.3333;fill:#51015B;enable-background:new    ;}
	.st95{opacity:0.381;fill:#5B0163;enable-background:new    ;}
	.st96{opacity:0.4286;fill:#65016B;enable-background:new    ;}
	.st97{opacity:0.4762;fill:#6F0173;enable-background:new    ;}
	.st98{opacity:0.5238;fill:#79017A;enable-background:new    ;}
	.st99{opacity:0.5714;fill:#830182;enable-background:new    ;}
	.st100{opacity:0.6667;fill:#970192;enable-background:new    ;}
	.st101{opacity:0.7143;fill:#A1019A;enable-background:new    ;}
	.st102{opacity:0.7619;fill:#AB00A2;enable-background:new    ;}
	.st103{opacity:0.8095;fill:#B500AA;enable-background:new    ;}
	.st104{opacity:0.8571;fill:#BF00B2;enable-background:new    ;}
	.st105{opacity:0.9048;fill:#C900BA;enable-background:new    ;}
	.st106{opacity:0.9524;fill:#D300C2;enable-background:new    ;}
	.st107{opacity:0.42;fill:#DD00CA;enable-background:new    ;}
	.st108{fill:#5F00A5;}
	.st109{fill:#D133C5;}
	.st110{fill:#D14AC7;}
	.st111{opacity:0.15;fill:#FFFFFF;enable-background:new    ;}
	.st112{opacity:0.12;enable-background:new    ;}
</style>
<g>
	<defs>
		
			<rect id="SVGID_1_" x="1183.4" y="179" transform="matrix(0.3125 -0.9499 0.9499 0.3125 380.2425 2599.7495)" width="1605.6" height="1716.3"/>
	</defs>
	<clipPath id="SVGID_00000064355779674680966230000009615964722494540939_">
		<use xlink:href="#SVGID_1_"  style="overflow:visible;"/>
	</clipPath>
	<g style="clip-path:url(#SVGID_00000064355779674680966230000009615964722494540939_);">
		<g class="st1">
			<path class="st2" d="M1898.8,946.9c194.2,0,351.7-167.4,351.7-373.9S2093,199.2,1898.8,199.2s-351.7,167.4-351.7,373.9
				S1704.5,946.9,1898.8,946.9z"/>
			<path class="st3" d="M1898.8,939.4c190.3,0,344.6-164,344.6-366.3s-154.3-366.3-344.6-366.3s-344.6,164-344.6,366.3
				S1708.5,939.4,1898.8,939.4z"/>
			<path class="st4" d="M1898.8,931.8c186.4,0,337.4-160.6,337.4-358.7s-151.1-358.7-337.4-358.7S1561.3,375,1561.3,573.1
				S1712.4,931.8,1898.8,931.8z"/>
			<path class="st5" d="M1898.8,924.1c182.4,0,330.3-157.2,330.3-351.1s-147.9-351.1-330.3-351.1s-330.3,157.2-330.3,351.1
				S1716.3,924.1,1898.8,924.1z"/>
			<path class="st6" d="M1898.8,916.6c178.5,0,323.2-153.8,323.2-343.5s-144.7-343.5-323.2-343.5s-323.2,153.8-323.2,343.5
				S1720.3,916.6,1898.8,916.6z"/>
			<path class="st7" d="M1898.8,909c174.5,0,316-150.4,316-336s-141.5-335.9-316-335.9s-316,150.4-316,336S1724.2,909,1898.8,909z"
				/>
			<path class="st8" d="M1898.8,901.4c170.6,0,308.9-147,308.9-328.4s-138.3-328.4-308.9-328.4s-308.9,147-308.9,328.4
				S1728.2,901.4,1898.8,901.4z"/>
			<path class="st9" d="M1898.8,893.8c166.7,0,301.8-143.6,301.8-320.8s-135.1-320.8-301.8-320.8S1597,395.9,1597,573.1
				S1732.1,893.8,1898.8,893.8z"/>
			<path class="st10" d="M1898.8,886.3c162.7,0,294.6-140.2,294.6-313.2s-131.9-313.2-294.6-313.2s-294.7,140.3-294.7,313.2
				S1736,886.3,1898.8,886.3z"/>
			<path class="st11" d="M1898.8,878.7c158.8,0,287.5-136.8,287.5-305.6s-128.8-305.6-287.5-305.6s-287.5,136.8-287.5,305.6
				S1740,878.7,1898.8,878.7z"/>
			<path class="st12" d="M1898.8,871.1c154.8,0,280.4-133.4,280.4-298s-125.5-298-280.4-298s-280.4,133.4-280.4,298
				S1743.9,871.1,1898.8,871.1z"/>
			<path class="st13" d="M1898.8,863.5c150.9,0,273.2-130,273.2-290.5s-122.3-290.5-273.2-290.5s-273.2,130-273.2,290.5
				S1747.9,863.5,1898.8,863.5z"/>
			<path class="st14" d="M1898.8,855.9c147,0,266.1-126.6,266.1-282.9s-119.1-282.9-266.1-282.9s-266.1,126.6-266.1,282.9
				S1751.8,855.9,1898.8,855.9z"/>
			<path class="st15" d="M1898.8,848.4c143,0,259-123.2,259-275.3s-115.9-275.3-259-275.3s-259,123.2-259,275.3
				S1755.7,848.4,1898.8,848.4z"/>
			<path class="st16" d="M1898.8,840.8c139.1,0,251.8-119.9,251.8-267.7s-112.8-267.7-251.8-267.7s-251.8,119.9-251.8,267.7
				S1759.7,840.8,1898.8,840.8z"/>
			<path class="st17" d="M1898.8,833.2c135.1,0,244.7-116.5,244.7-260.1s-109.6-260.1-244.7-260.1s-244.7,116.5-244.7,260.1
				S1763.6,833.2,1898.8,833.2z"/>
			<path class="st18" d="M1898.8,825.6c131.2,0,237.6-113.1,237.6-252.5S2030,320.5,1898.8,320.5s-237.6,113.1-237.6,252.5
				S1767.5,825.6,1898.8,825.6z"/>
			<path class="st19" d="M1898.8,818c127.3,0,230.4-109.7,230.4-245S2026,328.1,1898.8,328.1s-230.4,109.6-230.4,244.9
				S1771.5,818,1898.8,818z"/>
			<path class="st20" d="M1898.8,810.4c123.3,0,223.3-106.3,223.3-237.4s-100-237.4-223.3-237.4S1675.5,442,1675.5,573.1
				S1775.4,810.4,1898.8,810.4z"/>
			<path class="st21" d="M1898.8,802.9c119.4,0,216.2-102.9,216.2-229.8s-96.8-229.8-216.2-229.8s-216.2,102.9-216.2,229.8
				S1779.4,802.9,1898.8,802.9z"/>
			<path class="st22" d="M1898.8,795.3c115.4,0,209-99.5,209-222.2s-93.6-222.2-209-222.2s-209,99.5-209,222.2
				S1783.3,795.3,1898.8,795.3z"/>
		</g>
		<path class="st23" d="M1898.8,795.3c115.4,0,209-99.5,209-222.2s-93.6-222.2-209-222.2s-209,99.5-209,222.2
			S1783.3,795.3,1898.8,795.3z"/>
		<path class="st24" d="M1898.8,795.3c115.4,0,209-99.5,209-222.2s-93.6-222.2-209-222.2s-209,99.5-209,222.2
			S1783.3,795.3,1898.8,795.3z"/>
		<path class="st23" d="M1812,519.6c36.9-45.3,71.1-96.3,121.6-122.8c19.8-10.5,41.3-16.5,63.3-19.9c-29.9-17-63.7-26-98.2-26
			c-115.4,0-209,99.5-209,222.2c-0.1,33,6.9,65.7,20.4,95.8c8.5-24.8,21.7-47.8,36.7-68.9C1766.9,571.8,1790.3,546.4,1812,519.6z"/>
		<path class="st25" d="M2011.1,575.8c-7.2,22.8-10.6,47-19.6,69.1c-5.9,14.4-14.1,27.6-23,40.1c-29.2,41.2-66.8,76.2-110.4,98.8
			c-3.3,1.7-6.7,3.4-10.1,4.9c16.6,4.4,33.6,6.6,50.8,6.6c115.4,0,209-99.5,209-222.2c0.1-34.6-7.6-68.7-22.3-100
			C2050.3,498.5,2024.2,534.5,2011.1,575.8z"/>
		<path class="st26" d="M1940.3,401.2c31.5,33.5,13.5,106.8-40.1,163.7s-122.6,75.7-154.1,42.1s-13.5-106.9,40.1-163.7
			C1839.9,386.5,1908.9,367.6,1940.3,401.2z"/>
		<path class="st27" d="M1746.5,495.8c0.8,10.3,8.9,20.4,11.2,22.5c2,2,4.4,3.4,7.1,4c15.2,3.5,31.6-0.1,45.5-7.6
			c2.7-1.4,5.2-3.1,7.5-5.2c2.5-2.4,4.5-5.2,6.2-8.3c6-10.9,8.5-24.2,5.8-36.6c-4.8-21.5-39.6-40.3-59.4-26.6
			C1752.9,450.1,1744.8,472.9,1746.5,495.8z"/>
		<path class="st28" d="M1758.1,471.2c4.9-11.7,13.8-21.3,25-27.2c7.1-3.7,15.1-5.6,23.1-5.5c-11.9-5.9-25.8-7.3-35.9-0.4
			c-17.4,12-25.6,34.8-23.9,57.7c0.4,5.6,3,11.2,5.7,15.4c0-1.8-0.1-3.7,0-5.5C1752.3,493.9,1753.6,481.9,1758.1,471.2z"/>
		<path class="st27" d="M1947.9,674c3.5-6.3,8.8-11.4,15.2-14.6c4.2-2,8.6-3.5,13.1-4.6c3.7-0.9,7.5-1.6,11.2-1
			c10.1,1.5,17.4,12.5,17.5,23.3s-5.8,21-13.7,27.9c-9.9,8.6-22.8,12.8-35.9,11.5c-2.3-0.1-4.6-0.8-6.5-2.1c-3-2.1-4.3-6.1-5.1-9.8
			c-0.8-3.7-1.2-7.4-1.2-11.2C1942.6,686.5,1944.4,679.8,1947.9,674z"/>
		<path class="st28" d="M1999.9,676.9c-1.2,4.1-3.2,6.4-5.5,10c-2.4,3.6-5.2,6.9-8.3,9.8c-3.7,3.5-7.8,6.5-12.3,8.8
			c-5.3,2.7-11.2,5.3-17,6.2c-3.1,0.5-6.2,1-9.2,1.5c0.4,0.4,0.8,0.7,1.2,1c2,1.2,4.2,2,6.5,2.1c13,1.3,26-2.9,35.9-11.5
			c7.9-6.9,13.8-17,13.7-27.8c-0.1-3.7-0.9-7.3-2.4-10.7C2001.8,669.9,2001,673.4,1999.9,676.9z"/>
		<path class="st27" d="M1964.9,438.5c-14.6,2.6-25.7,9.4-30.1,14.1c-3.2,3.5-6.6,10.8-7.6,14.3c-4.8,17.3-0.1,36.6,9.5,53.5
			c1.8,3.4,4.1,6.5,6.7,9.3c3.2,3.2,6.9,5.9,10.9,8.1c14.3,8.2,31.8,12.6,48.1,10.8c28.4-3.1,49.3-52.6,31.4-77.1
			C2018.1,450,1986.1,434.7,1964.9,438.5z"/>
		<path class="st28" d="M2033.8,471.5c-15.7-21.5-47.7-36.8-68.9-33c-6.7,1.2-13.1,3.3-19.1,6.4c1.3-0.3,2.6-0.6,3.9-0.8
			c21.3-3.8,53.2,11.5,68.9,33c14.8,20.2,3,57.5-17.5,71.6c0.4,0,0.9-0.1,1.3-0.1C2030.8,545.4,2051.7,496,2033.8,471.5z"/>
		<path class="st27" d="M1820.9,717.3c17.8,1.5,38.1-3.2,50-17.3c4.7-5.8,8-12.7,9.7-20c4.7-19.2-0.3-39.2-11.6-54.3
			s-28.7-25.3-47.6-30.2c-9.8-2.5-20.4-3.8-30.7-1.3c-10.3,2.5-20.2,9.2-24.5,18.6c-2.3,5-2.9,10.4-3.5,15.7
			c-0.2,1.7-0.4,3.5-0.6,5.2c-4.1,39,19.8,73.6,58,83.4L1820.9,717.3z"/>
		<path class="st28" d="M1830,704.9l-0.8-0.2c-38.2-9.8-62.2-44.3-58-83.4c0.2-1.7,0.4-3.5,0.6-5.2c0.5-4.7,1.1-9.5,2.8-13.9
			c-3.6,2.9-6.4,6.5-8.4,10.7c-2.3,5-2.9,10.4-3.5,15.7c-0.2,1.7-0.4,3.5-0.6,5.2c-4.1,39,19.8,73.6,58,83.4l0.8,0.2
			c17.8,1.5,38.1-3.2,50-17.3c2.3-2.7,4.2-5.7,5.7-8.9C1864.5,702.5,1846.2,706.3,1830,704.9z"/>
		<path class="st27" d="M2087.7,609c-1.8-6.4-6-12.8-12.4-15.2c-2.6-1-5.4-1.3-8.2-1c-7,0.7-13.4,4.6-17.2,10.6
			c-3.7,5.8-5,13-4.2,20.2c0.3,3.8,1.5,7.5,3.5,10.8c2.2,3.3,5.8,5.9,9.6,6.3c2,0.1,4-0.1,5.9-0.7c0.6-0.1,1.2-0.3,1.9-0.4
			c14-3.3,22.8-15.7,21.2-30.2L2087.7,609z"/>
		<path class="st28" d="M2087.8,609.3V609c-1.8-6.4-6-12.8-12.4-15.2c-2.6-1-5.4-1.3-8.2-1c-0.1,0-0.2,0-0.3,0
			c6,2.6,10.1,8.8,11.8,15v0.3c1.6,14.4-7.2,26.9-21.2,30.2c-0.6,0.2-1.2,0.3-1.8,0.4l-1.4,0.3c1.4,0.8,3,1.4,4.6,1.6
			c2,0.1,4-0.1,5.9-0.7c0.6-0.1,1.2-0.3,1.9-0.4C2080.5,636.3,2089.4,623.8,2087.8,609.3z"/>
		<path class="st27" d="M1880.3,372c-3.8,2.8-7,7.5-7,12.8c0,2.2,0.4,4.3,1.2,6.3c2,4.9,6,8.6,11,10.2c4.8,1.3,9.9,0.7,14.3-1.7
			c2.5-1.2,4.6-2.9,6.2-5.2c1.7-2.5,2.4-5.6,1.8-8.6c-0.4-1.5-1-2.9-1.8-4.2c-0.2-0.4-0.5-0.8-0.7-1.3c-5.5-9.5-15.8-13.1-24.9-8.4
			L1880.3,372z"/>
		<path class="st28" d="M1880.5,371.9l-0.2,0.1c-3.8,2.8-7,7.5-7,12.8c0,2.2,0.4,4.3,1.2,6.3c0,0.1,0.1,0.2,0.1,0.2
			c0.2-5.1,3.4-9.6,7-12.3l0.2-0.1c9.1-4.6,19.4-1.1,24.9,8.4c0.2,0.4,0.5,0.8,0.7,1.3s0.3,0.6,0.5,0.9c0.2-1.2,0.2-2.5-0.1-3.8
			c-0.4-1.5-1-2.9-1.8-4.2l-0.7-1.3C1899.9,370.8,1889.6,367.3,1880.5,371.9z"/>
		<path class="st29" d="M2172.6,897.4h1c0.9,0,1.8-0.2,2.5-0.6c0.8-0.4,1.5-1,1.9-1.7l0.5-0.8c0.2-0.2,0.4-0.4,0.6-0.5
			c0.5-0.2,1.1,0,1.4,0.5c0.2,0.2,0.2,0.5,0.2,0.8v1c0,0.9,0.2,1.8,0.6,2.6c0.4,0.8,1,1.5,1.7,2l0.8,0.5c0.2,0.2,0.4,0.4,0.5,0.6
			c0.1,0.3,0.1,0.5,0,0.8c-0.1,0.3-0.2,0.5-0.5,0.6c-0.2,0.2-0.5,0.2-0.8,0.2h-1c-1.8-0.1-3.5,0.8-4.5,2.3l-0.5,0.8
			c-0.2,0.2-0.4,0.4-0.6,0.5c-0.5,0.2-1.1,0-1.4-0.5c-0.2-0.2-0.2-0.5-0.2-0.8v-1c0.1-1.8-0.8-3.5-2.3-4.5l-0.8-0.5
			c-0.2-0.2-0.4-0.4-0.5-0.6c-0.1-0.3-0.1-0.5,0-0.8c0.1-0.3,0.3-0.5,0.5-0.6C2172.1,897.5,2172.3,897.4,2172.6,897.4L2172.6,897.4z
			"/>
		<path class="st29" d="M1415.1,681.6h1c1.8,0.1,3.5-0.8,4.5-2.3l0.5-0.8c0.3-0.5,0.9-0.7,1.4-0.5c0.3,0.1,0.5,0.3,0.6,0.5
			c0.2,0.2,0.2,0.5,0.2,0.8v1c0,0.9,0.2,1.8,0.6,2.6c0.4,0.8,1,1.5,1.7,2l0.8,0.5c0.2,0.2,0.4,0.4,0.5,0.6c0.1,0.3,0.1,0.5,0,0.8
			c-0.1,0.3-0.2,0.5-0.5,0.6c-0.2,0.2-0.5,0.2-0.7,0.2h-1c-0.9,0-1.8,0.2-2.5,0.6c-0.8,0.4-1.5,1-2,1.7l-0.6,0.8
			c-0.2,0.2-0.4,0.4-0.6,0.5c-0.3,0.1-0.5,0.1-0.8,0c-0.3-0.1-0.5-0.2-0.6-0.5c-0.2-0.2-0.2-0.5-0.2-0.8v-1c0-0.9-0.2-1.8-0.6-2.6
			c-0.4-0.8-1-1.5-1.7-2l-0.8-0.5c-0.2-0.2-0.4-0.4-0.5-0.6c-0.1-0.3-0.1-0.5,0-0.8c0.1-0.3,0.3-0.5,0.5-0.6
			C1414.5,681.6,1414.8,681.6,1415.1,681.6z"/>
		<path class="st29" d="M1294.2,786.6l2,0.1c1.8,0.1,3.5-0.3,5.1-1.1c1.6-0.8,3-2,4-3.4l1.1-1.6c0.3-0.5,0.7-0.8,1.3-1
			c1.1-0.4,2.2,0,2.9,0.9c0.3,0.4,0.5,1,0.4,1.5l-0.1,1.9c-0.1,1.8,0.3,3.5,1.1,5.1c0.8,1.6,2,2.9,3.5,3.9l1.6,1.1
			c1.1,0.8,1.4,2.3,0.7,3.5c-0.2,0.3-0.4,0.5-0.7,0.7c-0.4,0.3-1,0.5-1.5,0.4l-1.9-0.1c-3.6-0.1-7,1.6-9.1,4.6l-1.1,1.6
			c-0.3,0.5-0.7,0.8-1.3,1c-1.1,0.3-2.2,0-2.9-0.9c-0.3-0.4-0.5-1-0.4-1.5l0.1-2c0.1-1.8-0.3-3.5-1.1-5.1c-0.8-1.6-2-2.9-3.5-4
			l-1.7-1.1c-0.5-0.3-0.8-0.7-1-1.3c-0.4-1.3,0.2-2.7,1.6-3.2C1293.5,786.6,1293.8,786.5,1294.2,786.6L1294.2,786.6z"/>
		<path class="st29" d="M1178.1,1120.5l2,0.1c3.6,0.1,7-1.6,9.1-4.6l1.1-1.6c0.3-0.5,0.7-0.8,1.3-1c1.1-0.4,2.2,0,2.9,0.9
			c0.3,0.4,0.5,1,0.4,1.5l-0.1,1.9c-0.1,3.6,1.6,7,4.6,9.1l1.6,1.1c0.4,0.3,0.8,0.8,0.9,1.3c0.2,0.5,0.2,1.1,0,1.6
			c-0.4,1.1-1.4,1.8-2.5,1.7l-1.9-0.1c-3.6-0.1-7,1.6-9.1,4.6l-1.1,1.6c-0.3,0.5-0.7,0.8-1.3,1c-0.5,0.2-1.1,0.2-1.6,0
			c-1.1-0.3-1.8-1.4-1.7-2.5l0.1-1.9c0.1-3.6-1.6-7-4.6-9.1l-1.6-1.1c-0.9-0.6-1.3-1.8-1-2.9C1176,1121.1,1177,1120.4,1178.1,1120.5
			L1178.1,1120.5z"/>
		<path class="st29" d="M1738.1,1580.3h1.1c2.1,0.1,4.1-0.9,5.2-2.7l0.6-0.9c0.2-0.3,0.4-0.5,0.7-0.6c0.3-0.1,0.6-0.1,0.9,0
			c0.3,0.1,0.6,0.3,0.7,0.5c0.2,0.3,0.3,0.6,0.3,0.9l0,1.1c-0.1,2.1,0.9,4.1,2.7,5.2l0.9,0.6c0.5,0.4,0.8,1,0.6,1.6
			c-0.1,0.3-0.3,0.6-0.5,0.7c-0.3,0.2-0.6,0.3-0.9,0.3h-1.1c-1,0-2.1,0.2-3,0.7c-0.9,0.5-1.7,1.1-2.3,2l-0.6,1
			c-0.2,0.3-0.4,0.4-0.7,0.5c-0.3,0.1-0.6,0.1-0.9,0c-0.6-0.2-1-0.8-1-1.4v-1.1c0-1-0.2-2.1-0.7-3c-0.5-0.9-1.1-1.7-2-2.3l-0.9-0.6
			c-0.3-0.2-0.5-0.4-0.5-0.7c-0.1-0.3-0.1-0.6,0-0.9c0.1-0.3,0.3-0.6,0.5-0.7C1737.4,1580.4,1737.7,1580.3,1738.1,1580.3
			L1738.1,1580.3z"/>
		<path class="st29" d="M1643.7,844.3h1.1c1,0,2.1-0.2,3-0.7c0.9-0.5,1.7-1.2,2.3-2l0.7-0.9c0.2-0.3,0.4-0.5,0.7-0.5
			c0.3-0.1,0.6-0.1,0.9,0c0.3,0.1,0.6,0.3,0.7,0.5c0.2,0.3,0.3,0.6,0.3,0.9v1.1c-0.1,2.1,0.9,4.1,2.7,5.2l0.9,0.6
			c0.3,0.2,0.5,0.4,0.6,0.7c0.1,0.3,0.1,0.6,0,0.9c-0.1,0.3-0.3,0.6-0.5,0.7c-0.3,0.2-0.6,0.3-0.9,0.3h-1.1
			c-2.1-0.1-4.1,0.9-5.2,2.6l-0.6,0.9c-0.2,0.3-0.4,0.5-0.7,0.5c-0.3,0.1-0.6,0.1-0.9,0c-0.3-0.1-0.6-0.3-0.7-0.5
			c-0.2-0.3-0.3-0.6-0.3-0.9v-1.1c0.1-2.1-0.9-4.1-2.7-5.2l-0.9-0.6c-0.3-0.2-0.5-0.4-0.6-0.7c-0.1-0.3-0.1-0.6,0-0.9
			c0.1-0.3,0.3-0.6,0.6-0.7C1643.1,844.3,1643.4,844.2,1643.7,844.3L1643.7,844.3z"/>
		<path class="st29" d="M1921.1,1273.7h0.8c0.7,0,1.5-0.1,2.1-0.5c0.6-0.3,1.2-0.8,1.6-1.4l0.5-0.7c0.1-0.2,0.3-0.3,0.5-0.4
			c0.2-0.1,0.4-0.1,0.7,0c0.2,0.1,0.4,0.2,0.5,0.4c0.1,0.2,0.2,0.4,0.2,0.6v0.8c0,0.7,0.1,1.4,0.5,2.1c0.3,0.6,0.8,1.2,1.4,1.6
			l0.7,0.4c0.2,0.1,0.3,0.3,0.4,0.5c0.1,0.2,0.1,0.4,0,0.7c-0.1,0.2-0.2,0.4-0.4,0.5c-0.2,0.1-0.4,0.2-0.6,0.2h-0.8
			c-0.7,0-1.4,0.1-2.1,0.5c-0.6,0.3-1.2,0.8-1.6,1.4l-0.5,0.7c-0.1,0.2-0.3,0.3-0.5,0.4c-0.4,0.2-0.9,0-1.2-0.4
			c-0.1-0.2-0.2-0.4-0.2-0.6v-0.8c0.1-1.5-0.7-2.9-1.9-3.7l-0.7-0.4c-0.2-0.1-0.3-0.3-0.4-0.5c-0.1-0.2-0.1-0.4,0-0.6
			c0.1-0.2,0.2-0.4,0.4-0.5C1920.7,1273.7,1920.9,1273.7,1921.1,1273.7z"/>
		<path class="st29" d="M1660.4,1681.1h0.8c0.7,0,1.4-0.1,2.1-0.5c0.7-0.3,1.2-0.8,1.6-1.4l0.5-0.7c0.2-0.4,0.7-0.6,1.2-0.4
			c0.2,0.1,0.4,0.2,0.5,0.4c0.1,0.2,0.2,0.4,0.2,0.6v0.8c-0.1,1.5,0.7,2.9,1.9,3.7l0.7,0.4c0.2,0.1,0.3,0.3,0.4,0.5
			c0.1,0.2,0.1,0.4,0,0.7c-0.1,0.2-0.2,0.4-0.4,0.5c-0.2,0.1-0.4,0.2-0.6,0.2h-0.8c-0.7,0-1.4,0.1-2.1,0.5c-0.6,0.3-1.2,0.8-1.6,1.4
			l-0.5,0.7c-0.1,0.2-0.3,0.3-0.5,0.4c-0.2,0.1-0.4,0.1-0.7,0c-0.2-0.1-0.4-0.2-0.5-0.4c-0.1-0.2-0.2-0.4-0.2-0.6v-0.8
			c0.1-1.5-0.6-2.9-1.9-3.7l-0.7-0.4c-0.2-0.1-0.3-0.3-0.4-0.5c-0.2-0.4,0-0.9,0.4-1.2C1659.9,1681.1,1660.2,1681.1,1660.4,1681.1
			L1660.4,1681.1z"/>
		<path class="st29" d="M1429.8,1622.8h0.8c1.5,0,2.9-0.7,3.7-1.9l0.4-0.7c0.1-0.2,0.3-0.3,0.5-0.4c0.4-0.2,0.9,0,1.2,0.4
			c0.1,0.2,0.2,0.4,0.2,0.6v0.8c0,0.7,0.1,1.4,0.5,2.1c0.3,0.6,0.8,1.2,1.4,1.6l0.7,0.4c0.2,0.1,0.3,0.3,0.4,0.5
			c0.2,0.4,0,0.9-0.4,1.2c-0.2,0.1-0.4,0.2-0.6,0.2h-0.8c-0.7,0-1.4,0.1-2.1,0.4c-0.6,0.3-1.2,0.8-1.6,1.4l-0.4,0.7
			c-0.1,0.2-0.3,0.3-0.5,0.4c-0.2,0.1-0.4,0.1-0.7,0c-0.2-0.1-0.4-0.2-0.5-0.4c-0.1-0.2-0.2-0.4-0.2-0.6v-0.8c0-1.5-0.7-2.9-1.9-3.7
			l-0.6-0.4c-0.3-0.3-0.5-0.7-0.3-1.1c0.1-0.2,0.2-0.4,0.4-0.5C1429.4,1622.9,1429.6,1622.8,1429.8,1622.8L1429.8,1622.8z"/>
		<path class="st29" d="M1860.9,1541.3h0.8c0.7,0,1.4-0.2,2.1-0.5c0.6-0.3,1.2-0.8,1.6-1.4l0.4-0.7c0.1-0.2,0.3-0.3,0.5-0.4
			c0.4-0.2,0.9,0,1.2,0.4c0.1,0.2,0.2,0.4,0.2,0.6v0.8c0,1.5,0.7,2.9,1.9,3.7l0.7,0.4c0.2,0.1,0.3,0.3,0.4,0.5
			c0.1,0.2,0.1,0.4,0,0.7c-0.1,0.2-0.2,0.4-0.4,0.5c-0.2,0.1-0.4,0.2-0.6,0.2h-0.8c-1.5,0-2.9,0.7-3.7,1.9l-0.4,0.7
			c-0.1,0.2-0.3,0.3-0.5,0.4c-0.2,0.1-0.4,0.1-0.7,0c-0.2-0.1-0.4-0.2-0.5-0.4c-0.1-0.2-0.2-0.4-0.2-0.6v-0.8c0-0.7-0.1-1.4-0.4-2.1
			c-0.3-0.6-0.8-1.2-1.4-1.6l-0.7-0.5c-0.3-0.3-0.4-0.7-0.2-1.1c0.1-0.2,0.2-0.4,0.3-0.5C1860.5,1541.4,1860.7,1541.3,1860.9,1541.3
			L1860.9,1541.3z"/>
		<path class="st29" d="M1550.7,161.2h0.8c1.5,0,2.9-0.7,3.7-1.9l0.5-0.7c0.1-0.2,0.3-0.3,0.5-0.4c0.2-0.1,0.4-0.1,0.7,0
			c0.2,0.1,0.4,0.2,0.5,0.4c0.1,0.2,0.2,0.4,0.2,0.6v0.8c-0.1,1.5,0.7,2.9,1.9,3.7l0.7,0.4c0.2,0.1,0.3,0.3,0.4,0.5
			c0.1,0.2,0.1,0.4,0,0.6c-0.1,0.2-0.2,0.4-0.4,0.5c-0.2,0.1-0.4,0.2-0.6,0.2h-0.8c-0.7,0-1.4,0.1-2.1,0.5c-0.6,0.3-1.2,0.8-1.6,1.4
			l-0.5,0.6c-0.1,0.2-0.3,0.3-0.5,0.4c-0.2,0.1-0.4,0.1-0.7,0c-0.2-0.1-0.4-0.2-0.5-0.4c-0.1-0.2-0.2-0.4-0.2-0.6v-0.8
			c0-0.7-0.1-1.4-0.5-2.1c-0.3-0.6-0.8-1.2-1.4-1.6l-0.7-0.4c-0.2-0.1-0.3-0.3-0.4-0.5c-0.1-0.2-0.1-0.4,0-0.6
			c0.1-0.2,0.2-0.4,0.4-0.5C1550.3,161.3,1550.5,161.2,1550.7,161.2L1550.7,161.2z"/>
		<path class="st29" d="M1509.4,463.9h0.8c0.7,0,1.5-0.1,2.1-0.5c0.7-0.3,1.2-0.8,1.6-1.4l0.4-0.6c0.1-0.2,0.3-0.3,0.5-0.4
			c0.4-0.2,0.9,0,1.2,0.4c0.1,0.2,0.2,0.4,0.2,0.6v0.8c0,0.7,0.1,1.5,0.5,2.1c0.3,0.7,0.8,1.2,1.4,1.6l0.7,0.5
			c0.2,0.1,0.3,0.3,0.4,0.5c0.1,0.2,0.1,0.4,0,0.7c-0.1,0.2-0.2,0.4-0.4,0.5c-0.2,0.1-0.4,0.2-0.6,0.2h-0.8c-0.7,0-1.5,0.1-2.1,0.5
			c-0.6,0.3-1.2,0.8-1.6,1.4l-0.4,0.7c-0.1,0.2-0.3,0.3-0.5,0.4c-0.2,0.1-0.4,0.1-0.7,0c-0.2-0.1-0.4-0.2-0.5-0.4
			c-0.1-0.2-0.2-0.4-0.2-0.6v-0.8c0.1-1.5-0.7-2.9-1.9-3.7l-0.7-0.5c-0.2-0.1-0.3-0.3-0.4-0.5c-0.1-0.2-0.1-0.4,0-0.6
			c0.1-0.2,0.2-0.4,0.4-0.5C1509,463.9,1509.2,463.9,1509.4,463.9L1509.4,463.9z"/>
		<path class="st29" d="M1359.4,242.7h0.8c0.7,0,1.4-0.1,2.1-0.4c0.6-0.3,1.2-0.8,1.6-1.4l0.4-0.7c0.1-0.2,0.3-0.3,0.5-0.4
			c0.4-0.2,0.9,0,1.2,0.4c0.1,0.2,0.2,0.4,0.2,0.6v0.8c0,0.7,0.1,1.4,0.5,2.1c0.3,0.6,0.8,1.2,1.4,1.6l0.7,0.4
			c0.2,0.1,0.3,0.3,0.4,0.5c0.1,0.2,0.1,0.4,0,0.6c-0.1,0.2-0.2,0.4-0.4,0.5c-0.2,0.1-0.4,0.2-0.6,0.2h-0.8c-1.5,0-2.9,0.7-3.7,1.9
			l-0.4,0.6c-0.1,0.2-0.3,0.3-0.5,0.4c-0.4,0.2-0.9,0-1.2-0.4c-0.1-0.2-0.2-0.4-0.2-0.6v-0.8c0-0.7-0.1-1.5-0.4-2.1
			c-0.3-0.7-0.8-1.2-1.4-1.7l-0.7-0.4c-0.2-0.1-0.3-0.3-0.3-0.5c-0.1-0.2-0.1-0.4,0-0.6C1358.6,243,1359,242.7,1359.4,242.7
			L1359.4,242.7z"/>
		<path class="st29" d="M1588,102.1h0.8c1.5,0,2.9-0.7,3.7-1.9l0.4-0.7c0.1-0.2,0.3-0.3,0.5-0.4c0.4-0.2,0.9,0,1.2,0.4
			c0.1,0.2,0.2,0.4,0.2,0.6v0.8c0,0.7,0.1,1.4,0.5,2.1c0.3,0.6,0.8,1.2,1.4,1.6l0.7,0.4c0.2,0.1,0.3,0.3,0.4,0.5
			c0.1,0.2,0.1,0.4,0,0.7c-0.1,0.2-0.2,0.4-0.4,0.5c-0.2,0.1-0.4,0.2-0.6,0.2h-0.8c-0.7,0-1.4,0.1-2.1,0.5c-0.6,0.3-1.2,0.8-1.6,1.4
			l-0.5,0.7c-0.1,0.2-0.3,0.3-0.5,0.4c-0.2,0.1-0.4,0.1-0.7,0c-0.2-0.1-0.4-0.2-0.5-0.4c-0.1-0.2-0.2-0.4-0.2-0.6v-0.8
			c0-1.5-0.7-2.9-1.9-3.7l-0.7-0.4c-0.2-0.1-0.3-0.3-0.4-0.5c-0.1-0.2-0.1-0.4,0-0.6C1587.2,102.4,1587.6,102.1,1588,102.1
			L1588,102.1z"/>
		<path class="st29" d="M1583.9,340.8h0.8c1.5,0.1,2.9-0.7,3.7-1.9l0.4-0.6c0.1-0.2,0.3-0.3,0.5-0.4c0.2-0.1,0.4-0.1,0.7,0
			c0.2,0.1,0.4,0.2,0.5,0.4c0.1,0.2,0.2,0.4,0.2,0.6v0.8c-0.1,1.5,0.6,2.9,1.9,3.7l0.7,0.5c0.2,0.1,0.3,0.3,0.4,0.5
			c0.1,0.2,0.1,0.4,0,0.6c-0.1,0.2-0.2,0.4-0.4,0.5c-0.2,0.1-0.4,0.2-0.6,0.2h-0.8c-1.5-0.1-2.9,0.7-3.7,1.9l-0.4,0.6
			c-0.1,0.2-0.3,0.3-0.5,0.4c-0.2,0.1-0.4,0.1-0.6,0c-0.2-0.1-0.4-0.2-0.5-0.4c-0.1-0.2-0.2-0.4-0.2-0.6v-0.8c0-0.7-0.1-1.4-0.5-2.1
			c-0.3-0.7-0.8-1.2-1.4-1.6l-0.7-0.5c-0.2-0.1-0.3-0.3-0.4-0.5c-0.1-0.2-0.1-0.4,0-0.6c0.1-0.2,0.2-0.4,0.4-0.5
			C1583.5,340.9,1583.7,340.8,1583.9,340.8L1583.9,340.8z"/>
		<path class="st29" d="M1509.4,179.9h0.8c1.5,0,2.9-0.7,3.7-1.9l0.4-0.6c0.1-0.2,0.3-0.3,0.5-0.4c0.4-0.2,0.9,0,1.2,0.4
			c0.1,0.2,0.2,0.4,0.2,0.6v0.8c0,0.7,0.1,1.5,0.5,2.1c0.3,0.7,0.8,1.2,1.4,1.6l0.7,0.4c0.2,0.1,0.3,0.3,0.4,0.5
			c0.1,0.2,0.1,0.4,0,0.6c-0.1,0.2-0.2,0.4-0.4,0.5c-0.2,0.1-0.4,0.2-0.6,0.2h-0.8c-1.5-0.1-2.9,0.6-3.7,1.9l-0.4,0.7
			c-0.1,0.2-0.3,0.3-0.5,0.4c-0.2,0.1-0.4,0.1-0.7,0c-0.2-0.1-0.4-0.2-0.5-0.4c-0.1-0.2-0.2-0.4-0.2-0.6v-0.8c0-0.7-0.1-1.4-0.5-2.1
			c-0.3-0.6-0.8-1.2-1.4-1.6l-0.7-0.4c-0.2-0.1-0.3-0.3-0.4-0.5c-0.2-0.5,0.1-1.1,0.6-1.3C1509.1,179.9,1509.3,179.9,1509.4,179.9
			L1509.4,179.9z"/>
		<path class="st29" d="M1665.8,187.7h0.8c0.7,0,1.4-0.1,2.1-0.4c0.7-0.3,1.2-0.8,1.6-1.4l0.4-0.7c0.1-0.2,0.3-0.3,0.5-0.4
			c0.2-0.1,0.4-0.1,0.7,0c0.2,0.1,0.4,0.2,0.5,0.4c0.1,0.2,0.2,0.4,0.2,0.6v0.8c0,1.5,0.7,2.9,1.9,3.7l0.7,0.4
			c0.2,0.1,0.3,0.3,0.4,0.5c0.1,0.2,0.1,0.4,0,0.6c-0.1,0.4-0.5,0.7-1,0.7h-0.8c-0.7,0-1.4,0.1-2.1,0.5c-0.6,0.3-1.2,0.8-1.6,1.4
			l-0.4,0.6c-0.1,0.2-0.3,0.3-0.5,0.4c-0.4,0.2-0.9,0-1.2-0.4c-0.1-0.2-0.2-0.4-0.2-0.6v-0.8c0.1-1.5-0.6-2.9-1.9-3.7l-0.7-0.4
			c-0.2-0.1-0.3-0.3-0.4-0.5c-0.1-0.2-0.1-0.4,0-0.6c0.1-0.2,0.2-0.4,0.4-0.5C1665.4,187.8,1665.6,187.7,1665.8,187.7z"/>
		<path class="st29" d="M1278.4,484h0.8c0.7,0,1.5-0.1,2.1-0.5c0.6-0.3,1.2-0.8,1.6-1.4l0.5-0.7c0.1-0.2,0.3-0.3,0.5-0.4
			c0.2-0.1,0.4-0.1,0.7,0c0.2,0.1,0.4,0.2,0.5,0.4c0.1,0.2,0.2,0.4,0.2,0.6v0.8c0,1.5,0.7,2.9,1.9,3.7l0.7,0.4
			c0.2,0.1,0.3,0.3,0.4,0.5c0.2,0.4,0,0.9-0.4,1.2c-0.2,0.1-0.4,0.2-0.6,0.2h-0.8c-0.7,0-1.5,0.1-2.1,0.5c-0.7,0.3-1.2,0.8-1.6,1.4
			l-0.4,0.6c-0.1,0.2-0.3,0.3-0.5,0.4c-0.2,0.1-0.4,0.1-0.7,0c-0.2-0.1-0.4-0.2-0.5-0.4c-0.1-0.2-0.2-0.4-0.2-0.6V490
			c0.1-1.5-0.6-2.9-1.9-3.7l-0.6-0.5c-0.2-0.1-0.3-0.3-0.3-0.5c-0.1-0.2-0.1-0.4,0-0.6c0.1-0.2,0.2-0.4,0.4-0.5
			C1278,484.1,1278.2,484,1278.4,484L1278.4,484z"/>
		<path class="st29" d="M1149.8,570.7h0.8c0.7,0,1.5-0.1,2.1-0.5c0.7-0.3,1.2-0.8,1.6-1.4l0.4-0.7c0.1-0.2,0.3-0.3,0.5-0.4
			c0.2-0.1,0.4-0.1,0.6,0c0.2,0.1,0.4,0.2,0.5,0.4c0.1,0.2,0.2,0.4,0.2,0.6v0.8c0,1.5,0.7,2.9,1.9,3.7l0.6,0.4
			c0.2,0.1,0.3,0.3,0.4,0.5c0.2,0.4,0,0.9-0.4,1.2c-0.2,0.1-0.4,0.2-0.6,0.2h-0.8c-1.5,0-2.9,0.7-3.7,1.9l-0.4,0.7
			c-0.1,0.2-0.3,0.3-0.5,0.4c-0.2,0.1-0.4,0.1-0.7,0c-0.4-0.1-0.7-0.5-0.7-1v-0.8c0.1-1.5-0.6-2.9-1.9-3.7l-0.7-0.5
			c-0.2-0.1-0.3-0.3-0.4-0.5c-0.1-0.2-0.1-0.4,0-0.7c0.1-0.2,0.2-0.4,0.4-0.5C1149.4,570.7,1149.6,570.7,1149.8,570.7L1149.8,570.7z
			"/>
		<path class="st29" d="M1337.3,619.4h0.8c0.7,0,1.4-0.1,2.1-0.5c0.7-0.3,1.2-0.8,1.6-1.4l0.5-0.6c0.1-0.2,0.3-0.3,0.5-0.4
			c0.5-0.2,1.1,0.1,1.3,0.6c0,0.1,0.1,0.3,0.1,0.4v0.8c0,0.7,0.2,1.4,0.5,2c0.3,0.6,0.8,1.2,1.4,1.6l0.7,0.4
			c0.2,0.1,0.3,0.3,0.4,0.5c0.1,0.2,0.1,0.4,0,0.7c-0.1,0.2-0.2,0.4-0.4,0.5c-0.2,0.1-0.4,0.2-0.6,0.2h-0.8c-0.7,0-1.4,0.1-2.1,0.5
			c-0.7,0.3-1.2,0.8-1.7,1.4l-0.4,0.7c-0.1,0.2-0.3,0.3-0.5,0.4c-0.2,0.1-0.4,0.1-0.6,0c-0.2-0.1-0.4-0.2-0.5-0.4
			c-0.1-0.2-0.2-0.4-0.2-0.6v-0.8c0-0.7-0.1-1.4-0.5-2.1c-0.3-0.6-0.8-1.2-1.4-1.6l-0.7-0.5c-0.2-0.1-0.3-0.3-0.4-0.5
			c-0.1-0.2-0.1-0.4,0-0.6c0.1-0.2,0.2-0.4,0.4-0.5C1336.8,619.4,1337.1,619.4,1337.3,619.4L1337.3,619.4z"/>
		<path class="st29" d="M1658.9,1445.9h0.8c0.7,0,1.5-0.1,2.1-0.5c0.7-0.3,1.2-0.8,1.6-1.4l0.4-0.7c0.1-0.2,0.3-0.3,0.5-0.4
			c0.2-0.1,0.4-0.1,0.7,0c0.2,0.1,0.4,0.2,0.5,0.4c0.1,0.2,0.2,0.4,0.2,0.6v0.8c0,0.7,0.1,1.5,0.5,2.1c0.3,0.7,0.8,1.2,1.4,1.6
			l0.7,0.4c0.2,0.1,0.3,0.3,0.4,0.5c0.1,0.2,0.1,0.4,0,0.7c-0.1,0.4-0.5,0.7-1,0.7h-0.8c-0.7,0-1.4,0.1-2.1,0.4
			c-0.6,0.3-1.2,0.8-1.6,1.4l-0.5,0.7c-0.1,0.2-0.3,0.3-0.5,0.4c-0.2,0.1-0.4,0.1-0.7,0c-0.2-0.1-0.4-0.2-0.5-0.4
			c-0.1-0.2-0.2-0.4-0.2-0.6v-0.8c0-0.7-0.1-1.5-0.5-2.1c-0.3-0.6-0.8-1.2-1.4-1.6l-0.7-0.4c-0.2-0.1-0.3-0.3-0.4-0.5
			c-0.2-0.4,0-0.9,0.4-1.2C1658.4,1446,1658.7,1445.9,1658.9,1445.9L1658.9,1445.9z"/>
		<path class="st29" d="M1460,758.9h0.8c0.7,0,1.5-0.1,2.1-0.5c0.7-0.3,1.2-0.8,1.6-1.4l0.4-0.7c0.1-0.2,0.3-0.3,0.5-0.4
			c0.2-0.1,0.4-0.1,0.7,0c0.2,0.1,0.4,0.2,0.5,0.4c0.1,0.2,0.2,0.4,0.2,0.6v0.8c0,0.7,0.1,1.4,0.5,2.1c0.3,0.6,0.8,1.2,1.4,1.6
			l0.7,0.4c0.2,0.1,0.3,0.3,0.4,0.5c0.2,0.4,0,0.9-0.4,1.2c-0.2,0.1-0.4,0.2-0.6,0.2h-0.8c-0.7,0-1.5,0.1-2.1,0.5
			c-0.6,0.3-1.2,0.8-1.6,1.4l-0.5,0.7c-0.1,0.2-0.3,0.3-0.5,0.4c-0.2,0.1-0.4,0.1-0.7,0c-0.2-0.1-0.4-0.2-0.5-0.4
			c-0.1-0.2-0.2-0.4-0.2-0.6v-0.8c0.1-1.5-0.7-2.9-1.9-3.7l-0.7-0.5c-0.2-0.1-0.3-0.3-0.4-0.5c-0.1-0.2-0.1-0.4,0-0.7
			c0.1-0.2,0.2-0.4,0.4-0.5C1459.6,758.9,1459.8,758.9,1460,758.9L1460,758.9z"/>
		<path class="st29" d="M1375.7,1257.2h0.8c0.7,0,1.5-0.1,2.1-0.5c0.6-0.3,1.2-0.8,1.6-1.4l0.4-0.7c0.1-0.2,0.3-0.3,0.5-0.4
			c0.2-0.1,0.4-0.1,0.7,0c0.4,0.1,0.7,0.5,0.7,1v0.8c-0.1,1.5,0.7,2.9,1.9,3.7l0.7,0.4c0.2,0.1,0.3,0.3,0.4,0.5
			c0.1,0.2,0.1,0.4,0,0.7c-0.1,0.4-0.5,0.7-1,0.7h-0.8c-1.5-0.1-2.9,0.6-3.7,1.9l-0.5,0.7c-0.1,0.2-0.3,0.3-0.5,0.4
			c-0.2,0.1-0.4,0.1-0.7,0c-0.4-0.1-0.7-0.5-0.7-1v-0.8c0-0.7-0.1-1.5-0.5-2.1c-0.3-0.6-0.8-1.2-1.4-1.6l-0.7-0.4
			c-0.2-0.1-0.3-0.3-0.4-0.5c-0.1-0.2-0.1-0.4,0-0.7c0.1-0.2,0.2-0.4,0.4-0.5C1375.3,1257.3,1375.5,1257.2,1375.7,1257.2z"/>
		<path class="st29" d="M1421.5,398.4h0.8c0.7,0,1.5-0.1,2.1-0.5c0.7-0.3,1.2-0.8,1.6-1.4l0.4-0.7c0.1-0.2,0.3-0.3,0.5-0.4
			c0.2-0.1,0.4-0.1,0.7,0c0.2,0.1,0.4,0.2,0.5,0.4c0.1,0.2,0.2,0.4,0.2,0.6v0.8c0,0.7,0.1,1.4,0.4,2.1c0.3,0.7,0.8,1.2,1.4,1.6
			l0.7,0.4c0.2,0.1,0.3,0.3,0.4,0.5c0.1,0.2,0.1,0.4,0,0.6c-0.1,0.2-0.2,0.4-0.4,0.5c-0.2,0.1-0.4,0.2-0.6,0.2h-0.8
			c-0.7,0-1.4,0.1-2.1,0.5c-0.7,0.3-1.2,0.8-1.6,1.4l-0.4,0.6c-0.1,0.2-0.3,0.3-0.5,0.4c-0.2,0.1-0.4,0.1-0.6,0
			c-0.4-0.1-0.7-0.5-0.7-1v-0.8c0-0.7-0.1-1.5-0.5-2.1c-0.3-0.7-0.8-1.2-1.4-1.6l-0.7-0.4c-0.2-0.1-0.3-0.3-0.4-0.5
			c-0.1-0.2-0.1-0.4,0-0.6C1420.7,398.7,1421.1,398.4,1421.5,398.4L1421.5,398.4z"/>
		<path class="st29" d="M1155.4,913.5h0.8c0.7,0,1.5-0.1,2.1-0.5c0.7-0.3,1.2-0.8,1.6-1.5l0.4-0.7c0.1-0.2,0.3-0.3,0.5-0.4
			c0.4-0.2,0.9,0,1.2,0.4c0.1,0.2,0.2,0.4,0.2,0.6v0.8c-0.1,1.5,0.6,2.9,1.8,3.8l0.6,0.5c0.2,0.1,0.3,0.3,0.4,0.5
			c0.1,0.2,0.1,0.4,0,0.7c-0.1,0.2-0.2,0.4-0.4,0.5c-0.2,0.1-0.4,0.2-0.6,0.2h-0.8c-0.7,0-1.5,0.2-2.1,0.5c-0.6,0.3-1.2,0.8-1.6,1.5
			l-0.4,0.7c-0.1,0.2-0.3,0.3-0.5,0.4c-0.4,0.2-0.9,0-1.2-0.4c-0.1-0.2-0.2-0.4-0.2-0.6v-0.8c0-0.7-0.1-1.5-0.5-2.1
			c-0.3-0.6-0.8-1.2-1.4-1.6l-0.7-0.5c-0.2-0.1-0.4-0.3-0.5-0.5c-0.1-0.2-0.1-0.5,0-0.7c0.1-0.2,0.2-0.4,0.5-0.6
			C1155,913.5,1155.2,913.5,1155.4,913.5L1155.4,913.5z"/>
		<path class="st29" d="M1269.6,1073.8h0.8c1.5,0.1,2.9-0.6,3.7-1.9l0.5-0.7c0.1-0.2,0.3-0.3,0.5-0.4c0.2-0.1,0.4-0.1,0.6,0
			c0.2,0.1,0.4,0.2,0.5,0.4c0.1,0.2,0.2,0.4,0.2,0.6v0.8c-0.1,1.5,0.6,2.9,1.9,3.7l0.7,0.4c0.2,0.1,0.3,0.3,0.4,0.5
			c0.1,0.2,0.1,0.4,0,0.7c-0.1,0.2-0.2,0.4-0.4,0.5c-0.2,0.1-0.4,0.2-0.6,0.2h-0.8c-1.5,0-2.9,0.7-3.7,1.9l-0.4,0.7
			c-0.1,0.2-0.3,0.3-0.5,0.4c-0.2,0.1-0.4,0.1-0.6,0c-0.4-0.1-0.7-0.5-0.7-1v-0.8c0-1.5-0.7-2.9-1.9-3.7l-0.7-0.4
			c-0.2-0.1-0.3-0.3-0.4-0.5c-0.2-0.4,0-0.9,0.4-1.2C1269.2,1073.9,1269.4,1073.8,1269.6,1073.8z"/>
		<path class="st29" d="M1510.9,1546h0.8c0.7,0,1.5-0.1,2.1-0.5c0.6-0.3,1.2-0.8,1.6-1.4l0.4-0.7c0.1-0.2,0.3-0.3,0.5-0.4
			c0.4-0.2,0.9,0,1.2,0.4c0.1,0.2,0.2,0.4,0.2,0.6v0.8c-0.1,1.5,0.7,2.9,1.9,3.7l0.7,0.4c0.2,0.1,0.3,0.3,0.4,0.5
			c0.1,0.2,0.1,0.4,0,0.6c-0.1,0.2-0.2,0.4-0.4,0.5c-0.2,0.1-0.4,0.2-0.6,0.2h-0.8c-0.7,0-1.4,0.1-2.1,0.5c-0.6,0.3-1.2,0.8-1.6,1.4
			l-0.5,0.7c-0.1,0.2-0.3,0.3-0.5,0.4c-0.2,0.1-0.4,0.1-0.6,0c-0.2-0.1-0.4-0.2-0.5-0.4c-0.1-0.2-0.2-0.4-0.2-0.6v-0.8
			c0-0.7-0.1-1.5-0.5-2.1c-0.3-0.7-0.8-1.2-1.4-1.6l-0.7-0.4c-0.4-0.3-0.6-0.7-0.4-1.2c0.1-0.2,0.2-0.4,0.4-0.5
			C1510.4,1546.1,1510.6,1546,1510.9,1546L1510.9,1546z"/>
		<path class="st29" d="M1471.8,547.7h0.8c0.7,0,1.4-0.1,2.1-0.5c0.6-0.3,1.2-0.8,1.6-1.4l0.4-0.7c0.1-0.2,0.3-0.3,0.5-0.4
			c0.4-0.2,0.9,0,1.2,0.4c0.1,0.2,0.2,0.4,0.2,0.6v0.8c-0.1,1.5,0.7,2.9,1.9,3.7l0.7,0.5c0.2,0.1,0.3,0.3,0.4,0.5
			c0.1,0.2,0.1,0.4,0,0.7c-0.1,0.4-0.5,0.7-1,0.7h-0.8c-0.7,0-1.5,0.1-2.1,0.5c-0.7,0.3-1.2,0.8-1.6,1.4l-0.5,0.7
			c-0.1,0.2-0.3,0.3-0.5,0.4c-0.2,0.1-0.4,0.1-0.6,0c-0.2-0.1-0.4-0.2-0.5-0.4c-0.1-0.2-0.2-0.4-0.2-0.6v-0.8c0-0.7-0.1-1.5-0.5-2.1
			c-0.3-0.7-0.8-1.2-1.4-1.6l-0.7-0.5c-0.2-0.1-0.3-0.3-0.4-0.5c-0.1-0.2-0.1-0.4,0-0.6c0.1-0.2,0.2-0.4,0.4-0.5
			C1471.3,547.8,1471.5,547.7,1471.8,547.7L1471.8,547.7z"/>
		<path class="st29" d="M1524.6,277.7l1.1,0c2.1,0.1,4.1-0.9,5.2-2.6l0.6-0.9c0.2-0.3,0.4-0.5,0.7-0.6c0.8-0.3,1.6,0.1,1.8,0.9
			c0.1,0.2,0.1,0.4,0.1,0.5v1.1c-0.1,2.1,0.9,4.1,2.7,5.2l0.9,0.6c0.3,0.2,0.4,0.4,0.6,0.7c0.1,0.3,0.1,0.6,0,0.9
			c-0.1,0.3-0.3,0.6-0.6,0.7c-0.3,0.2-0.6,0.3-0.9,0.3h-1.1c-2.1-0.1-4.1,0.9-5.2,2.7l-0.6,0.9c-0.4,0.5-1,0.7-1.7,0.5
			c-0.6-0.2-1-0.8-1-1.4v-1.1c0-1-0.2-2.1-0.7-3c-0.5-0.9-1.2-1.7-2-2.3l-0.9-0.6c-0.3-0.2-0.5-0.4-0.5-0.7c-0.2-0.6,0-1.3,0.5-1.6
			C1524,277.8,1524.3,277.7,1524.6,277.7L1524.6,277.7z"/>
		<path class="st29" d="M2165.6,1013.4l-0.5-0.6c-0.5-0.6-1-1-1.7-1.3c-0.7-0.3-1.4-0.4-2.1-0.3l-0.8,0.1c-0.2,0-0.4,0-0.6-0.2
			c-0.2-0.1-0.3-0.3-0.4-0.5c-0.1-0.2-0.1-0.4,0-0.6c0-0.2,0.2-0.4,0.3-0.5l0.6-0.5c0.6-0.5,1-1,1.3-1.7c0.3-0.7,0.4-1.4,0.3-2.1
			l-0.1-0.8c0-0.2,0-0.4,0.1-0.6c0.1-0.2,0.3-0.3,0.5-0.4c0.4-0.2,0.9-0.1,1.2,0.3l0.5,0.6c0.5,0.6,1,1,1.7,1.3
			c0.7,0.3,1.4,0.4,2.1,0.3l0.8-0.1c0.2,0,0.4,0,0.6,0.1c0.2,0.1,0.4,0.3,0.4,0.5c0.1,0.2,0.1,0.4,0,0.7c-0.1,0.2-0.2,0.4-0.4,0.5
			l-0.6,0.5c-1.2,0.9-1.8,2.4-1.6,3.8l0.1,0.8c0,0.2,0,0.4-0.1,0.6c-0.1,0.2-0.3,0.3-0.5,0.4c-0.2,0.1-0.4,0.1-0.6,0
			C2166,1013.7,2165.8,1013.5,2165.6,1013.4z"/>
		<path class="st29" d="M1703.6,990.3h1.9c3.6,0.1,7-1.6,9.1-4.6l1.1-1.6c0.3-0.5,0.7-0.8,1.3-1c0.5-0.2,1.1-0.2,1.6,0
			c1.1,0.3,1.8,1.4,1.7,2.5l-0.1,1.9c-0.1,3.6,1.6,7,4.6,9.1l1.6,1.1c0.5,0.3,0.8,0.7,1,1.3c0.2,0.5,0.2,1.1,0,1.6
			c-0.3,1.1-1.4,1.8-2.5,1.7l-1.9-0.1c-3.6-0.1-7,1.6-9.1,4.6l-1.1,1.6c-0.3,0.5-0.8,0.8-1.3,1c-1.3,0.4-2.7-0.3-3.2-1.6
			c-0.1-0.3-0.1-0.6-0.1-0.9l0.1-1.9c0.1-3.6-1.6-7-4.6-9.1l-1.6-1.1c-0.9-0.6-1.3-1.8-1-2.8c0.2-0.5,0.5-1,1-1.3
			C1702.6,990.4,1703.1,990.2,1703.6,990.3L1703.6,990.3z"/>
		<path class="st29" d="M1798.1,1096l-1.9-0.1c-3.6-0.1-7,1.6-9.1,4.6l-1.1,1.6c-0.3,0.5-0.7,0.8-1.3,1c-0.5,0.2-1.1,0.2-1.6,0
			c-0.5-0.2-1-0.5-1.3-1c-0.3-0.4-0.5-1-0.4-1.5v-2c0.1-3.6-1.6-7-4.6-9.1l-1.6-1.1c-0.5-0.3-0.8-0.7-1-1.3
			c-0.4-1.3,0.3-2.7,1.6-3.2c0.3-0.1,0.6-0.1,0.9-0.1l1.9,0.1c1.8,0.1,3.6-0.3,5.2-1.1c1.6-0.8,3-2,4-3.4l1.1-1.6
			c0.3-0.5,0.7-0.8,1.3-1c0.5-0.2,1.1-0.2,1.6,0c1.1,0.3,1.8,1.4,1.7,2.5l-0.1,1.9c-0.1,3.6,1.6,7,4.6,9.1l1.6,1.1
			c0.9,0.6,1.3,1.8,0.9,2.9c-0.2,0.5-0.5,1-1,1.3c-0.4,0.3-1,0.5-1.5,0.4L1798.1,1096z"/>
		<path class="st29" d="M1898.2,1066.6h-0.8c-0.7,0-1.4,0.1-2.1,0.5c-0.6,0.3-1.2,0.8-1.6,1.4l-0.4,0.7c-0.1,0.2-0.3,0.3-0.5,0.4
			c-0.2,0.1-0.4,0.1-0.7,0c-0.2-0.1-0.4-0.2-0.5-0.4c-0.1-0.2-0.2-0.4-0.2-0.6v-0.8c0-1.5-0.7-2.9-1.9-3.7l-0.7-0.4
			c-0.2-0.1-0.3-0.3-0.4-0.5c-0.1-0.2-0.1-0.4,0-0.7c0.1-0.2,0.2-0.4,0.4-0.5c0.2-0.1,0.4-0.2,0.6-0.2h0.8c0.7,0,1.4-0.1,2.1-0.5
			c0.6-0.3,1.2-0.8,1.6-1.4l0.4-0.7c0.1-0.2,0.3-0.3,0.5-0.4c0.2-0.1,0.4-0.1,0.7,0c0.4,0.1,0.7,0.5,0.7,1v0.8
			c-0.1,1.5,0.6,2.9,1.9,3.7l0.7,0.5c0.2,0.1,0.3,0.3,0.4,0.5c0.1,0.2,0.1,0.4,0,0.7c-0.1,0.2-0.2,0.4-0.4,0.5
			C1898.6,1066.6,1898.4,1066.6,1898.2,1066.6L1898.2,1066.6z"/>
		<path class="st29" d="M2044.5,957.1h-0.8c-0.7,0-1.5,0.1-2.1,0.5c-0.6,0.3-1.2,0.8-1.6,1.4l-0.4,0.7c-0.1,0.2-0.3,0.3-0.5,0.4
			c-0.2,0.1-0.4,0.1-0.7,0c-0.2-0.1-0.4-0.2-0.5-0.4c-0.1-0.2-0.2-0.4-0.2-0.6v-0.8c0.1-1.5-0.7-2.9-1.9-3.7l-0.7-0.4
			c-0.2-0.1-0.3-0.3-0.4-0.5c-0.2-0.4,0-0.9,0.4-1.2c0.2-0.1,0.4-0.2,0.6-0.2h0.8c0.7,0,1.4-0.1,2.1-0.5c0.7-0.3,1.2-0.8,1.6-1.4
			l0.4-0.7c0.1-0.2,0.3-0.3,0.5-0.4c0.2-0.1,0.4-0.1,0.7,0c0.2,0.1,0.4,0.2,0.5,0.4c0.1,0.2,0.2,0.4,0.2,0.6v0.8
			c0,0.7,0.1,1.4,0.5,2.1c0.3,0.6,0.8,1.2,1.4,1.6l0.7,0.5c0.2,0.1,0.3,0.3,0.4,0.5c0.1,0.2,0.1,0.4,0,0.7c-0.1,0.2-0.2,0.4-0.4,0.5
			C2045,957.1,2044.8,957.2,2044.5,957.1L2044.5,957.1z"/>
		<path class="st29" d="M1869.7,998.7h-0.8c-1.5-0.1-2.9,0.7-3.7,1.9l-0.4,0.7c-0.1,0.2-0.3,0.3-0.5,0.4c-0.2,0.1-0.4,0.1-0.7,0
			c-0.4-0.1-0.7-0.5-0.7-1v-0.8c0-0.7-0.1-1.5-0.4-2.1c-0.3-0.7-0.8-1.2-1.4-1.6l-0.7-0.5c-0.2-0.1-0.3-0.3-0.4-0.5
			c-0.1-0.2-0.1-0.4,0-0.6c0.1-0.2,0.2-0.4,0.4-0.5c0.2-0.1,0.4-0.2,0.6-0.2h0.8c0.7,0,1.5-0.1,2.1-0.5c0.7-0.3,1.2-0.8,1.6-1.4
			l0.4-0.7c0.1-0.2,0.3-0.3,0.5-0.4c0.2-0.1,0.4-0.1,0.7,0c0.2,0.1,0.4,0.2,0.5,0.4c0.1,0.2,0.2,0.4,0.2,0.6v0.8
			c0,0.7,0.1,1.5,0.4,2.1c0.3,0.7,0.8,1.2,1.4,1.6l0.7,0.4c0.2,0.1,0.3,0.3,0.4,0.5c0.1,0.2,0.1,0.4,0,0.7c-0.1,0.2-0.2,0.4-0.4,0.5
			C1870.1,998.7,1869.9,998.7,1869.7,998.7L1869.7,998.7z"/>
		<path class="st29" d="M2149.9,1909.8h-0.8c-0.7,0-1.4,0.1-2.1,0.5c-0.7,0.3-1.2,0.8-1.6,1.4l-0.5,0.7c-0.2,0.4-0.7,0.6-1.2,0.4
			c-0.2-0.1-0.4-0.2-0.5-0.4c-0.1-0.2-0.2-0.4-0.2-0.6v-0.8c0-0.7-0.1-1.4-0.4-2.1c-0.3-0.7-0.8-1.2-1.4-1.6l-0.7-0.4
			c-0.2-0.1-0.3-0.3-0.4-0.5c-0.2-0.4,0-0.9,0.4-1.2c0.2-0.1,0.4-0.2,0.6-0.2h0.8c1.5,0.1,2.9-0.7,3.7-1.9l0.5-0.7
			c0.1-0.2,0.3-0.3,0.5-0.4c0.2-0.1,0.4-0.1,0.6,0c0.4,0.1,0.7,0.5,0.7,1v0.8c0,0.7,0.1,1.4,0.5,2.1c0.3,0.6,0.8,1.2,1.4,1.6
			l0.6,0.4c0.2,0.1,0.3,0.3,0.4,0.5c0.1,0.2,0.1,0.4,0,0.6c-0.1,0.2-0.2,0.4-0.4,0.5C2150.3,1909.8,2150.1,1909.8,2149.9,1909.8
			L2149.9,1909.8z"/>
		<path class="st29" d="M1893.5,1699l-0.8-0.1c-1.5,0-2.9,0.7-3.7,1.9l-0.4,0.7c-0.1,0.2-0.3,0.3-0.5,0.4c-0.2,0.1-0.4,0.1-0.7,0
			c-0.2-0.1-0.4-0.2-0.5-0.4c-0.1-0.2-0.2-0.4-0.2-0.6v-0.8c0.1-1.5-0.6-2.8-1.8-3.7l-0.7-0.4c-0.2-0.1-0.3-0.3-0.4-0.5
			c-0.1-0.2-0.1-0.4,0-0.6c0.1-0.4,0.5-0.7,1-0.7h0.8c1.5,0.1,2.9-0.7,3.7-1.9l0.4-0.7c0.1-0.2,0.3-0.3,0.5-0.4
			c0.2-0.1,0.4-0.1,0.7,0c0.2,0.1,0.4,0.2,0.5,0.4c0.1,0.2,0.2,0.4,0.2,0.6v0.8c0,0.7,0.1,1.4,0.4,2.1c0.3,0.7,0.8,1.2,1.4,1.6
			l0.7,0.4c0.2,0.1,0.3,0.3,0.4,0.5c0.1,0.2,0.1,0.4,0,0.6c-0.1,0.2-0.2,0.4-0.4,0.5C1893.9,1698.9,1893.7,1699,1893.5,1699
			L1893.5,1699z"/>
		<path class="st29" d="M1905.1,1816.3h-0.8c-0.7,0-1.4,0.1-2.1,0.5c-0.7,0.3-1.2,0.8-1.6,1.4l-0.4,0.7c-0.1,0.2-0.3,0.3-0.5,0.4
			c-0.2,0.1-0.4,0.1-0.7,0c-0.2-0.1-0.4-0.2-0.5-0.4c-0.1-0.2-0.2-0.4-0.2-0.6v-0.8c0-0.7-0.1-1.5-0.5-2.1c-0.3-0.6-0.8-1.2-1.4-1.6
			l-0.7-0.4c-0.2-0.1-0.3-0.3-0.4-0.5c-0.1-0.2-0.1-0.4,0-0.7c0.1-0.2,0.2-0.4,0.4-0.5c0.2-0.1,0.4-0.2,0.6-0.2h0.8
			c1.5,0.1,2.9-0.7,3.7-1.9l0.5-0.7c0.1-0.2,0.3-0.3,0.5-0.4c0.2-0.1,0.4-0.1,0.6,0c0.2,0.1,0.4,0.2,0.5,0.4
			c0.1,0.2,0.2,0.4,0.2,0.6v0.8c0,0.7,0.1,1.4,0.5,2.1c0.3,0.6,0.8,1.2,1.4,1.6l0.7,0.4c0.4,0.3,0.5,0.7,0.4,1.2
			c-0.1,0.2-0.2,0.4-0.4,0.5C1905.6,1816.2,1905.4,1816.3,1905.1,1816.3L1905.1,1816.3z"/>
		<path class="st29" d="M2177,1924.8h-0.8c-0.7,0-1.4,0.2-2.1,0.5c-0.6,0.3-1.2,0.8-1.6,1.4l-0.5,0.7c-0.1,0.2-0.3,0.3-0.5,0.4
			c-0.2,0.1-0.4,0.1-0.7,0c-0.2-0.1-0.4-0.2-0.5-0.4c-0.1-0.2-0.2-0.4-0.2-0.6v-0.8c0-1.5-0.7-2.9-1.9-3.7l-0.7-0.4
			c-0.2-0.1-0.3-0.3-0.4-0.5c-0.2-0.4,0-0.9,0.4-1.2c0.2-0.1,0.4-0.2,0.6-0.2h0.8c0.7,0,1.4-0.1,2.1-0.5c0.7-0.3,1.2-0.8,1.6-1.4
			l0.4-0.7c0.1-0.2,0.3-0.3,0.5-0.4c0.2-0.1,0.4-0.1,0.6,0c0.2,0.1,0.4,0.2,0.5,0.4c0.1,0.2,0.2,0.4,0.2,0.6v0.8
			c0,0.7,0.1,1.4,0.5,2.1c0.3,0.6,0.8,1.2,1.4,1.6l0.7,0.4c0.2,0.1,0.3,0.3,0.3,0.5c0.1,0.2,0.1,0.4,0,0.6c-0.1,0.2-0.2,0.4-0.4,0.5
			C2177.4,1924.8,2177.2,1924.9,2177,1924.8L2177,1924.8z"/>
		<path class="st29" d="M1985.5,1101.4h-0.8c-0.7,0-1.4,0.1-2.1,0.5c-0.6,0.3-1.2,0.8-1.6,1.4l-0.4,0.7c-0.1,0.2-0.3,0.3-0.5,0.4
			c-0.5,0.2-1.1-0.1-1.3-0.6c0-0.1-0.1-0.3-0.1-0.4v-0.8c0-0.7-0.1-1.5-0.5-2.1c-0.3-0.6-0.8-1.2-1.4-1.6l-0.7-0.5
			c-0.2-0.1-0.3-0.3-0.4-0.5c-0.1-0.2-0.1-0.4,0-0.7c0.1-0.2,0.2-0.4,0.4-0.5c0.2-0.1,0.4-0.2,0.6-0.2h0.8c1.5,0,2.9-0.7,3.7-1.9
			l0.4-0.7c0.1-0.2,0.3-0.3,0.5-0.4c0.2-0.1,0.4-0.1,0.7,0c0.2,0.1,0.4,0.2,0.5,0.4c0.1,0.2,0.2,0.4,0.2,0.6v0.8
			c0,0.7,0.1,1.4,0.5,2.1c0.3,0.7,0.8,1.2,1.5,1.6l0.7,0.5c0.2,0.1,0.3,0.3,0.4,0.5c0.1,0.2,0.1,0.4,0,0.7c-0.1,0.2-0.2,0.4-0.4,0.5
			C1986,1101.4,1985.8,1101.5,1985.5,1101.4L1985.5,1101.4z"/>
		<path class="st29" d="M1639.3,1094l1.9,0.1c1.8,0.1,3.5-0.3,5.1-1.1c1.6-0.8,3-2,4-3.4l1.1-1.6c0.3-0.5,0.7-0.8,1.3-1
			c1.3-0.4,2.7,0.2,3.2,1.5c0.1,0.3,0.1,0.6,0.1,0.9l0,2c-0.1,3.6,1.6,7,4.6,9.1l1.6,1.1c1.1,0.8,1.4,2.3,0.7,3.5
			c-0.2,0.3-0.4,0.5-0.7,0.7c-0.4,0.3-1,0.5-1.5,0.4l-2-0.1c-3.6-0.1-7,1.6-9.1,4.6l-1,1.5c-0.6,0.9-1.8,1.3-2.8,1
			c-0.5-0.2-1-0.5-1.3-1c-0.3-0.4-0.5-1-0.4-1.5l0.1-1.9c0.1-3.6-1.6-7-4.6-9.1l-1.6-1.1c-1.1-0.8-1.5-2.3-0.7-3.5
			C1637.6,1094.3,1638.5,1093.9,1639.3,1094L1639.3,1094z"/>
		<path class="st29" d="M1262.6,1349l1.9,0.1c3.6,0.1,7-1.6,9.1-4.6l1.1-1.6c0.3-0.5,0.7-0.8,1.3-1c0.5-0.2,1.1-0.2,1.6,0
			c0.5,0.2,1,0.5,1.3,1c0.3,0.4,0.5,1,0.4,1.5l-0.1,1.9c-0.1,3.6,1.6,7,4.6,9.1l1.6,1.1c0.4,0.3,0.8,0.8,0.9,1.3
			c0.3,1,0,2.2-0.9,2.8c-0.4,0.3-1,0.5-1.5,0.5l-1.9-0.1c-3.6-0.1-7,1.6-9.1,4.6l-1.1,1.6c-0.8,1.1-2.4,1.4-3.5,0.6
			c-0.2-0.2-0.5-0.4-0.6-0.6c-0.3-0.4-0.5-1-0.4-1.5l0.1-1.9c0.1-3.6-1.6-7-4.6-9.1l-1.6-1.1c-0.5-0.3-0.8-0.7-1-1.3
			c-0.2-0.5-0.2-1.1,0-1.6c0.2-0.5,0.5-1,0.9-1.3C1261.5,1349.1,1262,1349,1262.6,1349z"/>
		<path class="st29" d="M1287.8,374.6h2c3.6,0.1,7-1.6,9.1-4.6l1.1-1.6c0.6-0.9,1.8-1.3,2.8-1c0.5,0.2,1,0.5,1.3,1
			c0.3,0.4,0.5,1,0.4,1.5l-0.1,1.9c-0.1,3.6,1.6,7,4.6,9.1l1.6,1.1c0.4,0.3,0.8,0.8,0.9,1.3c0.2,0.5,0.2,1.1,0,1.6
			c-0.4,1-1.3,1.7-2.4,1.7l-2-0.1c-3.6-0.1-7,1.6-9.1,4.6l-1.1,1.7c-0.3,0.5-0.7,0.8-1.3,1c-1.1,0.3-2.2,0-2.9-0.9
			c-0.3-0.4-0.5-1-0.4-1.5l0.1-2c0.1-1.8-0.3-3.5-1.1-5.1c-0.8-1.6-2-2.9-3.4-4l-1.6-1.1c-0.5-0.3-0.8-0.7-1-1.3
			c-0.2-0.5-0.2-1.1,0-1.6c0.2-0.5,0.5-1,1-1.3C1286.8,374.8,1287.3,374.6,1287.8,374.6z"/>
		<path class="st29" d="M1528,1323.7h1.1c1,0,2.1-0.2,3-0.7c0.9-0.5,1.7-1.2,2.3-2l0.6-0.9c0.2-0.3,0.4-0.5,0.7-0.6
			c0.3-0.1,0.6-0.1,0.9,0c0.3,0.1,0.6,0.3,0.7,0.5c0.2,0.3,0.3,0.6,0.3,0.9v1.1c-0.1,2.1,0.9,4.1,2.7,5.2l0.9,0.6
			c0.3,0.2,0.4,0.4,0.5,0.7c0.1,0.3,0.1,0.6,0,0.9c-0.1,0.3-0.3,0.6-0.5,0.7c-0.3,0.2-0.6,0.3-0.9,0.3h-1.1
			c-2.1-0.1-4.1,0.9-5.3,2.7l-0.6,0.9c-0.2,0.3-0.4,0.4-0.7,0.6c-0.3,0.1-0.6,0.1-0.9,0c-0.3-0.1-0.6-0.3-0.7-0.6
			c-0.2-0.3-0.3-0.6-0.3-0.9v-1.1c0-1-0.2-2.1-0.7-3c-0.5-0.9-1.2-1.7-2-2.3l-0.9-0.6c-0.5-0.4-0.8-1-0.6-1.6
			c0.1-0.3,0.3-0.6,0.5-0.7C1527.5,1323.8,1527.8,1323.7,1528,1323.7L1528,1323.7z"/>
		<path class="st29" d="M1323.2,1495.1h1.1c2.1,0.1,4.1-1,5.2-2.7l0.6-0.9c0.2-0.3,0.4-0.5,0.7-0.6c0.3-0.1,0.6-0.1,0.9,0
			c0.3,0.1,0.6,0.3,0.7,0.5c0.2,0.3,0.3,0.6,0.3,0.9v1.1c-0.1,2.1,0.9,4.1,2.7,5.2l0.9,0.6c0.3,0.2,0.4,0.4,0.5,0.7
			c0.1,0.3,0.1,0.6,0,0.9c-0.1,0.3-0.3,0.5-0.5,0.7c-0.3,0.2-0.6,0.3-0.9,0.3h-1.1c-2.1-0.1-4.1,1-5.3,2.7l-0.6,0.9
			c-0.2,0.3-0.4,0.4-0.7,0.6c-0.3,0.1-0.6,0.1-0.9,0c-0.6-0.2-1-0.8-1-1.4v-1.1c0-1-0.2-2.1-0.6-3c-0.5-0.9-1.2-1.7-2-2.3l-0.9-0.6
			c-0.5-0.4-0.8-1-0.5-1.6c0.1-0.3,0.3-0.6,0.5-0.7C1322.6,1495.1,1322.9,1495,1323.2,1495.1L1323.2,1495.1z"/>
		<path class="st29" d="M1758.8,1334.2h0.8c0.7,0,1.5-0.1,2.1-0.5c0.7-0.3,1.2-0.8,1.6-1.4l0.4-0.7c0.1-0.2,0.3-0.3,0.5-0.4
			c0.4-0.2,0.9,0,1.2,0.4c0.1,0.2,0.2,0.4,0.2,0.6v0.8c-0.1,1.5,0.6,2.9,1.9,3.7l0.7,0.4c0.2,0.1,0.3,0.3,0.4,0.5
			c0.1,0.2,0.1,0.4,0,0.7c-0.1,0.2-0.2,0.4-0.4,0.5c-0.2,0.1-0.4,0.2-0.6,0.2h-0.8c-1.5-0.1-2.9,0.6-3.7,1.9l-0.5,0.7
			c-0.1,0.2-0.3,0.3-0.5,0.4c-0.2,0.1-0.4,0.1-0.7,0c-0.4-0.1-0.7-0.5-0.7-1v-0.8c0-1.5-0.7-2.9-1.9-3.7l-0.6-0.4
			c-0.2-0.1-0.3-0.3-0.4-0.5c-0.1-0.2-0.1-0.4,0-0.7c0.1-0.2,0.2-0.4,0.4-0.5C1758.3,1334.3,1758.5,1334.2,1758.8,1334.2z"/>
		<path class="st29" d="M1599.2,1228.2h1.1c1,0,2.1-0.2,3-0.7c0.9-0.5,1.7-1.2,2.3-2l0.6-0.9c0.2-0.3,0.4-0.4,0.7-0.6
			c0.3-0.1,0.6-0.1,0.9,0c0.6,0.2,1,0.8,1,1.4v1.1c0,1,0.2,2.1,0.7,3c0.5,0.9,1.2,1.7,2,2.3l0.9,0.6c0.5,0.4,0.8,1,0.6,1.6
			c-0.1,0.3-0.3,0.6-0.6,0.7c-0.3,0.2-0.6,0.3-0.9,0.3h-1.1c-1,0-2.1,0.2-3,0.6c-0.9,0.5-1.7,1.1-2.3,2l-0.6,0.9
			c-0.2,0.3-0.4,0.4-0.7,0.6c-0.3,0.1-0.6,0.1-0.9,0c-0.6-0.2-1-0.8-1-1.4v-1.1c0.1-2.1-0.9-4.1-2.6-5.2l-0.9-0.7
			c-0.3-0.2-0.4-0.4-0.5-0.7c-0.2-0.6,0-1.3,0.5-1.7C1598.5,1228.3,1598.9,1228.2,1599.2,1228.2z"/>
		<path class="st29" d="M1690.3,144.8l1.9,0.1c3.6,0.1,7-1.6,9.1-4.6l1.1-1.6c0.3-0.5,0.7-0.8,1.3-1c0.5-0.2,1.1-0.2,1.6,0
			c0.5,0.2,1,0.5,1.3,0.9c0.3,0.4,0.5,1,0.4,1.5v2c-0.1,3.6,1.6,7,4.6,9.1l1.6,1.1c0.5,0.3,0.8,0.7,1,1.3c0.4,1.3-0.3,2.7-1.6,3.2
			c-0.3,0.1-0.6,0.1-0.9,0.1l-1.9-0.1c-3.6-0.1-7,1.6-9.1,4.6l-1.1,1.6c-0.8,1.1-2.3,1.4-3.5,0.7c-0.3-0.2-0.5-0.4-0.7-0.7
			c-0.3-0.4-0.5-1-0.4-1.5l0.1-1.9c0.1-1.8-0.3-3.5-1.1-5.1c-0.8-1.6-2-2.9-3.4-3.9l-1.6-1.1c-1.1-0.8-1.4-2.3-0.7-3.5
			C1688.7,145.2,1689.5,144.8,1690.3,144.8L1690.3,144.8z"/>
		<path class="st29" d="M1764.5,116.8h0.8c0.7,0,1.5-0.1,2.1-0.5c0.7-0.3,1.2-0.8,1.6-1.4l0.4-0.7c0.1-0.2,0.3-0.3,0.5-0.4
			c0.2-0.1,0.4-0.1,0.7,0c0.2,0.1,0.4,0.2,0.5,0.4c0.1,0.2,0.2,0.4,0.2,0.6v0.8c-0.1,1.5,0.7,2.9,1.9,3.7l0.7,0.4
			c0.2,0.1,0.3,0.3,0.4,0.5c0.1,0.2,0.1,0.4,0,0.7c-0.1,0.4-0.5,0.7-1,0.7h-0.8c-1.5-0.1-2.9,0.6-3.7,1.9l-0.4,0.7
			c-0.1,0.2-0.3,0.3-0.5,0.4c-0.2,0.1-0.4,0.1-0.7,0c-0.2-0.1-0.4-0.2-0.5-0.4c-0.1-0.2-0.2-0.4-0.2-0.6v-0.8
			c0.1-1.5-0.7-2.9-1.9-3.7l-0.7-0.4c-0.2-0.1-0.3-0.3-0.3-0.6c-0.1-0.2-0.1-0.4,0-0.7c0.1-0.2,0.2-0.4,0.4-0.5
			C1764.1,116.8,1764.3,116.8,1764.5,116.8z"/>
		<rect x="1298.2" y="1096.8" class="st30" width="271.3" height="271.3"/>
		<g>
			<g class="st1">
				<g class="st31">
					<path class="st32" d="M1433.8,1365.4c73.5,0,133-59.5,133-133s-59.5-133-133-133s-133,59.5-133,133l0,0
						C1300.8,1305.9,1360.4,1365.4,1433.8,1365.4z"/>
				</g>
				<g class="st33">
					<path class="st34" d="M1433.8,1362.8c71.9,0,130.3-58.3,130.2-130.3c0-71.9-58.3-130.3-130.3-130.3
						c-71.9,0-130.2,58.3-130.2,130.3C1303.5,1304.4,1361.8,1362.8,1433.8,1362.8C1433.8,1362.8,1433.8,1362.8,1433.8,1362.8z"/>
				</g>
				<g class="st35">
					<path class="st36" d="M1433.8,1360.1c70.5,0,127.6-57.1,127.6-127.6c0-70.5-57.1-127.6-127.6-127.6
						c-70.5,0-127.6,57.1-127.6,127.6c0,0,0,0,0,0C1306.2,1302.9,1363.4,1360.1,1433.8,1360.1
						C1433.8,1360.1,1433.8,1360.1,1433.8,1360.1z"/>
				</g>
				<g class="st37">
					<path class="st38" d="M1433.8,1357.4c69,0,124.9-55.9,124.9-124.9s-55.9-124.9-124.9-124.9c-69,0-124.9,55.9-124.9,124.9l0,0
						C1308.9,1301.4,1364.8,1357.4,1433.8,1357.4C1433.8,1357.4,1433.8,1357.4,1433.8,1357.4z"/>
				</g>
				<g class="st39">
					<path class="st40" d="M1433.8,1354.7c67.5,0,122.2-54.7,122.2-122.2c0-67.5-54.7-122.2-122.2-122.2s-122.2,54.7-122.2,122.2
						c0,0,0,0,0,0C1311.6,1300,1366.3,1354.7,1433.8,1354.7z"/>
				</g>
				<g class="st41">
					<path class="st42" d="M1433.8,1352c66,0,119.5-53.5,119.5-119.5c0-66-53.5-119.5-119.5-119.5c-66,0-119.5,53.5-119.5,119.5
						c0,0,0,0,0,0C1314.3,1298.5,1367.8,1352,1433.8,1352z"/>
				</g>
				<g class="st43">
					<path class="st44" d="M1433.8,1349.3c64.5,0,116.8-52.3,116.8-116.8c0-64.5-52.3-116.8-116.8-116.8
						c-64.5,0-116.8,52.3-116.8,116.8c0,0,0,0,0,0C1317,1297,1369.3,1349.3,1433.8,1349.3z"/>
				</g>
				<g class="st45">
					<path class="st46" d="M1433.8,1346.6c63,0,114.1-51.1,114.1-114.1s-51.1-114.1-114.1-114.1c-63,0-114.1,51.1-114.1,114.1
						c0,0,0,0,0,0C1319.7,1295.5,1370.8,1346.6,1433.8,1346.6z"/>
				</g>
				<g class="st47">
					<path class="st48" d="M1433.8,1343.9c61.5,0,111.4-49.9,111.4-111.4c0-61.5-49.9-111.4-111.4-111.4
						c-61.5,0-111.4,49.9-111.4,111.4c0,0,0,0,0,0C1322.4,1294,1372.3,1343.9,1433.8,1343.9
						C1433.8,1343.9,1433.8,1343.9,1433.8,1343.9z"/>
				</g>
				<g class="st49">
					<path class="st50" d="M1433.8,1341.2c60,0,108.7-48.7,108.7-108.7c0-60-48.7-108.7-108.7-108.7c-60,0-108.7,48.7-108.7,108.7
						c0,0,0,0,0,0C1325.1,1292.5,1373.8,1341.2,1433.8,1341.2z"/>
				</g>
				<g class="st51">
					<path class="st52" d="M1433.8,1338.5c58.5,0,106-47.5,106-106s-47.5-106-106-106c-58.5,0-106,47.5-106,106l0,0
						C1327.8,1291.1,1375.3,1338.5,1433.8,1338.5z"/>
				</g>
				<g class="st53">
					<path class="st54" d="M1433.8,1335.8c57.1,0,103.3-46.2,103.3-103.3c0-57.1-46.2-103.3-103.3-103.4
						c-57.1,0-103.3,46.2-103.4,103.3c0,0,0,0,0,0C1330.5,1289.5,1376.8,1335.8,1433.8,1335.8z"/>
				</g>
				<g class="st55">
					<path class="st56" d="M1433.8,1333.1c55.6,0,100.6-45,100.6-100.6c0-55.6-45-100.6-100.6-100.6s-100.6,45-100.6,100.6
						c0,0,0,0,0,0C1333.2,1288.1,1378.2,1333.1,1433.8,1333.1z"/>
				</g>
				<g class="st57">
					<path class="st58" d="M1433.8,1330.4c54.1,0,97.9-43.8,97.9-97.9c0-54.1-43.8-97.9-97.9-97.9c-54.1,0-97.9,43.8-97.9,97.9
						c0,0,0,0,0,0C1335.9,1286.6,1379.7,1330.4,1433.8,1330.4C1433.8,1330.4,1433.8,1330.4,1433.8,1330.4z"/>
				</g>
				<g class="st59">
					<path class="st60" d="M1433.8,1327.7c52.6,0,95.2-42.6,95.2-95.2c0-52.6-42.6-95.2-95.2-95.2c-52.6,0-95.2,42.6-95.2,95.2l0,0
						C1338.6,1285.1,1381.2,1327.7,1433.8,1327.7z"/>
				</g>
				<g class="st61">
					<path class="st62" d="M1433.8,1325.1c51.1,0,92.6-41.4,92.6-92.5c0-51.1-41.4-92.6-92.5-92.6s-92.6,41.4-92.6,92.5c0,0,0,0,0,0
						C1341.3,1283.6,1382.7,1325,1433.8,1325.1z"/>
				</g>
				<g class="st63">
					<path class="st64" d="M1433.8,1322.3c49.6,0,89.9-40.2,89.9-89.9s-40.2-89.9-89.9-89.9s-89.9,40.2-89.9,89.9l0,0
						C1344,1282.1,1384.2,1322.3,1433.8,1322.3z"/>
				</g>
				<g class="st65">
					<path class="st66" d="M1433.8,1319.7c48.1,0,87.2-39,87.2-87.2c0-48.1-39-87.2-87.2-87.2c-48.1,0-87.2,39-87.2,87.2
						c0,0,0,0,0,0C1346.7,1280.6,1385.7,1319.7,1433.8,1319.7z"/>
				</g>
				<g class="st67">
					<path class="st68" d="M1433.8,1317c46.7,0,84.5-37.8,84.5-84.5s-37.8-84.5-84.5-84.5c-46.7,0-84.5,37.8-84.5,84.5c0,0,0,0,0,0
						C1349.4,1279.1,1387.2,1317,1433.8,1317z"/>
				</g>
				<g class="st69">
					<path class="st70" d="M1433.8,1314.3c45.2,0,81.8-36.6,81.8-81.8c0-45.2-36.6-81.8-81.8-81.8c-45.2,0-81.8,36.6-81.8,81.8
						c0,0,0,0,0,0C1352.1,1277.6,1388.7,1314.3,1433.8,1314.3z"/>
				</g>
				<g class="st1">
					<path class="st71" d="M1433.8,1311.6c43.7,0,79.1-35.4,79.1-79.1c0-43.7-35.4-79.1-79.1-79.1s-79.1,35.4-79.1,79.1c0,0,0,0,0,0
						C1354.7,1276.2,1390.1,1311.6,1433.8,1311.6z"/>
				</g>
			</g>
			<path class="st72" d="M1433.8,1311.6c43.7,0,79.1-35.4,79.1-79.1c0-43.7-35.4-79.1-79.1-79.1s-79.1,35.4-79.1,79.1c0,0,0,0,0,0
				C1354.7,1276.2,1390.1,1311.6,1433.8,1311.6z"/>
			<path class="st73" d="M1466.2,1160.3c0.4,12.8-1.2,25.7-4.8,38c-8.7,28.4-30,51.8-55,67.8c-7.3,4.7-15.1,8.9-21.5,14.8
				c-2.5,2.4-4.8,4.9-6.8,7.7c31,30.7,81.1,30.5,111.8-0.6c30.7-31,30.5-81.1-0.6-111.8C1482.6,1169.6,1474.8,1164.2,1466.2,1160.3
				L1466.2,1160.3z"/>
			<path class="st74" d="M1442.4,1181.8c4.1-4,7.7-8.5,10.8-13.4c2.1-3.5,3.9-7.2,5.3-11c-41.5-13.6-86.3,9-99.9,50.5
				c-2.6,7.9-3.9,16.2-3.9,24.5c0,2.5,0.1,5,0.4,7.5c4.3-3.3,8.8-6.4,13.4-9.2C1393.7,1215.2,1421.5,1202.9,1442.4,1181.8z"/>
			<path class="st75" d="M1512.9,1232.5c0-21.1-8.4-41.4-23.5-56.2c0.6,12-0.1,23.9-2.1,35.7c-2.5,15.7-8.4,30.7-17.5,43.9
				c-7.3,10.3-16.9,19.1-21.5,30.8c-1.2,3.3-2.3,6.7-3.1,10.1c-1.4,4.8-2.8,9.7-4.3,14.5C1481.7,1307.6,1512.9,1273.4,1512.9,1232.5
				L1512.9,1232.5z"/>
			<path class="st76" d="M1431.8,1170.6c-2.8,1.5-5,3.8-6.3,6.6c-0.4,0.9-0.6,2-0.5,3c0.9,5.9,3.8,11.3,8.2,15.4
				c0.8,0.8,1.7,1.5,2.7,2.1c1.1,0.6,2.3,1,3.5,1.3c4.4,1,9.1,0.2,13-2.1c6.6-4.2,8.7-18.8,1.6-24.3
				C1447.9,1167.6,1439.3,1167.3,1431.8,1170.6z"/>
			<path class="st77" d="M1441.5,1171.9c4.6,0.4,9,2.5,12.2,5.8c2.1,2.2,3.7,4.8,4.7,7.6c0.5-5-0.7-10.1-4.3-12.9
				c-6.3-4.8-14.8-5.1-22.3-1.9c-1.8,0.9-3.3,2.2-4.5,3.8l1.9-0.6C1433.1,1172.3,1437.3,1171.7,1441.5,1171.9z"/>
			<path class="st76" d="M1398.6,1255.7c2.6,0.6,5,1.9,6.8,3.8c1.2,1.3,2.2,2.7,3.1,4.2c0.8,1.2,1.4,2.5,1.7,3.9
				c0.5,4-1.9,7.8-5.7,9.1c-3.8,1.1-7.8,0.5-11-1.7c-4.2-2.6-7.2-6.7-8.4-11.5c-0.2-0.5-0.3-1.1-0.3-1.7c0-0.6,0.2-1.1,0.4-1.7
				c0.5-1.1,1.4-1.9,2.5-2.3c1.1-0.7,2.4-1.3,3.6-1.7C1393.8,1255.3,1396.2,1255.2,1398.6,1255.7z"/>
			<path class="st77" d="M1404,1274.7c-1.4,0-2.7-0.3-4-0.8c-1.5-0.4-3-1-4.3-1.8c-1.6-0.9-3.1-2-4.5-3.4c-1.6-1.6-3-3.4-4.2-5.3
				c-0.5-1-1.1-2.1-1.6-3.1c-0.1,0.2-0.2,0.4-0.2,0.5c-0.2,0.9-0.1,1.8,0.1,2.6c1.2,4.8,4.2,8.9,8.4,11.5c3.3,2.2,7.3,2.8,11.1,1.7
				c1.2-0.4,2.4-1.2,3.3-2.1C1406.7,1274.6,1405.4,1274.7,1404,1274.7L1404,1274.7z"/>
			<path class="st76" d="M1444.1,1225.9c-1.1,2.1-2.8,3.8-4.9,4.8c-1.6,0.5-3.3,0.8-5,0.9c-1.3,0-2.6-0.1-3.9-0.5
				c-3.5-0.8-6.1-3.6-6.7-7.1c-0.2-3,1.2-5.8,3.8-7.3c3.6-2.3,7.9-3.3,12.2-2.7c0.8,0,1.6,0.3,2.4,0.6c1,0.6,1.7,1.5,2.1,2.7
				c0.4,1,0.7,2,0.8,3C1445.2,1222.3,1444.9,1224.2,1444.1,1225.9L1444.1,1225.9z"/>
			<path class="st77" d="M1425.3,1224.2c0.2-1.1,0.6-2.1,1.2-3.1c0.7-1.1,1.6-2,2.6-2.9c1.4-0.9,2.9-1.6,4.4-2.1
				c1.8-0.5,3.7-0.8,5.6-0.9c1-0.1,2.1-0.2,3.2-0.3c-0.1-0.1-0.3-0.2-0.5-0.3c-0.7-0.4-1.5-0.6-2.4-0.6c-4.3-0.5-8.6,0.5-12.2,2.8
				c-2.5,1.5-4,4.4-3.7,7.3c0.2,1,0.6,2,1.3,2.9C1424.9,1226.1,1425,1225.1,1425.3,1224.2L1425.3,1224.2z"/>
			<path class="st76" d="M1469.7,1255.7c-1.5-3-3.8-5.5-6.6-7.2c-1.4-0.6-3-0.8-4.5-0.8c-2.6,0.3-5.1,1.1-7.4,2.4
				c-2.3,1.3-4.3,3.1-5.8,5.2c-0.7,0.8-1.3,1.7-1.8,2.7c-0.5,1.2-0.9,2.4-1.1,3.7c-0.8,4.9-0.2,10,1.8,14.5
				c3.6,7.7,18.7,9.1,23.4,1.8C1471.8,1271.6,1472.8,1261.2,1469.7,1255.7z"/>
			<path class="st77" d="M1467.6,1278c4.2-6.3,5.1-16.7,2.1-22.4c-0.9-1.8-2.1-3.4-3.5-4.8c0.2,0.3,0.4,0.7,0.6,1
				c3,5.6,2.1,16-2.1,22.4c-3.9,6-14.9,6.1-20.7,1.6l0.2,0.4C1447.8,1283.8,1462.9,1285.2,1467.6,1278z"/>
			<path class="st76" d="M1366.4,1222.8c1.7,6.6,5.8,13.3,12,15.9c2.5,1,5.2,1.4,7.9,1.2c6.9-0.6,13.2-4.5,16.8-10.4
				c3.6-6.2,5.1-13.4,4.3-20.6c-0.2-3.9-1.4-7.7-3.3-11.1c-2-3.4-5.4-5.9-9.3-6.6c-1.9-0.1-3.9,0.1-5.7,0.6l-1.8,0.4
				c-13.7,3-22.3,15.5-20.9,30.4V1222.8z"/>
			<path class="st77" d="M1371.7,1224.7v-0.3c-1.4-14.8,7.3-27.4,20.9-30.4l1.8-0.4c1.6-0.4,3.3-0.6,5-0.5c-1.4-0.9-3-1.5-4.6-1.8
				c-1.9-0.1-3.9,0.1-5.7,0.6l-1.8,0.4c-13.6,2.9-22.3,15.4-20.9,30.3v0.3c1.7,6.6,5.8,13.3,12,15.9c1.2,0.5,2.4,0.8,3.7,1
				C1376.7,1236.2,1373,1230.8,1371.7,1224.7L1371.7,1224.7z"/>
			<path class="st76" d="M1435.6,1305.9c1-0.7,1.9-1.6,2.5-2.7c0.6-1.1,1-2.3,1.1-3.6c0-1-0.2-2.1-0.7-3c-0.5-1.2-1.3-2.2-2.3-3.1
				c-1-0.9-2.1-1.5-3.4-1.8c-2.4-0.6-5-0.3-7.3,0.8c-1.3,0.6-2.4,1.4-3.2,2.5c-0.4,0.6-0.8,1.3-0.9,2c-0.1,0.7-0.1,1.5,0,2.2
				c0.2,0.7,0.6,1.5,1,2.1c0.1,0.2,0.2,0.4,0.4,0.6c2.5,4.5,8,6.3,12.7,4.2L1435.6,1305.9z"/>
			<path class="st77" d="M1435.5,1305.9c1-0.7,1.9-1.6,2.5-2.7c0.6-1.1,1-2.3,1.1-3.6c0-1-0.2-2.1-0.7-3v-0.1
				c-0.1,1.2-0.5,2.4-1.1,3.4c-0.6,1-1.5,1.9-2.5,2.6l0,0c-4.7,2.2-10.3,0.4-12.8-4.2l-0.4-0.6c0-0.2-0.2-0.3-0.3-0.5
				c-0.1,0.6-0.1,1.2,0,1.8c0.2,0.7,0.6,1.5,1,2.1c0.1,0.2,0.2,0.4,0.4,0.6C1425.3,1306.2,1430.9,1308.1,1435.5,1305.9
				L1435.5,1305.9z"/>
			<path class="st76" d="M1502.5,1269.6c0.3-2-0.4-4-1.9-5.4c-0.6-0.5-1.3-0.9-2.1-1.2c-2-0.6-4.2-0.3-6,0.9
				c-1.7,1.2-2.8,2.9-3.3,4.9c-0.3,1.1-0.4,2.2-0.2,3.3c0.1,0.6,0.4,1.1,0.8,1.6c0.4,0.5,0.8,0.9,1.3,1.2c0.6,0.2,1.1,0.4,1.7,0.5
				h0.6c4.1,0.8,8.1-1.7,9.1-5.7L1502.5,1269.6z"/>
			<path class="st77" d="M1502.5,1269.7c0.1-1,0-2-0.3-2.9c-0.3-0.9-0.9-1.8-1.6-2.5c-0.6-0.5-1.3-0.9-2.1-1.2h-0.1
				c0.6,0.7,1.1,1.5,1.4,2.4c0.3,0.9,0.4,1.8,0.3,2.8l0,0c-1.1,4-5.1,6.5-9.1,5.6h-1c0.3,0.4,0.7,0.7,1.1,0.9
				c0.5,0.2,1.1,0.4,1.7,0.5h0.6C1497.4,1276.1,1501.4,1273.6,1502.5,1269.7L1502.5,1269.7z"/>
			<path class="st76" d="M1498.8,1224.3c-1.5-3.5-4.5-6.1-8.1-7c-1.5-0.3-3.1-0.2-4.6,0.2c-3.8,0.9-7,3.5-8.7,7
				c-1.6,3.4-1.9,7.3-0.8,10.9c0.5,2,1.4,3.8,2.8,5.4c0.8,0.8,1.7,1.4,2.7,1.8c1,0.4,2.1,0.6,3.1,0.6c1.1-0.1,2.2-0.4,3.2-0.8l1-0.4
				C1496.6,1239.5,1500.7,1231.8,1498.8,1224.3L1498.8,1224.3z"/>
			<path class="st77" d="M1498.8,1224.4v-0.1c-1.5-3.5-4.5-6.1-8.1-7c-1.5-0.3-3.1-0.2-4.6,0.2h-0.2c3.5,1,6.3,3.5,7.8,6.9v0.2
				c2,7.4-2.2,15.1-9.5,17.6l-1,0.4l-0.7,0.3c0.8,0.3,1.8,0.5,2.7,0.4c1.1-0.1,2.2-0.4,3.2-0.8l1-0.4
				C1496.6,1239.5,1500.8,1231.8,1498.8,1224.4L1498.8,1224.4z"/>
			<path class="st76" d="M1487.5,1184.7c-0.8-0.4-1.7-0.6-2.7-0.5c-0.9,0-1.8,0.3-2.6,0.7c-0.6,0.4-1.2,1-1.6,1.6
				c-0.5,0.8-0.9,1.7-1,2.6c-0.1,0.9-0.1,1.9,0.2,2.8c0.6,1.7,1.8,3.2,3.4,4.2c0.8,0.6,1.8,0.9,2.8,1c0.5,0,1.1,0,1.6-0.2
				c0.5-0.2,1-0.5,1.4-0.8c0.4-0.4,0.7-0.9,0.9-1.4c0-0.1,0.2-0.3,0.2-0.5C1491.9,1190.9,1490.8,1186.7,1487.5,1184.7L1487.5,1184.7
				z"/>
			<path class="st77" d="M1487.5,1184.8c-0.8-0.4-1.8-0.6-2.7-0.5c-0.9,0-1.8,0.3-2.6,0.7c-0.6,0.4-1.2,1-1.6,1.6l0,0
				c0.8-0.4,1.7-0.6,2.5-0.6c0.9,0,1.8,0.2,2.6,0.5l0,0c3.2,2,4.3,6.2,2.5,9.6c0,0.2-0.2,0.3-0.2,0.5c-0.1,0.1-0.1,0.2-0.2,0.3
				c0.4-0.2,0.8-0.4,1.1-0.8c0.4-0.4,0.6-0.9,0.9-1.4c0-0.1,0.1-0.3,0.2-0.5c0.8-1.6,1.1-3.5,0.6-5.2
				C1490.2,1187.3,1489.1,1185.7,1487.5,1184.8L1487.5,1184.8z"/>
			<path class="st78" d="M1484.8,1172.1c28.2,33.4,24,83.3-9.4,111.4c-29.5,24.9-72.8,24.9-102.2-0.1c28.2,33.4,78.1,37.6,111.4,9.4
				c33.4-28.2,37.6-78.1,9.4-111.4C1491.2,1178,1488.2,1175,1484.8,1172.1z"/>
			
				<linearGradient id="SVGID_00000145023384934801497330000011239753754878737334_" gradientUnits="userSpaceOnUse" x1="1680.9546" y1="12297.2217" x2="1697.5846" y2="12347.2617" gradientTransform="matrix(1 0 0 1 -267.64 -11125.9102)">
				<stop  offset="2.000000e-02" style="stop-color:#FFFFFF"/>
				<stop  offset="1" style="stop-color:#FFFFFF"/>
			</linearGradient>
			
				<path style="opacity:0.35;fill:url(#SVGID_00000145023384934801497330000011239753754878737334_);enable-background:new    ;" d="
				M1423.4,1198.1c24.5-7.2,51-0.2,68.7,18.1c1.3,1.2,3.3,1.5,4.9,0.6c1.6-0.9,2.4-2.8,2-4.6c-1.5-5.3-3.6-10.5-6.3-15.3
				c-12.6-22.8-37.3-36.3-63.3-34.6c-37.9,2.1-66.9,34.4-64.9,72.3c0.3,5.3,1.2,10.6,2.7,15.7c0,0.3,0.1,0.5,0.2,0.8
				c0.3,0.8,0.9,1.5,1.6,2c1.5,1,3.5,0.9,4.9-0.2c0.7-0.6,1.2-1.3,1.4-2.2C1380.5,1225.5,1398.9,1205.3,1423.4,1198.1L1423.4,1198.1
				z"/>
			
				<linearGradient id="SVGID_00000121959606014709126890000011956242232998453125_" gradientUnits="userSpaceOnUse" x1="1687.6774" y1="12297.5518" x2="1698.1174" y2="12319.6123" gradientTransform="matrix(1 0 0 1 -267.64 -11125.9102)">
				<stop  offset="2.000000e-02" style="stop-color:#FFFFFF"/>
				<stop  offset="1" style="stop-color:#FFFFFF"/>
			</linearGradient>
			
				<path style="opacity:0.43;fill:url(#SVGID_00000121959606014709126890000011956242232998453125_);enable-background:new    ;" d="
				M1439.3,1171.8c1.5,3.7-4.4,9.7-13.3,13.3s-17.3,3.5-18.8-0.2c-1.5-3.7,4.4-9.7,13.3-13.3S1437.7,1168,1439.3,1171.8z"/>
			
				<linearGradient id="SVGID_00000101824921855479054370000018081692747471162240_" gradientUnits="userSpaceOnUse" x1="1660.2587" y1="12310.4854" x2="1668.3087" y2="12323.4248" gradientTransform="matrix(1 0 0 1 -267.64 -11125.9102)">
				<stop  offset="2.000000e-02" style="stop-color:#FFFFFF"/>
				<stop  offset="1" style="stop-color:#FFFFFF"/>
			</linearGradient>
			
				<path style="opacity:0.43;fill:url(#SVGID_00000101824921855479054370000018081692747471162240_);enable-background:new    ;" d="
				M1403.9,1187.4c1.2,2.2-1.1,5.7-5,7.8c-3.9,2.1-8.1,1.9-9.3-0.2c-1.2-2.1,1.1-5.7,5-7.8
				C1398.6,1185.2,1402.7,1185.2,1403.9,1187.4z"/>
		</g>
		<path class="st82" d="M1226.9,770.7l13.2-19.3l-2.1-1.5l-13.2,19.3L1226.9,770.7z"/>
		<path class="st82" d="M1257.4,721.1l-13.2,19.3l2.1,1.5l13.2-19.4L1257.4,721.1z"/>
		
			<linearGradient id="SVGID_00000181080412505611147120000001376814488359334841_" gradientUnits="userSpaceOnUse" x1="1524.348" y1="11859.7725" x2="1503.6716" y2="11889.9658" gradientTransform="matrix(1 0 0 1 -267.64 -11125.9102)">
			<stop  offset="2.000000e-02" style="stop-color:#FFFFFF"/>
			<stop  offset="0.37" style="stop-color:#EDEDED"/>
			<stop  offset="1" style="stop-color:#C4C4C4"/>
		</linearGradient>
		<path style="fill:url(#SVGID_00000181080412505611147120000001376814488359334841_);" d="M1257.2,776.3l17-4.1
			c2.6-0.6,4.4-3.2,4-5.8l-2.3-17.3c-0.2-1.5-1-2.8-2.2-3.7l-43.3-29.7c-2.4-1.6-5.7-1-7.3,1.4l-14.7,21.5c-1.6,2.4-1,5.7,1.4,7.3
			l43.3,29.7C1254.2,776.3,1255.7,776.6,1257.2,776.3z"/>
		<path class="st84" d="M1294,781.4l-3-3.7l-3-3.6l-1.4,2.2l-1.5,2.2l4.5,1.5L1294,781.4z"/>
		<path class="st82" d="M1217.5,811.6l20.1-29.3c1.4-2.1,0.9-4.9-1.2-6.3c0,0,0,0,0,0l-20.4-13.9c-2.1-1.4-4.9-0.9-6.3,1.2l-20,29.3
			c-1.4,2.1-0.9,4.9,1.2,6.3c0,0,0,0,0,0l20.4,14C1213.3,814.3,1216.1,813.7,1217.5,811.6z"/>
		<path class="st85" d="M1213,777.8l7.3-10.7l-4.8-3.3c-1.6-1.1-3.8-0.7-4.9,0.9l-5.4,7.8L1213,777.8z"/>
		<path class="st85" d="M1205.1,789.5l7.3-10.7l-7.8-5.3l-7.3,10.7L1205.1,789.5z"/>
		<path class="st85" d="M1197,801.1l7.3-10.7l-7.8-5.3l-5.4,7.8c-1.1,1.6-0.7,3.8,0.9,4.9L1197,801.1z"/>
		<path class="st85" d="M1221.8,783.8l7.3-10.7l-7.8-5.3l-7.3,10.7L1221.8,783.8z"/>
		<path class="st85" d="M1213.8,795.5l7.3-10.7l-7.8-5.3l-7.3,10.7L1213.8,795.5z"/>
		<path class="st85" d="M1205.9,807.2l7.3-10.7l-7.8-5.4l-7.3,10.7L1205.9,807.2z"/>
		<path class="st85" d="M1230.5,789.8l5.4-7.8c1.1-1.6,0.7-3.8-0.9-4.9l-4.9-3.3l-7.4,10.7L1230.5,789.8z"/>
		<path class="st85" d="M1222.6,801.5l7.3-10.7l-7.8-5.3l-7.3,10.7L1222.6,801.5z"/>
		<path class="st85" d="M1216.5,810.3l5.4-7.8l-7.8-5.3l-7.3,10.7l4.9,3.3C1213.2,812.3,1215.4,811.9,1216.5,810.3z"/>
		<path class="st82" d="M1274.4,728.4l20-29.3c1.4-2.1,0.9-4.9-1.2-6.3l-20.4-14c-2.1-1.4-4.9-0.9-6.3,1.2l-20,29.3
			c-1.4,2.1-0.9,4.9,1.2,6.3l20.4,14C1270.2,731.1,1273,730.5,1274.4,728.4C1274.4,728.5,1274.4,728.4,1274.4,728.4z"/>
		<path class="st85" d="M1270,694.6l7.3-10.7l-4.9-3.3c-1.6-1.1-3.8-0.7-4.9,0.9l-5.4,7.8L1270,694.6z"/>
		<path class="st85" d="M1262.1,706.3l7.3-10.7l-7.8-5.3l-7.3,10.7L1262.1,706.3z"/>
		<path class="st85" d="M1254,718l7.3-10.7l-7.8-5.3l-5.4,7.8c-1.1,1.6-0.7,3.8,0.9,4.9L1254,718z"/>
		<path class="st85" d="M1278.8,700.6l7.3-10.7l-7.8-5.3l-7.3,10.7L1278.8,700.6z"/>
		<path class="st85" d="M1270.8,712.3l7.3-10.7l-7.8-5.3L1263,707L1270.8,712.3z"/>
		<path class="st85" d="M1262.8,724.1l7.3-10.7l-7.8-5.3l-7.3,10.7L1262.8,724.1z"/>
		<path class="st85" d="M1287.4,706.6l5.4-7.8c1.1-1.6,0.7-3.8-0.9-4.9c0,0,0,0,0,0l-4.9-3.3l-7.3,10.7L1287.4,706.6z"/>
		<path class="st85" d="M1279.5,718.3l7.3-10.7l-7.8-5.3l-7.4,10.7L1279.5,718.3z"/>
		<path class="st85" d="M1273.4,727.1l5.4-7.8l-7.8-5.3l-7.3,10.7l4.9,3.3C1270.1,729.1,1272.3,728.6,1273.4,727.1z"/>
		<path class="st86" d="M1293.1,785c1.6,1.1,3.7,0.7,4.8-0.9c1.1-1.6,0.7-3.7-0.9-4.8c-1.6-1.1-3.7-0.7-4.8,0.9
			C1291.1,781.7,1291.5,783.9,1293.1,785z"/>
		
			<linearGradient id="SVGID_00000059290332398742528660000011548354336030514617_" gradientUnits="userSpaceOnUse" x1="1559.3457" y1="11878.4307" x2="1533.744" y2="11915.8193" gradientTransform="matrix(1 0 0 1 -267.64 -11125.9102)">
			<stop  offset="2.000000e-02" style="stop-color:#FFFFFF"/>
			<stop  offset="0.62" style="stop-color:#B7B7B7"/>
			<stop  offset="1" style="stop-color:#8E8E8E"/>
		</linearGradient>
		<path style="fill:url(#SVGID_00000059290332398742528660000011548354336030514617_);" d="M1269.6,764.7c7.1-10.3,21.2-13,31.5-5.9
			l-25.6,37.4C1265.2,789.2,1262.5,775.1,1269.6,764.7C1269.6,764.7,1269.6,764.7,1269.6,764.7z"/>
		<path class="st29" d="M2047.8,1450.3h1.1c2.1,0.1,4.1-0.9,5.2-2.7l0.6-0.9c0.2-0.3,0.4-0.5,0.7-0.6c0.3-0.1,0.6-0.1,0.9,0
			c0.3,0.1,0.6,0.3,0.7,0.5c0.2,0.3,0.3,0.6,0.3,0.9l-0.1,1.1c-0.1,2.1,0.9,4.1,2.7,5.2l0.9,0.6c0.5,0.4,0.8,1,0.6,1.6
			c-0.1,0.3-0.3,0.6-0.5,0.7c-0.3,0.2-0.6,0.3-0.9,0.3h-1.1c-1,0-2.1,0.2-3,0.7c-0.9,0.5-1.7,1.1-2.3,2l-0.6,1
			c-0.2,0.3-0.4,0.4-0.7,0.5c-0.3,0.1-0.6,0.1-0.9,0c-0.6-0.2-1-0.8-1-1.4v-1.1c0-1-0.2-2.1-0.6-3c-0.5-0.9-1.1-1.7-2-2.3l-0.9-0.6
			c-0.3-0.2-0.5-0.4-0.5-0.7c-0.1-0.3-0.1-0.6,0-0.9c0.1-0.3,0.3-0.6,0.5-0.7C2047.1,1450.4,2047.4,1450.3,2047.8,1450.3
			L2047.8,1450.3z"/>
		<path class="st29" d="M1942.1,1620.8h0.8c0.7,0,1.4-0.1,2.1-0.5c0.7-0.3,1.2-0.8,1.6-1.4l0.5-0.7c0.2-0.4,0.7-0.6,1.2-0.4
			c0.2,0.1,0.4,0.2,0.5,0.4c0.1,0.2,0.2,0.4,0.2,0.6v0.8c-0.1,1.5,0.7,2.9,1.9,3.7l0.7,0.4c0.2,0.1,0.3,0.3,0.4,0.5
			c0.1,0.2,0.1,0.4,0,0.7c-0.1,0.2-0.2,0.4-0.4,0.5c-0.2,0.1-0.4,0.2-0.6,0.2h-0.8c-0.7,0-1.4,0.1-2.1,0.5c-0.6,0.3-1.2,0.8-1.6,1.4
			l-0.5,0.7c-0.1,0.2-0.3,0.3-0.5,0.4c-0.2,0.1-0.4,0.1-0.7,0c-0.2-0.1-0.4-0.2-0.5-0.4c-0.1-0.2-0.2-0.4-0.2-0.6v-0.8
			c0.1-1.5-0.6-2.9-1.9-3.7l-0.7-0.4c-0.2-0.1-0.3-0.3-0.4-0.5c-0.2-0.4,0-0.9,0.4-1.2C1941.7,1620.9,1941.9,1620.8,1942.1,1620.8
			L1942.1,1620.8z"/>
		<path class="st29" d="M2155.9,1405.6h0.8c0.7,0,1.4-0.2,2.1-0.5c0.6-0.3,1.2-0.8,1.6-1.4l0.4-0.7c0.1-0.2,0.3-0.3,0.5-0.4
			c0.4-0.2,0.9,0,1.2,0.4c0.1,0.2,0.2,0.4,0.2,0.6v0.8c0,1.5,0.7,2.9,1.9,3.7l0.7,0.4c0.2,0.1,0.3,0.3,0.4,0.5
			c0.1,0.2,0.1,0.4,0,0.7c-0.1,0.2-0.2,0.4-0.4,0.5c-0.2,0.1-0.4,0.2-0.6,0.2h-0.8c-1.5,0-2.9,0.7-3.7,1.9l-0.4,0.7
			c-0.1,0.2-0.3,0.3-0.5,0.4c-0.2,0.1-0.4,0.1-0.7,0c-0.2-0.1-0.4-0.2-0.5-0.4c-0.1-0.2-0.2-0.4-0.2-0.6v-0.8c0-0.7-0.1-1.4-0.4-2.1
			c-0.3-0.6-0.8-1.2-1.4-1.6l-0.7-0.5c-0.3-0.3-0.4-0.7-0.2-1.1c0.1-0.2,0.2-0.4,0.4-0.5C2155.5,1405.6,2155.7,1405.6,2155.9,1405.6
			L2155.9,1405.6z"/>
		<path class="st29" d="M2188.5,1563.3l-0.8-0.1c-1.5,0-2.9,0.7-3.7,1.9l-0.4,0.7c-0.1,0.2-0.3,0.3-0.5,0.4c-0.2,0.1-0.4,0.1-0.7,0
			c-0.2-0.1-0.4-0.2-0.5-0.4c-0.1-0.2-0.2-0.4-0.2-0.6v-0.8c0.1-1.5-0.6-2.8-1.8-3.7l-0.7-0.4c-0.2-0.1-0.3-0.3-0.4-0.5
			c-0.1-0.2-0.1-0.4,0-0.6c0.1-0.4,0.5-0.7,1-0.7h0.8c1.5,0.1,2.9-0.7,3.7-1.9l0.4-0.7c0.1-0.2,0.3-0.3,0.5-0.4
			c0.2-0.1,0.4-0.1,0.6,0c0.2,0.1,0.4,0.2,0.5,0.4c0.1,0.2,0.2,0.4,0.2,0.6v0.8c0,0.7,0.1,1.4,0.4,2.1c0.3,0.7,0.8,1.2,1.4,1.6
			l0.7,0.4c0.2,0.1,0.3,0.3,0.4,0.5c0.1,0.2,0.1,0.4,0,0.6c-0.1,0.2-0.2,0.4-0.4,0.5C2188.9,1563.2,2188.7,1563.3,2188.5,1563.3
			L2188.5,1563.3z"/>
		<path class="st29" d="M2200.1,1680.6h-0.8c-0.7,0-1.4,0.1-2.1,0.5c-0.7,0.3-1.2,0.8-1.6,1.4l-0.4,0.7c-0.1,0.2-0.3,0.3-0.5,0.4
			c-0.2,0.1-0.4,0.1-0.6,0c-0.2-0.1-0.4-0.2-0.5-0.4c-0.1-0.2-0.2-0.4-0.2-0.6v-0.8c0-0.7-0.1-1.5-0.5-2.1c-0.3-0.6-0.8-1.2-1.4-1.6
			l-0.7-0.4c-0.2-0.1-0.3-0.3-0.4-0.5c-0.1-0.2-0.1-0.4,0-0.7c0.1-0.2,0.2-0.4,0.4-0.5c0.2-0.1,0.4-0.2,0.6-0.2h0.8
			c1.5,0.1,2.9-0.7,3.7-1.9l0.5-0.7c0.1-0.2,0.3-0.3,0.5-0.4c0.2-0.1,0.4-0.1,0.6,0c0.2,0.1,0.4,0.2,0.5,0.4
			c0.1,0.2,0.2,0.4,0.2,0.6v0.8c0,0.7,0.1,1.4,0.5,2.1c0.3,0.6,0.8,1.2,1.4,1.6l0.7,0.4c0.4,0.3,0.5,0.7,0.4,1.2
			c-0.1,0.2-0.2,0.4-0.4,0.5C2200.5,1680.5,2200.3,1680.6,2200.1,1680.6L2200.1,1680.6z"/>
		<path class="st29" d="M2091.4,1336h0.8c0.7,0,1.5-0.1,2.1-0.5c0.6-0.3,1.2-0.8,1.6-1.4l0.5-0.7c0.1-0.2,0.3-0.3,0.5-0.4
			c0.2-0.1,0.4-0.1,0.7,0c0.2,0.1,0.4,0.2,0.5,0.4c0.1,0.2,0.2,0.4,0.2,0.6v0.8c0,0.7,0.1,1.4,0.5,2.1c0.3,0.6,0.8,1.2,1.4,1.6
			l0.6,0.4c0.2,0.1,0.3,0.3,0.4,0.5c0.1,0.2,0.1,0.4,0,0.7c-0.1,0.2-0.2,0.4-0.4,0.5c-0.2,0.1-0.4,0.2-0.6,0.2h-0.8
			c-0.7,0-1.4,0.1-2.1,0.5c-0.6,0.3-1.2,0.8-1.6,1.4l-0.5,0.7c-0.1,0.2-0.3,0.3-0.5,0.4c-0.4,0.2-0.9,0-1.2-0.4
			c-0.1-0.2-0.2-0.4-0.2-0.6v-0.8c0.1-1.5-0.7-2.9-1.9-3.7l-0.7-0.4c-0.2-0.1-0.3-0.3-0.4-0.5c-0.1-0.2-0.1-0.4,0-0.6
			c0.1-0.2,0.2-0.4,0.4-0.5C2090.9,1336.1,2091.1,1336,2091.4,1336z"/>
		<path class="st29" d="M2068.5,1129h-0.8c-0.7,0-1.4,0.1-2.1,0.5c-0.6,0.3-1.2,0.8-1.6,1.4l-0.4,0.7c-0.1,0.2-0.3,0.3-0.5,0.4
			c-0.2,0.1-0.4,0.1-0.7,0c-0.2-0.1-0.4-0.2-0.5-0.4c-0.1-0.2-0.2-0.4-0.2-0.6v-0.8c0-1.5-0.7-2.9-1.9-3.7l-0.7-0.4
			c-0.2-0.1-0.3-0.3-0.4-0.5c-0.1-0.2-0.1-0.4,0-0.7c0.1-0.2,0.2-0.4,0.4-0.5c0.2-0.1,0.4-0.2,0.6-0.2h0.8c0.7,0,1.4-0.1,2.1-0.5
			c0.6-0.3,1.2-0.8,1.6-1.4l0.4-0.7c0.1-0.2,0.3-0.3,0.5-0.4c0.2-0.1,0.4-0.1,0.6,0c0.4,0.1,0.7,0.5,0.7,1v0.8
			c-0.1,1.5,0.6,2.9,1.9,3.7l0.7,0.5c0.2,0.1,0.3,0.3,0.4,0.5c0.1,0.2,0.1,0.4,0,0.7c-0.1,0.2-0.2,0.4-0.4,0.5
			C2068.9,1128.9,2068.7,1129,2068.5,1129L2068.5,1129z"/>
		<path class="st29" d="M2155.8,1163.8h-0.8c-0.7,0-1.4,0.1-2.1,0.5c-0.6,0.3-1.2,0.8-1.6,1.4l-0.4,0.7c-0.1,0.2-0.3,0.3-0.5,0.4
			c-0.5,0.2-1.1-0.1-1.3-0.6c0-0.1-0.1-0.3-0.1-0.4v-0.8c0-0.7-0.1-1.5-0.5-2.1c-0.3-0.6-0.8-1.2-1.4-1.6l-0.7-0.5
			c-0.2-0.1-0.3-0.3-0.4-0.5c-0.1-0.2-0.1-0.4,0-0.7c0.1-0.2,0.2-0.4,0.4-0.5c0.2-0.1,0.4-0.2,0.6-0.2h0.8c1.5,0,2.9-0.7,3.7-1.9
			l0.4-0.7c0.1-0.2,0.3-0.3,0.5-0.4c0.2-0.1,0.4-0.1,0.6,0c0.2,0.1,0.4,0.2,0.5,0.4c0.1,0.2,0.2,0.4,0.2,0.6v0.8
			c0,0.7,0.1,1.4,0.5,2.1c0.3,0.7,0.8,1.2,1.5,1.6l0.7,0.5c0.2,0.1,0.3,0.3,0.4,0.5c0.1,0.2,0.1,0.4,0,0.7c-0.1,0.2-0.2,0.4-0.4,0.5
			C2156.3,1163.7,2156.1,1163.8,2155.8,1163.8L2155.8,1163.8z"/>
		<path class="st29" d="M2037.9,1937.4h0.8c0.7,0,1.5-0.1,2.1-0.5c0.6-0.3,1.2-0.8,1.6-1.4l0.5-0.7c0.1-0.2,0.3-0.3,0.5-0.4
			c0.2-0.1,0.4-0.1,0.7,0c0.2,0.1,0.4,0.2,0.5,0.4c0.1,0.2,0.2,0.4,0.2,0.6v0.8c0,0.7,0.1,1.4,0.5,2.1c0.3,0.6,0.8,1.2,1.4,1.6
			l0.7,0.4c0.2,0.1,0.3,0.3,0.4,0.5c0.1,0.2,0.1,0.4,0,0.7c-0.1,0.2-0.2,0.4-0.4,0.5c-0.2,0.1-0.4,0.2-0.6,0.2h-0.8
			c-0.7,0-1.4,0.1-2.1,0.5c-0.6,0.3-1.2,0.8-1.6,1.4l-0.5,0.7c-0.1,0.2-0.3,0.3-0.5,0.4c-0.4,0.2-0.9,0-1.2-0.4
			c-0.1-0.2-0.2-0.4-0.2-0.6v-0.8c0.1-1.5-0.7-2.9-1.9-3.7l-0.7-0.4c-0.2-0.1-0.3-0.3-0.4-0.5c-0.1-0.2-0.1-0.4,0-0.6
			c0.1-0.2,0.2-0.4,0.4-0.5C2037.4,1937.5,2037.6,1937.4,2037.9,1937.4z"/>
		<path class="st29" d="M2015,1730.4h-0.8c-0.7,0-1.4,0.1-2.1,0.5c-0.6,0.3-1.2,0.8-1.6,1.4l-0.4,0.7c-0.1,0.2-0.3,0.3-0.5,0.4
			c-0.2,0.1-0.4,0.1-0.7,0c-0.2-0.1-0.4-0.2-0.5-0.4c-0.1-0.2-0.2-0.4-0.2-0.6v-0.8c0-1.5-0.7-2.9-1.9-3.7l-0.7-0.4
			c-0.2-0.1-0.3-0.3-0.4-0.5c-0.1-0.2-0.1-0.4,0-0.7c0.1-0.2,0.2-0.4,0.4-0.5c0.2-0.1,0.4-0.2,0.6-0.2h0.8c0.7,0,1.4-0.1,2.1-0.5
			c0.6-0.3,1.2-0.8,1.6-1.4l0.4-0.7c0.1-0.2,0.3-0.3,0.5-0.4c0.2-0.1,0.4-0.1,0.7,0c0.4,0.1,0.7,0.5,0.7,1v0.8
			c-0.1,1.5,0.6,2.9,1.9,3.7l0.7,0.5c0.2,0.1,0.3,0.3,0.4,0.5c0.1,0.2,0.1,0.4,0,0.7c-0.1,0.2-0.2,0.4-0.4,0.5
			C2015.4,1730.4,2015.2,1730.4,2015,1730.4L2015,1730.4z"/>
		<path class="st29" d="M2102.3,1765.2h-0.8c-0.7,0-1.4,0.1-2.1,0.5c-0.6,0.3-1.2,0.8-1.6,1.4l-0.4,0.7c-0.1,0.2-0.3,0.3-0.5,0.4
			c-0.5,0.2-1.1-0.1-1.3-0.6c0-0.1-0.1-0.3-0.1-0.4v-0.8c0-0.7-0.1-1.5-0.5-2.1c-0.3-0.6-0.8-1.2-1.4-1.6l-0.7-0.5
			c-0.2-0.1-0.3-0.3-0.4-0.5c-0.1-0.2-0.1-0.4,0-0.7c0.1-0.2,0.2-0.4,0.4-0.5c0.2-0.1,0.4-0.2,0.6-0.2h0.8c1.5,0,2.9-0.7,3.7-1.9
			l0.4-0.7c0.1-0.2,0.3-0.3,0.5-0.4c0.2-0.1,0.4-0.1,0.6,0c0.2,0.1,0.4,0.2,0.5,0.4c0.1,0.2,0.2,0.4,0.2,0.6v0.8
			c0,0.7,0.1,1.4,0.5,2.1c0.3,0.7,0.8,1.2,1.5,1.6l0.7,0.5c0.2,0.1,0.3,0.3,0.4,0.5c0.1,0.2,0.1,0.4,0,0.7c-0.1,0.2-0.2,0.4-0.4,0.5
			C2102.8,1765.2,2102.6,1765.3,2102.3,1765.2L2102.3,1765.2z"/>
		<path class="st29" d="M1607.9,883.1l-0.5-0.6c-0.5-0.6-1-1-1.7-1.3c-0.7-0.3-1.4-0.4-2.1-0.3l-0.8,0.1c-0.2,0-0.4,0-0.6-0.2
			c-0.2-0.1-0.3-0.3-0.4-0.5c-0.1-0.2-0.1-0.4,0-0.6c0-0.2,0.2-0.4,0.3-0.5l0.6-0.5c0.6-0.5,1-1,1.3-1.7c0.3-0.7,0.4-1.4,0.3-2.1
			l-0.1-0.8c0-0.2,0-0.4,0.1-0.6c0.1-0.2,0.3-0.3,0.5-0.4c0.4-0.2,0.9-0.1,1.2,0.3l0.5,0.6c0.5,0.6,1,1,1.7,1.3
			c0.7,0.3,1.4,0.4,2.1,0.3l0.8-0.1c0.2,0,0.4,0,0.6,0.1c0.2,0.1,0.4,0.3,0.4,0.5c0.1,0.2,0.1,0.4,0,0.7c-0.1,0.2-0.2,0.4-0.4,0.5
			l-0.6,0.5c-1.2,0.9-1.8,2.4-1.6,3.8l0.1,0.8c0,0.2,0,0.4-0.1,0.6c-0.1,0.2-0.3,0.3-0.5,0.4c-0.2,0.1-0.4,0.1-0.7,0
			C1608.3,883.4,1608.1,883.3,1607.9,883.1z"/>
		<path class="st29" d="M1340.5,936.4h-0.8c-0.7,0-1.4,0.1-2.1,0.5c-0.6,0.3-1.2,0.8-1.6,1.4l-0.5,0.7c-0.1,0.2-0.3,0.3-0.5,0.4
			c-0.2,0.1-0.4,0.1-0.7,0c-0.2-0.1-0.4-0.2-0.5-0.4c-0.1-0.2-0.2-0.4-0.2-0.6v-0.8c0-1.5-0.7-2.9-1.9-3.7l-0.7-0.4
			c-0.2-0.1-0.3-0.3-0.4-0.5c-0.1-0.2-0.1-0.4,0-0.7c0.1-0.2,0.2-0.4,0.4-0.5c0.2-0.1,0.4-0.2,0.6-0.2h0.8c0.7,0,1.4-0.1,2.1-0.5
			c0.6-0.3,1.2-0.8,1.6-1.4l0.4-0.7c0.1-0.2,0.3-0.3,0.5-0.4c0.2-0.1,0.4-0.1,0.7,0c0.4,0.1,0.7,0.5,0.7,1v0.8
			c-0.1,1.5,0.6,2.9,1.9,3.7l0.7,0.5c0.2,0.1,0.3,0.3,0.4,0.5c0.1,0.2,0.1,0.4,0,0.7c-0.1,0.2-0.2,0.4-0.4,0.5
			C1340.9,936.3,1340.7,936.4,1340.5,936.4L1340.5,936.4z"/>
		<path class="st29" d="M1424.8,908.3h-0.8c-0.7,0-1.4,0.1-2.1,0.5c-0.6,0.3-1.2,0.8-1.6,1.4l-0.4,0.7c-0.1,0.2-0.3,0.3-0.5,0.4
			c-0.5,0.2-1.1-0.1-1.3-0.6c0-0.1-0.1-0.3-0.1-0.4v-0.8c0-0.7-0.1-1.5-0.5-2.1c-0.3-0.6-0.8-1.2-1.4-1.6l-0.7-0.5
			c-0.2-0.1-0.3-0.3-0.4-0.5c-0.1-0.2-0.1-0.4,0-0.7c0.1-0.2,0.2-0.4,0.4-0.5c0.2-0.1,0.4-0.2,0.6-0.2h0.8c1.5,0,2.9-0.7,3.7-1.9
			l0.4-0.7c0.1-0.2,0.3-0.3,0.5-0.4c0.2-0.1,0.4-0.1,0.7,0c0.2,0.1,0.4,0.2,0.5,0.4c0.1,0.2,0.2,0.4,0.2,0.6v0.8
			c0,0.7,0.1,1.4,0.5,2.1c0.3,0.7,0.8,1.2,1.5,1.6l0.7,0.5c0.2,0.1,0.3,0.3,0.4,0.5c0.1,0.2,0.1,0.4,0,0.7c-0.1,0.2-0.2,0.4-0.4,0.5
			C1425.3,908.2,1425,908.3,1424.8,908.3L1424.8,908.3z"/>
		<path class="st29" d="M1510.8,998.7h-0.8c-0.7,0-1.4,0.1-2.1,0.5c-0.6,0.3-1.2,0.8-1.6,1.4l-0.5,0.7c-0.1,0.2-0.3,0.3-0.5,0.4
			c-0.2,0.1-0.4,0.1-0.7,0c-0.2-0.1-0.4-0.2-0.5-0.4c-0.1-0.2-0.2-0.4-0.2-0.6v-0.8c0-1.5-0.7-2.9-1.9-3.7l-0.7-0.4
			c-0.2-0.1-0.3-0.3-0.4-0.5c-0.1-0.2-0.1-0.4,0-0.7c0.1-0.2,0.2-0.4,0.4-0.5c0.2-0.1,0.4-0.2,0.6-0.2h0.8c0.7,0,1.4-0.1,2.1-0.5
			c0.6-0.3,1.2-0.8,1.6-1.4l0.4-0.7c0.1-0.2,0.3-0.3,0.5-0.4c0.2-0.1,0.4-0.1,0.7,0c0.4,0.1,0.7,0.5,0.7,1v0.8
			c-0.1,1.5,0.6,2.9,1.9,3.7l0.7,0.5c0.2,0.1,0.3,0.3,0.4,0.5c0.1,0.2,0.1,0.4,0,0.7c-0.1,0.2-0.2,0.4-0.4,0.5
			C1511.2,998.6,1511,998.7,1510.8,998.7L1510.8,998.7z"/>
		<path class="st29" d="M1598.1,1033.5h-0.8c-0.7,0-1.4,0.1-2.1,0.5c-0.6,0.3-1.2,0.8-1.6,1.4l-0.4,0.7c-0.1,0.2-0.3,0.3-0.5,0.4
			c-0.5,0.2-1.1-0.1-1.3-0.6c0-0.1-0.1-0.3-0.1-0.4v-0.8c0-0.7-0.1-1.5-0.5-2.1c-0.3-0.6-0.8-1.2-1.4-1.6l-0.7-0.5
			c-0.2-0.1-0.3-0.3-0.4-0.5c-0.1-0.2-0.1-0.4,0-0.7c0.1-0.2,0.2-0.4,0.4-0.5c0.2-0.1,0.4-0.2,0.6-0.2h0.8c1.5,0,2.9-0.7,3.7-1.9
			l0.4-0.7c0.1-0.2,0.3-0.3,0.5-0.4c0.2-0.1,0.4-0.1,0.7,0c0.2,0.1,0.4,0.2,0.5,0.4c0.1,0.2,0.2,0.4,0.2,0.6v0.8
			c0,0.7,0.1,1.4,0.5,2.1c0.3,0.7,0.8,1.2,1.5,1.6l0.7,0.5c0.2,0.1,0.3,0.3,0.4,0.5c0.1,0.2,0.1,0.4,0,0.7c-0.1,0.2-0.2,0.4-0.4,0.5
			C1598.6,1033.5,1598.4,1033.5,1598.1,1033.5L1598.1,1033.5z"/>
		<path class="st29" d="M2035.4,141.4l-0.4-0.5c-0.4-0.4-0.8-0.8-1.3-1c-0.5-0.2-1.1-0.3-1.6-0.2l-0.6,0.1c-0.2,0-0.3,0-0.5-0.1
			c-0.1-0.1-0.3-0.2-0.3-0.4c-0.1-0.2-0.1-0.3,0-0.5c0-0.2,0.1-0.3,0.3-0.4l0.5-0.4c0.4-0.4,0.8-0.8,1-1.3c0.2-0.5,0.3-1.1,0.2-1.6
			l-0.1-0.6c0-0.2,0-0.3,0.1-0.5c0.1-0.1,0.2-0.3,0.4-0.3c0.3-0.1,0.7,0,0.9,0.2l0.4,0.5c0.4,0.4,0.8,0.8,1.3,1
			c0.5,0.2,1.1,0.3,1.6,0.2l0.6-0.1c0.2,0,0.3,0,0.5,0.1c0.2,0.1,0.3,0.2,0.3,0.4c0.1,0.2,0.1,0.3,0,0.5c0,0.2-0.1,0.3-0.3,0.4
			l-0.5,0.4c-0.9,0.7-1.4,1.8-1.2,3l0.1,0.6c0,0.2,0,0.3-0.1,0.5c-0.1,0.1-0.2,0.3-0.4,0.3c-0.2,0.1-0.3,0.1-0.5,0
			C2035.7,141.6,2035.5,141.5,2035.4,141.4z"/>
		<path class="st29" d="M1874.1,121.2h-0.6c-0.6,0-1.1,0.1-1.6,0.4c-0.5,0.3-0.9,0.6-1.2,1.1l-0.3,0.5c-0.1,0.1-0.2,0.2-0.4,0.3
			c-0.2,0.1-0.3,0.1-0.5,0c-0.2-0.1-0.3-0.2-0.4-0.3c-0.1-0.1-0.1-0.3-0.1-0.5V122c0-1.1-0.5-2.2-1.5-2.9l-0.5-0.3
			c-0.1-0.1-0.2-0.2-0.3-0.4c-0.1-0.2-0.1-0.3,0-0.5c0.1-0.2,0.2-0.3,0.3-0.4c0.1-0.1,0.3-0.1,0.5-0.1h0.6c0.6,0,1.1-0.1,1.6-0.4
			c0.5-0.3,0.9-0.6,1.3-1.1l0.3-0.5c0.1-0.1,0.2-0.2,0.4-0.3c0.2-0.1,0.3-0.1,0.5,0c0.3,0.1,0.6,0.4,0.5,0.8v0.6
			c-0.1,1.1,0.5,2.2,1.4,2.9l0.5,0.4c0.1,0.1,0.2,0.2,0.3,0.4c0.1,0.2,0.1,0.3,0,0.5c-0.1,0.2-0.2,0.3-0.3,0.4
			C1874.4,121.1,1874.2,121.2,1874.1,121.2L1874.1,121.2z"/>
		<path class="st29" d="M1894.3,168.8h-0.6c-0.6,0-1.1,0.1-1.6,0.4c-0.5,0.3-0.9,0.6-1.2,1.1l-0.3,0.5c-0.1,0.1-0.2,0.2-0.4,0.3
			c-0.4,0.2-0.8-0.1-1-0.5c0-0.1-0.1-0.2,0-0.3v-0.6c0-0.6-0.1-1.1-0.4-1.6c-0.3-0.5-0.6-0.9-1.1-1.2l-0.5-0.4
			c-0.1-0.1-0.2-0.2-0.3-0.4c-0.1-0.2-0.1-0.3,0-0.5c0-0.2,0.2-0.3,0.3-0.4c0.1-0.1,0.3-0.1,0.5-0.1h0.6c1.1,0,2.2-0.5,2.9-1.4
			l0.3-0.5c0.1-0.1,0.2-0.2,0.4-0.3c0.2-0.1,0.3-0.1,0.5,0c0.2,0.1,0.3,0.2,0.4,0.3c0.1,0.1,0.1,0.3,0.1,0.5v0.6
			c0,0.6,0.1,1.1,0.4,1.6c0.3,0.5,0.7,0.9,1.1,1.2l0.5,0.4c0.1,0.1,0.2,0.2,0.3,0.4c0.1,0.2,0.1,0.3,0,0.5c-0.1,0.2-0.2,0.3-0.3,0.4
			C1894.7,168.8,1894.5,168.8,1894.3,168.8L1894.3,168.8z"/>
		<path class="st29" d="M1951.1,126.6h-0.6c-0.6,0-1.1,0.1-1.6,0.4c-0.5,0.3-0.9,0.6-1.2,1.1l-0.3,0.5c-0.1,0.1-0.2,0.2-0.4,0.3
			c-0.2,0.1-0.3,0.1-0.5,0c-0.2-0.1-0.3-0.2-0.4-0.3c-0.1-0.1-0.1-0.3-0.1-0.5v-0.6c0-1.1-0.5-2.2-1.5-2.9l-0.5-0.3
			c-0.1-0.1-0.2-0.2-0.3-0.4c-0.1-0.2-0.1-0.3,0-0.5c0.1-0.2,0.2-0.3,0.3-0.4c0.1-0.1,0.3-0.1,0.5-0.1h0.6c0.6,0,1.1-0.1,1.6-0.4
			c0.5-0.3,0.9-0.6,1.3-1.1l0.3-0.5c0.1-0.1,0.2-0.2,0.4-0.3c0.2-0.1,0.3-0.1,0.5,0c0.3,0.1,0.6,0.4,0.5,0.8v0.6
			c-0.1,1.1,0.5,2.2,1.4,2.9l0.5,0.4c0.1,0.1,0.2,0.2,0.3,0.4c0.1,0.2,0.1,0.3,0,0.5c-0.1,0.2-0.2,0.3-0.3,0.4
			C1951.4,126.5,1951.3,126.6,1951.1,126.6L1951.1,126.6z"/>
		<path class="st29" d="M2026.1,217.1h-0.6c-0.6,0-1.1,0.1-1.6,0.4c-0.5,0.3-0.9,0.6-1.2,1.1l-0.3,0.5c-0.1,0.1-0.2,0.2-0.4,0.3
			c-0.4,0.2-0.8-0.1-1-0.5c0-0.1-0.1-0.2,0-0.3V218c0-0.6-0.1-1.1-0.4-1.6c-0.3-0.5-0.6-0.9-1.1-1.2l-0.5-0.4
			c-0.1-0.1-0.2-0.2-0.3-0.4c-0.1-0.2-0.1-0.3,0-0.5c0-0.2,0.2-0.3,0.3-0.4c0.1-0.1,0.3-0.1,0.5-0.1h0.6c1.1,0,2.2-0.5,2.9-1.4
			l0.3-0.5c0.1-0.1,0.2-0.2,0.4-0.3c0.2-0.1,0.3-0.1,0.5,0c0.2,0.1,0.3,0.2,0.4,0.3c0.1,0.1,0.1,0.3,0.1,0.5v0.6
			c0,0.6,0.1,1.1,0.4,1.6c0.3,0.5,0.7,0.9,1.1,1.2l0.5,0.4c0.1,0.1,0.2,0.2,0.3,0.4c0.1,0.2,0.1,0.3,0,0.5c-0.1,0.2-0.2,0.3-0.3,0.4
			C2026.5,217.1,2026.3,217.1,2026.1,217.1L2026.1,217.1z"/>
		<path class="st29" d="M2044.6,171.7l-0.7-0.1c-1.2,0-2.3,0.5-2.9,1.5l-0.3,0.5c-0.1,0.1-0.2,0.3-0.4,0.3c-0.2,0.1-0.3,0.1-0.5,0
			c-0.2-0.1-0.3-0.2-0.4-0.3c-0.1-0.1-0.2-0.3-0.2-0.5v-0.6c0-1.2-0.5-2.3-1.4-2.9l-0.5-0.4c-0.1-0.1-0.3-0.2-0.3-0.4
			c-0.1-0.2-0.1-0.3,0-0.5c0.1-0.3,0.4-0.6,0.8-0.6h0.6c1.2,0,2.3-0.5,2.9-1.5l0.4-0.5c0.1-0.1,0.2-0.3,0.4-0.3
			c0.2-0.1,0.3-0.1,0.5,0c0.2,0.1,0.3,0.2,0.4,0.3c0.1,0.1,0.2,0.3,0.2,0.5v0.6c0,0.6,0.1,1.1,0.3,1.7c0.3,0.5,0.6,1,1.1,1.3
			l0.5,0.4c0.1,0.1,0.3,0.2,0.3,0.4c0.1,0.2,0.1,0.3,0,0.5c0,0.2-0.2,0.3-0.3,0.4C2044.9,171.6,2044.7,171.7,2044.6,171.7
			L2044.6,171.7z"/>
		<path class="st29" d="M2084.3,231.5h-0.6c-0.6,0-1.1,0.1-1.7,0.4c-0.5,0.3-1,0.7-1.3,1.1l-0.3,0.5c-0.1,0.1-0.2,0.3-0.4,0.3
			c-0.2,0.1-0.3,0.1-0.5,0c-0.2-0.1-0.3-0.2-0.4-0.3c-0.1-0.1-0.2-0.3-0.2-0.5v-0.6c0-0.6-0.1-1.1-0.4-1.7c-0.3-0.5-0.6-1-1.1-1.3
			l-0.5-0.4c-0.1-0.1-0.2-0.2-0.3-0.4c-0.1-0.2-0.1-0.3,0-0.5c0.1-0.2,0.2-0.3,0.3-0.4c0.1-0.1,0.3-0.2,0.5-0.2h0.6
			c1.2,0,2.3-0.5,2.9-1.5l0.4-0.5c0.1-0.1,0.2-0.3,0.4-0.3c0.2-0.1,0.3-0.1,0.5,0c0.2,0.1,0.3,0.2,0.4,0.3c0.1,0.1,0.2,0.3,0.2,0.5
			v0.6c0,0.6,0.1,1.1,0.4,1.7c0.3,0.5,0.6,1,1.1,1.3l0.5,0.4c0.3,0.2,0.4,0.6,0.3,0.9c-0.1,0.2-0.2,0.3-0.3,0.4
			C2084.6,231.4,2084.4,231.5,2084.3,231.5L2084.3,231.5z"/>
		<path class="st29" d="M2125.7,219.9h-0.6c-0.6,0-1.1,0.1-1.7,0.4c-0.5,0.3-0.9,0.6-1.3,1.1l-0.4,0.5c-0.1,0.1-0.2,0.3-0.4,0.3
			c-0.2,0.1-0.3,0.1-0.5,0c-0.2-0.1-0.3-0.2-0.4-0.3c-0.1-0.1-0.2-0.3-0.2-0.5v-0.6c0-1.2-0.5-2.3-1.5-2.9l-0.5-0.3
			c-0.1-0.1-0.3-0.2-0.3-0.4c-0.1-0.2-0.1-0.3,0-0.5c0.1-0.2,0.2-0.3,0.3-0.4c0.1-0.1,0.3-0.2,0.5-0.1h0.6c0.6,0,1.1-0.1,1.7-0.4
			c0.5-0.3,1-0.7,1.3-1.1l0.3-0.5c0.1-0.1,0.2-0.3,0.4-0.3c0.2-0.1,0.3-0.1,0.5,0c0.3,0.1,0.6,0.4,0.6,0.8v0.6
			c-0.1,1.2,0.5,2.3,1.5,2.9l0.5,0.4c0.1,0.1,0.3,0.2,0.3,0.4c0.1,0.2,0.1,0.3,0,0.5c-0.1,0.2-0.2,0.3-0.3,0.4
			C2126,219.8,2125.9,219.9,2125.7,219.9L2125.7,219.9z"/>
		<path class="st29" d="M2199.2,277.1h-0.6c-0.6,0-1.1,0.1-1.7,0.4c-0.5,0.3-1,0.6-1.3,1.1l-0.3,0.5c-0.1,0.1-0.2,0.3-0.4,0.3
			c-0.4,0.2-0.9-0.1-1-0.5c0-0.1-0.1-0.2,0-0.3V278c0-0.6-0.1-1.1-0.4-1.7c-0.3-0.5-0.6-1-1.1-1.3l-0.5-0.4
			c-0.1-0.1-0.3-0.2-0.3-0.4c-0.1-0.2-0.1-0.3,0-0.5c0-0.2,0.2-0.3,0.3-0.4c0.1-0.1,0.3-0.2,0.5-0.1h0.6c1.2,0,2.3-0.5,2.9-1.5
			l0.3-0.5c0.1-0.1,0.2-0.3,0.4-0.3c0.2-0.1,0.3-0.1,0.5,0c0.2,0.1,0.3,0.2,0.4,0.3c0.1,0.1,0.2,0.3,0.1,0.5v0.6
			c0,0.6,0.1,1.1,0.4,1.7c0.3,0.5,0.7,1,1.2,1.3l0.5,0.4c0.1,0.1,0.3,0.2,0.3,0.4c0.1,0.2,0.1,0.3,0,0.5c-0.1,0.2-0.2,0.3-0.3,0.4
			C2199.6,277,2199.4,277.1,2199.2,277.1L2199.2,277.1z"/>
		<path class="st29" d="M1496.9,904.3l0.3-0.7c0.3-0.6,0.5-1.4,0.5-2.1c0-0.7-0.2-1.4-0.6-2.1l-0.4-0.7c-0.1-0.2-0.2-0.4-0.1-0.6
			c0-0.2,0.1-0.4,0.3-0.6c0.1-0.2,0.4-0.3,0.6-0.3c0.2,0,0.4,0,0.6,0.1l0.7,0.3c0.6,0.3,1.4,0.5,2.1,0.5c0.7,0,1.4-0.2,2.1-0.6
			l0.7-0.4c0.2-0.1,0.4-0.2,0.6-0.1c0.2,0,0.4,0.1,0.6,0.3c0.2,0.2,0.3,0.4,0.3,0.6c0,0.2,0,0.4-0.1,0.6l-0.3,0.7
			c-0.3,0.6-0.5,1.4-0.5,2.1c0,0.7,0.2,1.4,0.6,2.1l0.4,0.7c0.1,0.2,0.2,0.4,0.2,0.6c0,0.5-0.4,0.8-0.9,0.9c-0.2,0-0.4,0-0.6-0.1
			l-0.7-0.3c-1.3-0.7-2.9-0.6-4.1,0.1l-0.7,0.4c-0.2,0.1-0.4,0.2-0.6,0.1c-0.2,0-0.4-0.1-0.6-0.3c-0.2-0.2-0.3-0.4-0.3-0.6
			C1496.7,904.7,1496.8,904.5,1496.9,904.3z"/>
		<path class="st29" d="M1464.7,1085.4l0.3-0.7c0.3-0.6,0.5-1.4,0.5-2.1c0-0.7-0.2-1.4-0.6-2.1l-0.4-0.7c-0.1-0.2-0.2-0.4-0.1-0.6
			c0-0.2,0.1-0.4,0.3-0.6c0.2-0.2,0.4-0.3,0.6-0.3c0.2,0,0.4,0,0.6,0.1l0.7,0.3c0.6,0.3,1.4,0.5,2.1,0.5c0.7,0,1.4-0.2,2.1-0.6
			l0.7-0.4c0.2-0.1,0.4-0.2,0.6-0.1c0.2,0,0.4,0.1,0.6,0.3c0.3,0.3,0.4,0.8,0.2,1.2l-0.3,0.7c-0.3,0.6-0.5,1.4-0.5,2.1
			c0,0.7,0.2,1.4,0.6,2.1l0.4,0.7c0.1,0.2,0.2,0.4,0.1,0.6c0,0.2-0.1,0.4-0.3,0.6c-0.2,0.2-0.4,0.3-0.6,0.3c-0.2,0-0.4,0-0.6-0.1
			l-0.7-0.3c-0.6-0.3-1.4-0.5-2.1-0.5c-0.7,0-1.4,0.2-2.1,0.6l-0.7,0.4c-0.2,0.1-0.4,0.2-0.6,0.1c-0.5,0-0.8-0.4-0.9-0.8
			C1464.5,1085.8,1464.6,1085.6,1464.7,1085.4L1464.7,1085.4z"/>
		<path class="st29" d="M1420.7,1033.7l0.3-0.7c0.3-0.6,0.5-1.4,0.5-2.1c0-0.7-0.2-1.4-0.6-2.1l-0.4-0.7c-0.1-0.2-0.2-0.4-0.1-0.6
			c0-0.5,0.4-0.8,0.8-0.9c0.2,0,0.4,0,0.6,0.1l0.7,0.3c1.3,0.7,2.9,0.7,4.2-0.1l0.7-0.4c0.2-0.1,0.4-0.2,0.6-0.1
			c0.2,0,0.4,0.1,0.6,0.3c0.2,0.2,0.3,0.4,0.3,0.6c0,0.2,0,0.4-0.1,0.6l-0.3,0.7c-0.7,1.3-0.7,2.9,0.1,4.1l0.4,0.7
			c0.1,0.2,0.2,0.4,0.1,0.6c0,0.2-0.1,0.4-0.3,0.6c-0.3,0.3-0.8,0.4-1.2,0.2l-0.7-0.3c-1.3-0.7-2.9-0.6-4.2,0.1l-0.6,0.4
			c-0.2,0.1-0.4,0.2-0.6,0.1c-0.2,0-0.4-0.1-0.6-0.3c-0.2-0.1-0.3-0.3-0.3-0.6C1420.6,1034.2,1420.6,1033.9,1420.7,1033.7z"/>
		<path class="st29" d="M1563.3,734.8l0.3-0.7c0.3-0.6,0.5-1.4,0.5-2.1c0-0.7-0.2-1.4-0.6-2.1l-0.4-0.7c-0.1-0.2-0.2-0.4-0.1-0.6
			c0-0.2,0.1-0.4,0.3-0.6c0.1-0.2,0.4-0.3,0.6-0.3c0.2,0,0.4,0,0.6,0.1l0.7,0.3c0.6,0.3,1.4,0.5,2.1,0.5c0.7,0,1.4-0.2,2.1-0.6
			l0.7-0.4c0.2-0.1,0.4-0.2,0.6-0.1c0.2,0,0.4,0.1,0.6,0.3c0.2,0.2,0.3,0.4,0.3,0.6c0,0.2,0,0.4-0.1,0.6l-0.3,0.7
			c-0.3,0.6-0.5,1.4-0.5,2.1c0,0.7,0.2,1.4,0.6,2.1l0.4,0.7c0.1,0.2,0.2,0.4,0.2,0.6c0,0.5-0.4,0.8-0.9,0.9c-0.2,0-0.4,0-0.6-0.1
			l-0.7-0.3c-1.3-0.7-2.9-0.6-4.1,0.1l-0.7,0.4c-0.2,0.1-0.4,0.2-0.6,0.1c-0.2,0-0.4-0.1-0.6-0.3c-0.2-0.2-0.3-0.4-0.3-0.6
			C1563.2,735.2,1563.2,735,1563.3,734.8z"/>
		<path class="st29" d="M1923.6,1367.2h-0.8c-0.7,0-1.4,0.1-2.1,0.5c-0.7,0.3-1.2,0.8-1.6,1.4l-0.5,0.7c-0.2,0.4-0.7,0.6-1.2,0.4
			c-0.2-0.1-0.4-0.2-0.5-0.4c-0.1-0.2-0.2-0.4-0.2-0.6v-0.8c0-0.7-0.1-1.4-0.4-2.1c-0.3-0.7-0.8-1.2-1.4-1.6l-0.7-0.4
			c-0.2-0.1-0.3-0.3-0.4-0.5c-0.2-0.4,0-0.9,0.4-1.2c0.2-0.1,0.4-0.2,0.6-0.2h0.8c1.5,0.1,2.9-0.7,3.7-1.9l0.5-0.7
			c0.1-0.2,0.3-0.3,0.5-0.4c0.2-0.1,0.4-0.1,0.7,0c0.4,0.1,0.7,0.5,0.7,1v0.8c0,0.7,0.1,1.4,0.5,2.1c0.3,0.6,0.8,1.2,1.4,1.6
			l0.7,0.4c0.2,0.1,0.3,0.3,0.4,0.5c0.1,0.2,0.1,0.4,0,0.6c-0.1,0.2-0.2,0.4-0.4,0.5C1924.1,1367.2,1923.8,1367.2,1923.6,1367.2
			L1923.6,1367.2z"/>
		<path class="st29" d="M1950.7,1382.2h-0.8c-0.7,0-1.4,0.2-2.1,0.5c-0.6,0.3-1.2,0.8-1.6,1.4l-0.5,0.7c-0.1,0.2-0.3,0.3-0.5,0.4
			c-0.2,0.1-0.4,0.1-0.7,0c-0.2-0.1-0.4-0.2-0.5-0.4c-0.1-0.2-0.2-0.4-0.2-0.6v-0.8c0-1.5-0.7-2.9-1.9-3.7l-0.7-0.4
			c-0.2-0.1-0.3-0.3-0.4-0.5c-0.2-0.4,0-0.9,0.4-1.2c0.2-0.1,0.4-0.2,0.6-0.2h0.8c0.7,0,1.4-0.1,2.1-0.5c0.7-0.3,1.2-0.8,1.6-1.4
			l0.4-0.7c0.1-0.2,0.3-0.3,0.5-0.4c0.2-0.1,0.4-0.1,0.7,0c0.2,0.1,0.4,0.2,0.5,0.4c0.1,0.2,0.2,0.4,0.2,0.6v0.8
			c0,0.7,0.1,1.4,0.5,2.1c0.3,0.6,0.8,1.2,1.4,1.6l0.7,0.4c0.2,0.1,0.3,0.3,0.3,0.5c0.1,0.2,0.1,0.4,0,0.6c-0.1,0.2-0.2,0.4-0.4,0.5
			C1951.1,1382.2,1950.9,1382.2,1950.7,1382.2L1950.7,1382.2z"/>
		<path class="st29" d="M1811.6,1394.8h0.8c0.7,0,1.5-0.1,2.1-0.5c0.6-0.3,1.2-0.8,1.6-1.4l0.5-0.7c0.1-0.2,0.3-0.3,0.5-0.4
			c0.2-0.1,0.4-0.1,0.7,0c0.2,0.1,0.4,0.2,0.5,0.4c0.1,0.2,0.2,0.4,0.2,0.6v0.8c0,0.7,0.1,1.4,0.5,2.1c0.3,0.6,0.8,1.2,1.4,1.6
			l0.7,0.4c0.2,0.1,0.3,0.3,0.4,0.5c0.1,0.2,0.1,0.4,0,0.7c-0.1,0.2-0.2,0.4-0.4,0.5c-0.2,0.1-0.4,0.2-0.6,0.2h-0.8
			c-0.7,0-1.4,0.1-2.1,0.5c-0.6,0.3-1.2,0.8-1.6,1.4l-0.5,0.7c-0.1,0.2-0.3,0.3-0.5,0.4c-0.4,0.2-0.9,0-1.2-0.4
			c-0.1-0.2-0.2-0.4-0.2-0.6v-0.8c0.1-1.5-0.7-2.9-1.9-3.7l-0.7-0.4c-0.2-0.1-0.3-0.3-0.4-0.5c-0.1-0.2-0.1-0.4,0-0.6
			c0.1-0.2,0.2-0.4,0.4-0.5C1811.2,1394.9,1811.4,1394.8,1811.6,1394.8z"/>
		<path class="st29" d="M1788.7,1187.8h-0.8c-0.7,0-1.4,0.1-2.1,0.5c-0.6,0.3-1.2,0.8-1.6,1.4l-0.4,0.7c-0.1,0.2-0.3,0.3-0.5,0.4
			c-0.2,0.1-0.4,0.1-0.7,0c-0.2-0.1-0.4-0.2-0.5-0.4c-0.1-0.2-0.2-0.4-0.2-0.6v-0.8c0-1.5-0.7-2.9-1.9-3.7l-0.7-0.4
			c-0.2-0.1-0.3-0.3-0.4-0.5c-0.1-0.2-0.1-0.4,0-0.7c0.1-0.2,0.2-0.4,0.4-0.5c0.2-0.1,0.4-0.2,0.6-0.2h0.8c0.7,0,1.4-0.1,2.1-0.5
			c0.6-0.3,1.2-0.8,1.6-1.4l0.4-0.7c0.1-0.2,0.3-0.3,0.5-0.4c0.2-0.1,0.4-0.1,0.7,0c0.4,0.1,0.7,0.5,0.7,1v0.8
			c-0.1,1.5,0.6,2.9,1.9,3.7l0.7,0.5c0.2,0.1,0.3,0.3,0.4,0.5c0.1,0.2,0.1,0.4,0,0.7c-0.1,0.2-0.2,0.4-0.4,0.5
			C1789.1,1187.8,1788.9,1187.8,1788.7,1187.8L1788.7,1187.8z"/>
		<path class="st29" d="M1876,1222.6h-0.8c-0.7,0-1.4,0.1-2.1,0.5c-0.6,0.3-1.2,0.8-1.6,1.4l-0.4,0.7c-0.1,0.2-0.3,0.3-0.5,0.4
			c-0.5,0.2-1.1-0.1-1.3-0.6c0-0.1-0.1-0.3-0.1-0.4v-0.8c0-0.7-0.1-1.5-0.5-2.1c-0.3-0.6-0.8-1.2-1.4-1.6l-0.7-0.5
			c-0.2-0.1-0.3-0.3-0.4-0.5c-0.1-0.2-0.1-0.4,0-0.7c0.1-0.2,0.2-0.4,0.4-0.5c0.2-0.1,0.4-0.2,0.6-0.2h0.8c1.5,0,2.9-0.7,3.7-1.9
			l0.4-0.7c0.1-0.2,0.3-0.3,0.5-0.4c0.2-0.1,0.4-0.1,0.7,0c0.2,0.1,0.4,0.2,0.5,0.4c0.1,0.2,0.2,0.4,0.2,0.6v0.8
			c0,0.7,0.1,1.4,0.5,2.1c0.3,0.7,0.8,1.2,1.5,1.6l0.7,0.5c0.2,0.1,0.3,0.3,0.4,0.5c0.1,0.2,0.1,0.4,0,0.7c-0.1,0.2-0.2,0.4-0.4,0.5
			C1876.5,1222.6,1876.3,1222.6,1876,1222.6L1876,1222.6z"/>
	</g>
</g>
<g class="st1">
	<path class="st88" d="M2099.9,1620.2c46-46,46-120.7,0-166.7s-120.7-46-166.7,0c-46,46-46,120.7,0,166.7
		C1979.2,1666.2,2053.8,1666.2,2099.9,1620.2z"/>
	<path class="st89" d="M2098.2,1618.5c45.1-45.1,45.1-118.3,0-163.4c-45.1-45.1-118.3-45.1-163.4,0c-45.1,45.1-45.1,118.3,0,163.4
		C1979.9,1663.6,2053.1,1663.6,2098.2,1618.5z"/>
	<path class="st90" d="M2096.5,1616.8c44.2-44.2,44.2-115.9,0-160.1c-44.2-44.2-115.9-44.2-160.1,0c-44.2,44.2-44.2,115.9,0,160.1
		C1980.7,1661,2052.3,1661,2096.5,1616.8z"/>
	<path class="st91" d="M2094.9,1615.2c43.3-43.3,43.3-113.5,0-156.8c-43.3-43.3-113.5-43.3-156.8,0s-43.3,113.5,0,156.8
		C1981.4,1658.5,2051.6,1658.5,2094.9,1615.2z"/>
	<path class="st92" d="M2093.2,1613.5c42.4-42.4,42.4-111,0-153.4c-42.4-42.4-111.1-42.4-153.4,0c-42.4,42.4-42.4,111.1,0,153.4
		C1982.1,1655.9,2050.8,1655.9,2093.2,1613.5z"/>
	<path class="st93" d="M2091.5,1611.8c41.4-41.4,41.4-108.6,0-150.1c-41.4-41.4-108.6-41.4-150.1,0c-41.4,41.4-41.4,108.6,0,150.1
		C1982.9,1653.3,2050.1,1653.3,2091.5,1611.8z"/>
	<path class="st94" d="M2089.9,1610.2c40.5-40.5,40.5-106.2,0-146.8c-40.5-40.5-106.2-40.5-146.8,0c-40.5,40.5-40.5,106.2,0,146.8
		C1983.6,1650.7,2049.3,1650.7,2089.9,1610.2z"/>
	<path class="st95" d="M2088.2,1608.5c39.6-39.6,39.6-103.8,0-143.4c-39.6-39.6-103.8-39.6-143.4,0c-39.6,39.6-39.6,103.8,0,143.4
		C1984.4,1648.1,2048.6,1648.1,2088.2,1608.5z"/>
	<path class="st96" d="M2086.5,1606.8c38.7-38.7,38.7-101.4,0-140.1c-38.7-38.7-101.4-38.7-140.1,0s-38.7,101.4,0,140.1
		C1985.1,1645.5,2047.8,1645.5,2086.5,1606.8z"/>
	<path class="st97" d="M2084.9,1605.2c37.8-37.8,37.8-99,0-136.7c-37.8-37.8-99-37.8-136.7,0c-37.8,37.8-37.8,99,0,136.7
		C1985.9,1642.9,2047.1,1642.9,2084.9,1605.2z"/>
	<path class="st98" d="M2083.2,1603.5c36.8-36.8,36.8-96.6,0-133.4c-36.8-36.8-96.6-36.8-133.4,0c-36.8,36.8-36.8,96.6,0,133.4
		C1986.6,1640.3,2046.4,1640.3,2083.2,1603.5z"/>
	<path class="st99" d="M2020.9,1628.6c50.7-2.4,89.9-45.6,87.4-96.3c-2.4-50.7-45.6-89.9-96.3-87.4c-50.7,2.4-89.9,45.6-87.4,96.3
		C1927,1591.9,1970.1,1631.1,2020.9,1628.6z"/>
	<path class="st100" d="M2019.5,1624c48.2-1.7,85.9-42.1,84.2-90.2c-1.7-48.2-42.1-85.9-90.2-84.2c-48.2,1.7-85.9,42.1-84.2,90.2
		C1930.9,1588,1971.3,1625.7,2019.5,1624z"/>
	<path class="st101" d="M2018.8,1621.7c46.9-1.3,83.8-40.4,82.5-87.2c-1.3-46.9-40.4-83.8-87.2-82.5c-46.9,1.3-83.8,40.4-82.5,87.2
		C1932.9,1586,1972,1623,2018.8,1621.7z"/>
	<path class="st102" d="M2018.2,1619.4c45.6-1,81.8-38.7,80.8-84.3c-1-45.6-38.7-81.8-84.3-80.8c-45.6,1-81.8,38.7-80.8,84.3
		C1934.9,1584.1,1972.6,1620.3,2018.2,1619.4z"/>
	<path class="st103" d="M2017.6,1617c44.3-0.6,79.7-37,79.1-81.3c-0.6-44.3-37-79.7-81.3-79.1c-44.3,0.6-79.7,37-79.1,81.3
		C1936.9,1582.2,1973.3,1617.6,2017.6,1617z"/>
	<path class="st104" d="M2017.1,1614.6c43-0.3,77.6-35.4,77.3-78.4c-0.3-43-35.4-77.6-78.4-77.3c-43,0.3-77.6,35.4-77.3,78.4
		C1939,1580.3,1974.1,1615,2017.1,1614.6z"/>
	<path class="st105" d="M2016.5,1612.3c41.7,0,75.5-33.8,75.5-75.5s-33.8-75.5-75.5-75.5c-41.7,0-75.5,33.8-75.5,75.5
		S1974.8,1612.3,2016.5,1612.3z"/>
	<path class="st106" d="M2089.6,1537.3c0.3-40.4-32.2-73.4-72.6-73.6c-40.4-0.3-73.4,32.2-73.6,72.6c-0.3,40.4,32.2,73.4,72.6,73.6
		C2056.4,1610.2,2089.4,1577.7,2089.6,1537.3z"/>
	<path class="st107" d="M2087.3,1537.8c0.5-39.1-30.7-71.2-69.8-71.7c-39.1-0.5-71.2,30.7-71.7,69.8c-0.5,39.1,30.7,71.2,69.8,71.7
		S2086.7,1576.8,2087.3,1537.8z"/>
</g>
<path class="st108" d="M2086.8,1544.8c4.4-38.8-23.5-73.9-62.3-78.3c-38.8-4.4-73.9,23.5-78.3,62.3c-4.4,38.8,23.5,73.9,62.3,78.3
	C2047.3,1611.5,2082.4,1583.6,2086.8,1544.8z"/>
<path class="st109" d="M1976.2,1527.8c2.4,1.3,5.4,1.2,7.8-0.5c1.8-1.3,3-3.3,3.1-5.9l0.2-7.6c0.2-6,6.9-9.4,11.9-6
	c4.8,3.3,11.3,0.2,11.8-5.6l0.4-5c0.6-6.6,8.8-9.3,13.2-4.4l10.5,11.7c0.1,0.1,0.2,0.2,0.3,0.3c4,4.1,10.5,1.5,11.7-3.4
	c1.5-6.4,3.6-12.5,5.7-18.7l1.9-5.3c-30.7-19.8-71.8-13-94.4,16.5c-5.2,6.8-9,14.2-11.4,21.9l5.1,1.9
	C1961.6,1520.5,1968.9,1524.1,1976.2,1527.8z"/>
<path class="st109" d="M2068.7,1516.2c-4.3,0.4-7,4.9-5.3,8.8l0.8,1.9c2.5,5.8-4,11.3-9.3,7.8l-4.6-3c-5.2-3.4-11.6,1.9-9.4,7.6
	l5.4,14.1c2.4,6.3-5.4,11.6-10.3,6.8c-4-3.9-10.7-1.1-10.7,4.5l0,2.5c-0.1,6.6-8.9,8.7-12,2.8l-11-21.1c-2.6-5-9.9-4.4-11.7,1
	l-4.4,13.4c-1.9,5.9-10.4,5.8-12.1-0.2l-3.8-12.9c0,0,0,0,0-0.1c-0.9-2.9-4.4-4.2-7-2.5l-14.7,9.3c4.1,13.8,12.4,26.4,24.7,35.9
	c31,23.8,75.4,17.9,99.2-13.1c14.7-19.2,18.1-43.6,11.1-65L2068.7,1516.2z"/>
<path class="st110" d="M2027.4,1529.3l-3.1-5.7c-3.1-5.7-10.8-7-15.6-2.6c-2.7,2.5-3.9,6.2-3,9.8l1.6,6.5c1.5,6.3,8.5,9.5,14.2,6.7
	c0.5-0.3,1-0.5,1.6-0.8C2028.1,1540.6,2030.1,1534.3,2027.4,1529.3z"/>
<path class="st111" d="M1961.3,1492.5c-0.3,0.4-0.6,0.8-0.9,1.2c-23.8,31-17.9,75.4,13.1,99.2c7.7,5.9,16.3,10,25.2,12.3
	C2006.2,1547.8,1982.3,1512.1,1961.3,1492.5z"/>
<path class="st112" d="M1998.1,1468.5l21.7,11.7c19.1,10.3,28.7,32.4,23.3,53.4c-4.3,16.5,0.7,34,12.9,45.8l9.1,8.8
	c2.7-2.6,5.2-5.4,7.6-8.4c23.8-31,17.9-75.4-13.1-99.2C2041.4,1466.7,2018.6,1462.9,1998.1,1468.5z"/>
<path class="st111" d="M1965.1,1546.9c-7.6-12.8-10.3-27.9-7.5-42.5l1.8-9.5c-22.5,30.5-16.9,73.3,12.6,97
	C1975.7,1576.6,1973.2,1560.4,1965.1,1546.9z"/>
<path class="st112" d="M2066.9,1487.1c-2.4,26.9-2.4,63.7,11.2,84.5C2093.6,1544.1,2089,1509.5,2066.9,1487.1z"/>
</svg>
