<svg id="Layer_1" data-name="Layer 1" xmlns="http://www.w3.org/2000/svg" xmlns:xlink="http://www.w3.org/1999/xlink" viewBox="0 0 864 783.03"><defs><style>.cls-1{fill:url(#Gradiente_sem_nome_12);}.cls-2{fill:url(#Gradiente_sem_nome_16);}.cls-3{fill:url(#Gradiente_sem_nome_16-2);}.cls-4{fill:url(#Gradiente_sem_nome_19);}.cls-5{fill:url(#Gradiente_sem_nome_18);}.cls-18,.cls-20,.cls-22,.cls-23,.cls-24,.cls-6{isolation:isolate;}.cls-6{opacity:0.22;}.cls-7{fill:url(#Gradiente_sem_nome_15);}.cls-8{fill:url(#Gradiente_sem_nome_14);}.cls-9{fill:url(#Gradiente_sem_nome_13);}.cls-10{fill:url(#Gradiente_sem_nome_8);}.cls-11{fill:url(#Gradiente_sem_nome_10);}.cls-12{fill:url(#Gradiente_sem_nome_8-2);}.cls-13{fill:#77d2f4;}.cls-14{fill:url(#Gradiente_sem_nome_9);}.cls-15{fill:url(#Gradiente_sem_nome_11);}.cls-16{fill:url(#Gradiente_sem_nome_11-2);}.cls-17{mask:url(#mask);}.cls-18{opacity:0.55;fill:url(#Gradiente_sem_nome_17);}.cls-19{mask:url(#mask-2);}.cls-20,.cls-22{opacity:0.66;}.cls-20{fill:url(#Gradiente_sem_nome_17-2);}.cls-21{mask:url(#mask-3);}.cls-22{fill:url(#Gradiente_sem_nome_17-3);}.cls-23{opacity:0.03;}.cls-24{fill:#fff;opacity:0.25;}</style><linearGradient id="Gradiente_sem_nome_12" x1="982.57" y1="-13138.01" x2="985.13" y2="-13164.82" gradientTransform="matrix(1, 0, 0, -1, -267.64, -13027.73)" gradientUnits="userSpaceOnUse"><stop offset="0.02" stop-color="#fff"/><stop offset="0.12" stop-color="#ccc"/><stop offset="0.25" stop-color="#969696"/><stop offset="0.38" stop-color="#686868"/><stop offset="0.51" stop-color="#434343"/><stop offset="0.63" stop-color="#252525"/><stop offset="0.76" stop-color="#111"/><stop offset="0.88" stop-color="#040404"/><stop offset="1"/></linearGradient><linearGradient id="Gradiente_sem_nome_16" x1="985.5" y1="-13141.05" x2="987.83" y2="-13151.1" gradientTransform="matrix(1, 0, 0, -1, -267.64, -13027.73)" gradientUnits="userSpaceOnUse"><stop offset="0.02" stop-color="#fff"/><stop offset="0.17" stop-color="#cbcbcb"/><stop offset="0.4" stop-color="#848484"/><stop offset="0.6" stop-color="#4b4b4b"/><stop offset="0.78" stop-color="#222"/><stop offset="0.92" stop-color="#090909"/><stop offset="1"/></linearGradient><linearGradient id="Gradiente_sem_nome_16-2" x1="974.31" y1="-13145.64" x2="976.52" y2="-13151.67" xlink:href="#Gradiente_sem_nome_16"/><linearGradient id="Gradiente_sem_nome_19" x1="916.53" y1="-13306.98" x2="839.94" y2="-13439.48" gradientTransform="matrix(1, 0, 0, -1, -267.64, -13027.73)" gradientUnits="userSpaceOnUse"><stop offset="0" stop-color="#1385d3"/><stop offset="0.25" stop-color="#3c9ddd"/><stop offset="0.79" stop-color="#a4daf6"/><stop offset="0.98" stop-color="#c9f0ff"/></linearGradient><linearGradient id="Gradiente_sem_nome_18" x1="912.65" y1="-13313.04" x2="876.22" y2="-13376.07" gradientTransform="matrix(1, 0, 0, -1, -267.64, -13027.73)" gradientUnits="userSpaceOnUse"><stop offset="0" stop-color="#004b93"/><stop offset="0.48" stop-color="#0e74af"/><stop offset="0.98" stop-color="#1fa3ce"/></linearGradient><linearGradient id="Gradiente_sem_nome_15" x1="842.15" y1="-13234.03" x2="894.24" y2="-13242.46" gradientTransform="matrix(1, 0, 0, -1, -267.64, -13027.73)" gradientUnits="userSpaceOnUse"><stop offset="0.02" stop-color="#ff337e"/><stop offset="0.15" stop-color="#f32e7e"/><stop offset="0.39" stop-color="#d4217d"/><stop offset="0.7" stop-color="#a30d7b"/><stop offset="0.88" stop-color="#84007a"/></linearGradient><linearGradient id="Gradiente_sem_nome_14" x1="1010.48" y1="-13327.12" x2="975.06" y2="-13290.49" gradientTransform="matrix(1, 0, 0, -1, -267.64, -13027.73)" gradientUnits="userSpaceOnUse"><stop offset="0.02" stop-color="#ff337e"/><stop offset="0.05" stop-color="#fa317e"/><stop offset="0.43" stop-color="#ba177c"/><stop offset="0.71" stop-color="#93067a"/><stop offset="0.86" stop-color="#84007a"/></linearGradient><linearGradient id="Gradiente_sem_nome_13" x1="904.89" y1="-13170.68" x2="1030.56" y2="-13234.96" gradientTransform="matrix(1, 0, 0, -1, -267.64, -13027.73)" gradientUnits="userSpaceOnUse"><stop offset="0.02" stop-color="#fff"/><stop offset="0.3" stop-color="#ededed"/><stop offset="1" stop-color="#c4c4c4"/></linearGradient><linearGradient id="Gradiente_sem_nome_8" x1="956.12" y1="-13226.54" x2="905.32" y2="-13314.43" gradientTransform="matrix(1, 0, 0, -1, -267.64, -13027.73)" gradientUnits="userSpaceOnUse"><stop offset="0.02" stop-color="#ff337e"/><stop offset="0.61" stop-color="#b6157c"/><stop offset="1" stop-color="#84007a"/></linearGradient><linearGradient id="Gradiente_sem_nome_10" x1="952.95" y1="-13149.7" x2="1018.1" y2="-13183.03" gradientTransform="matrix(1, 0, 0, -1, -267.64, -13027.73)" gradientUnits="userSpaceOnUse"><stop offset="0" stop-color="#b2b2b2"/><stop offset="0.54" stop-color="#dbdbdb"/><stop offset="0.98" stop-color="#fff"/></linearGradient><linearGradient id="Gradiente_sem_nome_8-2" x1="998.27" y1="-13056.41" x2="1068.57" y2="-13092.37" xlink:href="#Gradiente_sem_nome_8"/><linearGradient id="Gradiente_sem_nome_9" x1="959.24" y1="-13152.9" x2="1011.82" y2="-13179.79" gradientTransform="matrix(1, 0, 0, -1, -267.64, -13027.73)" gradientUnits="userSpaceOnUse"><stop offset="0.02" stop-color="#93ebff"/><stop offset="0.54" stop-color="#5fbdec"/><stop offset="1" stop-color="#3699dd"/></linearGradient><linearGradient id="Gradiente_sem_nome_11" x1="955.42" y1="-13160.37" x2="1007.98" y2="-13187.26" gradientTransform="matrix(1, 0, 0, -1, -267.64, -13027.73)" gradientUnits="userSpaceOnUse"><stop offset="0.02" stop-color="#c6f3ff"/><stop offset="0.46" stop-color="#a2dcfa"/><stop offset="1" stop-color="#79c2f4"/></linearGradient><linearGradient id="Gradiente_sem_nome_11-2" x1="961.38" y1="-13148.29" x2="1015.03" y2="-13175.74" xlink:href="#Gradiente_sem_nome_11"/><mask id="mask" x="690.3" y="109.85" width="54.69" height="32.78" maskUnits="userSpaceOnUse"><g id="mask0_553_64170" data-name="mask0 553 64170"><path class="cls-1" d="M716.85,124.49c10.52-.68,20,5.07,25.1,14a1.63,1.63,0,0,0,3-1,31.3,31.3,0,0,0-1.09-6.93c-2.84-10.61-11.24-18.56-21.49-20.35-18.08-3.12-33.1,12.18-32.06,30.4,0,.11,0,.21,0,.34a1.62,1.62,0,0,0,3.13.61C697.57,132.08,706.33,125.17,716.85,124.49Z"/></g></mask><linearGradient id="Gradiente_sem_nome_17" x1="982.57" y1="-13138.01" x2="985.13" y2="-13164.82" gradientTransform="matrix(1, 0, 0, -1, -267.64, -13027.73)" gradientUnits="userSpaceOnUse"><stop offset="0.02" stop-color="#fff"/><stop offset="1" stop-color="#fff"/></linearGradient><mask id="mask-2" x="711.73" y="113.04" width="13.67" height="6.55" maskUnits="userSpaceOnUse"><g id="mask1_553_64170" data-name="mask1 553 64170"><path class="cls-2" d="M725.38,115.15c.24,1.68-2.6,3.57-6.35,4.22s-7-.18-7.29-1.86,2.59-3.57,6.35-4.23S725.1,113.44,725.38,115.15Z"/></g></mask><linearGradient id="Gradiente_sem_nome_17-2" x1="985.5" y1="-13141.05" x2="987.83" y2="-13151.1" xlink:href="#Gradiente_sem_nome_17"/><mask id="mask-3" x="703.98" y="117.07" width="6.29" height="4.14" maskUnits="userSpaceOnUse"><g id="mask2_553_64170" data-name="mask2 553 64170"><path class="cls-3" d="M710.24,118.24c.24,1-.94,2.26-2.65,2.76s-3.33,0-3.58-1,.94-2.26,2.64-2.76S710,117.22,710.24,118.24Z"/></g></mask><linearGradient id="Gradiente_sem_nome_17-3" x1="974.31" y1="-13145.64" x2="976.52" y2="-13151.67" xlink:href="#Gradiente_sem_nome_17"/></defs><path class="cls-4" d="M667.43,295.94c-1.4-4.17-20.82-13-22.3-13.63l0-.1s-18.75-13.6-23-12.55c-38.14,9.53-36.8,55.08-36.9,72.46A340.56,340.56,0,0,1,576,417.24l-.28.55a2.45,2.45,0,0,0,.2-.24,1.22,1.22,0,0,1,0,.19l.15-.29a308.19,308.19,0,0,1,54.24-49.12C643.94,358.71,680.65,335.14,667.43,295.94Z"/><path class="cls-5" d="M643.4,285.57c-12.94-7.48-29.22-.89-34,13.94A61.15,61.15,0,0,0,607,310c-2,15.38,1,29.77,2.65,36.15a3.31,3.31,0,0,0,4.25,2.44c5.92-2,18.89-7.19,30-17.3a55.29,55.29,0,0,0,7-7.9C660,311.14,656.34,293.05,643.4,285.57Z"/><path class="cls-6" d="M667.43,295.94c-1.4-4.17-20.82-13-22.3-13.63l0-.1s-18.75-13.6-23-12.55A43.28,43.28,0,0,0,605,278.14a193.64,193.64,0,0,0,30.18,21.53,189.56,189.56,0,0,0,35,15.75A50.35,50.35,0,0,0,667.43,295.94Z"/><path class="cls-7" d="M648.12,174.74c.84-2.78-2.23-6-5.36-5.54l-12,1.63c-8.74,1.18-19,5.91-27.76,12-.79.55-1.63,1.18-2.5,1.86-18.35,14.41-27.54,36.86-25.76,61.65l.32,4.44c0,.15.05.31.08.47.76,4.07,6.22,5.59,8.84,3,4.69-4.72,20.16-18.48,39.15-20.34,14.65-1.45,32.06-2.44,32.06-2.44,1.8-.24.39-14.52.2-16.31C653.26,197.11,639.67,202.5,648.12,174.74Z"/><path class="cls-8" d="M728,221c1.73-2.25,5.93-1.26,7.29,1.79l5.26,11.6c3.83,8.46,5.68,20.22,5.61,31.3,0,1-.05,2.1-.13,3.23-1.4,24.21-14.12,44.61-34.67,56.5l-3.68,2.13-.42.21c-3.64,1.55-7.81-2.52-7.17-6.28,1.16-6.74,3.63-28-5.21-46-6.81-13.84-15.51-29.93-15.51-29.93-.79-1.76,11.24-8.27,12.77-9.06C707.59,228.52,710.73,243.56,728,221Z"/><path class="cls-9" d="M771.46,188.66c15.76-36.63,18.43-73.64,18.48-103a106.45,106.45,0,0,1-37-13.18A112.33,112.33,0,0,1,721.7,45.68c-23.27,16-51.23,38.59-71.68,72.75A227.24,227.24,0,0,0,619.2,263.78a16.53,16.53,0,0,0,7.95,12.31l16.13,9.32,16.13,9.32a14.67,14.67,0,0,0,14.05.42C691.81,285.94,741.9,257.4,771.46,188.66Z"/><path class="cls-10" d="M691.29,219.25c3.85-6.46,1.76-15.05-4.57-18.72s-14.25-.87-17.26,6.09l-29.52,83a1.15,1.15,0,0,0,.5,1.39,1,1,0,0,0,1.35-.32Z"/><path class="cls-11" d="M749.33,156.81c-9.53,18.62-31.44,25.52-49,15.39s-24-33.42-14.48-52,31.44-25.52,49-15.38S758.84,138.17,749.33,156.81Z"/><path class="cls-12" d="M789.84,85.61a277.7,277.7,0,0,0-5.75-57.24c-1.46-6.9-8.3-10.87-14.58-8.42a241.11,241.11,0,0,0-47.94,25.73,113.24,113.24,0,0,0,31.25,26.78A108.28,108.28,0,0,0,789.84,85.61Z"/><path class="cls-13" d="M743.21,153.27c-7.68,15-25.37,20.58-39.52,12.42s-19.36-27-11.68-42,25.36-20.58,39.52-12.42S750.89,138.25,743.21,153.27Z"/><path class="cls-14" d="M743.21,153.27c-7.68,15-25.37,20.58-39.52,12.42s-19.36-27-11.68-42,25.36-20.59,39.52-12.42S750.89,138.25,743.21,153.27Z"/><path class="cls-15" d="M692,123.68c-.4.76-.72,1.52-1,2.28l23.61,43.32a27.35,27.35,0,0,0,8.33-.34l-24.48-53.77A30.41,30.41,0,0,0,692,123.68Z"/><path class="cls-16" d="M743.11,153.48c-5-13-13.66-32.79-18.89-45.21a27.82,27.82,0,0,0-13.79.18l19,58.29C736.69,163.64,741.45,156.92,743.11,153.48Z"/><g class="cls-17"><path class="cls-18" d="M716.85,124.49c10.52-.68,20,5.07,25.1,14a1.63,1.63,0,0,0,3-1,31.3,31.3,0,0,0-1.09-6.93c-2.84-10.61-11.24-18.56-21.49-20.35-18.08-3.12-33.1,12.18-32.06,30.4,0,.11,0,.21,0,.34a1.62,1.62,0,0,0,3.13.61C697.57,132.08,706.33,125.17,716.85,124.49Z"/></g><g class="cls-19"><path class="cls-20" d="M725.38,115.15c.24,1.68-2.6,3.57-6.35,4.22s-7-.18-7.29-1.86,2.59-3.57,6.35-4.23S725.1,113.44,725.38,115.15Z"/></g><g class="cls-21"><path class="cls-22" d="M710.24,118.24c.24,1-.94,2.26-2.65,2.76s-3.33,0-3.58-1,.94-2.26,2.64-2.76S710,117.22,710.24,118.24Z"/></g><path class="cls-23" d="M746.27,132.92a32.82,32.82,0,0,1-3,8.8c-7.68,15-25.36,20.58-39.52,12.42A30.86,30.86,0,0,1,689,132.47c-2.39,12.95,3.21,26.58,14.67,33.19,14.13,8.17,31.84,2.63,39.52-12.42A32.64,32.64,0,0,0,746.27,132.92Z"/><path class="cls-24" d="M568.49,349.13A1201.57,1201.57,0,0,1,458,499.34,1168.46,1168.46,0,0,1,335.7,621.4c.64,0,1.26-.08,1.9-.08,21.56,0,41.67,11.84,53.87,30.4a49.84,49.84,0,0,1,31.91-11.94A43.54,43.54,0,0,1,442.25,644c11.61,5.52,20.48,16.12,25.12,29.07a1135.4,1135.4,0,0,0,78.94-110.33,1163.67,1163.67,0,0,0,90.32-175.22,11.52,11.52,0,0,0,.22-2.23c0-3.39-1.4-11.43-28.62-26.26-14-7.59-32.73-17.8-38.8-11.16A5.55,5.55,0,0,0,568.49,349.13Z"/><path class="cls-24" d="M66.11,780c3.58-24.5,19.34-44.42,40.31-50.93,23.41-7.28,43,5.4,46.24,7.56-3.14-19.62,4.17-39.52,19-51.67a48.3,48.3,0,0,1,52.17-6.31c.49-1.33,7.43-19.37,24.8-23.18,14.67-3.2,30.43,5.07,38,20.66,6.28-23.28,25.39-40,47.43-41.58,24.15-1.79,47,14.86,54.53,40.33,10.55-19.28,32.11-26.76,48.61-18.91,12.67,6,21,20.43,21.34,36.55,14.23-8.85,31.46-7.67,42.68,2.52,11.68,10.61,11.85,26.46,11.85,29,2.94-2,21.32-14.38,41.5-7.56,21.61,7.33,36.63,33.72,33.19,63.54Z"/></svg>