<?xml version="1.0" encoding="utf-8"?>
<!-- Generator: Adobe Illustrator 25.2.1, SVG Export Plug-In . SVG Version: 6.00 Build 0)  -->
<svg version="1.2" baseProfile="tiny" id="Camada_1"
	 xmlns="http://www.w3.org/2000/svg" xmlns:xlink="http://www.w3.org/1999/xlink" x="0px" y="0px" viewBox="0 0 900 192.41"
	 overflow="visible" xml:space="preserve">
<g>
	<linearGradient id="SVGID_1_" gradientUnits="userSpaceOnUse" x1="0" y1="96.2039" x2="900" y2="96.2039">
		<stop  offset="0.2893" style="stop-color:#422773"/>
		<stop  offset="0.3571" style="stop-color:#40286F"/>
		<stop  offset="0.4722" style="stop-color:#3C2964"/>
		<stop  offset="0.6202" style="stop-color:#332752"/>
		<stop  offset="0.7956" style="stop-color:#262137"/>
		<stop  offset="0.9921" style="stop-color:#0B0C0F"/>
		<stop  offset="0.9981" style="stop-color:#0A0B0E"/>
	</linearGradient>
	<path fill="url(#SVGID_1_)" d="M880,192.41H20c-11.05,0-20-8.95-20-20V20C0,8.95,8.95,0,20,0h860c11.05,0,20,8.95,20,20v152.41
		C900,183.45,891.05,192.41,880,192.41z"/>
	<path fill="#857D9E" d="M41.35,76.9l0.13,0.45c0.24,0.84,0.9,1.5,1.75,1.75l0.45,0.13c0.59,0.17,0.59,1,0,1.17l-0.45,0.13
		c-0.84,0.24-1.5,0.9-1.75,1.75l-0.13,0.45c-0.17,0.59-1,0.59-1.17,0l-0.13-0.45c-0.24-0.84-0.9-1.5-1.75-1.75l-0.45-0.13
		c-0.59-0.17-0.59-1,0-1.17l0.45-0.13c0.84-0.24,1.5-0.9,1.75-1.75l0.13-0.45C40.35,76.31,41.18,76.31,41.35,76.9z"/>
	<path fill="#857D9E" d="M83.41,54.12l0.13,0.45c0.24,0.84,0.9,1.5,1.75,1.75l0.45,0.13c0.59,0.17,0.59,1,0,1.17l-0.45,0.13
		c-0.84,0.24-1.5,0.9-1.75,1.75l-0.13,0.45c-0.17,0.59-1,0.59-1.17,0l-0.13-0.45c-0.24-0.84-0.9-1.5-1.75-1.75l-0.45-0.13
		c-0.59-0.17-0.59-1,0-1.17l0.45-0.13c0.84-0.24,1.5-0.9,1.75-1.75l0.13-0.45C82.41,53.54,83.24,53.54,83.41,54.12z"/>
	<path fill="#857D9E" d="M152.2,38.59l0.09,0.32c0.17,0.6,0.64,1.06,1.24,1.24l0.32,0.09c0.41,0.12,0.41,0.71,0,0.83l-0.32,0.09
		c-0.6,0.17-1.06,0.64-1.24,1.24l-0.09,0.32c-0.12,0.41-0.71,0.41-0.83,0l-0.09-0.32c-0.17-0.6-0.64-1.06-1.24-1.24l-0.32-0.09
		c-0.41-0.12-0.41-0.71,0-0.83l0.32-0.09c0.6-0.17,1.06-0.64,1.24-1.24l0.09-0.32C151.49,38.17,152.08,38.17,152.2,38.59z"/>
	<path fill="#857D9E" d="M223.69,112.83l0.09,0.32c0.17,0.6,0.64,1.06,1.24,1.24l0.32,0.09c0.41,0.12,0.41,0.71,0,0.83l-0.32,0.09
		c-0.6,0.17-1.06,0.64-1.24,1.24l-0.09,0.32c-0.12,0.41-0.71,0.41-0.83,0l-0.09-0.32c-0.17-0.6-0.64-1.06-1.24-1.24l-0.32-0.09
		c-0.41-0.12-0.41-0.71,0-0.83l0.32-0.09c0.6-0.17,1.06-0.64,1.24-1.24l0.09-0.32C222.98,112.42,223.56,112.42,223.69,112.83z"/>
	<path fill="#857D9E" d="M322.4,40.92l0.09,0.32c0.17,0.6,0.64,1.06,1.24,1.24l0.32,0.09c0.41,0.12,0.41,0.71,0,0.83l-0.32,0.09
		c-0.6,0.17-1.06,0.64-1.24,1.24l-0.09,0.32c-0.12,0.41-0.71,0.41-0.83,0l-0.09-0.32c-0.17-0.6-0.64-1.06-1.24-1.24l-0.32-0.09
		c-0.41-0.12-0.41-0.71,0-0.83l0.32-0.09c0.6-0.17,1.06-0.64,1.24-1.24l0.09-0.32C321.69,40.5,322.28,40.5,322.4,40.92z"/>
	<path fill="#857D9E" d="M436.14,62.99l0.09,0.32c0.17,0.6,0.64,1.06,1.24,1.24l0.32,0.09c0.41,0.12,0.41,0.71,0,0.83l-0.32,0.09
		c-0.6,0.17-1.06,0.64-1.24,1.24l-0.09,0.32c-0.12,0.41-0.71,0.41-0.83,0l-0.09-0.32c-0.17-0.6-0.64-1.06-1.24-1.24l-0.32-0.09
		c-0.41-0.12-0.41-0.71,0-0.83l0.32-0.09c0.6-0.17,1.06-0.64,1.24-1.24l0.09-0.32C435.43,62.57,436.02,62.57,436.14,62.99z"/>
	<path fill="#857D9E" d="M487.47,71.26l0.09,0.32c0.17,0.6,0.64,1.06,1.24,1.24l0.32,0.09c0.41,0.12,0.41,0.71,0,0.83l-0.32,0.09
		c-0.6,0.17-1.06,0.64-1.24,1.24l-0.09,0.32c-0.12,0.41-0.71,0.41-0.83,0l-0.09-0.32c-0.17-0.6-0.64-1.06-1.24-1.24l-0.32-0.09
		c-0.41-0.12-0.41-0.71,0-0.83l0.32-0.09c0.6-0.17,1.06-0.64,1.24-1.24l0.09-0.32C486.76,70.84,487.35,70.84,487.47,71.26z"/>
	<path fill="#857D9E" d="M404.44,155.04l0.09,0.32c0.17,0.6,0.64,1.06,1.24,1.24l0.32,0.09c0.41,0.12,0.41,0.71,0,0.83l-0.32,0.09
		c-0.6,0.17-1.06,0.64-1.24,1.24l-0.09,0.32c-0.12,0.41-0.71,0.41-0.83,0l-0.09-0.32c-0.17-0.6-0.64-1.06-1.24-1.24l-0.32-0.09
		c-0.41-0.12-0.41-0.71,0-0.83l0.32-0.09c0.6-0.17,1.06-0.64,1.24-1.24l0.09-0.32C403.73,154.63,404.32,154.63,404.44,155.04z"/>
	<path fill="#857D9E" d="M440.88,89.7l0.09,0.32c0.17,0.6,0.64,1.06,1.24,1.24l0.32,0.09c0.41,0.12,0.41,0.71,0,0.83l-0.32,0.09
		c-0.6,0.17-1.06,0.64-1.24,1.24l-0.09,0.32c-0.12,0.41-0.71,0.41-0.83,0l-0.09-0.32c-0.17-0.6-0.64-1.06-1.24-1.24l-0.32-0.09
		c-0.41-0.12-0.41-0.71,0-0.83l0.32-0.09c0.6-0.17,1.06-0.64,1.24-1.24l0.09-0.32C440.17,89.29,440.76,89.29,440.88,89.7z"/>
	<path fill="#857D9E" d="M304.94,122.02l0.13,0.45c0.24,0.84,0.9,1.5,1.75,1.75l0.45,0.13c0.59,0.17,0.59,1,0,1.17l-0.45,0.13
		c-0.84,0.24-1.5,0.9-1.75,1.75l-0.13,0.45c-0.17,0.59-1,0.59-1.17,0l-0.13-0.45c-0.24-0.84-0.9-1.5-1.75-1.75l-0.45-0.13
		c-0.59-0.17-0.59-1,0-1.17l0.45-0.13c0.84-0.24,1.5-0.9,1.75-1.75l0.13-0.45C303.94,121.43,304.77,121.43,304.94,122.02z"/>
	<path fill="#857D9E" d="M305.9,32.09l0.13,0.45c0.24,0.84,0.9,1.5,1.75,1.75l0.45,0.13c0.59,0.17,0.59,1,0,1.17l-0.45,0.13
		c-0.84,0.24-1.5,0.9-1.75,1.75l-0.13,0.45c-0.17,0.59-1,0.59-1.17,0l-0.13-0.45c-0.24-0.84-0.9-1.5-1.75-1.75l-0.45-0.13
		c-0.59-0.17-0.59-1,0-1.17l0.45-0.13c0.84-0.24,1.5-0.9,1.75-1.75l0.13-0.45C304.9,31.51,305.73,31.51,305.9,32.09z"/>
	<path fill="#857D9E" d="M369.44,121.38l-0.11-0.39c-0.21-0.73-0.78-1.3-1.51-1.51l-0.39-0.11c-0.51-0.15-0.51-0.86,0-1.01
		l0.39-0.11c0.73-0.21,1.3-0.78,1.51-1.51l0.11-0.39c0.15-0.51,0.86-0.51,1.01,0l0.11,0.39c0.21,0.73,0.78,1.3,1.51,1.51l0.39,0.11
		c0.51,0.15,0.51,0.86,0,1.01l-0.39,0.11c-0.73,0.21-1.3,0.78-1.51,1.51l-0.11,0.39C370.3,121.89,369.59,121.89,369.44,121.38z"/>
	<path fill="#857D9E" d="M102.97,165.86l-0.23-0.79c-0.42-1.46-1.56-2.6-3.02-3.02l-0.79-0.23c-1.01-0.29-1.01-1.73,0-2.02
		l0.79-0.23c1.46-0.42,2.6-1.56,3.02-3.02l0.23-0.79c0.29-1.01,1.73-1.01,2.02,0l0.23,0.79c0.42,1.46,1.56,2.6,3.02,3.02l0.79,0.23
		c1.01,0.29,1.01,1.73,0,2.02l-0.79,0.23c-1.46,0.42-2.6,1.56-3.02,3.02l-0.23,0.79C104.7,166.87,103.27,166.87,102.97,165.86z"/>
	<path fill="#857D9E" d="M191.87,162.82l-0.13-0.45c-0.24-0.84-0.9-1.5-1.75-1.75l-0.45-0.13c-0.59-0.17-0.59-1,0-1.17l0.45-0.13
		c0.84-0.24,1.5-0.9,1.75-1.75l0.13-0.45c0.17-0.59,1-0.59,1.17,0l0.13,0.45c0.24,0.84,0.9,1.5,1.75,1.75l0.45,0.13
		c0.59,0.17,0.59,1,0,1.17l-0.45,0.13c-0.84,0.24-1.5,0.9-1.75,1.75l-0.13,0.45C192.87,163.41,192.04,163.41,191.87,162.82z"/>
	<path fill="#857D9E" d="M358.79,175.41l-0.09-0.32c-0.17-0.6-0.64-1.06-1.24-1.24l-0.32-0.09c-0.41-0.12-0.41-0.71,0-0.83
		l0.32-0.09c0.6-0.17,1.06-0.64,1.24-1.24l0.09-0.32c0.12-0.41,0.71-0.41,0.83,0l0.09,0.32c0.17,0.6,0.64,1.06,1.24,1.24l0.32,0.09
		c0.41,0.12,0.41,0.71,0,0.83l-0.32,0.09c-0.6,0.17-1.06,0.64-1.24,1.24l-0.09,0.32C359.5,175.82,358.91,175.82,358.79,175.41z"/>
	<path fill="#857D9E" d="M122.01,130.42l-0.09-0.32c-0.17-0.6-0.64-1.06-1.24-1.24l-0.32-0.09c-0.41-0.12-0.41-0.71,0-0.83
		l0.32-0.09c0.6-0.17,1.06-0.64,1.24-1.24l0.09-0.32c0.12-0.41,0.71-0.41,0.83,0l0.09,0.32c0.17,0.6,0.64,1.06,1.24,1.24l0.32,0.09
		c0.41,0.12,0.41,0.71,0,0.83l-0.32,0.09c-0.6,0.17-1.06,0.64-1.24,1.24l-0.09,0.32C122.72,130.83,122.13,130.83,122.01,130.42z"/>
	<path fill="#857D9E" d="M161.22,130.16l-0.09-0.32c-0.17-0.6-0.64-1.06-1.24-1.24l-0.32-0.09c-0.41-0.12-0.41-0.71,0-0.83
		l0.32-0.09c0.6-0.17,1.06-0.64,1.24-1.24l0.09-0.32c0.12-0.41,0.71-0.41,0.83,0l0.09,0.32c0.17,0.6,0.64,1.06,1.24,1.24l0.32,0.09
		c0.41,0.12,0.41,0.71,0,0.83l-0.32,0.09c-0.6,0.17-1.06,0.64-1.24,1.24l-0.09,0.32C161.93,130.58,161.34,130.58,161.22,130.16z"/>
	<path fill="#857D9E" d="M63.04,134.9l0.18-0.28c0.34-0.52,0.39-1.18,0.13-1.74l-0.14-0.3c-0.18-0.39,0.27-0.78,0.63-0.54l0.28,0.18
		c0.52,0.34,1.18,0.39,1.74,0.13l0.3-0.14c0.39-0.18,0.78,0.27,0.54,0.63l-0.18,0.28c-0.34,0.52-0.39,1.18-0.13,1.74l0.14,0.3
		c0.18,0.39-0.27,0.78-0.63,0.54l-0.28-0.18c-0.52-0.34-1.18-0.39-1.74-0.13l-0.3,0.14C63.19,135.71,62.81,135.26,63.04,134.9z"/>
	<path fill="#857D9E" d="M45.18,177.6l-0.09-0.32c-0.17-0.6-0.64-1.06-1.24-1.24l-0.32-0.09c-0.41-0.12-0.41-0.71,0-0.83l0.32-0.09
		c0.6-0.17,1.06-0.64,1.24-1.24l0.09-0.32c0.12-0.41,0.71-0.41,0.83,0l0.09,0.32c0.17,0.6,0.64,1.06,1.24,1.24l0.32,0.09
		c0.41,0.12,0.41,0.71,0,0.83l-0.32,0.09c-0.6,0.17-1.06,0.64-1.24,1.24l-0.09,0.32C45.89,178.02,45.3,178.02,45.18,177.6z"/>
	<path fill="#857D9E" d="M122.89,87.58l0.23,0.79c0.42,1.46,1.56,2.6,3.02,3.02l0.79,0.23c1.01,0.29,1.01,1.73,0,2.02l-0.79,0.23
		c-1.46,0.42-2.6,1.56-3.02,3.02l-0.23,0.79c-0.29,1.01-1.73,1.01-2.02,0l-0.23-0.79c-0.42-1.46-1.56-2.6-3.02-3.02l-0.79-0.23
		c-1.01-0.29-1.01-1.73,0-2.02l0.79-0.23c1.46-0.42,2.6-1.56,3.02-3.02l0.23-0.79C121.16,86.57,122.59,86.57,122.89,87.58z"/>
	<path fill="#857D9E" d="M385.18,21.06l-0.13-0.31c-0.25-0.57-0.77-0.98-1.38-1.07l-0.33-0.05c-0.43-0.07-0.5-0.65-0.1-0.82
		l0.31-0.13c0.57-0.25,0.98-0.77,1.07-1.38l0.05-0.33c0.07-0.43,0.65-0.5,0.82-0.1l0.13,0.31c0.25,0.57,0.77,0.98,1.38,1.07
		l0.33,0.05c0.43,0.07,0.5,0.65,0.1,0.82l-0.31,0.13c-0.57,0.25-0.98,0.77-1.07,1.38L386,20.96
		C385.93,21.39,385.35,21.46,385.18,21.06z"/>
	<path fill="#857D9E" d="M377.85,20.69l-0.13-0.31c-0.25-0.57-0.77-0.98-1.38-1.07l-0.33-0.05c-0.43-0.07-0.5-0.65-0.1-0.82
		l0.31-0.13c0.57-0.25,0.98-0.77,1.07-1.38l0.05-0.33c0.07-0.43,0.65-0.5,0.82-0.1l0.13,0.31c0.25,0.57,0.77,0.98,1.38,1.07
		l0.33,0.05c0.43,0.07,0.5,0.65,0.1,0.82l-0.31,0.13c-0.57,0.25-0.98,0.77-1.07,1.38l-0.05,0.33
		C378.61,21.02,378.02,21.09,377.85,20.69z"/>
	<path fill="#857D9E" d="M386.29,57.57l-0.13-0.31c-0.25-0.57-0.77-0.98-1.38-1.07l-0.33-0.05c-0.43-0.07-0.5-0.65-0.1-0.82
		l0.31-0.13c0.57-0.25,0.98-0.77,1.07-1.38l0.05-0.33c0.07-0.43,0.65-0.5,0.82-0.1l0.13,0.31c0.25,0.57,0.77,0.98,1.38,1.07
		l0.33,0.05c0.43,0.07,0.5,0.65,0.1,0.82l-0.31,0.13c-0.57,0.25-0.98,0.77-1.07,1.38l-0.05,0.33
		C387.04,57.89,386.46,57.97,386.29,57.57z"/>
	<path fill="#857D9E" d="M446.67,125.18l0.13,0.45c0.24,0.84,0.9,1.5,1.75,1.75l0.45,0.13c0.59,0.17,0.59,1,0,1.17l-0.45,0.13
		c-0.84,0.24-1.5,0.9-1.75,1.75l-0.13,0.45c-0.17,0.59-1,0.59-1.17,0l-0.13-0.45c-0.24-0.84-0.9-1.5-1.75-1.75l-0.45-0.13
		c-0.59-0.17-0.59-1,0-1.17l0.45-0.13c0.84-0.24,1.5-0.9,1.75-1.75l0.13-0.45C445.67,124.6,446.5,124.6,446.67,125.18z"/>
	<path fill="#857D9E" d="M488.72,102.41l0.13,0.45c0.24,0.84,0.9,1.5,1.75,1.75l0.45,0.13c0.59,0.17,0.59,1,0,1.17l-0.45,0.13
		c-0.84,0.24-1.5,0.9-1.75,1.75l-0.13,0.45c-0.17,0.59-1,0.59-1.17,0l-0.13-0.45c-0.24-0.84-0.9-1.5-1.75-1.75l-0.45-0.13
		c-0.59-0.17-0.59-1,0-1.17l0.45-0.13c0.84-0.24,1.5-0.9,1.75-1.75l0.13-0.45C487.72,101.83,488.55,101.83,488.72,102.41z"/>
	<path fill="#857D9E" d="M530.15,43.96l0.09,0.32c0.17,0.6,0.64,1.06,1.24,1.24l0.32,0.09c0.41,0.12,0.41,0.71,0,0.83l-0.32,0.09
		c-0.6,0.17-1.06,0.64-1.24,1.24l-0.09,0.32c-0.12,0.41-0.71,0.41-0.83,0l-0.09-0.32c-0.17-0.6-0.64-1.06-1.24-1.24l-0.32-0.09
		c-0.41-0.12-0.41-0.71,0-0.83l0.32-0.09c0.6-0.17,1.06-0.64,1.24-1.24l0.09-0.32C529.44,43.54,530.03,43.54,530.15,43.96z"/>
	<path fill="#857D9E" d="M557.51,86.88l0.09,0.32c0.17,0.6,0.64,1.06,1.24,1.24l0.32,0.09c0.41,0.12,0.41,0.71,0,0.83l-0.32,0.09
		c-0.6,0.17-1.06,0.64-1.24,1.24l-0.09,0.32c-0.12,0.41-0.71,0.41-0.83,0l-0.09-0.32c-0.17-0.6-0.64-1.06-1.24-1.24l-0.32-0.09
		c-0.41-0.12-0.41-0.71,0-0.83l0.32-0.09c0.6-0.17,1.06-0.64,1.24-1.24l0.09-0.32C556.8,86.46,557.39,86.46,557.51,86.88z"/>
	<path fill="#857D9E" d="M629,161.12l0.09,0.32c0.17,0.6,0.64,1.06,1.24,1.24l0.32,0.09c0.41,0.12,0.41,0.71,0,0.83l-0.32,0.09
		c-0.6,0.17-1.06,0.64-1.24,1.24l-0.09,0.32c-0.12,0.41-0.71,0.41-0.83,0l-0.09-0.32c-0.17-0.6-0.64-1.06-1.24-1.24l-0.32-0.09
		c-0.41-0.12-0.41-0.71,0-0.83l0.32-0.09c0.6-0.17,1.06-0.64,1.24-1.24l0.09-0.32C628.29,160.71,628.88,160.71,629,161.12z"/>
	<path fill="#857D9E" d="M727.71,89.21l0.09,0.32c0.17,0.6,0.64,1.06,1.24,1.24l0.32,0.09c0.41,0.12,0.41,0.71,0,0.83l-0.32,0.09
		c-0.6,0.17-1.06,0.64-1.24,1.24l-0.09,0.32c-0.12,0.41-0.71,0.41-0.83,0l-0.09-0.32c-0.17-0.6-0.64-1.06-1.24-1.24l-0.32-0.09
		c-0.41-0.12-0.41-0.71,0-0.83l0.32-0.09c0.6-0.17,1.06-0.64,1.24-1.24l0.09-0.32C727.01,88.79,727.59,88.79,727.71,89.21z"/>
	<path fill="#857D9E" d="M540.69,12.12l0.09,0.32c0.17,0.6,0.64,1.06,1.24,1.24l0.32,0.09c0.41,0.12,0.41,0.71,0,0.83l-0.32,0.09
		c-0.6,0.17-1.06,0.64-1.24,1.24l-0.09,0.32c-0.12,0.41-0.71,0.41-0.83,0l-0.09-0.32c-0.17-0.6-0.64-1.06-1.24-1.24l-0.32-0.09
		c-0.41-0.12-0.41-0.71,0-0.83l0.32-0.09c0.6-0.17,1.06-0.64,1.24-1.24l0.09-0.32C539.98,11.71,540.57,11.71,540.69,12.12z"/>
	<path fill="#857D9E" d="M603.07,26.43l0.09,0.32c0.17,0.6,0.64,1.06,1.24,1.24l0.32,0.09c0.41,0.12,0.41,0.71,0,0.83l-0.32,0.09
		c-0.6,0.17-1.06,0.64-1.24,1.24l-0.09,0.32c-0.12,0.41-0.71,0.41-0.83,0l-0.09-0.32c-0.17-0.6-0.64-1.06-1.24-1.24l-0.32-0.09
		c-0.41-0.12-0.41-0.71,0-0.83l0.32-0.09c0.6-0.17,1.06-0.64,1.24-1.24l0.09-0.32C602.36,26.02,602.95,26.02,603.07,26.43z"/>
	<path fill="#857D9E" d="M710.25,170.31l0.13,0.45c0.24,0.84,0.9,1.5,1.75,1.75l0.45,0.13c0.59,0.17,0.59,1,0,1.17l-0.45,0.13
		c-0.84,0.24-1.5,0.9-1.75,1.75l-0.13,0.45c-0.17,0.59-1,0.59-1.17,0l-0.13-0.45c-0.24-0.84-0.9-1.5-1.75-1.75l-0.45-0.13
		c-0.59-0.17-0.59-1,0-1.17l0.45-0.13c0.84-0.24,1.5-0.9,1.75-1.75l0.13-0.45C709.25,169.72,710.08,169.72,710.25,170.31z"/>
	<path fill="#857D9E" d="M711.21,80.38l0.13,0.45c0.24,0.84,0.9,1.5,1.75,1.75l0.45,0.13c0.59,0.17,0.59,1,0,1.17l-0.45,0.13
		c-0.84,0.24-1.5,0.9-1.75,1.75l-0.13,0.45c-0.17,0.59-1,0.59-1.17,0l-0.13-0.45c-0.24-0.84-0.9-1.5-1.75-1.75l-0.45-0.13
		c-0.59-0.17-0.59-1,0-1.17l0.45-0.13c0.84-0.24,1.5-0.9,1.75-1.75l0.13-0.45C710.21,79.8,711.04,79.8,711.21,80.38z"/>
	<path fill="#857D9E" d="M724.05,40.92l0.13,0.45c0.24,0.84,0.9,1.5,1.75,1.75l0.45,0.13c0.59,0.17,0.59,1,0,1.17l-0.45,0.13
		c-0.84,0.24-1.5,0.9-1.75,1.75l-0.13,0.45c-0.17,0.59-1,0.59-1.17,0l-0.13-0.45c-0.24-0.84-0.9-1.5-1.75-1.75l-0.45-0.13
		c-0.59-0.17-0.59-1,0-1.17l0.45-0.13c0.84-0.24,1.5-0.9,1.75-1.75l0.13-0.45C723.05,40.34,723.88,40.34,724.05,40.92z"/>
	<path fill="#857D9E" d="M595.63,49.27l0.13,0.45c0.24,0.84,0.9,1.5,1.75,1.75l0.45,0.13c0.59,0.17,0.59,1,0,1.17l-0.45,0.13
		c-0.84,0.24-1.5,0.9-1.75,1.75l-0.13,0.45c-0.17,0.59-1,0.59-1.17,0l-0.13-0.45c-0.24-0.84-0.9-1.5-1.75-1.75l-0.45-0.13
		c-0.59-0.17-0.59-1,0-1.17l0.45-0.13c0.84-0.24,1.5-0.9,1.75-1.75l0.13-0.45C594.63,48.68,595.46,48.68,595.63,49.27z"/>
	<path fill="#857D9E" d="M774.75,169.67l-0.11-0.39c-0.21-0.73-0.78-1.3-1.51-1.51l-0.39-0.11c-0.51-0.15-0.51-0.86,0-1.01
		l0.39-0.11c0.73-0.21,1.3-0.78,1.51-1.51l0.11-0.39c0.15-0.51,0.86-0.51,1.01,0l0.11,0.39c0.21,0.73,0.78,1.3,1.51,1.51l0.39,0.11
		c0.51,0.15,0.51,0.86,0,1.01l-0.39,0.11c-0.73,0.21-1.3,0.78-1.51,1.51l-0.11,0.39C775.61,170.17,774.9,170.17,774.75,169.67z"/>
	<path fill="#857D9E" d="M527.32,178.7l-0.09-0.32c-0.17-0.6-0.64-1.06-1.24-1.24l-0.32-0.09c-0.41-0.12-0.41-0.71,0-0.83l0.32-0.09
		c0.6-0.17,1.06-0.64,1.24-1.24l0.09-0.32c0.12-0.41,0.71-0.41,0.83,0l0.09,0.32c0.17,0.6,0.64,1.06,1.24,1.24l0.32,0.09
		c0.41,0.12,0.41,0.71,0,0.83l-0.32,0.09c-0.6,0.17-1.06,0.64-1.24,1.24l-0.09,0.32C528.03,179.12,527.44,179.12,527.32,178.7z"/>
	<path fill="#857D9E" d="M566.53,178.45l-0.09-0.32c-0.17-0.6-0.64-1.06-1.24-1.24l-0.32-0.09c-0.41-0.12-0.41-0.71,0-0.83
		l0.32-0.09c0.6-0.17,1.06-0.64,1.24-1.24l0.09-0.32c0.12-0.41,0.71-0.41,0.83,0l0.09,0.32c0.17,0.6,0.64,1.06,1.24,1.24l0.32,0.09
		c0.41,0.12,0.41,0.71,0,0.83l-0.32,0.09c-0.6,0.17-1.06,0.64-1.24,1.24l-0.09,0.32C567.24,178.86,566.65,178.86,566.53,178.45z"/>
	<path fill="#857D9E" d="M464.54,156.59l0.18-0.28c0.34-0.52,0.39-1.18,0.13-1.74l-0.14-0.3c-0.18-0.39,0.27-0.78,0.63-0.54
		l0.28,0.18c0.52,0.34,1.18,0.39,1.74,0.13l0.3-0.14c0.39-0.18,0.78,0.27,0.54,0.63l-0.18,0.28c-0.34,0.52-0.39,1.18-0.13,1.74
		l0.14,0.3c0.18,0.39-0.27,0.78-0.63,0.54l-0.28-0.18c-0.52-0.34-1.18-0.39-1.74-0.13l-0.3,0.14
		C464.68,157.4,464.3,156.96,464.54,156.59z"/>
	<path fill="#857D9E" d="M528.2,135.87l0.23,0.79c0.42,1.46,1.56,2.6,3.02,3.02l0.79,0.23c1.01,0.29,1.01,1.73,0,2.02l-0.79,0.23
		c-1.46,0.42-2.6,1.56-3.02,3.02l-0.23,0.79c-0.29,1.01-1.73,1.01-2.02,0l-0.23-0.79c-0.42-1.46-1.56-2.6-3.02-3.02l-0.79-0.23
		c-1.01-0.29-1.01-1.73,0-2.02l0.79-0.23c1.46-0.42,2.6-1.56,3.02-3.02l0.23-0.79C526.47,134.86,527.91,134.86,528.2,135.87z"/>
</g>
</svg>
