<?xml version="1.0" encoding="utf-8"?>
<!-- Generator: Adobe Illustrator 26.0.0, SVG Export Plug-In . SVG Version: 6.00 Build 0)  -->
<svg version="1.1" id="Layer_1" xmlns="http://www.w3.org/2000/svg" xmlns:xlink="http://www.w3.org/1999/xlink" x="0px" y="0px"
	 viewBox="0 0 47.32 50" style="enable-background:new 0 0 47.32 50;" xml:space="preserve">
<style type="text/css">
	.st0{fill:url(#SVGID_1_);}
	.st1{fill:url(#SVGID_00000087410854023091523290000005678581485334917505_);}
	.st2{fill:url(#SVGID_00000065781322536948837030000000583937424408067209_);}
	.st3{fill:url(#SVGID_00000164504779640345693030000004548168684181447566_);}
	.st4{fill:#EDF5FE;}
	.st5{filter:url(#Adobe_OpacityMaskFilter);}
	.st6{filter:url(#Adobe_OpacityMaskFilter_00000160910319751396725780000016391326973355781561_);}
	
		.st7{mask:url(#SVGID_00000027598312212405339940000009103221265982705033_);fill:url(#SVGID_00000091711621037602379260000000937343895803901834_);}
	.st8{fill:url(#SVGID_00000105395505412914712220000002565841356795082666_);}
	.st9{fill:url(#SVGID_00000068676897427739609770000013639047809322665888_);}
	.st10{fill:url(#SVGID_00000173151998228134827650000004844203802456736437_);}
	.st11{fill:url(#SVGID_00000021823208526513242940000008693800582672010670_);}
	.st12{fill:url(#SVGID_00000013883729381569418250000008089568103461696129_);}
	.st13{fill:#FFFFFF;}
	.st14{fill:url(#SVGID_00000041295134923533523280000001495504855725486997_);}
	.st15{fill:url(#SVGID_00000005241165645933577910000015644632496138055825_);}
	.st16{fill:url(#SVGID_00000097487275603789273380000013602612493787926695_);}
	.st17{fill:url(#SVGID_00000020361462574202466980000001025076705751682198_);}
	.st18{fill:url(#SVGID_00000066510292225832526690000004021202439155078051_);}
	.st19{fill:url(#SVGID_00000136410345438800162780000014952724260150081182_);}
	.st20{fill:url(#SVGID_00000166640665758143225230000017248211302550757773_);}
	.st21{fill:url(#SVGID_00000078731809212379216490000017626469985390430117_);}
	.st22{fill:url(#SVGID_00000132803750891966053990000008092162483054964390_);}
	.st23{filter:url(#Adobe_OpacityMaskFilter_00000046303929173615070530000009499966886683511477_);}
	.st24{filter:url(#Adobe_OpacityMaskFilter_00000145045114991969588320000003860325557198159253_);}
	
		.st25{mask:url(#SVGID_00000075869102802587191620000001611744996656731034_);fill:url(#SVGID_00000086656439486363384590000011965087657326047904_);}
	.st26{fill:url(#SVGID_00000026142928076311854810000007405519100987162251_);}
	.st27{fill:url(#SVGID_00000115479030666758621880000006503843837676869796_);}
	.st28{fill:url(#SVGID_00000071555467443867152010000012797653737042807985_);}
	.st29{fill:url(#SVGID_00000137089658362410526480000009391728726342012340_);}
	.st30{fill:url(#SVGID_00000131339607382545948220000005365675805510828180_);}
	.st31{fill:url(#SVGID_00000048495922811773565180000017079723028035810227_);}
	.st32{fill:url(#SVGID_00000073715490561659970660000014528641604055380368_);}
	.st33{filter:url(#Adobe_OpacityMaskFilter_00000140720555032895478340000009322135593713556652_);}
	.st34{filter:url(#Adobe_OpacityMaskFilter_00000012440588392302898660000002342675511419209137_);}
	
		.st35{mask:url(#SVGID_00000053505442219178958960000001834791243359166606_);fill:url(#SVGID_00000152242485193164504840000001147280646080996756_);}
	.st36{fill:url(#SVGID_00000018217314784993910980000000167242967486831532_);}
	.st37{fill:url(#SVGID_00000177456856644374039320000011573936341603871387_);}
	.st38{fill:url(#SVGID_00000035490562580659249010000016561660875683603352_);}
</style>
<g>
	<g>
		<linearGradient id="SVGID_1_" gradientUnits="userSpaceOnUse" x1="23.6274" y1="43.2569" x2="23.6274" y2="0">
			<stop  offset="0" style="stop-color:#8770FE"/>
			<stop  offset="1" style="stop-color:#9380FE"/>
		</linearGradient>
		<circle class="st0" cx="23.63" cy="21.63" r="21.63"/>
		
			<linearGradient id="SVGID_00000019658471299554262210000007365952300909082786_" gradientUnits="userSpaceOnUse" x1="23.6274" y1="41.8678" x2="23.6274" y2="1.3891">
			<stop  offset="0" style="stop-color:#6C3DF0"/>
			<stop  offset="1" style="stop-color:#190985"/>
		</linearGradient>
		<circle style="fill:url(#SVGID_00000019658471299554262210000007365952300909082786_);" cx="23.63" cy="21.63" r="20.24"/>
		
			<linearGradient id="SVGID_00000129193180145242988100000012549237049413087373_" gradientUnits="userSpaceOnUse" x1="23.6274" y1="41.0691" x2="23.6274" y2="2.1878">
			<stop  offset="0" style="stop-color:#A620F5"/>
			<stop  offset="1" style="stop-color:#521FEE"/>
		</linearGradient>
		<circle style="fill:url(#SVGID_00000129193180145242988100000012549237049413087373_);" cx="23.63" cy="21.63" r="19.44"/>
		
			<linearGradient id="SVGID_00000143578830838771812660000011784556150831797684_" gradientUnits="userSpaceOnUse" x1="23.6274" y1="50" x2="23.6274" y2="29.7754">
			<stop  offset="0" style="stop-color:#AD98F9"/>
			<stop  offset="1" style="stop-color:#4223CC"/>
		</linearGradient>
		<path style="fill:url(#SVGID_00000143578830838771812660000011784556150831797684_);" d="M35.42,48.2
			c0.12,1.22-1.11,2.12-2.23,1.64l-5.57-2.36l-3.96-1.68l-3.96,1.68l-5.63,2.39c-1.11,0.47-2.32-0.4-2.23-1.6l1.41-18.49h20.37
			L35.42,48.2z"/>
		<polygon class="st4" points="27.62,33.82 27.62,47.49 23.66,45.81 19.7,47.49 19.7,33.82 		"/>
		<defs>
			<filter id="Adobe_OpacityMaskFilter" filterUnits="userSpaceOnUse" x="8.16" y="7.94" width="30.93" height="30.93">
				<feFlood  style="flood-color:white;flood-opacity:1" result="back"/>
				<feBlend  in="SourceGraphic" in2="back" mode="normal"/>
			</filter>
		</defs>
		
			<mask maskUnits="userSpaceOnUse" x="8.16" y="7.94" width="30.93" height="30.93" id="SVGID_00000175323252996625286580000012952357372983640969_">
			<g class="st5">
				<defs>
					
						<filter id="Adobe_OpacityMaskFilter_00000005239569294789855540000015581548269583733672_" filterUnits="userSpaceOnUse" x="8.16" y="7.94" width="30.93" height="30.93">
						<feFlood  style="flood-color:white;flood-opacity:1" result="back"/>
						<feBlend  in="SourceGraphic" in2="back" mode="normal"/>
					</filter>
				</defs>
				
					<mask maskUnits="userSpaceOnUse" x="8.16" y="7.94" width="30.93" height="30.93" id="SVGID_00000175323252996625286580000012952357372983640969_">
				</mask>
				
					<linearGradient id="SVGID_00000124848334743885664090000012590490482699624619_" gradientUnits="userSpaceOnUse" x1="23.6274" y1="38.8767" x2="23.6274" y2="7.943">
					<stop  offset="0" style="stop-color:#1A1A1A"/>
					<stop  offset="1" style="stop-color:#FFFFFF"/>
				</linearGradient>
				
					<path style="mask:url(#SVGID_00000175323252996625286580000012952357372983640969_);fill:url(#SVGID_00000124848334743885664090000012590490482699624619_);" d="
					M26.13,9.06L26.13,9.06c2.13-2.36,6.03-0.74,5.87,2.43v0c-0.1,2,1.54,3.64,3.54,3.54h0c3.17-0.16,4.79,3.74,2.43,5.87l0,0
					c-1.48,1.34-1.48,3.67,0,5.01l0,0c2.36,2.13,0.74,6.03-2.43,5.87h0c-2-0.1-3.64,1.54-3.54,3.54v0c0.16,3.17-3.74,4.79-5.87,2.43
					l0,0c-1.34-1.48-3.67-1.48-5.01,0l0,0c-2.13,2.36-6.03,0.74-5.87-2.43v0c0.1-2-1.54-3.64-3.54-3.54h0
					c-3.17,0.16-4.79-3.74-2.43-5.87l0,0c1.48-1.34,1.48-3.67,0-5.01l0,0c-2.36-2.13-0.74-6.03,2.43-5.87h0
					c2,0.1,3.64-1.54,3.54-3.54v0C15.09,8.33,19,6.71,21.12,9.06l0,0C22.46,10.55,24.79,10.55,26.13,9.06z"/>
			</g>
		</mask>
		
			<linearGradient id="SVGID_00000127758851353760530880000016238472691485604501_" gradientUnits="userSpaceOnUse" x1="23.6274" y1="38.8767" x2="23.6274" y2="7.943">
			<stop  offset="0" style="stop-color:#000000"/>
			<stop  offset="1" style="stop-color:#000000"/>
		</linearGradient>
		<path style="fill:url(#SVGID_00000127758851353760530880000016238472691485604501_);" d="M26.13,9.06L26.13,9.06
			c2.13-2.36,6.03-0.74,5.87,2.43v0c-0.1,2,1.54,3.64,3.54,3.54h0c3.17-0.16,4.79,3.74,2.43,5.87l0,0c-1.48,1.34-1.48,3.67,0,5.01
			l0,0c2.36,2.13,0.74,6.03-2.43,5.87h0c-2-0.1-3.64,1.54-3.54,3.54v0c0.16,3.17-3.74,4.79-5.87,2.43l0,0
			c-1.34-1.48-3.67-1.48-5.01,0l0,0c-2.13,2.36-6.03,0.74-5.87-2.43v0c0.1-2-1.54-3.64-3.54-3.54h0c-3.17,0.16-4.79-3.74-2.43-5.87
			l0,0c1.48-1.34,1.48-3.67,0-5.01l0,0c-2.36-2.13-0.74-6.03,2.43-5.87h0c2,0.1,3.64-1.54,3.54-3.54v0
			C15.09,8.33,19,6.71,21.12,9.06l0,0C22.46,10.55,24.79,10.55,26.13,9.06z"/>
		
			<linearGradient id="SVGID_00000064335443826860747420000017913155873347852977_" gradientUnits="userSpaceOnUse" x1="8.1606" y1="21.6284" x2="39.0943" y2="21.6284">
			<stop  offset="0" style="stop-color:#FFFFFF"/>
			<stop  offset="1" style="stop-color:#B0A2FE"/>
		</linearGradient>
		<path style="fill:url(#SVGID_00000064335443826860747420000017913155873347852977_);" d="M26.13,7.28L26.13,7.28
			c2.13-2.36,6.03-0.74,5.87,2.43v0c-0.1,2,1.54,3.64,3.54,3.54h0c3.17-0.16,4.79,3.74,2.43,5.87l0,0c-1.48,1.34-1.48,3.67,0,5.01
			l0,0c2.36,2.13,0.74,6.03-2.43,5.87h0c-2-0.1-3.64,1.54-3.54,3.54v0c0.16,3.17-3.74,4.79-5.87,2.43l0,0
			c-1.34-1.48-3.67-1.48-5.01,0l0,0c-2.13,2.36-6.03,0.74-5.87-2.43v0c0.1-2-1.54-3.64-3.54-3.54h0c-3.17,0.16-4.79-3.74-2.43-5.87
			l0,0c1.48-1.34,1.48-3.67,0-5.01l0,0c-2.36-2.13-0.74-6.03,2.43-5.87h0c2,0.1,3.64-1.54,3.54-3.54v0
			C15.09,6.55,19,4.93,21.12,7.28l0,0C22.46,8.77,24.79,8.77,26.13,7.28z"/>
		
			<linearGradient id="SVGID_00000118362672340569354100000012851718712199366020_" gradientUnits="userSpaceOnUse" x1="23.6274" y1="31.9397" x2="23.6274" y2="11.3172">
			<stop  offset="0" style="stop-color:#A40AF0"/>
			<stop  offset="1" style="stop-color:#3D1FCA"/>
		</linearGradient>
		<circle style="fill:url(#SVGID_00000118362672340569354100000012851718712199366020_);" cx="23.63" cy="21.63" r="10.31"/>
		<g>
			
				<linearGradient id="SVGID_00000129181407940165639390000010338187732897492137_" gradientUnits="userSpaceOnUse" x1="19.7185" y1="21.6284" x2="22.867" y2="21.6284">
				<stop  offset="0" style="stop-color:#FFFFFF"/>
				<stop  offset="1" style="stop-color:#B0A2FE"/>
			</linearGradient>
			<path style="fill:url(#SVGID_00000129181407940165639390000010338187732897492137_);" d="M19.72,26.3v-9.34h3.15v9.34H19.72z"/>
			
				<linearGradient id="SVGID_00000160159365860134204230000018163342827278295730_" gradientUnits="userSpaceOnUse" x1="24.3878" y1="21.6284" x2="27.5363" y2="21.6284">
				<stop  offset="0" style="stop-color:#FFFFFF"/>
				<stop  offset="1" style="stop-color:#B0A2FE"/>
			</linearGradient>
			<path style="fill:url(#SVGID_00000160159365860134204230000018163342827278295730_);" d="M24.39,26.3v-9.34h3.15v9.34H24.39z"/>
		</g>
	</g>
	<g>
		<path class="st13" d="M4.96,24.61L4.96,24.61c-1.06,0-1.92-0.86-1.92-1.92v0c0-1.06,0.86-1.92,1.92-1.92h0
			c1.06,0,1.92,0.86,1.92,1.92v0C6.87,23.75,6.02,24.61,4.96,24.61z"/>
		<circle class="st13" cx="1.11" cy="29.04" r="1.11"/>
		<circle class="st13" cx="38.12" cy="7.87" r="1.19"/>
		<path class="st13" d="M41.33,2.75c0,0.34-0.27,0.61-0.61,0.61c-0.34,0-0.61-0.27-0.61-0.61s0.27-0.61,0.61-0.61
			C41.06,2.15,41.33,2.42,41.33,2.75z"/>
		<path class="st13" d="M44.34,41.11L44.34,41.11c0-1.64-1.33-2.98-2.98-2.98v0c1.64,0,2.98-1.33,2.98-2.98h0
			c0,1.64,1.33,2.98,2.98,2.98v0C45.67,38.13,44.34,39.47,44.34,41.11z"/>
	</g>
</g>
</svg>
