<?xml version="1.0" encoding="utf-8"?>
<!-- Generator: Adobe Illustrator 26.0.0, SVG Export Plug-In . SVG Version: 6.00 Build 0)  -->
<svg version="1.1" id="Layer_1" xmlns="http://www.w3.org/2000/svg" xmlns:xlink="http://www.w3.org/1999/xlink" x="0px" y="0px"
	 viewBox="0 0 47.32 50" style="enable-background:new 0 0 47.32 50;" xml:space="preserve">
<style type="text/css">
	.st0{fill:url(#SVGID_1_);}
	.st1{fill:url(#SVGID_00000175324905838249054550000006566195451445152907_);}
	.st2{fill:url(#SVGID_00000150062162835898652710000004009037491637438892_);}
	.st3{fill:url(#SVGID_00000004526563250487459310000014156209563250942622_);}
	.st4{fill:#EDF5FE;}
	.st5{filter:url(#Adobe_OpacityMaskFilter);}
	.st6{filter:url(#Adobe_OpacityMaskFilter_00000078749378432548776350000006040353044101022137_);}
	
		.st7{mask:url(#SVGID_00000046327587322424112560000008276038593189916073_);fill:url(#SVGID_00000128449631118430061630000017780039611023978171_);}
	.st8{fill:url(#SVGID_00000086650587941756939890000002612065931829318283_);}
	.st9{fill:url(#SVGID_00000093882927919099474650000000086398055257495940_);}
	.st10{fill:url(#SVGID_00000034078986324994455060000016698759138631470472_);}
	.st11{fill:url(#SVGID_00000170963813651602256670000004738990209805181313_);}
	.st12{fill:url(#SVGID_00000044856408210408265050000005979574666775275652_);}
	.st13{fill:#FFFFFF;}
	.st14{fill:url(#SVGID_00000164488737620277818750000002579681540932019334_);}
	.st15{fill:url(#SVGID_00000183960612916918914300000014073521289030463934_);}
	.st16{fill:url(#SVGID_00000139270164784922638280000002644003622897062531_);}
	.st17{fill:url(#SVGID_00000114765503548557266910000004514952943494516375_);}
	.st18{fill:url(#SVGID_00000132062022449786212140000001434980225548113598_);}
	.st19{fill:url(#SVGID_00000034790194414156406610000005144873000149064328_);}
	.st20{fill:url(#SVGID_00000069392870743493689320000015144120799788678813_);}
	.st21{fill:url(#SVGID_00000033341331487498050680000008629212592090198962_);}
	.st22{fill:url(#SVGID_00000052065548404649031350000008544374006377375632_);}
	.st23{filter:url(#Adobe_OpacityMaskFilter_00000083077967920913042110000015524056364333549725_);}
	.st24{filter:url(#Adobe_OpacityMaskFilter_00000156565290091690027080000011788786495028147118_);}
	
		.st25{mask:url(#SVGID_00000005233034456511961970000002906041468130437297_);fill:url(#SVGID_00000164480311148339360090000003818039248967406764_);}
	.st26{fill:url(#SVGID_00000035511552760819371340000001950251544995786901_);}
	.st27{fill:url(#SVGID_00000016044053966302131000000011518737031591247236_);}
	.st28{fill:url(#SVGID_00000165920551060570364130000016308414872935965597_);}
	.st29{fill:url(#SVGID_00000088823616082704023220000003305882117313022100_);}
	.st30{fill:url(#SVGID_00000019641761905649067420000011933219947457794945_);}
	.st31{fill:url(#SVGID_00000090988919957911377680000000947711687569902726_);}
	.st32{fill:url(#SVGID_00000141424543837786412190000010060322752798412975_);}
	.st33{filter:url(#Adobe_OpacityMaskFilter_00000169540963846837040080000010778251525800513705_);}
	.st34{filter:url(#Adobe_OpacityMaskFilter_00000029016701598947588910000015906274180878727601_);}
	
		.st35{mask:url(#SVGID_00000034065229924809294150000001652743558880122499_);fill:url(#SVGID_00000181769945358933038390000010355356960664708780_);}
	.st36{fill:url(#SVGID_00000096050895825878206780000014080242249293142198_);}
	.st37{fill:url(#SVGID_00000024697269360466407350000012564356197167761075_);}
	.st38{fill:url(#SVGID_00000060010714669798767050000013244040653348010405_);}
</style>
<g>
	<g>
		<linearGradient id="SVGID_1_" gradientUnits="userSpaceOnUse" x1="23.6577" y1="43.2569" x2="23.6577" y2="5.456968e-12">
			<stop  offset="0" style="stop-color:#FE8F2E"/>
			<stop  offset="1" style="stop-color:#FEAA5E"/>
		</linearGradient>
		<circle class="st0" cx="23.66" cy="21.63" r="21.63"/>
		
			<linearGradient id="SVGID_00000150788243716118602270000012759958253446144930_" gradientUnits="userSpaceOnUse" x1="23.6577" y1="41.8678" x2="23.6577" y2="1.3891">
			<stop  offset="0" style="stop-color:#FE963E"/>
			<stop  offset="1" style="stop-color:#FE4A49"/>
		</linearGradient>
		<circle style="fill:url(#SVGID_00000150788243716118602270000012759958253446144930_);" cx="23.66" cy="21.63" r="20.24"/>
		
			<linearGradient id="SVGID_00000133509761995987485030000011654914920614925994_" gradientUnits="userSpaceOnUse" x1="23.6577" y1="41.0691" x2="23.6577" y2="2.1878">
			<stop  offset="0" style="stop-color:#FF6C34"/>
			<stop  offset="1" style="stop-color:#7815F2"/>
		</linearGradient>
		<circle style="fill:url(#SVGID_00000133509761995987485030000011654914920614925994_);" cx="23.66" cy="21.63" r="19.44"/>
		
			<linearGradient id="SVGID_00000168084488581428204200000014005641277647366333_" gradientUnits="userSpaceOnUse" x1="23.6577" y1="50" x2="23.6577" y2="29.7754">
			<stop  offset="0" style="stop-color:#FF4ECA"/>
			<stop  offset="1" style="stop-color:#7D10D4"/>
		</linearGradient>
		<path style="fill:url(#SVGID_00000168084488581428204200000014005641277647366333_);" d="M35.45,48.2
			c0.12,1.22-1.11,2.12-2.23,1.64l-5.57-2.36l-3.96-1.68l-3.96,1.68l-5.63,2.39c-1.11,0.47-2.32-0.4-2.23-1.6l1.41-18.49h20.37
			L35.45,48.2z"/>
		<polygon class="st4" points="27.65,33.82 27.65,47.49 23.69,45.81 19.73,47.49 19.73,33.82 		"/>
		<defs>
			<filter id="Adobe_OpacityMaskFilter" filterUnits="userSpaceOnUse" x="8.19" y="7.94" width="30.93" height="30.93">
				<feFlood  style="flood-color:white;flood-opacity:1" result="back"/>
				<feBlend  in="SourceGraphic" in2="back" mode="normal"/>
			</filter>
		</defs>
		
			<mask maskUnits="userSpaceOnUse" x="8.19" y="7.94" width="30.93" height="30.93" id="SVGID_00000116952535671152644140000004255337645809794948_">
			<g class="st5">
				<defs>
					
						<filter id="Adobe_OpacityMaskFilter_00000031911461027022130890000012676903016882667696_" filterUnits="userSpaceOnUse" x="8.19" y="7.94" width="30.93" height="30.93">
						<feFlood  style="flood-color:white;flood-opacity:1" result="back"/>
						<feBlend  in="SourceGraphic" in2="back" mode="normal"/>
					</filter>
				</defs>
				
					<mask maskUnits="userSpaceOnUse" x="8.19" y="7.94" width="30.93" height="30.93" id="SVGID_00000116952535671152644140000004255337645809794948_">
				</mask>
				
					<linearGradient id="SVGID_00000116955932682090779790000004217213510899808667_" gradientUnits="userSpaceOnUse" x1="23.6577" y1="38.8767" x2="23.6577" y2="7.943">
					<stop  offset="0" style="stop-color:#1A1A1A"/>
					<stop  offset="1" style="stop-color:#FFFFFF"/>
				</linearGradient>
				
					<path style="mask:url(#SVGID_00000116952535671152644140000004255337645809794948_);fill:url(#SVGID_00000116955932682090779790000004217213510899808667_);" d="
					M26.16,9.06L26.16,9.06c2.13-2.36,6.03-0.74,5.87,2.43v0c-0.1,2,1.54,3.64,3.54,3.54h0c3.17-0.16,4.79,3.74,2.43,5.87l0,0
					c-1.48,1.34-1.48,3.67,0,5.01l0,0c2.36,2.13,0.74,6.03-2.43,5.87h0c-2-0.1-3.64,1.54-3.54,3.54v0c0.16,3.17-3.74,4.79-5.87,2.43
					l0,0c-1.34-1.48-3.67-1.48-5.01,0l0,0c-2.13,2.36-6.03,0.74-5.87-2.43v0c0.1-2-1.54-3.64-3.54-3.54h0
					c-3.17,0.16-4.79-3.74-2.43-5.87l0,0c1.48-1.34,1.48-3.67,0-5.01l0,0c-2.36-2.13-0.74-6.03,2.43-5.87h0
					c2,0.1,3.64-1.54,3.54-3.54v0c-0.16-3.17,3.74-4.79,5.87-2.43l0,0C22.49,10.55,24.82,10.55,26.16,9.06z"/>
			</g>
		</mask>
		
			<linearGradient id="SVGID_00000105391538026810039930000008772418746784019337_" gradientUnits="userSpaceOnUse" x1="23.6577" y1="38.8767" x2="23.6577" y2="7.943">
			<stop  offset="0" style="stop-color:#000000"/>
			<stop  offset="1" style="stop-color:#000000"/>
		</linearGradient>
		<path style="fill:url(#SVGID_00000105391538026810039930000008772418746784019337_);" d="M26.16,9.06L26.16,9.06
			c2.13-2.36,6.03-0.74,5.87,2.43v0c-0.1,2,1.54,3.64,3.54,3.54h0c3.17-0.16,4.79,3.74,2.43,5.87l0,0c-1.48,1.34-1.48,3.67,0,5.01
			l0,0c2.36,2.13,0.74,6.03-2.43,5.87h0c-2-0.1-3.64,1.54-3.54,3.54v0c0.16,3.17-3.74,4.79-5.87,2.43l0,0
			c-1.34-1.48-3.67-1.48-5.01,0l0,0c-2.13,2.36-6.03,0.74-5.87-2.43v0c0.1-2-1.54-3.64-3.54-3.54h0c-3.17,0.16-4.79-3.74-2.43-5.87
			l0,0c1.48-1.34,1.48-3.67,0-5.01l0,0c-2.36-2.13-0.74-6.03,2.43-5.87h0c2,0.1,3.64-1.54,3.54-3.54v0
			c-0.16-3.17,3.74-4.79,5.87-2.43l0,0C22.49,10.55,24.82,10.55,26.16,9.06z"/>
		
			<linearGradient id="SVGID_00000025436296541607933340000016662856326149337533_" gradientUnits="userSpaceOnUse" x1="8.1908" y1="21.6284" x2="39.1245" y2="21.6284">
			<stop  offset="0" style="stop-color:#FFFFFF"/>
			<stop  offset="1" style="stop-color:#F7C0D5"/>
		</linearGradient>
		<path style="fill:url(#SVGID_00000025436296541607933340000016662856326149337533_);" d="M26.16,7.28L26.16,7.28
			c2.13-2.36,6.03-0.74,5.87,2.43v0c-0.1,2,1.54,3.64,3.54,3.54h0c3.17-0.16,4.79,3.74,2.43,5.87l0,0c-1.48,1.34-1.48,3.67,0,5.01
			l0,0c2.36,2.13,0.74,6.03-2.43,5.87h0c-2-0.1-3.64,1.54-3.54,3.54v0c0.16,3.17-3.74,4.79-5.87,2.43l0,0
			c-1.34-1.48-3.67-1.48-5.01,0l0,0c-2.13,2.36-6.03,0.74-5.87-2.43v0c0.1-2-1.54-3.64-3.54-3.54h0c-3.17,0.16-4.79-3.74-2.43-5.87
			l0,0c1.48-1.34,1.48-3.67,0-5.01l0,0c-2.36-2.13-0.74-6.03,2.43-5.87h0c2,0.1,3.64-1.54,3.54-3.54v0
			c-0.16-3.17,3.74-4.79,5.87-2.43l0,0C22.49,8.77,24.82,8.77,26.16,7.28z"/>
		
			<linearGradient id="SVGID_00000132077466360140631040000016655276434130129025_" gradientUnits="userSpaceOnUse" x1="23.6577" y1="31.9397" x2="23.6577" y2="11.3172">
			<stop  offset="0" style="stop-color:#7B17E5"/>
			<stop  offset="1" style="stop-color:#F96A19"/>
		</linearGradient>
		<circle style="fill:url(#SVGID_00000132077466360140631040000016655276434130129025_);" cx="23.66" cy="21.63" r="10.31"/>
		<path class="st4" d="M24.32,16.51l1.26,2.56c0.11,0.22,0.32,0.37,0.56,0.4l2.82,0.41c0.61,0.09,0.85,0.83,0.41,1.26l-2.04,1.99
			c-0.17,0.17-0.25,0.41-0.21,0.65l0.48,2.81c0.1,0.6-0.53,1.06-1.07,0.78L24,26.06c-0.22-0.11-0.47-0.11-0.69,0l-2.53,1.33
			c-0.54,0.29-1.18-0.18-1.07-0.78l0.48-2.81c0.04-0.24-0.04-0.48-0.21-0.65l-2.04-1.99c-0.44-0.43-0.2-1.17,0.41-1.26l2.82-0.41
			c0.24-0.03,0.45-0.19,0.56-0.4l1.26-2.56C23.27,15.96,24.05,15.96,24.32,16.51z"/>
	</g>
	<g>
		<path class="st13" d="M4.96,24.61L4.96,24.61c0-1.06-0.86-1.92-1.92-1.92v0c1.06,0,1.92-0.86,1.92-1.92h0
			c0,1.06,0.86,1.92,1.92,1.92v0C5.82,22.7,4.96,23.55,4.96,24.61z"/>
		<circle class="st13" cx="1.11" cy="29.04" r="1.11"/>
		<circle class="st13" cx="38.12" cy="7.87" r="1.19"/>
		<path class="st13" d="M41.33,2.75c0,0.34-0.27,0.61-0.61,0.61c-0.34,0-0.61-0.27-0.61-0.61s0.27-0.61,0.61-0.61
			C41.06,2.15,41.33,2.42,41.33,2.75z"/>
		<path class="st13" d="M44.34,41.11L44.34,41.11c0-1.64-1.33-2.98-2.98-2.98v0c1.64,0,2.98-1.33,2.98-2.98h0
			c0,1.64,1.33,2.98,2.98,2.98v0C45.67,38.13,44.34,39.47,44.34,41.11z"/>
	</g>
</g>
</svg>
