<svg id="Layer_1" data-name="Layer 1" xmlns="http://www.w3.org/2000/svg" viewBox="0 0 28 28"><defs><style>.cls-1{fill:#add8e6;}</style></defs><path class="cls-1" d="M26.43,20.94a5.6,5.6,0,0,1,.05-.6A14,14,0,0,0,14,0h-.48A14,14,0,0,0,0,14.47,13.94,13.94,0,0,0,14,28h.48a13.49,13.49,0,0,0,3.28-.52c.42,0,.77-.11,1.11-.18a7.76,7.76,0,0,1,1.72-.2,11.63,11.63,0,0,1,3.56.67l.37.11A1.85,1.85,0,0,0,25,28h0a2.09,2.09,0,0,0,1.21-.36A2.14,2.14,0,0,0,27.08,26a1.36,1.36,0,0,0,0-.41A21.71,21.71,0,0,1,26.43,20.94Zm-6.14-1.09H17.41l0-1a5.39,5.39,0,0,1-3.48,1.24c-3.76,0-6.19-2.37-6.19-6s2.53-6.1,6.29-6.1,6.29,2.45,6.29,6.1Zm-6.18-9A3,3,0,0,0,11,14a3,3,0,0,0,3.16,3.21,3.15,3.15,0,0,0,3.13-2.43c0-.12,0-.72,0-.78A3,3,0,0,0,14.11,10.83Z"/></svg>