<svg id="Layer_1" data-name="Layer 1" xmlns="http://www.w3.org/2000/svg" viewBox="0 0 28 28"><defs><style>.cls-1{fill:#add8e6;}</style></defs><path class="cls-1" d="M14,2a.37.37,0,0,1,.36.25l2.57,6.34.31.78a1.32,1.32,0,0,0,1.07.81l.81.07,6.56.58a.38.38,0,0,1,.34.28.41.41,0,0,1-.12.43l-5,4.52-.61.55a1.37,1.37,0,0,0-.41,1.31l.19.83,1.49,6.71a.37.37,0,0,1-.06.33.4.4,0,0,1-.31.17.36.36,0,0,1-.2-.06l-5.65-3.57-.69-.43a1.24,1.24,0,0,0-1.32,0l-.69.43L7,25.92a.36.36,0,0,1-.2.06.4.4,0,0,1-.31-.17.37.37,0,0,1-.06-.33l1.49-6.72.19-.82a1.37,1.37,0,0,0-.41-1.31l-.61-.55-5-4.52A.41.41,0,0,1,2,11.13a.38.38,0,0,1,.34-.28l6.57-.58.8-.07a1.32,1.32,0,0,0,1.07-.81l.31-.78,2.57-6.34A.37.37,0,0,1,14,2m0-2a1.73,1.73,0,0,0-1.61,1.11L9.69,7.79l-.34.81-.84.08L1.6,9.29a1.84,1.84,0,0,0-1,3.2l5.25,4.75.64.59-.19.86L4.73,25.75A1.81,1.81,0,0,0,6.43,28a1.62,1.62,0,0,0,.9-.27L13.27,24l.73-.46.73.46,5.94,3.74a1.62,1.62,0,0,0,.9.27,1.81,1.81,0,0,0,1.7-2.25l-1.58-7.06-.19-.86.64-.59,5.25-4.75a1.84,1.84,0,0,0-1-3.2l-6.91-.61-.84-.08-.34-.81-2.7-6.68A1.73,1.73,0,0,0,14,0Z"/></svg>