<svg id="Layer_1" data-name="Layer 1" xmlns="http://www.w3.org/2000/svg" viewBox="0 0 35.62 28"><defs><style>.cls-1{fill:#add8e6;}</style></defs><path class="cls-1" d="M18.87,6.51A6.52,6.52,0,1,1,12.36,0,6.52,6.52,0,0,1,18.87,6.51Z"/><path class="cls-1" d="M24,26.19A4,4,0,0,1,20.62,28H4.1A4.11,4.11,0,0,1,.3,22.35a13,13,0,0,1,24.11,0A4.07,4.07,0,0,1,24,26.19Z"/><path class="cls-1" d="M30.93,8.67a5.38,5.38,0,1,1-5.37-5.38A5.39,5.39,0,0,1,30.93,8.67Z"/><path class="cls-1" d="M35.62,22.62a3.43,3.43,0,0,1-3.43,3.44h-5.8a.74.74,0,0,1-.61-.31.72.72,0,0,1-.11-.68,3.69,3.69,0,0,0,0-2.39,14.24,14.24,0,0,0-4.11-6,.75.75,0,0,1-.27-.7.79.79,0,0,1,.48-.58,10.42,10.42,0,0,1,3.83-.72,10.54,10.54,0,0,1,9.81,6.61A3.37,3.37,0,0,1,35.62,22.62Z"/></svg>