<svg id="Layer_1" data-name="Layer 1" xmlns="http://www.w3.org/2000/svg" viewBox="0 0 28 28"><defs><style>.cls-1{fill:#add8e6;}</style></defs><path class="cls-1" d="M25.93,15.07A6.16,6.16,0,0,0,28,10.42a6.43,6.43,0,0,0-6.13-6.33A4.28,4.28,0,0,0,14,2a4.33,4.33,0,0,0-3.58-2A4.36,4.36,0,0,0,6.13,4.09,6.43,6.43,0,0,0,0,10.42c0,.22,0,.44,0,.65a6.1,6.1,0,0,0,2,4,6.39,6.39,0,0,0,4.2,9.8A4.28,4.28,0,0,0,10.42,28,4.33,4.33,0,0,0,14,26a4.33,4.33,0,0,0,3.58,2,4.28,4.28,0,0,0,4.15-3.13,6.31,6.31,0,0,0,5.2-5.51.7.7,0,0,0,.05-.25c0-.08,0-.16,0-.25s0-.17,0-.26A6.37,6.37,0,0,0,25.93,15.07ZM10.42,26.56a2.91,2.91,0,0,1-2.87-2.47.7.7,0,0,0-.65-.59,4.87,4.87,0,0,1-4.44-4.9,5,5,0,0,1,.79-2.68,6.17,6.17,0,0,0,3.09.84.72.72,0,1,0,0-1.43,4.83,4.83,0,0,1-2.73-.86.54.54,0,0,0-.15-.15,5,5,0,0,1-.67-.55,5,5,0,0,1-1.1-1.83l-.06-.18c0-.09,0-.18-.07-.28l-.06-.32,0-.19A4.91,4.91,0,0,1,6.32,5.52a4.84,4.84,0,0,0,1.25,2,.71.71,0,0,0,1,0,.72.72,0,0,0,0-1,3.14,3.14,0,0,1-1-2.25,2.86,2.86,0,0,1,5.71,0V23.71A2.89,2.89,0,0,1,10.42,26.56ZM21.1,23.5a.7.7,0,0,0-.65.59,2.88,2.88,0,0,1-5.73-.38V4.29a2.86,2.86,0,0,1,5.71,0V4.8a.72.72,0,0,0,.72.72h.51a5,5,0,0,1,4.9,4.9,4.69,4.69,0,0,1-2,3.9h0a5.89,5.89,0,0,0-3.38-1.05.72.72,0,1,0,0,1.44,4.34,4.34,0,0,1,4.38,4.14A4.86,4.86,0,0,1,21.1,23.5Z"/></svg>