<svg id="Layer_1" data-name="Layer 1" xmlns="http://www.w3.org/2000/svg" viewBox="0 0 25.28 28"><defs><style>.cls-1{fill:#add8e6;}</style></defs><path class="cls-1" d="M23.35,10.66,5.8.54a3.74,3.74,0,0,0-3.86,0A3.8,3.8,0,0,0,0,3.88V24.14a3.8,3.8,0,0,0,1.94,3.34A3.85,3.85,0,0,0,3.87,28a4,4,0,0,0,1.94-.52L23.35,17.35a3.86,3.86,0,0,0,0-6.69Zm-8.2,3.95c-3.17.57-4,1.44-4.62,4.61a.56.56,0,0,1-.6.47.57.57,0,0,1-.61-.45c-.58-3.19-1.44-4.06-4.62-4.63A.58.58,0,0,1,4.23,14a.57.57,0,0,1,.46-.6C7.88,12.82,8.74,12,9.32,8.78a.56.56,0,0,1,.61-.46.55.55,0,0,1,.6.45C11.11,12,12,12.82,15.15,13.4a.56.56,0,0,1,.47.6A.57.57,0,0,1,15.15,14.61Z"/></svg>