<svg id="Layer_1" data-name="Layer 1" xmlns="http://www.w3.org/2000/svg" viewBox="0 0 34.53 28"><defs><style>.cls-1{fill:#add8e6;}</style></defs><path class="cls-1" d="M34.51,14.18,32.6,23.72a4.26,4.26,0,0,1-3.22,3.35,32.31,32.31,0,0,1-7.3.93c-.46,0-.92,0-1.39,0a42.19,42.19,0,0,1-8.29-1.45.91.91,0,0,1-.67-.42.89.89,0,0,1-.13-.56V14.33c0-.08,0-.19,0-.33a2.62,2.62,0,0,1,.06-.8,1.38,1.38,0,0,1,.41-.63,8.45,8.45,0,0,0,1.62-1.26,9.65,9.65,0,0,0,2-2.88l2.95-6.74A2.82,2.82,0,0,1,24,3.28l-.83,5a2.24,2.24,0,0,0,2.22,2.62h6.44a2.74,2.74,0,0,1,2.67,3.26Z"/><path class="cls-1" d="M10.15,14V25.34a2.73,2.73,0,0,1-.07.64A2.66,2.66,0,0,1,7.5,28H2.64A2.66,2.66,0,0,1,0,25.34V14a2.66,2.66,0,0,1,2.66-2.66H7.5A2.66,2.66,0,0,1,10.15,14Z"/></svg>