<svg id="Layer_1" data-name="Layer 1" xmlns="http://www.w3.org/2000/svg" viewBox="0 0 28 28"><defs><style>.cls-1{fill:#add8e6;}</style></defs><path class="cls-1" d="M18,0A3.23,3.23,0,0,0,14.8,3.18V24.81a3.21,3.21,0,0,0,6.38.44.8.8,0,0,1,.73-.66,5.43,5.43,0,0,0,4.94-5.18A4.83,4.83,0,0,0,22,14.8a.8.8,0,0,1,0-1.6,6.53,6.53,0,0,1,3.76,1.17l0,0A5.22,5.22,0,0,0,28,10a5.53,5.53,0,0,0-5.46-5.46H22a.8.8,0,0,1-.8-.8V3.18A3.23,3.23,0,0,0,18,0Z"/><path class="cls-1" d="M6.09,24.59a.8.8,0,0,1,.73.66,3.21,3.21,0,0,0,6.38-.44V3.18a3.19,3.19,0,0,0-6.37,0A3.49,3.49,0,0,0,8,5.69.8.8,0,0,1,8,6.82a.77.77,0,0,1-.56.24.8.8,0,0,1-.57-.24A5.35,5.35,0,0,1,5.44,4.55,5.54,5.54,0,0,0,0,10a4.08,4.08,0,0,0,0,.61l0,.22c0,.12,0,.24.07.35a2.81,2.81,0,0,0,.08.31l.06.2a5.55,5.55,0,0,0,1.24,2,3.88,3.88,0,0,0,.73.61.77.77,0,0,1,.18.18,5.41,5.41,0,0,0,3,1,.8.8,0,0,1,0,1.6A6.9,6.9,0,0,1,2,16.14a5.51,5.51,0,0,0-.88,3A5.43,5.43,0,0,0,6.09,24.59Z"/></svg>